<?xml version="1.0" standalone="no"?>
<!DOCTYPE svg PUBLIC "-//W3C//DTD SVG 1.1//EN" "http://www.w3.org/Graphics/SVG/1.1/DTD/svg11.dtd" >
<svg xmlns="http://www.w3.org/2000/svg">
<metadata></metadata>
<defs>
<font id="fira_sans_otitalic" horiz-adv-x="560" >
<font-face units-per-em="1000" ascent="800" descent="-200" />
<missing-glyph horiz-adv-x="265" />
<glyph unicode="&#xd;" horiz-adv-x="265" />
<glyph unicode=" "  horiz-adv-x="265" />
<glyph unicode="&#x09;" horiz-adv-x="265" />
<glyph unicode="&#xa0;" horiz-adv-x="265" />
<glyph unicode="!" horiz-adv-x="265" d="M165 238l-82 -14l42 465h110zM36 58q0 29 20 49t49 20q30 0 50 -20t20 -49t-20 -49.5t-50 -20.5q-29 0 -49 20.5t-20 49.5z" />
<glyph unicode="&#x22;" horiz-adv-x="455" d="M209 427h-68v262h99zM389 427h-68v262h99z" />
<glyph unicode="#" horiz-adv-x="500" d="M516 435h-86l-51 -199h79l-9 -69h-89l-41 -167h-78l42 167h-140l-42 -167h-78l42 167h-76l9 69h85l52 199h-80l8 70h89l42 164h78l-43 -164h141l42 164h78l-43 -164h77zM212 435l-51 -199h140l52 199h-141z" />
<glyph unicode="$" horiz-adv-x="503" d="M482 194q0 -83 -64 -142t-168 -64l-17 -142h-79l18 147q-106 15 -174 86l58 59q47 -40 87 -55t89 -15q65 0 107.5 33.5t42.5 85.5q0 45 -27.5 72.5t-104.5 51.5q-105 33 -147 77t-42 115q0 68 53.5 116t144.5 53l16 153h78l-17 -156q88 -12 159 -72l-53 -61 q-69 59 -162 59q-58 0 -89 -23.5t-31 -65.5q0 -40 28 -66t113 -55q99 -33 139 -76.5t42 -114.5z" />
<glyph unicode="%" horiz-adv-x="850" d="M738 668l-549 -697l-62 40l548 697zM273 617q-41 0 -66 -31.5t-25 -90.5q0 -45 19.5 -68.5t54.5 -23.5q43 0 67 30.5t24 90.5q0 45 -20 69t-54 24zM429 528q0 -82 -43.5 -134.5t-127.5 -52.5q-70 0 -113.5 41t-43.5 109q0 90 45.5 139t126.5 49q69 0 112 -43t44 -108z M605 264q-41 0 -66 -32t-25 -93q0 -43 20.5 -66t54.5 -23q90 0 90 121q0 45 -20 69t-54 24zM761 175q0 -82 -43 -134.5t-127 -52.5q-71 0 -114.5 41t-43.5 109q0 90 45.5 139t126.5 49q69 0 112 -43t44 -108z" />
<glyph unicode="&#x26;" horiz-adv-x="863" d="M314 66q136 0 236.5 90.5t135.5 244.5h-110l9 76h310l-9 -76h-110q-16 -82 -56 -155t-98.5 -131.5t-141 -92.5t-176.5 -34q-122 0 -190.5 65.5t-68.5 193.5q0 166 91 269t207 103q74 0 120 -39.5t46 -101.5q0 -100 -99 -164t-268 -75q2 -91 43.5 -132t128.5 -41zM339 543 q-67 0 -123.5 -62.5t-70.5 -171.5q265 21 265 167q0 67 -71 67z" />
<glyph unicode="'" horiz-adv-x="275" d="M209 427h-68v262h99z" />
<glyph unicode="(" horiz-adv-x="325" d="M346 802q-211 -250 -211 -533q0 -113 26 -199.5t78 -171.5l-65 -40q-75 127 -104.5 214.5t-29.5 196.5q0 172 67 311.5t182 262.5z" />
<glyph unicode=")" horiz-adv-x="325" d="M47 -142l-55 41q211 250 211 533q0 113 -26 199.5t-78 171.5l67 40q74 -126 103 -214.5t29 -196.5q0 -172 -67.5 -311t-183.5 -263z" />
<glyph unicode="*" horiz-adv-x="440" d="M305 738l-16 -153l140 60l27 -85l-147 -32l105 -109l-73 -55l-80 130l-75 -132l-75 51l101 115l-148 32l27 85l139 -60l-15 153h90z" />
<glyph unicode="+" horiz-adv-x="500" d="M70 349h145l18 150h84l-18 -150h146l-10 -76h-146l-18 -149h-84l18 149h-145z" />
<glyph unicode="," horiz-adv-x="265" d="M30 58q0 29 20.5 49t51.5 20q29 0 48 -18.5t19 -46.5q0 -30 -27 -75l-89 -153h-66l66 171q-23 20 -23 53z" />
<glyph unicode="-" horiz-adv-x="405" d="M342 274h-283l11 78h283z" />
<glyph unicode="." horiz-adv-x="265" d="M32 58q0 29 20 49t49 20q30 0 50 -20t20 -49t-20 -49.5t-50 -20.5q-29 0 -49 20.5t-20 49.5z" />
<glyph unicode="/" horiz-adv-x="520" d="M496 783l-389 -886l-76 28l390 885z" />
<glyph unicode="0" d="M314 606q-68 0 -116 -93.5t-48 -262.5q0 -189 108 -189q52 0 90 52.5t56 133t18 175.5q0 184 -108 184zM516 438q0 -52 -6 -106t-24 -118t-46.5 -112.5t-77.5 -81t-112 -32.5q-96 0 -145.5 68t-49.5 194q0 212 75.5 320.5t191.5 108.5q87 0 139.5 -61.5t54.5 -179.5z" />
<glyph unicode="1" horiz-adv-x="402" d="M266 0h-90l69 568l-160 -93l-37 67l222 127h79z" />
<glyph unicode="2" horiz-adv-x="505" d="M457 519q0 -37 -12 -75.5t-27 -69t-46.5 -68t-53 -61t-64.5 -61t-63.5 -54t-66.5 -53.5h295l-20 -77h-390l9 73q213 189 278 269t65 160q0 49 -25.5 75t-70.5 26q-71 0 -145 -74l-59 51q95 99 219 99q80 0 128.5 -44t48.5 -116z" />
<glyph unicode="3" horiz-adv-x="502" d="M436 206q0 -99 -64 -158.5t-167 -59.5q-64 0 -120.5 26.5t-89.5 73.5l66 50q57 -75 146 -75q62 0 97.5 37t35.5 104q0 51 -29.5 80.5t-90.5 29.5h-43l20 71h27q58 0 96.5 36.5t38.5 93.5q0 42 -26.5 66t-73.5 24q-66 0 -143 -61l-43 58q95 77 196 77q80 0 132 -43 t52 -111q0 -56 -38.5 -104.5t-105.5 -63.5l-1 -4q57 -10 91.5 -50.5t36.5 -96.5z" />
<glyph unicode="4" horiz-adv-x="524" d="M477 165h-87l-21 -165h-89l21 165h-278l7 66l247 448l74 -32l-221 -409h179l36 180h75l-22 -180h87z" />
<glyph unicode="5" horiz-adv-x="515" d="M458 240q0 -111 -64.5 -181.5t-176.5 -70.5q-61 0 -118 22.5t-92 67.5l64 51q25 -32 67 -49t79 -17q69 0 107 45t38 126q0 60 -28 90.5t-78 30.5q-40 0 -94 -24h-72l43 338h360l-20 -73h-262l-27 -195q56 25 108 25q73 0 119 -49.5t47 -136.5z" />
<glyph unicode="6" horiz-adv-x="535" d="M342 606q-61 0 -115 -68t-73 -188q73 90 164 90q68 0 116.5 -49.5t48.5 -132.5q0 -124 -66.5 -197t-162.5 -73q-200 0 -200 249q0 206 82.5 324t208.5 118q89 0 139 -40l-46 -62q-40 29 -96 29zM293 367q-80 0 -147 -96q-1 -12 -1 -36q0 -94 25 -134t82 -40q60 0 99 52.5 t39 138.5q0 58 -27 86.5t-70 28.5z" />
<glyph unicode="7" horiz-adv-x="443" d="M453 600l-309 -610l-83 29l298 575h-296l10 75h389z" />
<glyph unicode="8" horiz-adv-x="556" d="M507 528q0 -110 -129 -170q119 -51 119 -162q0 -88 -66.5 -148t-181.5 -60q-95 0 -156.5 50t-61.5 124q0 131 158 189q-88 48 -88 142q0 85 55 135.5t159 50.5q84 0 137.5 -42t54.5 -109zM251 61q65 0 107 39t42 94q0 44 -33 74t-122 59q-118 -55 -118 -162 q0 -47 33.5 -75.5t90.5 -28.5zM313 610q-56 0 -88.5 -30.5t-32.5 -82.5q0 -40 27.5 -67t97.5 -49q99 51 99 137q0 42 -27.5 67t-75.5 25z" />
<glyph unicode="9" horiz-adv-x="534" d="M69 50q134 36 217.5 103.5t102.5 164.5l-2 1q-67 -76 -157 -76q-68 0 -116 50.5t-48 139.5q0 111 62.5 178.5t164.5 67.5q92 0 147 -56.5t55 -152.5q0 -210 -101.5 -327.5t-310.5 -164.5zM255 315q80 0 142 82q5 35 5 74q0 67 -32 101t-80 34q-59 0 -95 -44t-36 -123 q0 -58 26.5 -91t69.5 -33z" />
<glyph unicode=":" horiz-adv-x="265" d="M32 58q0 29 20 49t49 20q30 0 50 -20t20 -49t-20 -49.5t-50 -20.5q-29 0 -49 20.5t-20 49.5zM84 431q0 29 20 49t49 20q30 0 50 -20t20 -49t-20 -49.5t-50 -20.5q-29 0 -49 20.5t-20 49.5z" />
<glyph unicode=";" horiz-adv-x="265" d="M30 58q0 29 20.5 49t51.5 20q29 0 48 -18.5t19 -46.5q0 -30 -27 -75l-89 -153h-66l66 171q-23 20 -23 53zM84 431q0 29 20 49t49 20q30 0 50 -20t20 -49t-20 -49.5t-50 -20.5q-29 0 -49 20.5t-20 49.5z" />
<glyph unicode="&#x3c;" horiz-adv-x="500" d="M398 115l-336 171l12 94l378 171l28 -75l-339 -145l301 -142z" />
<glyph unicode="=" horiz-adv-x="500" d="M424 176h-376l9 78h376zM448 368h-376l9 78h376z" />
<glyph unicode="&#x3e;" horiz-adv-x="500" d="M114 551l336 -171l-12 -94l-378 -171l-28 75l339 145l-301 142z" />
<glyph unicode="?" horiz-adv-x="507" d="M115 58q0 29 20 49t49 20q30 0 50 -20t20 -49t-20 -49.5t-50 -20.5q-29 0 -49 20.5t-20 49.5zM227 263q0 -17 3 -29l-82 -14q-10 25 -10 50q0 50 24.5 85.5t59.5 55.5t70 37.5t59.5 43.5t24.5 61t-25.5 53.5t-71.5 18.5q-75 0 -143 -72l-59 54q93 94 209 94 q84 0 135 -41.5t51 -98.5q0 -42 -13.5 -74t-35 -51t-47.5 -34t-52.5 -27.5t-48 -26t-35 -35t-13.5 -50.5z" />
<glyph unicode="@" horiz-adv-x="1020" d="M670 -103l16 -71q-117 -39 -223 -39q-185 0 -294.5 104t-109.5 281q0 232 140 380.5t367 148.5q179 0 284 -94.5t105 -244.5q0 -146 -63.5 -249.5t-168.5 -103.5q-47 0 -79.5 27t-34.5 76l-4 1q-25 -48 -66.5 -73.5t-89.5 -25.5q-67 0 -109 47.5t-42 135.5 q0 142 69.5 218.5t177.5 76.5q82 0 158 -40l-35 -284q-10 -88 57 -88q58 0 97.5 75t39.5 204q0 123 -78.5 194.5t-218.5 71.5q-188 0 -300 -124.5t-112 -323.5q0 -145 83 -229.5t229 -84.5q105 0 205 34zM540 426q-70 0 -111 -57t-41 -171q0 -59 22.5 -88t57.5 -29 q73 0 117 86l30 242q-32 17 -75 17z" />
<glyph unicode="A" horiz-adv-x="569" d="M436 0l-31 173h-266l-74 -173h-99l308 689h120l139 -689h-97zM323 603l-151 -353h219l-64 353h-4z" />
<glyph unicode="B" horiz-adv-x="616" d="M291 77q162 0 162 138q0 110 -129 110h-124l-31 -248h122zM325 398q66 0 102.5 35t36.5 97q0 84 -127 84h-102l-27 -216h117zM554 215q0 -100 -72.5 -157.5t-206.5 -57.5h-210l84 689h187q111 0 168.5 -42.5t57.5 -116.5q0 -54 -38 -101t-101 -61l-1 -4 q61 -11 96.5 -51.5t35.5 -97.5z" />
<glyph unicode="C" horiz-adv-x="565" d="M324 70q43 0 77 13.5t75 46.5l46 -65q-87 -77 -211 -77q-114 0 -182 74.5t-68 217.5q0 190 95 305.5t230 115.5q117 0 192 -74l-57 -56q-59 51 -137 51q-92 0 -157 -88.5t-65 -253.5q0 -210 162 -210z" />
<glyph unicode="D" horiz-adv-x="652" d="M255 75q113 0 182.5 86t69.5 250q0 202 -202 202h-70l-66 -538h86zM607 415q0 -196 -95.5 -305.5t-261.5 -109.5h-185l84 689h163q137 0 216 -71t79 -203z" />
<glyph unicode="E" horiz-adv-x="530" d="M502 613h-267l-28 -225h232l-9 -76h-232l-29 -236h286l-9 -76h-381l84 689h373z" />
<glyph unicode="F" horiz-adv-x="496" d="M495 613h-260l-29 -235h225l-9 -75h-225l-37 -303h-95l84 689h366z" />
<glyph unicode="G" horiz-adv-x="630" d="M321 -12q-260 0 -260 297q0 196 97 306t236 110q123 0 205 -76l-61 -58q-63 56 -150 56q-94 0 -160.5 -89t-66.5 -251q0 -217 168 -217q67 0 128 35l25 201h-130l-3 77h235l-40 -326q-98 -65 -223 -65z" />
<glyph unicode="H" horiz-adv-x="669" d="M535 0h-95l39 323h-280l-39 -323h-95l84 689h95l-35 -288h280l35 288h95z" />
<glyph unicode="I" horiz-adv-x="294" d="M160 0h-95l84 689h95z" />
<glyph unicode="J" horiz-adv-x="296" d="M-29 -139l-19 78q70 24 97.5 60t35.5 108l71 582h95l-73 -595q-12 -98 -59.5 -151.5t-147.5 -81.5z" />
<glyph unicode="K" horiz-adv-x="579" d="M244 689l-84 -689h-95l84 689h95zM442 0l-232 368l299 321h110l-302 -324l237 -365h-112z" />
<glyph unicode="L" horiz-adv-x="493" d="M432 0h-367l84 689h95l-75 -606h283z" />
<glyph unicode="M" horiz-adv-x="786" d="M694 0h-92l13 353q4 144 16 229h-4l-216 -509h-91l-97 509h-4q-17 -130 -37 -229l-70 -353h-90l141 689h125l89 -503h4l208 503h132z" />
<glyph unicode="N" horiz-adv-x="678" d="M544 0h-126l-201 583h-4q0 -106 -17 -247l-41 -336h-90l84 689h123l204 -586h4q0 101 18 250l41 336h89z" />
<glyph unicode="O" horiz-adv-x="688" d="M642 416q0 -79 -19 -152.5t-56.5 -136.5t-102.5 -101t-148 -38q-117 0 -186 73t-69 210q0 78 19 151.5t56.5 137.5t102.5 102.5t148 38.5q116 0 185.5 -74t69.5 -211zM317 66q64 0 110 33.5t69.5 89.5t34 114.5t10.5 121.5q0 198 -155 198q-63 0 -109.5 -34t-70 -89.5 t-34.5 -113.5t-11 -120q0 -200 156 -200z" />
<glyph unicode="P" horiz-adv-x="581" d="M303 328q80 0 125.5 44t45.5 127q0 116 -158 116h-81l-35 -287h103zM574 501q0 -115 -73.5 -181.5t-200.5 -66.5h-109l-31 -253h-95l84 689h172q122 0 187.5 -49.5t65.5 -138.5z" />
<glyph unicode="Q" horiz-adv-x="688" d="M642 416q0 -277 -180 -374l-1 -3q113 -6 185 -60l-72 -82q-52 52 -109.5 72.5t-150.5 20.5q-117 1 -185 72.5t-68 208.5q0 78 19 151.5t56.5 137.5t102.5 102.5t148 38.5q116 0 185.5 -74t69.5 -211zM317 66q64 0 110 33.5t69.5 89.5t34 114.5t10.5 121.5q0 198 -155 198 q-63 0 -109.5 -34t-70 -89.5t-34.5 -113.5t-11 -120q0 -200 156 -200z" />
<glyph unicode="R" horiz-adv-x="595" d="M570 516q0 -82 -49.5 -138.5t-132.5 -73.5l157 -304h-108l-141 292h-101l-35 -292h-95l84 689h172q122 0 185.5 -45.5t63.5 -127.5zM308 365q76 0 118 38.5t42 110.5q0 101 -151 101h-82l-31 -250h104z" />
<glyph unicode="S" horiz-adv-x="530" d="M487 204q0 -90 -71 -153t-181 -63q-72 0 -133 25t-101 67l60 60q47 -41 86.5 -56.5t87.5 -15.5q64 0 108 37.5t44 93.5q0 46 -27.5 72.5t-105.5 51.5q-99 32 -141 78t-42 117q0 76 62 129.5t160 53.5q127 0 214 -76l-54 -62q-68 59 -161 59q-56 0 -89 -27.5t-33 -76.5 q0 -41 27.5 -65.5t110.5 -52.5q97 -32 138 -77t41 -119z" />
<glyph unicode="T" horiz-adv-x="507" d="M533 608h-190l-74 -608h-95l74 608h-198l10 81h493z" />
<glyph unicode="U" horiz-adv-x="661" d="M621 689l-57 -461q-14 -114 -83 -177t-174 -63q-109 0 -167.5 53t-58.5 153q0 23 3 47l55 448h95l-56 -447q-3 -26 -3 -46q0 -67 32.5 -97.5t98.5 -30.5q68 0 110 40.5t51 115.5l58 465h96z" />
<glyph unicode="V" horiz-adv-x="571" d="M262 105h3l250 584h99l-310 -689h-102l-143 689h99z" />
<glyph unicode="W" horiz-adv-x="821" d="M850 689l-224 -689h-124l-58 558h-4l-195 -558h-119l-56 689h90l36 -597h4l206 597h101l63 -594h3l187 594h90z" />
<glyph unicode="X" horiz-adv-x="551" d="M221 367l-155 322h103l112 -256h4l178 256h107l-236 -317l175 -372h-103l-130 302h-4l-201 -302h-107z" />
<glyph unicode="Y" horiz-adv-x="540" d="M589 689l-274 -425l-32 -264h-96l32 264l-170 425h99l125 -337h4l207 337h105z" />
<glyph unicode="Z" horiz-adv-x="509" d="M510 612l-405 -531h339l-20 -81h-436l9 76l407 533h-306l10 80h411z" />
<glyph unicode="[" horiz-adv-x="325" d="M224 -116h-207l115 932h207l-10 -77h-120l-95 -779h120z" />
<glyph unicode="\" horiz-adv-x="520" d="M379 -99l-339 886l79 23l340 -885z" />
<glyph unicode="]" horiz-adv-x="325" d="M208 -116h-207l10 76h120l95 779h-120l10 77h207z" />
<glyph unicode="^" horiz-adv-x="520" d="M64 527l233 313h82l145 -313h-95l-101 233l-164 -233h-100z" />
<glyph unicode="_" horiz-adv-x="520" d="M443 -142h-485l10 79h486z" />
<glyph unicode="`" horiz-adv-x="303" d="M273 678l-25 -53l-218 91l41 86z" />
<glyph unicode="a" horiz-adv-x="575" d="M513 494l-55 -366q-3 -18 -3 -29q0 -33 29 -45l-29 -66q-40 5 -64.5 29t-27.5 62q-33 -43 -74 -67t-79 -24q-77 0 -121 54t-44 158q0 151 81 245t198 94q56 0 94.5 -9.5t94.5 -35.5zM234 61q30 0 66.5 27t69.5 77l44 284q-39 17 -85 17q-79 0 -131.5 -69t-52.5 -197 q0 -72 25 -105.5t64 -33.5z" />
<glyph unicode="b" horiz-adv-x="581" d="M525 348q0 -160 -80 -260t-200 -100q-98 0 -191 38l100 713l94 11l-47 -324q35 53 83.5 83t92.5 30q69 0 108.5 -47t39.5 -144zM353 466q-37 0 -82 -38.5t-86 -114.5l-33 -232q47 -20 97 -20q73 0 125 76t52 211q0 118 -73 118z" />
<glyph unicode="c" horiz-adv-x="466" d="M255 66q56 0 122 44l35 -66q-79 -56 -167 -56q-90 0 -145 59.5t-55 166.5q0 149 77.5 237t186.5 88q89 0 157 -56l-45 -62q-52 41 -111 41q-68 0 -117 -66t-49 -182q0 -148 111 -148z" />
<glyph unicode="d" horiz-adv-x="586" d="M454 0h-81l1 81q-72 -93 -158 -93q-76 0 -123.5 56.5t-47.5 162.5q0 149 71.5 240.5t166.5 91.5q85 0 145 -63l39 274l92 -11zM241 61q33 0 71.5 29t72.5 82l33 231q-50 63 -120 63q-63 0 -108.5 -67t-45.5 -192q0 -146 97 -146z" />
<glyph unicode="e" horiz-adv-x="510" d="M484 404q0 -83 -84 -135.5t-258 -64.5q1 -69 30.5 -103.5t74.5 -34.5q72 0 140 48l39 -64q-84 -62 -175 -62q-97 0 -151.5 59.5t-54.5 162.5q0 150 78 239.5t192 89.5q78 0 123.5 -36t45.5 -99zM313 466q-61 0 -108 -53.5t-59 -143.5q134 11 186.5 43.5t52.5 89.5 q0 31 -19 47.5t-53 16.5z" />
<glyph unicode="f" horiz-adv-x="313" d="M63 32l60 424h-84l10 71h84l8 59q12 87 53.5 125.5t116.5 38.5q66 0 132 -40l-35 -63q-49 29 -99 29q-35 0 -52.5 -19t-23.5 -70l-8 -60h128l-20 -71h-118l-60 -424q-15 -104 -56.5 -156.5t-135.5 -87.5l-25 67q60 26 87 63t38 114z" />
<glyph unicode="g" horiz-adv-x="580" d="M356 16l10 69q-33 -41 -73.5 -64t-77.5 -23q-75 0 -122.5 57t-47.5 160q0 142 83 233t200 91q55 0 96 -9.5t94 -35.5l-69 -478q-16 -111 -81 -170t-164 -59q-94 0 -181 51l35 68q76 -42 143 -42q62 0 103 38t52 114zM235 73q35 0 73 27t71 77l40 272q-41 17 -88 17 q-77 0 -131.5 -66t-54.5 -185q0 -74 25 -108t65 -34z" />
<glyph unicode="h" horiz-adv-x="576" d="M143 0h-92l103 739l94 11l-46 -326q82 115 180 115q56 0 88.5 -33t32.5 -98q0 -19 -3 -40l-51 -368h-92l47 348q4 24 4 47q0 39 -14 53.5t-44 14.5q-81 0 -163 -150z" />
<glyph unicode="i" horiz-adv-x="265" d="M138 0h-92l74 527h92zM255 715q0 -27 -18.5 -45t-46.5 -18t-46 18t-18 45t18 44.5t46 17.5t46.5 -18t18.5 -44z" />
<glyph unicode="j" horiz-adv-x="265" d="M-51 -212l-26 69q60 26 88 61t39 114l70 495h92l-70 -495q-15 -108 -58.5 -159t-134.5 -85zM255 715q0 -27 -18.5 -45t-46.5 -18t-46 18t-18 45t18 44.5t46 17.5t46.5 -18t18.5 -44z" />
<glyph unicode="k" horiz-adv-x="541" d="M143 0h-92l103 739l94 11l-45 -321q75 110 184 110q55 0 91.5 -33t36.5 -83q0 -138 -163 -190l119 -233h-103l-125 257q93 26 134 61.5t41 90.5q0 27 -15.5 42t-42.5 15q-46 0 -94 -41t-80 -119z" />
<glyph unicode="l" horiz-adv-x="272" d="M206 71l21 -65q-41 -18 -77 -18q-51 0 -77 33t-17 94l88 624l94 11l-91 -643q-4 -23 2.5 -32.5t24.5 -9.5q17 0 32 6z" />
<glyph unicode="m" horiz-adv-x="853" d="M186 312l-43 -312h-92l74 527h79l-10 -112q85 124 187 124q46 0 75 -28t32 -84q81 112 183 112q50 0 79.5 -31t29.5 -92q0 -19 -3 -40l-53 -376h-92l49 352q4 27 4 51q0 34 -11.5 47t-34.5 13q-35 0 -77 -35.5t-85 -113.5l-44 -314h-91l49 352q4 27 4 51q0 34 -11.5 47 t-34.5 13q-35 0 -77.5 -36t-85.5 -115z" />
<glyph unicode="n" horiz-adv-x="576" d="M186 312l-43 -312h-92l74 527h79l-10 -112q85 124 188 124q56 0 88.5 -33t32.5 -98q0 -19 -3 -40l-51 -368h-92l47 348q4 24 4 47q0 39 -14 53.5t-44 14.5q-80 0 -164 -151z" />
<glyph unicode="o" horiz-adv-x="575" d="M254 62q83 0 125.5 77.5t42.5 186.5q0 139 -110 139q-75 0 -122 -67.5t-47 -196.5q0 -139 111 -139zM45 209q0 135 70.5 232.5t199.5 97.5q97 0 151 -59t54 -161q0 -146 -74 -238.5t-195 -92.5q-97 0 -151.5 59t-54.5 162z" />
<glyph unicode="p" horiz-adv-x="581" d="M204 527l-9 -112q34 58 84.5 91t97.5 33q69 0 109 -47t40 -140q0 -163 -70 -263.5t-168 -100.5q-81 0 -138 65l-36 -255l-93 -11l104 740h79zM353 466q-37 0 -81 -37.5t-85 -112.5l-27 -193q46 -63 114 -63q59 0 106 79.5t47 210.5q0 58 -21.5 87t-52.5 29z" />
<glyph unicode="q" horiz-adv-x="580" d="M325 -213l41 287q-33 -40 -73.5 -63t-77.5 -23q-76 0 -123 57.5t-47 164.5q0 144 83 236.5t200 92.5q55 0 96 -9.5t94 -35.5l-99 -696zM235 63q74 0 144 104l40 282q-42 17 -89 17q-76 0 -131 -67t-55 -189q0 -77 25 -112t66 -35z" />
<glyph unicode="r" horiz-adv-x="376" d="M143 0h-92l74 527h79l-13 -139q33 77 76 114t88 37q29 0 51 -6l-31 -98q-23 6 -43 6q-91 -2 -154 -189z" />
<glyph unicode="s" horiz-adv-x="462" d="M200 62q48 0 77.5 22.5t29.5 59.5q0 34 -23.5 54.5t-90.5 43.5q-139 46 -139 146q0 69 51.5 110t142.5 41q99 0 171 -58l-46 -62q-59 47 -129 47q-43 0 -67 -19t-24 -51q0 -29 21 -46t91 -42q141 -49 141 -155q0 -76 -55.5 -120.5t-157.5 -44.5q-57 0 -110.5 22t-85.5 54 l55 58q65 -60 148 -60z" />
<glyph unicode="t" horiz-adv-x="358" d="M293 89l32 -65q-56 -36 -121 -36q-126 0 -126 126q0 18 3 41l42 302h-84l10 70h85l36 122l73 8l-18 -130h133l-21 -70h-122l-44 -315q-6 -41 6.5 -58.5t43.5 -17.5q30 0 72 23z" />
<glyph unicode="u" horiz-adv-x="570" d="M438 0h-79l3 88q-35 -48 -79 -74t-86 -26q-132 0 -132 127q0 19 3 41l52 371h92l-52 -367q-3 -20 -3 -34q0 -36 16 -51t49 -15q34 0 76.5 31t70.5 79l51 357h92z" />
<glyph unicode="v" horiz-adv-x="480" d="M510 527l-258 -527h-107l-107 527h95l75 -442h4l200 442h98z" />
<glyph unicode="w" horiz-adv-x="715" d="M735 527l-195 -527h-125l-34 434h-4l-159 -434h-122l-48 527h89l29 -454h4l171 454h103l38 -452h4l158 452h91z" />
<glyph unicode="x" horiz-adv-x="465" d="M284 281l143 -281h-106l-96 219h-4l-160 -219h-108l221 279l-126 248h103l81 -189h4l136 189h109z" />
<glyph unicode="y" horiz-adv-x="478" d="M508 527l-248 -529q-46 -97 -108 -149t-166 -62l-3 74q76 13 117 45t71 94h-34l-98 527h95l72 -453h4l200 453h98z" />
<glyph unicode="z" horiz-adv-x="426" d="M422 457l-318 -380h267l-21 -77h-371l9 69l321 380h-244l11 78h356z" />
<glyph unicode="{" horiz-adv-x="325" d="M29 313l9 74q42 0 58 16.5t21 57.5l28 226q10 84 57.5 116.5t147.5 32.5l-9 -71q-54 0 -79 -15.5t-29 -52.5l-29 -239q-6 -50 -28.5 -74.5t-59.5 -31.5l-1 -4q72 -18 62 -106l-29 -239q-4 -38 16.5 -53t75.5 -15l-9 -71q-93 0 -135.5 35.5t-33.5 113.5l28 225q5 41 -7 58 t-54 17z" />
<glyph unicode="|" horiz-adv-x="403" d="M112 -102l112 909h83l-112 -909h-83z" />
<glyph unicode="}" horiz-adv-x="325" d="M310 387l-9 -74q-42 0 -58 -16.5t-21 -57.5l-28 -226q-10 -84 -57.5 -116.5t-147.5 -32.5l9 71q54 0 79 15.5t29 52.5l29 239q6 50 28.5 74.5t59.5 31.5l1 4q-72 18 -62 106l29 239q4 38 -16.5 53t-75.5 15l9 71q93 0 135.5 -35.5t33.5 -113.5l-28 -225q-5 -41 7 -58 t54 -17z" />
<glyph unicode="~" horiz-adv-x="500" d="M326 250q-34 0 -64 14t-52.5 28.5t-38.5 14.5q-38 0 -73 -51l-57 31q58 92 140 92q34 0 64 -14t52.5 -28t38.5 -14q38 0 72 50l57 -32q-55 -91 -139 -91z" />
<glyph unicode="&#xa1;" horiz-adv-x="265" d="M88 251l80 14l-41 -467h-110zM216 430q0 -29 -20 -49t-49 -20q-30 0 -50 20t-20 49t20 49.5t50 20.5q29 0 49 -20.5t20 -49.5z" />
<glyph unicode="&#xa2;" horiz-adv-x="477" d="M261 66q56 0 122 44l35 -66q-62 -44 -131 -53l-17 -145h-80l17 146q-72 14 -114 71.5t-42 150.5q0 135 64.5 220.5t160.5 101.5l18 148h79l-17 -148q62 -10 116 -53l-45 -62q-52 41 -111 41q-68 0 -117 -66t-49 -182q0 -148 111 -148z" />
<glyph unicode="&#xa3;" horiz-adv-x="500" d="M137 498q21 181 187 181q115 0 180 -88l-67 -46q-47 59 -112 59q-46 0 -68.5 -25t-28.5 -80l-15 -122h203l-7 -60h-203l-13 -108q-13 -98 -71 -128l-1 -4h324l-20 -77h-430l8 73q55 17 73.5 47t24.5 85l14 112h-81l7 60h81z" />
<glyph unicode="&#xa4;" horiz-adv-x="600" d="M96 610l88 -89q53 33 123 33q71 0 121 -33l88 88l56 -56l-86 -87q36 -54 36 -124q0 -69 -37 -126l87 -86l-56 -56l-89 87q-50 -32 -120 -32q-71 0 -123 32l-88 -88l-56 56l88 88q-35 54 -35 125q0 70 34 123l-87 89zM307 202q61 0 92.5 36.5t31.5 103.5q0 66 -31.5 103 t-92.5 37t-93 -37t-32 -103q0 -67 32 -103.5t93 -36.5z" />
<glyph unicode="&#xa5;" horiz-adv-x="500" d="M69 346h116l-142 323h97l118 -291h4l189 291h102l-225 -323h117l-7 -61h-141l-11 -89h141l-7 -60h-141l-17 -136h-94l17 136h-141l7 60h141l11 89h-141z" />
<glyph unicode="&#xa6;" horiz-adv-x="403" d="M180 451l44 356h83l-44 -356h-83zM112 -102l44 356h83l-44 -356h-83z" />
<glyph unicode="&#xa7;" horiz-adv-x="500" d="M103 531q0 65 50.5 105.5t139.5 40.5q106 0 175 -54l-50 -59q-58 39 -128 39q-90 0 -90 -76q0 -26 23.5 -43.5t88.5 -38.5q76 -24 106 -58.5t30 -84.5q0 -74 -92 -130q43 -37 43 -97q0 -68 -49 -107t-143 -39q-45 0 -97.5 15.5t-82.5 39.5l49 60q58 -42 133 -42 q94 0 94 77q0 25 -21.5 42t-90.5 39q-73 23 -105 59t-32 87q0 40 21 69.5t69 55.5q-41 40 -41 100zM224 237l76 -31q2 -2 4 -2q53 38 53 94q0 21 -13.5 35t-49.5 28l-100 38q-48 -39 -48 -93q0 -23 16 -37t62 -32z" />
<glyph unicode="&#xa8;" horiz-adv-x="385" d="M88 647q-25 0 -41.5 16t-16.5 40q0 25 16.5 41t41.5 16q24 0 40.5 -16t16.5 -41q0 -24 -16.5 -40t-40.5 -16zM297 647q-24 0 -40.5 16t-16.5 40q0 25 16.5 41t40.5 16q25 0 41.5 -16t16.5 -41q0 -24 -16.5 -40t-41.5 -16z" />
<glyph unicode="&#xa9;" horiz-adv-x="800" d="M404 308q47 0 84 34l34 -50q-53 -47 -121 -47q-74 0 -119 50t-45 140q0 89 47 139.5t116 50.5q65 0 117 -40l-37 -49q-36 29 -76 29q-41 0 -66 -32t-25 -98q0 -63 24.5 -95t66.5 -32zM401 174q107 0 179.5 75.5t72.5 184.5q0 110 -72.5 186t-179.5 76q-108 0 -180.5 -76 t-72.5 -186q0 -109 72.5 -184.5t180.5 -75.5zM401 121q-130 0 -222 91.5t-92 221.5t91.5 222t222.5 92q130 0 221 -91.5t91 -222.5q0 -130 -91 -221.5t-221 -91.5z" />
<glyph unicode="&#xaa;" horiz-adv-x="600" d="M496 603l-26 -185q-4 -26 1 -36t19 -12l-8 -63q-43 2 -63.5 17t-24.5 48q-28 -29 -66.5 -46.5t-70.5 -17.5q-64 0 -99.5 34t-35.5 89q0 70 57 109t169 39h61l4 28q7 40 -10.5 58t-65.5 18q-51 0 -125 -26l-15 63q87 31 162 31q71 0 105 -27.5t34 -86.5q0 -22 -2 -34z M283 371q57 0 104 55l14 94h-58q-72 0 -99.5 -21t-27.5 -64q0 -64 67 -64zM458 0h-385l9 79h385z" />
<glyph unicode="&#xab;" horiz-adv-x="551" d="M153 293l104 -207l-56 -37l-150 211l9 65l205 210l50 -43zM363 293l104 -207l-56 -37l-150 211l9 65l205 210l50 -43z" />
<glyph unicode="&#xac;" horiz-adv-x="500" d="M445 351l-28 -220h-83l18 143h-293l10 77h376z" />
<glyph unicode="&#xad;" horiz-adv-x="405" d="M342 274h-283l10 78h283z" />
<glyph unicode="&#xae;" horiz-adv-x="646" d="M323 236q-107 0 -181.5 74.5t-74.5 180.5q0 107 75 182t181 75t180.5 -75t74.5 -182t-74 -181t-181 -74zM323 285q86 0 143 59.5t57 146.5t-57.5 147.5t-142.5 60.5q-86 0 -143.5 -60.5t-57.5 -147.5t57.5 -146.5t143.5 -59.5zM432 551q0 -60 -66 -79l85 -118h-68 l-74 108h-28v-108h-58v282h85q124 0 124 -85zM372 551q0 40 -62 40h-29v-84h31q60 0 60 44z" />
<glyph unicode="&#xaf;" horiz-adv-x="342" d="M312 743l-9 -69h-273l9 69h273z" />
<glyph unicode="&#xb0;" horiz-adv-x="500" d="M248 447q43 0 68.5 27.5t25.5 75.5q0 39 -23.5 63.5t-57.5 24.5q-43 0 -68.5 -26t-25.5 -76q0 -41 22.5 -65t58.5 -24zM246 385q-63 0 -110 42t-47 103q0 79 47.5 125t126.5 46q63 0 110 -42.5t47 -104.5q0 -79 -46 -124t-128 -45z" />
<glyph unicode="&#xb1;" horiz-adv-x="500" d="M435 274h-145l-15 -124h-86l15 124h-145l10 76h145l18 150h86l-18 -150h145zM402 0h-376l9 78h376z" />
<glyph unicode="&#xb2;" horiz-adv-x="400" d="M370 633q0 -27 -14.5 -57t-29.5 -50.5t-51.5 -54t-50 -44.5t-56.5 -46h181l-16 -63h-278l6 55q142 116 185 167.5t43 92.5q0 23 -14.5 36t-38.5 13q-51 0 -95 -47l-49 40q69 70 154 70q57 0 90.5 -29.5t33.5 -82.5z" />
<glyph unicode="&#xb3;" horiz-adv-x="400" d="M359 451q0 -58 -47.5 -98.5t-118.5 -40.5q-102 0 -150 63l53 42q39 -43 96 -43q41 0 64 20.5t23 57.5q0 58 -72 58h-37l16 60h25q37 0 57.5 18t20.5 47q0 23 -14.5 36t-40.5 13q-54 0 -105 -40l-36 46q71 55 147 55q61 0 95 -27.5t34 -69.5q0 -31 -24 -61t-64 -39l-1 -3 q34 -6 56.5 -33.5t22.5 -60.5z" />
<glyph unicode="&#xb4;" horiz-adv-x="303" d="M55 622l-25 53l202 124l41 -86z" />
<glyph unicode="&#xb5;" horiz-adv-x="575" d="M113 -202l-92 -10l104 739h92l-52 -367q-3 -20 -3 -34q0 -36 16 -51t49 -15q34 0 76 31t70 78l52 358h92l-51 -357q-5 -34 -5 -75q0 -49 7 -95l-86 -12q-6 13 -11 46t-4 54q-35 -48 -78.5 -74t-81.5 -26q-46 0 -73 33l-3 -2q4 -18 4 -40q0 -26 -5 -63z" />
<glyph unicode="&#xb6;" horiz-adv-x="734" d="M298 -13l36 299q-102 2 -162 56.5t-60 141.5q0 96 72 150.5t206 54.5h268l-109 -891l-85 -11l102 828h-109l-75 -616q-13 -109 -55.5 -167t-125.5 -89l-26 69q57 25 85.5 64t37.5 111z" />
<glyph unicode="&#xb7;" horiz-adv-x="265" d="M71 338q0 29 20 49t49 20q30 0 50 -20t20 -49t-20 -49.5t-50 -20.5q-29 0 -49 20.5t-20 49.5z" />
<glyph unicode="&#xb8;" horiz-adv-x="293" d="M133 -181q52 0 52 45q0 37 -82 37l30 115h57l-12 -72q40 -4 62.5 -25.5t22.5 -54.5q0 -44 -35.5 -74.5t-92.5 -30.5q-62 0 -105 27l34 51q32 -18 69 -18z" />
<glyph unicode="&#xb9;" horiz-adv-x="400" d="M273 318h-77l41 336l-100 -51l-32 54l156 82h63z" />
<glyph unicode="&#xba;" horiz-adv-x="600" d="M285 377q59 0 92.5 48t33.5 145q0 54 -27.5 82.5t-67.5 28.5q-124 0 -124 -191q0 -57 25 -85t68 -28zM102 490q0 126 59 193t158 67q80 0 129.5 -48t49.5 -133q0 -119 -57.5 -189.5t-158.5 -70.5q-81 0 -130.5 47t-49.5 134zM434 0h-385l9 79h385z" />
<glyph unicode="&#xbb;" horiz-adv-x="551" d="M398 291l-104 207l56 37l150 -211l-9 -65l-205 -210l-50 43zM188 291l-104 207l56 37l150 -211l-9 -65l-205 -210l-50 43z" />
<glyph unicode="&#xbc;" horiz-adv-x="850" d="M283 278h-77l41 336l-100 -51l-32 54l156 82h63zM721 720l-516 -800l-61 32l516 800zM780 96h-54l-11 -96h-76l11 96h-179l7 50l169 285l63 -26l-144 -248h92l22 105h67l-13 -105h54z" />
<glyph unicode="&#xbd;" horiz-adv-x="850" d="M283 278h-77l41 336l-100 -51l-32 54l156 82h63zM721 720l-516 -800l-61 32l516 800zM819 315q0 -27 -14.5 -57t-29.5 -50.5t-51.5 -54t-50 -44.5t-56.5 -46h181l-16 -63h-278l6 55q142 116 185 167.5t43 92.5q0 23 -14.5 36t-38.5 13q-51 0 -95 -47l-49 40q69 70 154 70 q57 0 90.5 -29.5t33.5 -82.5z" />
<glyph unicode="&#xbe;" horiz-adv-x="850" d="M349 411q0 -58 -47.5 -98.5t-118.5 -40.5q-102 0 -150 63l53 42q39 -43 96 -43q41 0 64 20.5t23 57.5q0 58 -72 58h-37l16 60h25q37 0 57.5 18t20.5 47q0 23 -14.5 36t-40.5 13q-54 0 -105 -40l-36 46q71 55 147 55q61 0 95 -27.5t34 -69.5q0 -31 -24 -61t-64 -39l-1 -3 q34 -6 56.5 -33.5t22.5 -60.5zM721 720l-516 -800l-61 32l516 800zM780 96h-54l-11 -96h-76l11 96h-179l7 50l169 285l63 -26l-144 -248h92l22 105h67l-13 -105h54z" />
<glyph unicode="&#xbf;" horiz-adv-x="507" d="M357 430q0 -29 -20 -49t-49 -20q-30 0 -50 20t-20 49t20 49.5t50 20.5q29 0 49 -20.5t20 -49.5zM254 225q0 17 -3 29l82 14q10 -25 10 -50q0 -50 -24.5 -85.5t-59.5 -54.5t-70 -36t-59.5 -41t-24.5 -58q0 -36 26.5 -58t70.5 -22q75 0 143 72l59 -54q-93 -94 -209 -94 q-83 0 -134.5 45t-51.5 103q0 54 25 90.5t61 55.5t72.5 36t61.5 43t25 65z" />
<glyph unicode="&#xc0;" horiz-adv-x="569" d="M436 0l-31 173h-266l-74 -173h-99l308 689h120l139 -689h-97zM323 603l-151 -353h219l-64 353h-4zM478 808l-25 -53l-218 81l41 86z" />
<glyph unicode="&#xc1;" horiz-adv-x="569" d="M436 0l-31 173h-266l-74 -173h-99l308 689h120l139 -689h-97zM323 603l-151 -353h219l-64 353h-4zM253 757l-25 53l202 114l41 -86z" />
<glyph unicode="&#xc2;" horiz-adv-x="569" d="M436 0l-31 173h-266l-74 -173h-99l308 689h120l139 -689h-97zM323 603l-151 -353h219l-64 353h-4zM352 840l-132 -81l-39 47l147 109h61l124 -111l-44 -45z" />
<glyph unicode="&#xc3;" horiz-adv-x="569" d="M436 0l-31 173h-266l-74 -173h-99l308 689h120l139 -689h-97zM323 603l-151 -353h219l-64 353h-4zM402 773q-32 0 -64.5 24t-44.5 24q-16 0 -28 -10.5t-28 -33.5l-54 25q49 89 118 89q34 0 66 -24t44 -24q27 0 56 43l54 -25q-51 -88 -119 -88z" />
<glyph unicode="&#xc4;" horiz-adv-x="569" d="M436 0l-31 173h-266l-74 -173h-99l308 689h120l139 -689h-97zM323 603l-151 -353h219l-64 353h-4zM247 769q-24 0 -40.5 16t-16.5 41q0 24 16.5 40t40.5 16q25 0 41.5 -16t16.5 -40q0 -25 -16.5 -41t-41.5 -16zM457 769q-25 0 -41.5 16t-16.5 41q0 24 16.5 40t41.5 16 q24 0 41 -16t17 -40t-17 -40.5t-41 -16.5z" />
<glyph unicode="&#xc5;" horiz-adv-x="569" d="M436 0l-31 173h-266l-74 -173h-99l308 689h120l139 -689h-97zM323 603l-151 -353h219l-64 353h-4zM356 901q-26 0 -42.5 -17.5t-16.5 -46.5q0 -22 14 -35.5t36 -13.5q25 0 41.5 17t16.5 46q0 22 -13.5 36t-35.5 14zM467 851q0 -46 -35.5 -79t-86.5 -33q-52 0 -80 28 t-28 70q0 48 34 80.5t87 32.5q50 0 79.5 -29t29.5 -70z" />
<glyph unicode="&#xc6;" horiz-adv-x="794" d="M422 0l-20 173h-263l-86 -173h-100l360 689h457l-20 -76h-309l24 -225h259l-9 -76h-239l27 -236h227l-9 -76h-299zM355 605l-179 -355h218l-34 355h-5z" />
<glyph unicode="&#xc7;" horiz-adv-x="565" d="M269 -181q52 0 52 45q0 37 -82 37l24 91q-93 15 -147.5 88t-54.5 200q0 190 95 305.5t230 115.5q117 0 192 -74l-57 -56q-59 51 -137 51q-92 0 -157 -88.5t-65 -253.5q0 -210 162 -210q43 0 77 13.5t75 46.5l46 -65q-81 -73 -201 -77l-7 -44q40 -4 62.5 -25.5t22.5 -54.5 q0 -44 -35.5 -74.5t-92.5 -30.5q-62 0 -105 27l34 51q32 -18 69 -18z" />
<glyph unicode="&#xc8;" horiz-adv-x="530" d="M502 613h-267l-28 -225h232l-9 -76h-232l-29 -236h286l-9 -76h-381l84 689h373zM483 808l-25 -53l-218 81l41 86z" />
<glyph unicode="&#xc9;" horiz-adv-x="530" d="M502 613h-267l-28 -225h232l-9 -76h-232l-29 -236h286l-9 -76h-381l84 689h373zM265 755l-25 53l202 114l41 -86z" />
<glyph unicode="&#xca;" horiz-adv-x="530" d="M502 613h-267l-28 -225h232l-9 -76h-232l-29 -236h286l-9 -76h-381l84 689h373zM351 840l-132 -81l-39 47l147 109h61l124 -111l-44 -45z" />
<glyph unicode="&#xcb;" horiz-adv-x="530" d="M502 613h-267l-28 -225h232l-9 -76h-232l-29 -236h286l-9 -76h-381l84 689h373zM246 769q-24 0 -40.5 16t-16.5 41q0 24 16.5 40t40.5 16q25 0 41.5 -16t16.5 -40q0 -25 -16.5 -41t-41.5 -16zM456 769q-25 0 -41.5 16t-16.5 41q0 24 16.5 40t41.5 16q24 0 41 -16t17 -40 t-17 -40.5t-41 -16.5z" />
<glyph unicode="&#xcc;" horiz-adv-x="294" d="M160 0h-95l84 689h95zM344 808l-25 -53l-218 81l41 86z" />
<glyph unicode="&#xcd;" horiz-adv-x="294" d="M160 0h-95l84 689h95zM115 755l-25 53l202 114l41 -86z" />
<glyph unicode="&#xce;" horiz-adv-x="294" d="M160 0h-95l84 689h95zM215 840l-132 -81l-39 47l147 109h61l124 -111l-44 -45z" />
<glyph unicode="&#xcf;" horiz-adv-x="294" d="M160 0h-95l84 689h95zM110 769q-24 0 -40.5 16t-16.5 41q0 24 16.5 40t40.5 16q25 0 41.5 -16t16.5 -40q0 -25 -16.5 -41t-41.5 -16zM320 769q-25 0 -41.5 16t-16.5 41q0 24 16.5 40t41.5 16q24 0 41 -16t17 -40t-17 -40.5t-41 -16.5z" />
<glyph unicode="&#xd0;" horiz-adv-x="652" d="M607 415q0 -196 -95.5 -305.5t-261.5 -109.5h-185l39 318h-82l8 70h82l37 301h163q137 0 216 -71t79 -203zM255 75q113 0 182.5 86t69.5 250q0 202 -202 202h-70l-28 -225h172l-8 -70h-172l-30 -243h86z" />
<glyph unicode="&#xd1;" horiz-adv-x="678" d="M544 0h-126l-201 583h-4q0 -106 -17 -247l-41 -336h-90l84 689h123l204 -586h4q0 101 18 250l41 336h89zM454 773q-32 0 -64.5 24t-44.5 24q-16 0 -28 -10.5t-28 -33.5l-54 25q49 89 118 89q34 0 66 -24t44 -24q27 0 56 43l54 -25q-51 -88 -119 -88z" />
<glyph unicode="&#xd2;" horiz-adv-x="688" d="M642 416q0 -79 -19 -152.5t-56.5 -136.5t-102.5 -101t-148 -38q-117 0 -186 73t-69 210q0 78 19 151.5t56.5 137.5t102.5 102.5t148 38.5q116 0 185.5 -74t69.5 -211zM317 66q64 0 110 33.5t69.5 89.5t34 114.5t10.5 121.5q0 198 -155 198q-63 0 -109.5 -34t-70 -89.5 t-34.5 -113.5t-11 -120q0 -200 156 -200zM538 808l-25 -53l-218 81l41 86z" />
<glyph unicode="&#xd3;" horiz-adv-x="688" d="M642 416q0 -79 -19 -152.5t-56.5 -136.5t-102.5 -101t-148 -38q-117 0 -186 73t-69 210q0 78 19 151.5t56.5 137.5t102.5 102.5t148 38.5q116 0 185.5 -74t69.5 -211zM317 66q64 0 110 33.5t69.5 89.5t34 114.5t10.5 121.5q0 198 -155 198q-63 0 -109.5 -34t-70 -89.5 t-34.5 -113.5t-11 -120q0 -200 156 -200zM314 755l-25 53l202 114l41 -86z" />
<glyph unicode="&#xd4;" horiz-adv-x="688" d="M642 416q0 -79 -19 -152.5t-56.5 -136.5t-102.5 -101t-148 -38q-117 0 -186 73t-69 210q0 78 19 151.5t56.5 137.5t102.5 102.5t148 38.5q116 0 185.5 -74t69.5 -211zM317 66q64 0 110 33.5t69.5 89.5t34 114.5t10.5 121.5q0 198 -155 198q-63 0 -109.5 -34t-70 -89.5 t-34.5 -113.5t-11 -120q0 -200 156 -200zM412 840l-132 -81l-39 47l147 109h61l124 -111l-44 -45z" />
<glyph unicode="&#xd5;" horiz-adv-x="688" d="M642 416q0 -79 -19 -152.5t-56.5 -136.5t-102.5 -101t-148 -38q-117 0 -186 73t-69 210q0 78 19 151.5t56.5 137.5t102.5 102.5t148 38.5q116 0 185.5 -74t69.5 -211zM317 66q64 0 110 33.5t69.5 89.5t34 114.5t10.5 121.5q0 198 -155 198q-63 0 -109.5 -34t-70 -89.5 t-34.5 -113.5t-11 -120q0 -200 156 -200zM462 773q-32 0 -64.5 24t-44.5 24q-16 0 -28 -10.5t-28 -33.5l-54 25q49 89 118 89q34 0 66 -24t44 -24q27 0 56 43l54 -25q-51 -88 -119 -88z" />
<glyph unicode="&#xd6;" horiz-adv-x="688" d="M642 416q0 -79 -19 -152.5t-56.5 -136.5t-102.5 -101t-148 -38q-117 0 -186 73t-69 210q0 78 19 151.5t56.5 137.5t102.5 102.5t148 38.5q116 0 185.5 -74t69.5 -211zM317 66q64 0 110 33.5t69.5 89.5t34 114.5t10.5 121.5q0 198 -155 198q-63 0 -109.5 -34t-70 -89.5 t-34.5 -113.5t-11 -120q0 -200 156 -200zM307 769q-24 0 -40.5 16t-16.5 41q0 24 16.5 40t40.5 16q25 0 41.5 -16t16.5 -40q0 -25 -16.5 -41t-41.5 -16zM517 769q-25 0 -41.5 16t-16.5 41q0 24 16.5 40t41.5 16q24 0 41 -16t17 -40t-17 -40.5t-41 -16.5z" />
<glyph unicode="&#xd7;" horiz-adv-x="500" d="M154 472l103 -118l131 118l51 -60l-131 -117l103 -116l-63 -56l-103 116l-133 -119l-51 59l133 119l-103 117z" />
<glyph unicode="&#xd8;" horiz-adv-x="688" d="M642 416q0 -79 -19 -152.5t-56.5 -136.5t-102.5 -101t-148 -38q-34 0 -69 8l-53 -127l-80 21l59 135q-112 70 -112 246q0 78 19 151.5t56.5 137.5t102.5 102.5t148 38.5q33 0 68 -8l52 126l80 -21l-58 -135q113 -71 113 -247zM317 66q64 0 110 33.5t69.5 89.5t34 114.5 t10.5 121.5q0 119 -55 166l-215 -521q19 -4 46 -4zM161 266q0 -119 54 -167l215 519q-22 5 -44 5q-63 0 -109.5 -34t-70 -89.5t-34.5 -113.5t-11 -120z" />
<glyph unicode="&#xd9;" horiz-adv-x="661" d="M621 689l-57 -461q-14 -114 -83 -177t-174 -63q-109 0 -167.5 53t-58.5 153q0 23 3 47l55 448h95l-56 -447q-3 -26 -3 -46q0 -67 32.5 -97.5t98.5 -30.5q68 0 110 40.5t51 115.5l58 465h96zM517 808l-25 -53l-218 81l41 86z" />
<glyph unicode="&#xda;" horiz-adv-x="661" d="M621 689l-57 -461q-14 -114 -83 -177t-174 -63q-109 0 -167.5 53t-58.5 153q0 23 3 47l55 448h95l-56 -447q-3 -26 -3 -46q0 -67 32.5 -97.5t98.5 -30.5q68 0 110 40.5t51 115.5l58 465h96zM308 755l-25 53l202 114l41 -86z" />
<glyph unicode="&#xdb;" horiz-adv-x="661" d="M621 689l-57 -461q-14 -114 -83 -177t-174 -63q-109 0 -167.5 53t-58.5 153q0 23 3 47l55 448h95l-56 -447q-3 -26 -3 -46q0 -67 32.5 -97.5t98.5 -30.5q68 0 110 40.5t51 115.5l58 465h96zM399 840l-132 -81l-39 47l147 109h61l124 -111l-44 -45z" />
<glyph unicode="&#xdc;" horiz-adv-x="661" d="M621 689l-57 -461q-14 -114 -83 -177t-174 -63q-109 0 -167.5 53t-58.5 153q0 23 3 47l55 448h95l-56 -447q-3 -26 -3 -46q0 -67 32.5 -97.5t98.5 -30.5q68 0 110 40.5t51 115.5l58 465h96zM293 769q-24 0 -40.5 16t-16.5 41q0 24 16.5 40t40.5 16q25 0 41.5 -16 t16.5 -40q0 -25 -16.5 -41t-41.5 -16zM503 769q-25 0 -41.5 16t-16.5 41q0 24 16.5 40t41.5 16q24 0 41 -16t17 -40t-17 -40.5t-41 -16.5z" />
<glyph unicode="&#xdd;" horiz-adv-x="540" d="M589 689l-274 -425l-32 -264h-96l32 264l-170 425h99l125 -337h4l207 337h105zM248 755l-25 53l202 114l41 -86z" />
<glyph unicode="&#xde;" horiz-adv-x="566" d="M559 375q0 -116 -73.5 -182t-200.5 -66h-110l-15 -127h-95l84 689h95l-16 -126h78q122 0 187.5 -49.5t65.5 -138.5zM288 202q80 0 125.5 44t45.5 127q0 116 -158 116h-81l-35 -287h103z" />
<glyph unicode="&#xdf;" horiz-adv-x="577" d="M55 32l70 501q16 116 69.5 166.5t157.5 50.5q75 0 122.5 -37.5t47.5 -93.5q0 -33 -14.5 -59.5t-35 -43t-41 -31t-35 -31.5t-14.5 -37q0 -18 16.5 -38t40 -41t47.5 -45t40.5 -59t16.5 -75q0 -77 -49.5 -124t-134.5 -47q-84 0 -149 52l44 60q48 -38 100 -38q39 0 65.5 24.5 t26.5 70.5q0 31 -16.5 57.5t-40 46l-47 39t-40 46.5t-16.5 59q0 40 22 69.5t48 44.5t48 39t22 54t-21 48t-60 18q-54 0 -84.5 -31.5t-41.5 -107.5l-72 -507q-16 -109 -59 -159.5t-133 -84.5l-25 67q59 26 86.5 61.5t38.5 115.5z" />
<glyph unicode="&#xe0;" horiz-adv-x="575" d="M513 494l-55 -366q-3 -18 -3 -29q0 -33 29 -45l-29 -66q-40 5 -64.5 29t-27.5 62q-33 -43 -74 -67t-79 -24q-77 0 -121 54t-44 158q0 151 81 245t198 94q56 0 94.5 -9.5t94.5 -35.5zM234 61q30 0 66.5 27t69.5 77l44 284q-39 17 -85 17q-79 0 -131.5 -69t-52.5 -197 q0 -72 25 -105.5t64 -33.5zM468 678l-25 -53l-218 91l41 86z" />
<glyph unicode="&#xe1;" horiz-adv-x="575" d="M513 494l-55 -366q-3 -18 -3 -29q0 -33 29 -45l-29 -66q-40 5 -64.5 29t-27.5 62q-33 -43 -74 -67t-79 -24q-77 0 -121 54t-44 158q0 151 81 245t198 94q56 0 94.5 -9.5t94.5 -35.5zM234 61q30 0 66.5 27t69.5 77l44 284q-39 17 -85 17q-79 0 -131.5 -69t-52.5 -197 q0 -72 25 -105.5t64 -33.5zM232 622l-25 53l202 124l41 -86z" />
<glyph unicode="&#xe2;" horiz-adv-x="575" d="M513 494l-55 -366q-3 -18 -3 -29q0 -33 29 -45l-29 -66q-40 5 -64.5 29t-27.5 62q-33 -43 -74 -67t-79 -24q-77 0 -121 54t-44 158q0 151 81 245t198 94q56 0 94.5 -9.5t94.5 -35.5zM234 61q30 0 66.5 27t69.5 77l44 284q-39 17 -85 17q-79 0 -131.5 -69t-52.5 -197 q0 -72 25 -105.5t64 -33.5zM348 718l-138 -91l-36 44l153 121h61l118 -121l-46 -44z" />
<glyph unicode="&#xe3;" horiz-adv-x="575" d="M513 494l-55 -366q-3 -18 -3 -29q0 -33 29 -45l-29 -66q-40 5 -64.5 29t-27.5 62q-33 -43 -74 -67t-79 -24q-77 0 -121 54t-44 158q0 151 81 245t198 94q56 0 94.5 -9.5t94.5 -35.5zM234 61q30 0 66.5 27t69.5 77l44 284q-39 17 -85 17q-79 0 -131.5 -69t-52.5 -197 q0 -72 25 -105.5t64 -33.5zM388 650q-32 0 -63.5 24t-43.5 24q-26 0 -57 -44l-54 26q51 88 122 88q34 0 64.5 -24t42.5 -24q26 0 57 44l54 -25q-51 -89 -122 -89z" />
<glyph unicode="&#xe4;" horiz-adv-x="575" d="M513 494l-55 -366q-3 -18 -3 -29q0 -33 29 -45l-29 -66q-40 5 -64.5 29t-27.5 62q-33 -43 -74 -67t-79 -24q-77 0 -121 54t-44 158q0 151 81 245t198 94q56 0 94.5 -9.5t94.5 -35.5zM234 61q30 0 66.5 27t69.5 77l44 284q-39 17 -85 17q-79 0 -131.5 -69t-52.5 -197 q0 -72 25 -105.5t64 -33.5zM235 647q-25 0 -41.5 16t-16.5 40q0 25 16.5 41t41.5 16q24 0 40.5 -16t16.5 -41q0 -24 -16.5 -40t-40.5 -16zM444 647q-24 0 -40.5 16t-16.5 40q0 25 16.5 41t40.5 16q25 0 41.5 -16t16.5 -41q0 -24 -16.5 -40t-41.5 -16z" />
<glyph unicode="&#xe5;" horiz-adv-x="575" d="M513 494l-55 -366q-3 -18 -3 -29q0 -33 29 -45l-29 -66q-40 5 -64.5 29t-27.5 62q-33 -43 -74 -67t-79 -24q-77 0 -121 54t-44 158q0 151 81 245t198 94q56 0 94.5 -9.5t94.5 -35.5zM234 61q30 0 66.5 27t69.5 77l44 284q-39 17 -85 17q-79 0 -131.5 -69t-52.5 -197 q0 -72 25 -105.5t64 -33.5zM350 779q-26 0 -42.5 -17.5t-16.5 -46.5q0 -22 14 -35.5t36 -13.5q25 0 41.5 17t16.5 46q0 22 -13.5 36t-35.5 14zM461 729q0 -46 -35.5 -79t-86.5 -33q-52 0 -80 28t-28 70q0 48 34 80.5t87 32.5q50 0 79.5 -29t29.5 -70z" />
<glyph unicode="&#xe6;" horiz-adv-x="805" d="M285 539q135 0 154 -91q63 91 176 91q76 0 120 -36t44 -99q0 -90 -91 -140t-251 -60q1 -67 29.5 -102.5t75.5 -35.5q72 0 140 48l39 -64q-82 -62 -175 -62q-119 0 -170 98q-71 -98 -196 -98q-160 0 -160 139q0 85 69 129.5t204 44.5h71l6 61q6 53 -17.5 77.5t-84.5 24.5 t-142 -27l-15 68q98 34 174 34zM205 57q44 0 88 32t65 77q-2 26 -2 37t2 37h-69q-89 0 -129 -28.5t-40 -84.5q0 -37 20.5 -53.5t64.5 -16.5zM608 466q-61 0 -108 -53.5t-59 -143.5q129 11 184 42.5t55 90.5q0 30 -19 47t-53 17z" />
<glyph unicode="&#xe7;" horiz-adv-x="466" d="M201 -181q52 0 52 45q0 37 -82 37l25 93q-70 15 -110.5 72t-40.5 148q0 149 77.5 237t186.5 88q89 0 157 -56l-45 -62q-52 41 -111 41q-68 0 -117 -66t-49 -182q0 -148 111 -148q56 0 122 44l35 -66q-76 -53 -159 -56l-7 -44q40 -4 62.5 -25.5t22.5 -54.5 q0 -44 -35.5 -74.5t-92.5 -30.5q-62 0 -105 27l34 51q32 -18 69 -18z" />
<glyph unicode="&#xe8;" horiz-adv-x="510" d="M484 404q0 -83 -84 -135.5t-258 -64.5q1 -69 30.5 -103.5t74.5 -34.5q72 0 140 48l39 -64q-84 -62 -175 -62q-97 0 -151.5 59.5t-54.5 162.5q0 150 78 239.5t192 89.5q78 0 123.5 -36t45.5 -99zM313 466q-61 0 -108 -53.5t-59 -143.5q134 11 186.5 43.5t52.5 89.5 q0 31 -19 47.5t-53 16.5zM458 678l-25 -53l-218 91l41 86z" />
<glyph unicode="&#xe9;" horiz-adv-x="510" d="M484 404q0 -83 -84 -135.5t-258 -64.5q1 -69 30.5 -103.5t74.5 -34.5q72 0 140 48l39 -64q-84 -62 -175 -62q-97 0 -151.5 59.5t-54.5 162.5q0 150 78 239.5t192 89.5q78 0 123.5 -36t45.5 -99zM313 466q-61 0 -108 -53.5t-59 -143.5q134 11 186.5 43.5t52.5 89.5 q0 31 -19 47.5t-53 16.5zM232 622l-25 53l202 124l41 -86z" />
<glyph unicode="&#xea;" horiz-adv-x="510" d="M484 404q0 -83 -84 -135.5t-258 -64.5q1 -69 30.5 -103.5t74.5 -34.5q72 0 140 48l39 -64q-84 -62 -175 -62q-97 0 -151.5 59.5t-54.5 162.5q0 150 78 239.5t192 89.5q78 0 123.5 -36t45.5 -99zM313 466q-61 0 -108 -53.5t-59 -143.5q134 11 186.5 43.5t52.5 89.5 q0 31 -19 47.5t-53 16.5zM334 718l-138 -91l-36 44l153 121h61l118 -121l-46 -44z" />
<glyph unicode="&#xeb;" horiz-adv-x="510" d="M484 404q0 -83 -84 -135.5t-258 -64.5q1 -69 30.5 -103.5t74.5 -34.5q72 0 140 48l39 -64q-84 -62 -175 -62q-97 0 -151.5 59.5t-54.5 162.5q0 150 78 239.5t192 89.5q78 0 123.5 -36t45.5 -99zM313 466q-61 0 -108 -53.5t-59 -143.5q134 11 186.5 43.5t52.5 89.5 q0 31 -19 47.5t-53 16.5zM228 647q-25 0 -41.5 16t-16.5 40q0 25 16.5 41t41.5 16q24 0 40.5 -16t16.5 -41q0 -24 -16.5 -40t-40.5 -16zM437 647q-24 0 -40.5 16t-16.5 40q0 25 16.5 41t40.5 16q25 0 41.5 -16t16.5 -41q0 -24 -16.5 -40t-41.5 -16z" />
<glyph unicode="&#xec;" horiz-adv-x="265" d="M138 0h-92l74 527h92zM318 678l-25 -53l-218 91l41 86z" />
<glyph unicode="&#xed;" horiz-adv-x="265" d="M138 0h-92l74 527h92zM96 622l-25 53l202 124l41 -86z" />
<glyph unicode="&#xee;" horiz-adv-x="265" d="M138 0h-92l74 527h92zM196 718l-138 -91l-36 44l153 121h61l118 -121l-46 -44z" />
<glyph unicode="&#xef;" horiz-adv-x="265" d="M138 0h-92l74 527h92zM88 647q-25 0 -41.5 16t-16.5 40q0 25 16.5 41t41.5 16q24 0 40.5 -16t16.5 -41q0 -24 -16.5 -40t-40.5 -16zM297 647q-24 0 -40.5 16t-16.5 40q0 25 16.5 41t40.5 16q25 0 41.5 -16t16.5 -41q0 -24 -16.5 -40t-41.5 -16z" />
<glyph unicode="&#xf0;" horiz-adv-x="564" d="M438 384q1 10 1 30q0 137 -99 203l-96 -86l-59 32l94 86q-41 17 -99 31l30 70q86 -21 133 -43l75 69l47 -47l-62 -56q116 -82 116 -253q0 -46 -10 -112q-22 -158 -92 -239t-176 -81q-87 0 -141.5 58.5t-54.5 156.5q0 123 68.5 200.5t157.5 77.5q114 0 164 -98zM248 61 q65 0 111.5 65t57.5 199q-45 85 -135 85q-57 0 -98 -55t-41 -151q0 -70 29 -106.5t76 -36.5z" />
<glyph unicode="&#xf1;" horiz-adv-x="576" d="M186 312l-43 -312h-92l74 527h79l-10 -112q85 124 188 124q56 0 88.5 -33t32.5 -98q0 -19 -3 -40l-51 -368h-92l47 348q4 24 4 47q0 39 -14 53.5t-44 14.5q-80 0 -164 -151zM397 650q-32 0 -63.5 24t-43.5 24q-26 0 -57 -44l-54 26q51 88 122 88q34 0 64.5 -24t42.5 -24 q26 0 57 44l54 -25q-51 -89 -122 -89z" />
<glyph unicode="&#xf2;" horiz-adv-x="575" d="M254 62q83 0 125.5 77.5t42.5 186.5q0 139 -110 139q-75 0 -122 -67.5t-47 -196.5q0 -139 111 -139zM45 209q0 135 70.5 232.5t199.5 97.5q97 0 151 -59t54 -161q0 -146 -74 -238.5t-195 -92.5q-97 0 -151.5 59t-54.5 162zM466 678l-25 -53l-218 91l41 86z" />
<glyph unicode="&#xf3;" horiz-adv-x="575" d="M254 62q83 0 125.5 77.5t42.5 186.5q0 139 -110 139q-75 0 -122 -67.5t-47 -196.5q0 -139 111 -139zM45 209q0 135 70.5 232.5t199.5 97.5q97 0 151 -59t54 -161q0 -146 -74 -238.5t-195 -92.5q-97 0 -151.5 59t-54.5 162zM244 622l-25 53l202 124l41 -86z" />
<glyph unicode="&#xf4;" horiz-adv-x="575" d="M254 62q83 0 125.5 77.5t42.5 186.5q0 139 -110 139q-75 0 -122 -67.5t-47 -196.5q0 -139 111 -139zM45 209q0 135 70.5 232.5t199.5 97.5q97 0 151 -59t54 -161q0 -146 -74 -238.5t-195 -92.5q-97 0 -151.5 59t-54.5 162zM343 718l-138 -91l-36 44l153 121h61l118 -121 l-46 -44z" />
<glyph unicode="&#xf5;" horiz-adv-x="575" d="M254 62q83 0 125.5 77.5t42.5 186.5q0 139 -110 139q-75 0 -122 -67.5t-47 -196.5q0 -139 111 -139zM45 209q0 135 70.5 232.5t199.5 97.5q97 0 151 -59t54 -161q0 -146 -74 -238.5t-195 -92.5q-97 0 -151.5 59t-54.5 162zM390 650q-32 0 -63.5 24t-43.5 24 q-26 0 -57 -44l-54 26q51 88 122 88q34 0 64.5 -24t42.5 -24q26 0 57 44l54 -25q-51 -89 -122 -89z" />
<glyph unicode="&#xf6;" horiz-adv-x="575" d="M254 62q83 0 125.5 77.5t42.5 186.5q0 139 -110 139q-75 0 -122 -67.5t-47 -196.5q0 -139 111 -139zM45 209q0 135 70.5 232.5t199.5 97.5q97 0 151 -59t54 -161q0 -146 -74 -238.5t-195 -92.5q-97 0 -151.5 59t-54.5 162zM236 647q-25 0 -41.5 16t-16.5 40q0 25 16.5 41 t41.5 16q24 0 40.5 -16t16.5 -41q0 -24 -16.5 -40t-40.5 -16zM445 647q-24 0 -40.5 16t-16.5 40q0 25 16.5 41t40.5 16q25 0 41.5 -16t16.5 -41q0 -24 -16.5 -40t-41.5 -16z" />
<glyph unicode="&#xf7;" horiz-adv-x="500" d="M436 274h-376l10 77h376zM160 115q0 29 20.5 49t49.5 20t49.5 -20t20.5 -49t-20.5 -49.5t-49.5 -20.5t-49.5 20.5t-20.5 49.5zM208 511q0 29 20.5 49t49.5 20t49.5 -20t20.5 -49t-20.5 -49t-49.5 -20t-49.5 20t-20.5 49z" />
<glyph unicode="&#xf8;" horiz-adv-x="575" d="M45 209q0 135 70.5 232.5t199.5 97.5q29 0 53 -6l56 122l73 -22l-60 -128q83 -58 83 -186q0 -146 -74 -238.5t-195 -92.5q-25 0 -52 5l-55 -124l-74 22l60 130q-85 56 -85 188zM143 201q0 -77 32 -112l169 372q-13 4 -32 4q-75 0 -122 -67.5t-47 -196.5zM254 62 q46 0 80.5 25t52.5 66t26.5 84.5t8.5 88.5q0 74 -30 108l-167 -370q14 -2 29 -2z" />
<glyph unicode="&#xf9;" horiz-adv-x="570" d="M438 0h-79l3 88q-35 -48 -79 -74t-86 -26q-132 0 -132 127q0 19 3 41l52 371h92l-52 -367q-3 -20 -3 -34q0 -36 16 -51t49 -15q34 0 76.5 31t70.5 79l51 357h92zM456 678l-25 -53l-218 91l41 86z" />
<glyph unicode="&#xfa;" horiz-adv-x="570" d="M438 0h-79l3 88q-35 -48 -79 -74t-86 -26q-132 0 -132 127q0 19 3 41l52 371h92l-52 -367q-3 -20 -3 -34q0 -36 16 -51t49 -15q34 0 76.5 31t70.5 79l51 357h92zM255 622l-25 53l202 124l41 -86z" />
<glyph unicode="&#xfb;" horiz-adv-x="570" d="M438 0h-79l3 88q-35 -48 -79 -74t-86 -26q-132 0 -132 127q0 19 3 41l52 371h92l-52 -367q-3 -20 -3 -34q0 -36 16 -51t49 -15q34 0 76.5 31t70.5 79l51 357h92zM339 718l-138 -91l-36 44l153 121h61l118 -121l-46 -44z" />
<glyph unicode="&#xfc;" horiz-adv-x="570" d="M438 0h-79l3 88q-35 -48 -79 -74t-86 -26q-132 0 -132 127q0 19 3 41l52 371h92l-52 -367q-3 -20 -3 -34q0 -36 16 -51t49 -15q34 0 76.5 31t70.5 79l51 357h92zM231 647q-25 0 -41.5 16t-16.5 40q0 25 16.5 41t41.5 16q24 0 40.5 -16t16.5 -41q0 -24 -16.5 -40 t-40.5 -16zM440 647q-24 0 -40.5 16t-16.5 40q0 25 16.5 41t40.5 16q25 0 41.5 -16t16.5 -41q0 -24 -16.5 -40t-41.5 -16z" />
<glyph unicode="&#xfd;" horiz-adv-x="478" d="M508 527l-248 -529q-46 -97 -108 -149t-166 -62l-3 74q76 13 117 45t71 94h-34l-98 527h95l72 -453h4l200 453h98zM213 622l-25 53l202 124l41 -86z" />
<glyph unicode="&#xfe;" horiz-adv-x="582" d="M21 -213l133 952l94 11l-46 -323q35 53 83 82.5t92 29.5q69 0 109 -47t40 -140q0 -161 -69.5 -262.5t-168.5 -101.5q-81 0 -138 65l-36 -255zM353 466q-37 0 -81 -37.5t-85 -111.5l-27 -194q46 -63 114 -63q59 0 105.5 79.5t46.5 210.5q0 58 -21 87t-52 29z" />
<glyph unicode="&#xff;" horiz-adv-x="478" d="M508 527l-248 -529q-46 -97 -108 -149t-166 -62l-3 74q76 13 117 45t71 94h-34l-98 527h95l72 -453h4l200 453h98zM190 647q-25 0 -41.5 16t-16.5 40q0 25 16.5 41t41.5 16q24 0 40.5 -16t16.5 -41q0 -24 -16.5 -40t-40.5 -16zM399 647q-24 0 -40.5 16t-16.5 40 q0 25 16.5 41t40.5 16q25 0 41.5 -16t16.5 -41q0 -24 -16.5 -40t-41.5 -16z" />
<glyph unicode="&#x100;" horiz-adv-x="569" d="M436 0l-31 173h-266l-74 -173h-99l308 689h120l139 -689h-97zM323 603l-151 -353h219l-64 353h-4zM493 866l-9 -70h-273l9 70h273z" />
<glyph unicode="&#x101;" horiz-adv-x="575" d="M513 494l-55 -366q-3 -18 -3 -29q0 -33 29 -45l-29 -66q-40 5 -64.5 29t-27.5 62q-33 -43 -74 -67t-79 -24q-77 0 -121 54t-44 158q0 151 81 245t198 94q56 0 94.5 -9.5t94.5 -35.5zM234 61q30 0 66.5 27t69.5 77l44 284q-39 17 -85 17q-79 0 -131.5 -69t-52.5 -197 q0 -72 25 -105.5t64 -33.5zM481 743l-9 -69h-273l9 69h273z" />
<glyph unicode="&#x102;" horiz-adv-x="569" d="M436 0l-31 173h-266l-74 -173h-99l308 689h120l139 -689h-97zM323 603l-151 -353h219l-64 353h-4zM349 760q-66 0 -103.5 40.5t-37.5 90.5l62 13q11 -74 80 -74q71 0 100 74l60 -13q-14 -53 -55 -92t-106 -39z" />
<glyph unicode="&#x103;" horiz-adv-x="575" d="M513 494l-55 -366q-3 -18 -3 -29q0 -33 29 -45l-29 -66q-40 5 -64.5 29t-27.5 62q-33 -43 -74 -67t-79 -24q-77 0 -121 54t-44 158q0 151 81 245t198 94q56 0 94.5 -9.5t94.5 -35.5zM234 61q30 0 66.5 27t69.5 77l44 284q-39 17 -85 17q-79 0 -131.5 -69t-52.5 -197 q0 -72 25 -105.5t64 -33.5zM330 628q-65 0 -98.5 43t-32.5 97l63 13q12 -84 77 -84q69 0 104 84l59 -13q-14 -54 -60.5 -97t-111.5 -43z" />
<glyph unicode="&#x104;" horiz-adv-x="569" d="M436 0l-31 173h-266l-74 -173h-99l308 689h120l139 -689q-106 -60 -106 -136q0 -44 59 -44q37 0 63 15l19 -54q-47 -22 -100 -22q-57 0 -87.5 25.5t-30.5 69.5q0 41 29 79.5t80 66.5h-23zM323 603l-151 -353h219l-64 353h-4z" />
<glyph unicode="&#x105;" horiz-adv-x="575" d="M513 494l-55 -366q-3 -18 -3 -29q0 -33 29 -45l-29 -66q-87 -57 -87 -124q0 -44 59 -44q37 0 63 15l19 -54q-47 -22 -100 -22q-57 0 -87.5 25.5t-30.5 69.5q0 42 31 82.5t85 67.5q-39 24 -44 75q-33 -43 -74 -67t-79 -24q-77 0 -121 54t-44 158q0 151 81 245t198 94 q56 0 94.5 -9.5t94.5 -35.5zM234 61q30 0 66.5 27t69.5 77l44 284q-39 17 -85 17q-79 0 -131.5 -69t-52.5 -197q0 -72 25 -105.5t64 -33.5z" />
<glyph unicode="&#x106;" horiz-adv-x="565" d="M324 70q43 0 77 13.5t75 46.5l46 -65q-87 -77 -211 -77q-114 0 -182 74.5t-68 217.5q0 190 95 305.5t230 115.5q117 0 192 -74l-57 -56q-59 51 -137 51q-92 0 -157 -88.5t-65 -253.5q0 -210 162 -210zM305 755l-25 53l202 114l41 -86z" />
<glyph unicode="&#x107;" horiz-adv-x="466" d="M255 66q56 0 122 44l35 -66q-79 -56 -167 -56q-90 0 -145 59.5t-55 166.5q0 149 77.5 237t186.5 88q89 0 157 -56l-45 -62q-52 41 -111 41q-68 0 -117 -66t-49 -182q0 -148 111 -148zM229 622l-25 53l202 124l41 -86z" />
<glyph unicode="&#x108;" horiz-adv-x="565" d="M324 70q43 0 77 13.5t75 46.5l46 -65q-87 -77 -211 -77q-114 0 -182 74.5t-68 217.5q0 190 95 305.5t230 115.5q117 0 192 -74l-57 -56q-59 51 -137 51q-92 0 -157 -88.5t-65 -253.5q0 -210 162 -210zM403 840l-132 -81l-39 47l147 109h61l124 -111l-44 -45z" />
<glyph unicode="&#x109;" horiz-adv-x="466" d="M255 66q56 0 122 44l35 -66q-79 -56 -167 -56q-90 0 -145 59.5t-55 166.5q0 149 77.5 237t186.5 88q89 0 157 -56l-45 -62q-52 41 -111 41q-68 0 -117 -66t-49 -182q0 -148 111 -148zM330 718l-138 -91l-36 44l153 121h61l118 -121l-46 -44z" />
<glyph unicode="&#x10a;" horiz-adv-x="565" d="M324 70q43 0 77 13.5t75 46.5l46 -65q-87 -77 -211 -77q-114 0 -182 74.5t-68 217.5q0 190 95 305.5t230 115.5q117 0 192 -74l-57 -56q-59 51 -137 51q-92 0 -157 -88.5t-65 -253.5q0 -210 162 -210zM466 837q0 -27 -18 -45t-46 -18t-46 18t-18 45t18 44.5t46 17.5 t46 -17.5t18 -44.5z" />
<glyph unicode="&#x10b;" horiz-adv-x="466" d="M255 66q56 0 122 44l35 -66q-79 -56 -167 -56q-90 0 -145 59.5t-55 166.5q0 149 77.5 237t186.5 88q89 0 157 -56l-45 -62q-52 41 -111 41q-68 0 -117 -66t-49 -182q0 -148 111 -148zM392 715q0 -27 -18 -45t-47 -18q-28 0 -46 18t-18 45t18 44.5t46 17.5q29 0 47 -17.5 t18 -44.5z" />
<glyph unicode="&#x10c;" horiz-adv-x="565" d="M324 70q43 0 77 13.5t75 46.5l46 -65q-87 -77 -211 -77q-114 0 -182 74.5t-68 217.5q0 190 95 305.5t230 115.5q117 0 192 -74l-57 -56q-59 51 -137 51q-92 0 -157 -88.5t-65 -253.5q0 -210 162 -210zM400 834l132 81l39 -47l-147 -109h-61l-124 111l44 45z" />
<glyph unicode="&#x10d;" horiz-adv-x="466" d="M255 66q56 0 122 44l35 -66q-79 -56 -167 -56q-90 0 -145 59.5t-55 166.5q0 149 77.5 237t186.5 88q89 0 157 -56l-45 -62q-52 41 -111 41q-68 0 -117 -66t-49 -182q0 -148 111 -148zM215 792l112 -91l138 91l34 -44l-152 -121h-61l-119 121z" />
<glyph unicode="&#x10e;" horiz-adv-x="652" d="M255 75q113 0 182.5 86t69.5 250q0 202 -202 202h-70l-66 -538h86zM607 415q0 -196 -95.5 -305.5t-261.5 -109.5h-185l84 689h163q137 0 216 -71t79 -203zM362 834l132 81l39 -47l-147 -109h-61l-124 111l44 45z" />
<glyph unicode="&#x10f;" horiz-adv-x="629" d="M454 0h-81l1 81q-72 -93 -158 -93q-76 0 -123.5 56.5t-47.5 162.5q0 149 71.5 240.5t166.5 91.5q85 0 145 -63l39 274l92 -11zM241 61q33 0 71.5 29t72.5 82l33 231q-50 63 -120 63q-63 0 -108.5 -67t-45.5 -192q0 -146 97 -146zM707 704l-63 -106h-53l43 116 q-25 18 -25 47q0 24 17 40t41 16t40.5 -16t16.5 -40q0 -28 -17 -57z" />
<glyph unicode="&#x110;" horiz-adv-x="652" d="M607 415q0 -196 -95.5 -305.5t-261.5 -109.5h-185l39 318h-82l8 70h82l37 301h163q137 0 216 -71t79 -203zM255 75q113 0 182.5 86t69.5 250q0 202 -202 202h-70l-28 -225h172l-8 -70h-172l-30 -243h86z" />
<glyph unicode="&#x111;" horiz-adv-x="596" d="M539 597l-85 -597h-81l1 81q-72 -93 -158 -93q-76 0 -123.5 56.5t-47.5 162.5q0 149 71.5 240.5t166.5 91.5q85 0 145 -63l17 121h-164l10 70h164l12 83l92 -11l-10 -72h79l-10 -70h-79zM241 61q33 0 71.5 29t72.5 82l33 231q-50 63 -120 63q-63 0 -108.5 -67t-45.5 -192 q0 -146 97 -146z" />
<glyph unicode="&#x112;" horiz-adv-x="530" d="M502 613h-267l-28 -225h232l-9 -76h-232l-29 -236h286l-9 -76h-381l84 689h373zM492 866l-9 -70h-273l9 70h273z" />
<glyph unicode="&#x113;" horiz-adv-x="510" d="M484 404q0 -83 -84 -135.5t-258 -64.5q1 -69 30.5 -103.5t74.5 -34.5q72 0 140 48l39 -64q-84 -62 -175 -62q-97 0 -151.5 59.5t-54.5 162.5q0 150 78 239.5t192 89.5q78 0 123.5 -36t45.5 -99zM313 466q-61 0 -108 -53.5t-59 -143.5q134 11 186.5 43.5t52.5 89.5 q0 31 -19 47.5t-53 16.5zM472 743l-9 -69h-273l9 69h273z" />
<glyph unicode="&#x114;" horiz-adv-x="530" d="M502 613h-267l-28 -225h232l-9 -76h-232l-29 -236h286l-9 -76h-381l84 689h373zM348 760q-66 0 -103.5 40.5t-37.5 90.5l62 13q11 -74 80 -74q71 0 100 74l60 -13q-14 -53 -55 -92t-106 -39z" />
<glyph unicode="&#x115;" horiz-adv-x="510" d="M484 404q0 -83 -84 -135.5t-258 -64.5q1 -69 30.5 -103.5t74.5 -34.5q72 0 140 48l39 -64q-84 -62 -175 -62q-97 0 -151.5 59.5t-54.5 162.5q0 150 78 239.5t192 89.5q78 0 123.5 -36t45.5 -99zM313 466q-61 0 -108 -53.5t-59 -143.5q134 11 186.5 43.5t52.5 89.5 q0 31 -19 47.5t-53 16.5zM320 628q-65 0 -98.5 43t-32.5 97l63 13q12 -84 77 -84q69 0 104 84l59 -13q-14 -54 -60.5 -97t-111.5 -43z" />
<glyph unicode="&#x116;" horiz-adv-x="530" d="M502 613h-267l-28 -225h232l-9 -76h-232l-29 -236h286l-9 -76h-381l84 689h373zM414 837q0 -27 -18 -45t-46 -18t-46 18t-18 45t18 44.5t46 17.5t46 -17.5t18 -44.5z" />
<glyph unicode="&#x117;" horiz-adv-x="510" d="M484 404q0 -83 -84 -135.5t-258 -64.5q1 -69 30.5 -103.5t74.5 -34.5q72 0 140 48l39 -64q-84 -62 -175 -62q-97 0 -151.5 59.5t-54.5 162.5q0 150 78 239.5t192 89.5q78 0 123.5 -36t45.5 -99zM313 466q-61 0 -108 -53.5t-59 -143.5q134 11 186.5 43.5t52.5 89.5 q0 31 -19 47.5t-53 16.5zM395 715q0 -27 -18 -45t-47 -18q-28 0 -46 18t-18 45t18 44.5t46 17.5q29 0 47 -17.5t18 -44.5z" />
<glyph unicode="&#x118;" horiz-adv-x="530" d="M502 613h-267l-28 -225h232l-9 -76h-232l-29 -236h286l-9 -76q-106 -60 -106 -136q0 -44 59 -44q37 0 63 15l19 -54q-47 -22 -100 -22q-57 0 -87.5 25.5t-30.5 69.5q0 41 29 79.5t80 66.5h-307l84 689h373z" />
<glyph unicode="&#x119;" horiz-adv-x="510" d="M484 404q0 -83 -84 -135.5t-258 -64.5q1 -69 30.5 -103.5t74.5 -34.5q72 0 140 48l39 -64q-48 -36 -97 -50q-105 -60 -105 -136q0 -44 59 -44q37 0 63 15l19 -54q-47 -22 -100 -22q-57 0 -87.5 25.5t-30.5 69.5q0 36 24.5 72t67.5 63q-94 4 -144 62.5t-50 158.5 q0 150 78 239.5t192 89.5q78 0 123.5 -36t45.5 -99zM313 466q-61 0 -108 -53.5t-59 -143.5q134 11 186.5 43.5t52.5 89.5q0 31 -19 47.5t-53 16.5z" />
<glyph unicode="&#x11a;" horiz-adv-x="530" d="M502 613h-267l-28 -225h232l-9 -76h-232l-29 -236h286l-9 -76h-381l84 689h373zM348 834l132 81l39 -47l-147 -109h-61l-124 111l44 45z" />
<glyph unicode="&#x11b;" horiz-adv-x="510" d="M484 404q0 -83 -84 -135.5t-258 -64.5q1 -69 30.5 -103.5t74.5 -34.5q72 0 140 48l39 -64q-84 -62 -175 -62q-97 0 -151.5 59.5t-54.5 162.5q0 150 78 239.5t192 89.5q78 0 123.5 -36t45.5 -99zM313 466q-61 0 -108 -53.5t-59 -143.5q134 11 186.5 43.5t52.5 89.5 q0 31 -19 47.5t-53 16.5zM219 792l112 -91l138 91l34 -44l-152 -121h-61l-119 121z" />
<glyph unicode="&#x11c;" horiz-adv-x="630" d="M321 -12q-260 0 -260 297q0 196 97 306t236 110q123 0 205 -76l-61 -58q-63 56 -150 56q-94 0 -160.5 -89t-66.5 -251q0 -217 168 -217q67 0 128 35l25 201h-130l-3 77h235l-40 -326q-98 -65 -223 -65zM411 840l-132 -81l-39 47l147 109h61l124 -111l-44 -45z" />
<glyph unicode="&#x11d;" horiz-adv-x="580" d="M356 16l10 69q-33 -41 -73.5 -64t-77.5 -23q-75 0 -122.5 57t-47.5 160q0 142 83 233t200 91q55 0 96 -9.5t94 -35.5l-69 -478q-16 -111 -81 -170t-164 -59q-94 0 -181 51l35 68q76 -42 143 -42q62 0 103 38t52 114zM235 73q35 0 73 27t71 77l40 272q-41 17 -88 17 q-77 0 -131.5 -66t-54.5 -185q0 -74 25 -108t65 -34zM347 718l-138 -91l-36 44l153 121h61l118 -121l-46 -44z" />
<glyph unicode="&#x11e;" horiz-adv-x="630" d="M321 -12q-260 0 -260 297q0 196 97 306t236 110q123 0 205 -76l-61 -58q-63 56 -150 56q-94 0 -160.5 -89t-66.5 -251q0 -217 168 -217q67 0 128 35l25 201h-130l-3 77h235l-40 -326q-98 -65 -223 -65zM406 760q-66 0 -103.5 40.5t-37.5 90.5l62 13q11 -74 80 -74 q71 0 100 74l60 -13q-14 -53 -55 -92t-106 -39z" />
<glyph unicode="&#x11f;" horiz-adv-x="580" d="M356 16l10 69q-33 -41 -73.5 -64t-77.5 -23q-75 0 -122.5 57t-47.5 160q0 142 83 233t200 91q55 0 96 -9.5t94 -35.5l-69 -478q-16 -111 -81 -170t-164 -59q-94 0 -181 51l35 68q76 -42 143 -42q62 0 103 38t52 114zM235 73q35 0 73 27t71 77l40 272q-41 17 -88 17 q-77 0 -131.5 -66t-54.5 -185q0 -74 25 -108t65 -34zM319 628q-65 0 -98.5 43t-32.5 97l63 13q12 -84 77 -84q69 0 104 84l59 -13q-14 -54 -60.5 -97t-111.5 -43z" />
<glyph unicode="&#x120;" horiz-adv-x="630" d="M321 -12q-260 0 -260 297q0 196 97 306t236 110q123 0 205 -76l-61 -58q-63 56 -150 56q-94 0 -160.5 -89t-66.5 -251q0 -217 168 -217q67 0 128 35l25 201h-130l-3 77h235l-40 -326q-98 -65 -223 -65zM471 837q0 -27 -18 -45t-46 -18t-46 18t-18 45t18 44.5t46 17.5 t46 -17.5t18 -44.5z" />
<glyph unicode="&#x121;" horiz-adv-x="580" d="M356 16l10 69q-33 -41 -73.5 -64t-77.5 -23q-75 0 -122.5 57t-47.5 160q0 142 83 233t200 91q55 0 96 -9.5t94 -35.5l-69 -478q-16 -111 -81 -170t-164 -59q-94 0 -181 51l35 68q76 -42 143 -42q62 0 103 38t52 114zM235 73q35 0 73 27t71 77l40 272q-41 17 -88 17 q-77 0 -131.5 -66t-54.5 -185q0 -74 25 -108t65 -34zM408 715q0 -27 -18 -45t-47 -18q-28 0 -46 18t-18 45t18 44.5t46 17.5q29 0 47 -17.5t18 -44.5z" />
<glyph unicode="&#x122;" horiz-adv-x="630" d="M321 -12q-260 0 -260 297q0 196 97 306t236 110q123 0 205 -76l-61 -58q-63 56 -150 56q-94 0 -160.5 -89t-66.5 -251q0 -217 168 -217q67 0 128 35l25 201h-130l-3 77h235l-40 -326q-98 -65 -223 -65zM323 -182l-63 -106h-53l43 116q-25 18 -25 47q0 24 17 40t41 16 t40.5 -16t16.5 -40q0 -28 -17 -57z" />
<glyph unicode="&#x123;" horiz-adv-x="580" d="M356 16l10 69q-33 -41 -73.5 -64t-77.5 -23q-75 0 -122.5 57t-47.5 160q0 142 83 233t200 91q55 0 96 -9.5t94 -35.5l-69 -478q-16 -111 -81 -170t-164 -59q-94 0 -181 51l35 68q76 -42 143 -42q62 0 103 38t52 114zM235 73q35 0 73 27t71 77l40 272q-41 17 -88 17 q-77 0 -131.5 -66t-54.5 -185q0 -74 25 -108t65 -34zM291 755l63 106h53l-43 -116q25 -18 25 -47q0 -24 -17 -40t-41 -16t-40.5 16t-16.5 40q0 28 17 57z" />
<glyph unicode="&#x124;" horiz-adv-x="669" d="M535 0h-95l39 323h-280l-39 -323h-95l84 689h95l-35 -288h280l35 288h95zM403 840l-132 -81l-39 47l147 109h61l124 -111l-44 -45z" />
<glyph unicode="&#x125;" horiz-adv-x="576" d="M143 0h-92l103 739l94 11l-46 -326q82 115 180 115q56 0 88.5 -33t32.5 -98q0 -19 -3 -40l-51 -368h-92l47 348q4 24 4 47q0 39 -14 53.5t-44 14.5q-81 0 -163 -150zM343 860l-132 -81l-39 47l147 109h61l124 -111l-44 -45z" />
<glyph unicode="&#x126;" horiz-adv-x="684" d="M543 0h-95l39 323h-281l-39 -323h-95l62 508h-77l8 69h77l14 112h95l-14 -112h281l14 112h95l-14 -112h78l-8 -69h-78zM216 401h281l13 107h-281z" />
<glyph unicode="&#x127;" horiz-adv-x="586" d="M153 0h-92l83 597h-79l10 70h79l10 72l94 11l-12 -83h166l-10 -70h-166l-24 -173q82 115 180 115q56 0 88.5 -33t32.5 -98q0 -19 -3 -40l-51 -368h-92l47 348q4 24 4 47q0 39 -14 53.5t-44 14.5q-81 0 -163 -150z" />
<glyph unicode="&#x128;" horiz-adv-x="294" d="M160 0h-95l84 689h95zM265 773q-32 0 -64.5 24t-44.5 24q-16 0 -28 -10.5t-28 -33.5l-54 25q49 89 118 89q34 0 66 -24t44 -24q27 0 56 43l54 -25q-51 -88 -119 -88z" />
<glyph unicode="&#x129;" horiz-adv-x="265" d="M138 0h-92l74 527h92zM242 650q-32 0 -63.5 24t-43.5 24q-26 0 -57 -44l-54 26q51 88 122 88q34 0 64.5 -24t42.5 -24q26 0 57 44l54 -25q-51 -89 -122 -89z" />
<glyph unicode="&#x12a;" horiz-adv-x="294" d="M160 0h-95l84 689h95zM355 866l-9 -70h-273l9 70h273z" />
<glyph unicode="&#x12b;" horiz-adv-x="265" d="M138 0h-92l74 527h92zM334 743l-9 -69h-273l9 69h273z" />
<glyph unicode="&#x12c;" horiz-adv-x="294" d="M160 0h-95l84 689h95zM212 760q-66 0 -103.5 40.5t-37.5 90.5l62 13q11 -74 80 -74q71 0 100 74l60 -13q-14 -53 -55 -92t-106 -39z" />
<glyph unicode="&#x12d;" horiz-adv-x="265" d="M138 0h-92l74 527h92zM181 628q-65 0 -98.5 43t-32.5 97l63 13q12 -84 77 -84q69 0 104 84l59 -13q-14 -54 -60.5 -97t-111.5 -43z" />
<glyph unicode="&#x12e;" horiz-adv-x="294" d="M160 0q-106 -60 -106 -136q0 -44 59 -44q37 0 63 15l19 -54q-47 -22 -100 -22q-57 0 -87.5 25.5t-30.5 69.5q0 41 29 79.5t80 66.5h-21l84 689h95z" />
<glyph unicode="&#x12f;" horiz-adv-x="265" d="M138 0q-106 -60 -106 -136q0 -44 59 -44q37 0 63 15l19 -54q-47 -22 -100 -22q-57 0 -87.5 25.5t-30.5 69.5q0 41 29 79.5t80 66.5h-18l74 527h92zM255 715q0 -27 -18.5 -45t-46.5 -18t-46 18t-18 45t18 44.5t46 17.5t46.5 -18t18.5 -44z" />
<glyph unicode="&#x130;" horiz-adv-x="294" d="M160 0h-95l84 689h95zM278 837q0 -27 -18 -45t-46 -18t-46 18t-18 45t18 44.5t46 17.5t46 -17.5t18 -44.5z" />
<glyph unicode="&#x131;" horiz-adv-x="265" d="M138 0h-92l74 527h92z" />
<glyph unicode="&#x132;" horiz-adv-x="590" d="M160 0h-95l84 689h95zM265 -139l-19 78q70 24 97.5 60t35.5 108l71 582h95l-73 -595q-12 -98 -59.5 -151.5t-147.5 -81.5z" />
<glyph unicode="&#x133;" horiz-adv-x="530" d="M214 -212l-26 69q60 26 88 61t39 114l70 495h92l-70 -495q-15 -108 -58.5 -159t-134.5 -85zM520 715q0 -27 -18.5 -45t-46.5 -18t-46 18t-18 45t18 44.5t46 17.5t46.5 -18t18.5 -44zM138 0h-92l74 527h92zM255 715q0 -27 -18.5 -45t-46.5 -18t-46 18t-18 45t18 44.5 t46 17.5t46.5 -18t18.5 -44z" />
<glyph unicode="&#x134;" horiz-adv-x="296" d="M-29 -139l-19 78q70 24 97.5 60t35.5 108l71 582h95l-73 -595q-12 -98 -59.5 -151.5t-147.5 -81.5zM222 840l-132 -81l-39 47l147 109h61l124 -111l-44 -45z" />
<glyph unicode="&#x135;" horiz-adv-x="265" d="M-51 -212l-26 69q60 26 88 61t39 114l70 495h92l-70 -495q-15 -108 -58.5 -159t-134.5 -85zM196 718l-138 -91l-36 44l153 121h61l118 -121l-46 -44z" />
<glyph unicode="&#x136;" horiz-adv-x="579" d="M244 689l-84 -689h-95l84 689h95zM442 0l-232 368l299 321h110l-302 -324l237 -365h-112zM293 -182l-63 -106h-53l43 116q-25 18 -25 47q0 24 17 40t41 16t40.5 -16t16.5 -40q0 -28 -17 -57z" />
<glyph unicode="&#x137;" horiz-adv-x="541" d="M143 0h-92l103 739l94 11l-45 -321q75 110 184 110q55 0 91.5 -33t36.5 -83q0 -138 -163 -190l119 -233h-103l-125 257q93 26 134 61.5t41 90.5q0 27 -15.5 42t-42.5 15q-46 0 -94 -41t-80 -119zM249 -182l-63 -106h-53l43 116q-25 18 -25 47q0 24 17 40t41 16t40.5 -16 t16.5 -40q0 -28 -17 -57z" />
<glyph unicode="&#x138;" horiz-adv-x="508" d="M143 0h-92l74 527h92zM358 0l-170 282l232 245h103l-231 -244l176 -283h-110z" />
<glyph unicode="&#x139;" horiz-adv-x="493" d="M432 0h-367l84 689h95l-75 -606h283zM149 755l-25 53l202 114l41 -86z" />
<glyph unicode="&#x13a;" horiz-adv-x="263" d="M197 71l21 -65q-40 -18 -77 -18q-51 0 -77 33t-17 94l88 624l94 11l-91 -643q-4 -23 2.5 -32.5t24.5 -9.5q17 0 32 6zM88 775l-25 53l202 114l41 -86z" />
<glyph unicode="&#x13b;" horiz-adv-x="493" d="M432 0h-367l84 689h95l-75 -606h283zM260 -182l-63 -106h-53l43 116q-25 18 -25 47q0 24 17 40t41 16t40.5 -16t16.5 -40q0 -28 -17 -57z" />
<glyph unicode="&#x13c;" horiz-adv-x="263" d="M197 71l21 -65q-40 -18 -77 -18q-51 0 -77 33t-17 94l88 624l94 11l-91 -643q-4 -23 2.5 -32.5t24.5 -9.5q17 0 32 6zM133 -182l-63 -106h-53l43 116q-25 18 -25 47q0 24 17 40t41 16t40.5 -16t16.5 -40q0 -28 -17 -57z" />
<glyph unicode="&#x13d;" horiz-adv-x="493" d="M432 0h-367l84 689h95l-75 -606h283zM464 579l-63 -106h-53l43 116q-25 18 -25 47q0 24 17 40t41 16t40.5 -16t16.5 -40q0 -28 -17 -57z" />
<glyph unicode="&#x13e;" horiz-adv-x="307" d="M213 71l21 -65q-40 -18 -77 -18q-51 0 -77 33t-17 94l88 624l94 11l-91 -643q-4 -23 2.5 -32.5t24.5 -9.5q17 0 32 6zM395 704l-63 -106h-53l43 116q-25 18 -25 47q0 24 17 40t41 16t40.5 -16t16.5 -40q0 -28 -17 -57z" />
<glyph unicode="&#x13f;" horiz-adv-x="493" d="M432 0h-367l84 689h95l-75 -606h283zM450 361q0 -27 -18 -45t-47 -18q-28 0 -46 18t-18 45t18 44.5t46 17.5q29 0 47 -17.5t18 -44.5z" />
<glyph unicode="&#x140;" horiz-adv-x="314" d="M206 71l21 -65q-41 -18 -77 -18q-51 0 -77 33t-17 94l88 624l94 11l-91 -643q-4 -23 2.5 -32.5t24.5 -9.5q17 0 32 6zM356 359q0 -27 -18 -45t-47 -18q-28 0 -46 18t-18 45t18 44.5t46 17.5q29 0 47 -17.5t18 -44.5z" />
<glyph unicode="&#x141;" horiz-adv-x="503" d="M442 0h-367l32 264l-60 -35l-31 60l101 58l42 342h95l-35 -284l153 89l31 -59l-194 -113l-30 -242h283z" />
<glyph unicode="&#x142;" horiz-adv-x="285" d="M216 71l21 -65q-41 -18 -77 -18q-51 0 -77 33t-17 94l26 185l-53 -30l-29 58l93 53l51 358l94 11l-44 -312l76 43l30 -58l-118 -67l-35 -249q-4 -23 2.5 -32.5t24.5 -9.5q17 0 32 6z" />
<glyph unicode="&#x143;" horiz-adv-x="678" d="M544 0h-126l-201 583h-4q0 -106 -17 -247l-41 -336h-90l84 689h123l204 -586h4q0 101 18 250l41 336h89zM328 755l-25 53l202 114l41 -86z" />
<glyph unicode="&#x144;" horiz-adv-x="576" d="M186 312l-43 -312h-92l74 527h79l-10 -112q85 124 188 124q56 0 88.5 -33t32.5 -98q0 -19 -3 -40l-51 -368h-92l47 348q4 24 4 47q0 39 -14 53.5t-44 14.5q-80 0 -164 -151zM258 622l-25 53l202 124l41 -86z" />
<glyph unicode="&#x145;" horiz-adv-x="678" d="M544 0h-126l-201 583h-4q0 -106 -17 -247l-41 -336h-90l84 689h123l204 -586h4q0 101 18 250l41 336h89zM324 -182l-63 -106h-53l43 116q-25 18 -25 47q0 24 17 40t41 16t40.5 -16t16.5 -40q0 -28 -17 -57z" />
<glyph unicode="&#x146;" horiz-adv-x="576" d="M186 312l-43 -312h-92l74 527h79l-10 -112q85 124 188 124q56 0 88.5 -33t32.5 -98q0 -19 -3 -40l-51 -368h-92l47 348q4 24 4 47q0 39 -14 53.5t-44 14.5q-80 0 -164 -151zM267 -182l-63 -106h-53l43 116q-25 18 -25 47q0 24 17 40t41 16t40.5 -16t16.5 -40 q0 -28 -17 -57z" />
<glyph unicode="&#x147;" horiz-adv-x="678" d="M544 0h-126l-201 583h-4q0 -106 -17 -247l-41 -336h-90l84 689h123l204 -586h4q0 101 18 250l41 336h89zM400 834l132 81l39 -47l-147 -109h-61l-124 111l44 45z" />
<glyph unicode="&#x148;" horiz-adv-x="576" d="M186 312l-43 -312h-92l74 527h79l-10 -112q85 124 188 124q56 0 88.5 -33t32.5 -98q0 -19 -3 -40l-51 -368h-92l47 348q4 24 4 47q0 39 -14 53.5t-44 14.5q-80 0 -164 -151zM237 792l112 -91l138 91l34 -44l-152 -121h-61l-119 121z" />
<glyph unicode="&#x149;" horiz-adv-x="576" d="M186 312l-43 -312h-92l74 527h79l-10 -112q85 124 188 124q56 0 88.5 -33t32.5 -98q0 -19 -3 -40l-51 -368h-92l47 348q4 24 4 47q0 39 -14 53.5t-44 14.5q-80 0 -164 -151zM197 749l-63 -106h-53l43 116q-25 18 -25 47q0 24 17 40t41 16t40.5 -16t16.5 -40 q0 -28 -17 -57z" />
<glyph unicode="&#x14a;" horiz-adv-x="678" d="M418 0l-201 583h-4q0 -106 -17 -247l-41 -336h-90l84 689h123l204 -586h4q0 101 18 250l41 336h89l-81 -666q-12 -100 -62.5 -155t-145.5 -81l-19 78q61 21 89 51.5t39 83.5h-30z" />
<glyph unicode="&#x14b;" horiz-adv-x="576" d="M143 0h-92l74 527h79l-10 -112q85 124 188 124q56 0 88.5 -33t32.5 -98q0 -19 -3 -40l-47 -336q-15 -107 -57.5 -158.5t-134.5 -85.5l-26 69q60 26 87.5 61t38.5 114l43 316q4 24 4 47q0 39 -14 53.5t-44 14.5q-80 0 -164 -151z" />
<glyph unicode="&#x14c;" horiz-adv-x="688" d="M642 416q0 -79 -19 -152.5t-56.5 -136.5t-102.5 -101t-148 -38q-117 0 -186 73t-69 210q0 78 19 151.5t56.5 137.5t102.5 102.5t148 38.5q116 0 185.5 -74t69.5 -211zM317 66q64 0 110 33.5t69.5 89.5t34 114.5t10.5 121.5q0 198 -155 198q-63 0 -109.5 -34t-70 -89.5 t-34.5 -113.5t-11 -120q0 -200 156 -200zM552 866l-9 -70h-273l9 70h273z" />
<glyph unicode="&#x14d;" horiz-adv-x="575" d="M254 62q83 0 125.5 77.5t42.5 186.5q0 139 -110 139q-75 0 -122 -67.5t-47 -196.5q0 -139 111 -139zM45 209q0 135 70.5 232.5t199.5 97.5q97 0 151 -59t54 -161q0 -146 -74 -238.5t-195 -92.5q-97 0 -151.5 59t-54.5 162zM482 743l-9 -69h-273l9 69h273z" />
<glyph unicode="&#x14e;" horiz-adv-x="688" d="M642 416q0 -79 -19 -152.5t-56.5 -136.5t-102.5 -101t-148 -38q-117 0 -186 73t-69 210q0 78 19 151.5t56.5 137.5t102.5 102.5t148 38.5q116 0 185.5 -74t69.5 -211zM317 66q64 0 110 33.5t69.5 89.5t34 114.5t10.5 121.5q0 198 -155 198q-63 0 -109.5 -34t-70 -89.5 t-34.5 -113.5t-11 -120q0 -200 156 -200zM408 760q-66 0 -103.5 40.5t-37.5 90.5l62 13q11 -74 80 -74q71 0 100 74l60 -13q-14 -53 -55 -92t-106 -39z" />
<glyph unicode="&#x14f;" horiz-adv-x="575" d="M254 62q83 0 125.5 77.5t42.5 186.5q0 139 -110 139q-75 0 -122 -67.5t-47 -196.5q0 -139 111 -139zM45 209q0 135 70.5 232.5t199.5 97.5q97 0 151 -59t54 -161q0 -146 -74 -238.5t-195 -92.5q-97 0 -151.5 59t-54.5 162zM329 628q-65 0 -98.5 43t-32.5 97l63 13 q12 -84 77 -84q69 0 104 84l59 -13q-14 -54 -60.5 -97t-111.5 -43z" />
<glyph unicode="&#x150;" horiz-adv-x="688" d="M642 416q0 -79 -19 -152.5t-56.5 -136.5t-102.5 -101t-148 -38q-117 0 -186 73t-69 210q0 78 19 151.5t56.5 137.5t102.5 102.5t148 38.5q116 0 185.5 -74t69.5 -211zM317 66q64 0 110 33.5t69.5 89.5t34 114.5t10.5 121.5q0 198 -155 198q-63 0 -109.5 -34t-70 -89.5 t-34.5 -113.5t-11 -120q0 -200 156 -200zM352 765l-57 28l102 176l76 -38zM514 763l-55 30l111 176l74 -41z" />
<glyph unicode="&#x151;" horiz-adv-x="575" d="M254 62q83 0 125.5 77.5t42.5 186.5q0 139 -110 139q-75 0 -122 -67.5t-47 -196.5q0 -139 111 -139zM45 209q0 135 70.5 232.5t199.5 97.5q97 0 151 -59t54 -161q0 -146 -74 -238.5t-195 -92.5q-97 0 -151.5 59t-54.5 162zM229 635l-56 28l105 176l75 -38zM391 633 l-54 30l114 176l73 -41z" />
<glyph unicode="&#x152;" horiz-adv-x="907" d="M619 416q0 -20 -1 -29h198l-9 -75h-197q-25 -148 -106 -237h328l-9 -75h-435q-38 -12 -81 -12q-115 0 -180 72.5t-65 210.5q0 78 19 152t55.5 137.5t99 102t142.5 38.5q40 0 76 -12h445l-20 -75h-320q60 -76 60 -198zM308 66q60 0 104 33.5t67 89.5t33 114.5t10 121.5 q0 198 -145 198q-59 0 -103.5 -34t-67.5 -89.5t-33.5 -114t-10.5 -119.5q0 -106 36.5 -153t109.5 -47z" />
<glyph unicode="&#x153;" horiz-adv-x="868" d="M45 209q0 64 16.5 122t49 105t85 75t118.5 28q119 0 170 -105q73 105 187 105q78 0 123.5 -36t45.5 -99q0 -90 -91 -140t-251 -60q1 -67 29.5 -102t75.5 -35q73 0 140 47l40 -65q-84 -61 -176 -61q-112 0 -166 104q-69 -104 -191 -104q-97 0 -151 59t-54 162zM253 62 q46 0 80.5 25t52.5 66t26.5 84.5t8.5 88.5q0 139 -110 139q-74 0 -121 -67.5t-47 -196.5q0 -139 110 -139zM669 466q-61 0 -108 -53.5t-59 -143.5q129 11 184 42.5t55 90.5q0 30 -19 47t-53 17z" />
<glyph unicode="&#x154;" horiz-adv-x="595" d="M570 516q0 -82 -49.5 -138.5t-132.5 -73.5l157 -304h-108l-141 292h-101l-35 -292h-95l84 689h172q122 0 185.5 -45.5t63.5 -127.5zM308 365q76 0 118 38.5t42 110.5q0 101 -151 101h-82l-31 -250h104zM282 755l-25 53l202 114l41 -86z" />
<glyph unicode="&#x155;" horiz-adv-x="376" d="M143 0h-92l74 527h79l-13 -139q33 77 76 114t88 37q29 0 51 -6l-31 -98q-23 6 -43 6q-91 -2 -154 -189zM178 622l-25 53l202 124l41 -86z" />
<glyph unicode="&#x156;" horiz-adv-x="595" d="M570 516q0 -82 -49.5 -138.5t-132.5 -73.5l157 -304h-108l-141 292h-101l-35 -292h-95l84 689h172q122 0 185.5 -45.5t63.5 -127.5zM308 365q76 0 118 38.5t42 110.5q0 101 -151 101h-82l-31 -250h104zM290 -182l-63 -106h-53l43 116q-25 18 -25 47q0 24 17 40t41 16 t40.5 -16t16.5 -40q0 -28 -17 -57z" />
<glyph unicode="&#x157;" horiz-adv-x="376" d="M143 0h-92l74 527h79l-13 -139q33 77 76 114t88 37q29 0 51 -6l-31 -98q-23 6 -43 6q-91 -2 -154 -189zM119 -182l-63 -106h-53l43 116q-25 18 -25 47q0 24 17 40t41 16t40.5 -16t16.5 -40q0 -28 -17 -57z" />
<glyph unicode="&#x158;" horiz-adv-x="595" d="M570 516q0 -82 -49.5 -138.5t-132.5 -73.5l157 -304h-108l-141 292h-101l-35 -292h-95l84 689h172q122 0 185.5 -45.5t63.5 -127.5zM308 365q76 0 118 38.5t42 110.5q0 101 -151 101h-82l-31 -250h104zM363 834l132 81l39 -47l-147 -109h-61l-124 111l44 45z" />
<glyph unicode="&#x159;" horiz-adv-x="376" d="M143 0h-92l74 527h79l-13 -139q33 77 76 114t88 37q29 0 51 -6l-31 -98q-23 6 -43 6q-91 -2 -154 -189zM152 792l112 -91l138 91l34 -44l-152 -121h-61l-119 121z" />
<glyph unicode="&#x15a;" horiz-adv-x="530" d="M487 204q0 -90 -71 -153t-181 -63q-72 0 -133 25t-101 67l60 60q47 -41 86.5 -56.5t87.5 -15.5q64 0 108 37.5t44 93.5q0 46 -27.5 72.5t-105.5 51.5q-99 32 -141 78t-42 117q0 76 62 129.5t160 53.5q127 0 214 -76l-54 -62q-68 59 -161 59q-56 0 -89 -27.5t-33 -76.5 q0 -41 27.5 -65.5t110.5 -52.5q97 -32 138 -77t41 -119zM236 755l-25 53l202 114l41 -86z" />
<glyph unicode="&#x15b;" horiz-adv-x="462" d="M200 62q48 0 77.5 22.5t29.5 59.5q0 34 -23.5 54.5t-90.5 43.5q-139 46 -139 146q0 69 51.5 110t142.5 41q99 0 171 -58l-46 -62q-59 47 -129 47q-43 0 -67 -19t-24 -51q0 -29 21 -46t91 -42q141 -49 141 -155q0 -76 -55.5 -120.5t-157.5 -44.5q-57 0 -110.5 22t-85.5 54 l55 58q65 -60 148 -60zM180 622l-25 53l202 124l41 -86z" />
<glyph unicode="&#x15c;" horiz-adv-x="530" d="M487 204q0 -90 -71 -153t-181 -63q-72 0 -133 25t-101 67l60 60q47 -41 86.5 -56.5t87.5 -15.5q64 0 108 37.5t44 93.5q0 46 -27.5 72.5t-105.5 51.5q-99 32 -141 78t-42 117q0 76 62 129.5t160 53.5q127 0 214 -76l-54 -62q-68 59 -161 59q-56 0 -89 -27.5t-33 -76.5 q0 -41 27.5 -65.5t110.5 -52.5q97 -32 138 -77t41 -119zM336 840l-132 -81l-39 47l147 109h61l124 -111l-44 -45z" />
<glyph unicode="&#x15d;" horiz-adv-x="462" d="M200 62q48 0 77.5 22.5t29.5 59.5q0 34 -23.5 54.5t-90.5 43.5q-139 46 -139 146q0 69 51.5 110t142.5 41q99 0 171 -58l-46 -62q-59 47 -129 47q-43 0 -67 -19t-24 -51q0 -29 21 -46t91 -42q141 -49 141 -155q0 -76 -55.5 -120.5t-157.5 -44.5q-57 0 -110.5 22t-85.5 54 l55 58q65 -60 148 -60zM285 718l-138 -91l-36 44l153 121h61l118 -121l-46 -44z" />
<glyph unicode="&#x15e;" horiz-adv-x="530" d="M204 -181q52 0 52 45q0 37 -82 37l23 89q-123 13 -196 90l60 60q47 -41 86.5 -56.5t87.5 -15.5q64 0 108 37.5t44 93.5q0 46 -27.5 72.5t-105.5 51.5q-99 32 -141 78t-42 117q0 76 62 129.5t160 53.5q127 0 214 -76l-54 -62q-68 59 -161 59q-56 0 -89 -27.5t-33 -76.5 q0 -41 27.5 -65.5t110.5 -52.5q97 -32 138 -77t41 -119q0 -85 -64.5 -146.5t-166.5 -68.5l-7 -45q40 -4 62.5 -25.5t22.5 -54.5q0 -44 -35.5 -74.5t-92.5 -30.5q-62 0 -105 27l34 51q32 -18 69 -18z" />
<glyph unicode="&#x15f;" horiz-adv-x="462" d="M174 -181q52 0 52 45q0 37 -82 37l23 88q-50 5 -96 26t-74 49l55 58q65 -60 148 -60q48 0 77.5 22.5t29.5 59.5q0 34 -23.5 54.5t-90.5 43.5q-139 46 -139 146q0 69 51.5 110t142.5 41q99 0 171 -58l-46 -62q-59 47 -129 47q-43 0 -67 -19t-24 -51q0 -29 21 -46t91 -42 q141 -49 141 -155q0 -70 -46.5 -113.5t-133.5 -50.5l-7 -45q40 -4 62.5 -25.5t22.5 -54.5q0 -44 -35.5 -74.5t-92.5 -30.5q-62 0 -105 27l34 51q32 -18 69 -18z" />
<glyph unicode="&#x160;" horiz-adv-x="530" d="M487 204q0 -90 -71 -153t-181 -63q-72 0 -133 25t-101 67l60 60q47 -41 86.5 -56.5t87.5 -15.5q64 0 108 37.5t44 93.5q0 46 -27.5 72.5t-105.5 51.5q-99 32 -141 78t-42 117q0 76 62 129.5t160 53.5q127 0 214 -76l-54 -62q-68 59 -161 59q-56 0 -89 -27.5t-33 -76.5 q0 -41 27.5 -65.5t110.5 -52.5q97 -32 138 -77t41 -119zM333 834l132 81l39 -47l-147 -109h-61l-124 111l44 45z" />
<glyph unicode="&#x161;" horiz-adv-x="462" d="M200 62q48 0 77.5 22.5t29.5 59.5q0 34 -23.5 54.5t-90.5 43.5q-139 46 -139 146q0 69 51.5 110t142.5 41q99 0 171 -58l-46 -62q-59 47 -129 47q-43 0 -67 -19t-24 -51q0 -29 21 -46t91 -42q141 -49 141 -155q0 -76 -55.5 -120.5t-157.5 -44.5q-57 0 -110.5 22t-85.5 54 l55 58q65 -60 148 -60zM171 792l112 -91l138 91l34 -44l-152 -121h-61l-119 121z" />
<glyph unicode="&#x162;" horiz-adv-x="507" d="M214 -181q52 0 52 45q0 37 -80 37l26 99h-38l74 608h-198l10 81h493l-20 -81h-190l-81 -664q37 -4 59.5 -26t22.5 -54q0 -44 -35.5 -74.5t-92.5 -30.5q-62 0 -105 27l34 51q32 -18 69 -18z" />
<glyph unicode="&#x163;" horiz-adv-x="358" d="M144 -181q52 0 52 45q0 37 -82 37l26 99q-62 26 -62 114q0 18 3 41l42 302h-84l10 70h85l36 122l73 8l-18 -130h133l-21 -70h-122l-44 -315q-6 -41 6.5 -58.5t43.5 -17.5q30 0 72 23l32 -65q-56 -36 -121 -36h-8l-7 -44q40 -4 62.5 -25.5t22.5 -54.5q0 -44 -35.5 -74.5 t-92.5 -30.5q-62 0 -105 27l34 51q32 -18 69 -18z" />
<glyph unicode="&#x164;" horiz-adv-x="507" d="M533 608h-190l-74 -608h-95l74 608h-198l10 81h493zM318 834l132 81l39 -47l-147 -109h-61l-124 111l44 45z" />
<glyph unicode="&#x165;" horiz-adv-x="358" d="M293 89l32 -65q-56 -36 -121 -36q-126 0 -126 126q0 18 3 41l42 302h-84l10 70h85l36 122l73 8l-18 -130h133l-21 -70h-122l-44 -315q-6 -41 6.5 -58.5t43.5 -17.5q30 0 72 23zM425 704l-63 -106h-53l43 116q-25 18 -25 47q0 24 17 40t41 16t40.5 -16t16.5 -40 q0 -28 -17 -57z" />
<glyph unicode="&#x166;" horiz-adv-x="507" d="M447 433l-9 -70h-125l-44 -363h-95l44 363h-124l9 70h124l21 175h-198l10 81h493l-21 -81h-189l-21 -175h125z" />
<glyph unicode="&#x167;" horiz-adv-x="358" d="M293 89l32 -65q-56 -36 -121 -36q-126 0 -126 126q0 18 3 41l18 130h-79l9 68h79l15 104h-84l10 70h85l36 122l73 8l-18 -130h133l-21 -70h-122l-15 -104h128l-9 -68h-128l-20 -143q-6 -41 6.5 -58.5t43.5 -17.5q30 0 72 23z" />
<glyph unicode="&#x168;" horiz-adv-x="661" d="M621 689l-57 -461q-14 -114 -83 -177t-174 -63q-109 0 -167.5 53t-58.5 153q0 23 3 47l55 448h95l-56 -447q-3 -26 -3 -46q0 -67 32.5 -97.5t98.5 -30.5q68 0 110 40.5t51 115.5l58 465h96zM448 773q-32 0 -64.5 24t-44.5 24q-16 0 -28 -10.5t-28 -33.5l-54 25 q49 89 118 89q34 0 66 -24t44 -24q27 0 56 43l54 -25q-51 -88 -119 -88z" />
<glyph unicode="&#x169;" horiz-adv-x="570" d="M438 0h-79l3 88q-35 -48 -79 -74t-86 -26q-132 0 -132 127q0 19 3 41l52 371h92l-52 -367q-3 -20 -3 -34q0 -36 16 -51t49 -15q34 0 76.5 31t70.5 79l51 357h92zM385 650q-32 0 -63.5 24t-43.5 24q-26 0 -57 -44l-54 26q51 88 122 88q34 0 64.5 -24t42.5 -24q26 0 57 44 l54 -25q-51 -89 -122 -89z" />
<glyph unicode="&#x16a;" horiz-adv-x="661" d="M621 689l-57 -461q-14 -114 -83 -177t-174 -63q-109 0 -167.5 53t-58.5 153q0 23 3 47l55 448h95l-56 -447q-3 -26 -3 -46q0 -67 32.5 -97.5t98.5 -30.5q68 0 110 40.5t51 115.5l58 465h96zM539 866l-9 -70h-273l9 70h273z" />
<glyph unicode="&#x16b;" horiz-adv-x="570" d="M438 0h-79l3 88q-35 -48 -79 -74t-86 -26q-132 0 -132 127q0 19 3 41l52 371h92l-52 -367q-3 -20 -3 -34q0 -36 16 -51t49 -15q34 0 76.5 31t70.5 79l51 357h92zM477 743l-9 -69h-273l9 69h273z" />
<glyph unicode="&#x16c;" horiz-adv-x="661" d="M621 689l-57 -461q-14 -114 -83 -177t-174 -63q-109 0 -167.5 53t-58.5 153q0 23 3 47l55 448h95l-56 -447q-3 -26 -3 -46q0 -67 32.5 -97.5t98.5 -30.5q68 0 110 40.5t51 115.5l58 465h96zM395 760q-66 0 -103.5 40.5t-37.5 90.5l62 13q11 -74 80 -74q71 0 100 74 l60 -13q-14 -53 -55 -92t-106 -39z" />
<glyph unicode="&#x16d;" horiz-adv-x="570" d="M438 0h-79l3 88q-35 -48 -79 -74t-86 -26q-132 0 -132 127q0 19 3 41l52 371h92l-52 -367q-3 -20 -3 -34q0 -36 16 -51t49 -15q34 0 76.5 31t70.5 79l51 357h92zM325 628q-65 0 -98.5 43t-32.5 97l63 13q12 -84 77 -84q69 0 104 84l59 -13q-14 -54 -60.5 -97t-111.5 -43z " />
<glyph unicode="&#x16e;" horiz-adv-x="661" d="M621 689l-57 -461q-14 -114 -83 -177t-174 -63q-109 0 -167.5 53t-58.5 153q0 23 3 47l55 448h95l-56 -447q-3 -26 -3 -46q0 -67 32.5 -97.5t98.5 -30.5q68 0 110 40.5t51 115.5l58 465h96zM403 901q-26 0 -42.5 -17.5t-16.5 -46.5q0 -22 14 -35.5t36 -13.5q25 0 41.5 17 t16.5 46q0 22 -13.5 36t-35.5 14zM514 851q0 -46 -35.5 -79t-86.5 -33q-52 0 -80 28t-28 70q0 48 34 80.5t87 32.5q50 0 79.5 -29t29.5 -70z" />
<glyph unicode="&#x16f;" horiz-adv-x="570" d="M438 0h-79l3 88q-35 -48 -79 -74t-86 -26q-132 0 -132 127q0 19 3 41l52 371h92l-52 -367q-3 -20 -3 -34q0 -36 16 -51t49 -15q34 0 76.5 31t70.5 79l51 357h92zM340 779q-26 0 -42.5 -17.5t-16.5 -46.5q0 -22 14 -35.5t36 -13.5q25 0 41.5 17t16.5 46q0 22 -13.5 36 t-35.5 14zM451 729q0 -46 -35.5 -79t-86.5 -33q-52 0 -80 28t-28 70q0 48 34 80.5t87 32.5q50 0 79.5 -29t29.5 -70z" />
<glyph unicode="&#x170;" horiz-adv-x="661" d="M621 689l-57 -461q-14 -114 -83 -177t-174 -63q-109 0 -167.5 53t-58.5 153q0 23 3 47l55 448h95l-56 -447q-3 -26 -3 -46q0 -67 32.5 -97.5t98.5 -30.5q68 0 110 40.5t51 115.5l58 465h96zM321 765l-57 28l102 176l76 -38zM483 763l-55 30l111 176l74 -41z" />
<glyph unicode="&#x171;" horiz-adv-x="570" d="M438 0h-79l3 88q-35 -48 -79 -74t-86 -26q-132 0 -132 127q0 19 3 41l52 371h92l-52 -367q-3 -20 -3 -34q0 -36 16 -51t49 -15q34 0 76.5 31t70.5 79l51 357h92zM253 635l-56 28l105 176l75 -38zM415 633l-54 30l114 176l73 -41z" />
<glyph unicode="&#x172;" horiz-adv-x="661" d="M621 689l-57 -461q-11 -91 -58 -150t-121 -80q-102 -58 -102 -134q0 -44 59 -44q37 0 63 15l19 -54q-47 -22 -100 -22q-57 0 -87.5 25.5t-30.5 69.5q0 77 88 134q-103 3 -158 55.5t-55 149.5q0 23 3 48l55 448h95l-56 -447q-3 -26 -3 -46q0 -67 32.5 -97.5t98.5 -30.5 q68 0 110 40.5t51 115.5l58 465h96z" />
<glyph unicode="&#x173;" horiz-adv-x="570" d="M512 527l-74 -527q-106 -60 -106 -136q0 -44 59 -44q37 0 63 15l19 -54q-47 -22 -100 -22q-57 0 -87.5 25.5t-30.5 69.5q0 41 29 79.5t80 66.5l-2 88q-35 -48 -79 -74t-86 -26q-132 0 -132 127q0 19 3 41l52 371h92l-52 -367q-3 -20 -3 -34q0 -36 16 -51t49 -15 q34 0 76.5 31t70.5 79l51 357h92z" />
<glyph unicode="&#x174;" horiz-adv-x="821" d="M850 689l-224 -689h-124l-58 558h-4l-195 -558h-119l-56 689h90l36 -597h4l206 597h101l63 -594h3l187 594h90zM478 840l-132 -81l-39 47l147 109h61l124 -111l-44 -45z" />
<glyph unicode="&#x175;" horiz-adv-x="715" d="M735 527l-195 -527h-125l-34 434h-4l-159 -434h-122l-48 527h89l29 -454h4l171 454h103l38 -452h4l158 452h91zM414 718l-138 -91l-36 44l153 121h61l118 -121l-46 -44z" />
<glyph unicode="&#x176;" horiz-adv-x="540" d="M589 689l-274 -425l-32 -264h-96l32 264l-170 425h99l125 -337h4l207 337h105zM338 840l-132 -81l-39 47l147 109h61l124 -111l-44 -45z" />
<glyph unicode="&#x177;" horiz-adv-x="478" d="M508 527l-248 -529q-46 -97 -108 -149t-166 -62l-3 74q76 13 117 45t71 94h-34l-98 527h95l72 -453h4l200 453h98zM298 718l-138 -91l-36 44l153 121h61l118 -121l-46 -44z" />
<glyph unicode="&#x178;" horiz-adv-x="540" d="M589 689l-274 -425l-32 -264h-96l32 264l-170 425h99l125 -337h4l207 337h105zM233 769q-24 0 -40.5 16t-16.5 41q0 24 16.5 40t40.5 16q25 0 41.5 -16t16.5 -40q0 -25 -16.5 -41t-41.5 -16zM443 769q-25 0 -41.5 16t-16.5 41q0 24 16.5 40t41.5 16q24 0 41 -16t17 -40 t-17 -40.5t-41 -16.5z" />
<glyph unicode="&#x179;" horiz-adv-x="509" d="M510 612l-405 -531h339l-20 -81h-436l9 76l407 533h-306l10 80h411zM238 755l-25 53l202 114l41 -86z" />
<glyph unicode="&#x17a;" horiz-adv-x="426" d="M422 457l-318 -380h267l-21 -77h-371l9 69l321 380h-244l11 78h356zM170 622l-25 53l202 124l41 -86z" />
<glyph unicode="&#x17b;" horiz-adv-x="509" d="M510 612l-405 -531h339l-20 -81h-436l9 76l407 533h-306l10 80h411zM393 837q0 -27 -18 -45t-46 -18t-46 18t-18 45t18 44.5t46 17.5t46 -17.5t18 -44.5z" />
<glyph unicode="&#x17c;" horiz-adv-x="426" d="M422 457l-318 -380h267l-21 -77h-371l9 69l321 380h-244l11 78h356zM334 715q0 -27 -18 -45t-47 -18q-28 0 -46 18t-18 45t18 44.5t46 17.5q29 0 47 -17.5t18 -44.5z" />
<glyph unicode="&#x17d;" horiz-adv-x="509" d="M510 612l-405 -531h339l-20 -81h-436l9 76l407 533h-306l10 80h411zM327 834l132 81l39 -47l-147 -109h-61l-124 111l44 45z" />
<glyph unicode="&#x17e;" horiz-adv-x="426" d="M422 457l-318 -380h267l-21 -77h-371l9 69l321 380h-244l11 78h356zM157 792l112 -91l138 91l34 -44l-152 -121h-61l-119 121z" />
<glyph unicode="&#x192;" horiz-adv-x="336" d="M73 32l52 424h-84l9 71h84l7 59q10 86 52 125t116 39q64 0 132 -40l-34 -63q-52 29 -99 29q-36 0 -52.5 -19t-22.5 -70l-7 -60h128l-19 -71h-118l-52 -424q-9 -74 -33.5 -121.5t-59.5 -73.5t-94 -49l-26 67q58 26 84.5 62t36.5 115z" />
<glyph unicode="&#x1fc;" horiz-adv-x="794" d="M422 0l-20 173h-263l-86 -173h-100l360 689h457l-20 -76h-309l24 -225h259l-9 -76h-239l27 -236h227l-9 -76h-299zM355 605l-179 -355h218l-34 355h-5zM447 754l-25 53l202 114l41 -86z" />
<glyph unicode="&#x1fd;" horiz-adv-x="805" d="M285 539q135 0 154 -91q63 91 176 91q76 0 120 -36t44 -99q0 -90 -91 -140t-251 -60q1 -67 29.5 -102.5t75.5 -35.5q72 0 140 48l39 -64q-82 -62 -175 -62q-119 0 -170 98q-71 -98 -196 -98q-160 0 -160 139q0 85 69 129.5t204 44.5h71l6 61q6 53 -17.5 77.5t-84.5 24.5 t-142 -27l-15 68q98 34 174 34zM205 57q44 0 88 32t65 77q-2 26 -2 37t2 37h-69q-89 0 -129 -28.5t-40 -84.5q0 -37 20.5 -53.5t64.5 -16.5zM608 466q-61 0 -108 -53.5t-59 -143.5q129 11 184 42.5t55 90.5q0 30 -19 47t-53 17zM387 622l-25 53l202 124l41 -86z" />
<glyph unicode="&#x1fe;" horiz-adv-x="688" d="M642 416q0 -79 -19 -152.5t-56.5 -136.5t-102.5 -101t-148 -38q-34 0 -69 8l-53 -127l-80 21l59 135q-112 70 -112 246q0 78 19 151.5t56.5 137.5t102.5 102.5t148 38.5q33 0 68 -8l52 126l80 -21l-58 -135q113 -71 113 -247zM317 66q64 0 110 33.5t69.5 89.5t34 114.5 t10.5 121.5q0 119 -55 166l-215 -521q19 -4 46 -4zM161 266q0 -119 54 -167l215 519q-22 5 -44 5q-63 0 -109.5 -34t-70 -89.5t-34.5 -113.5t-11 -120zM284 783l-25 53l202 114l41 -86z" />
<glyph unicode="&#x1ff;" horiz-adv-x="575" d="M45 209q0 135 70.5 232.5t199.5 97.5q29 0 53 -6l56 122l73 -22l-60 -128q83 -58 83 -186q0 -146 -74 -238.5t-195 -92.5q-25 0 -52 5l-55 -124l-74 22l60 130q-85 56 -85 188zM143 201q0 -77 32 -112l169 372q-13 4 -32 4q-75 0 -122 -67.5t-47 -196.5zM254 62 q46 0 80.5 25t52.5 66t26.5 84.5t8.5 88.5q0 74 -30 108l-167 -370q14 -2 29 -2zM233 623l-25 53l202 124l41 -86z" />
<glyph unicode="&#x218;" horiz-adv-x="530" d="M487 204q0 -90 -71 -153t-181 -63q-72 0 -133 25t-101 67l60 60q47 -41 86.5 -56.5t87.5 -15.5q64 0 108 37.5t44 93.5q0 46 -27.5 72.5t-105.5 51.5q-99 32 -141 78t-42 117q0 76 62 129.5t160 53.5q127 0 214 -76l-54 -62q-68 59 -161 59q-56 0 -89 -27.5t-33 -76.5 q0 -41 27.5 -65.5t110.5 -52.5q97 -32 138 -77t41 -119zM242 -182l-63 -106h-53l43 116q-25 18 -25 47q0 24 17 40t41 16t40.5 -16t16.5 -40q0 -28 -17 -57z" />
<glyph unicode="&#x219;" horiz-adv-x="462" d="M200 62q48 0 77.5 22.5t29.5 59.5q0 34 -23.5 54.5t-90.5 43.5q-139 46 -139 146q0 69 51.5 110t142.5 41q99 0 171 -58l-46 -62q-59 47 -129 47q-43 0 -67 -19t-24 -51q0 -29 21 -46t91 -42q141 -49 141 -155q0 -76 -55.5 -120.5t-157.5 -44.5q-57 0 -110.5 22t-85.5 54 l55 58q65 -60 148 -60zM209 -182l-63 -106h-53l43 116q-25 18 -25 47q0 24 17 40t41 16t40.5 -16t16.5 -40q0 -28 -17 -57z" />
<glyph unicode="&#x21a;" horiz-adv-x="507" d="M533 608h-190l-74 -608h-95l74 608h-198l10 81h493zM244 -182l-63 -106h-53l43 116q-25 18 -25 47q0 24 17 40t41 16t40.5 -16t16.5 -40q0 -28 -17 -57z" />
<glyph unicode="&#x21b;" horiz-adv-x="358" d="M293 89l32 -65q-56 -36 -121 -36q-126 0 -126 126q0 18 3 41l42 302h-84l10 70h85l36 122l73 8l-18 -130h133l-21 -70h-122l-44 -315q-6 -41 6.5 -58.5t43.5 -17.5q30 0 72 23zM193 -182l-63 -106h-53l43 116q-25 18 -25 47q0 24 17 40t41 16t40.5 -16t16.5 -40 q0 -28 -17 -57z" />
<glyph unicode="&#x237;" horiz-adv-x="265" d="M-51 -212l-26 69q60 26 88 61t39 114l70 495h92l-70 -495q-15 -108 -58.5 -159t-134.5 -85z" />
<glyph unicode="&#x2c6;" horiz-adv-x="392" d="M204 718l-138 -91l-36 44l153 121h61l118 -121l-46 -44z" />
<glyph unicode="&#x2c7;" horiz-adv-x="392" d="M78 792l112 -91l138 91l34 -44l-152 -121h-61l-119 121z" />
<glyph unicode="&#x2c9;" horiz-adv-x="333" d="M303 751v-69h-273v69h273z" />
<glyph unicode="&#x2d8;" horiz-adv-x="364" d="M162 628q-65 0 -98.5 43t-32.5 97l63 13q12 -84 77 -84q69 0 104 84l59 -13q-14 -54 -60.5 -97t-111.5 -43z" />
<glyph unicode="&#x2d9;" horiz-adv-x="189" d="M159 715q0 -27 -18 -45t-47 -18q-28 0 -46 18t-18 45t18 44.5t46 17.5q29 0 47 -17.5t18 -44.5z" />
<glyph unicode="&#x2da;" horiz-adv-x="290" d="M149 779q-26 0 -42.5 -17.5t-16.5 -46.5q0 -22 14 -35.5t36 -13.5q25 0 41.5 17t16.5 46q0 22 -13.5 36t-35.5 14zM260 729q0 -46 -35.5 -79t-86.5 -33q-52 0 -80 28t-28 70q0 48 34 80.5t87 32.5q50 0 79.5 -29t29.5 -70z" />
<glyph unicode="&#x2db;" horiz-adv-x="278" d="M202 26l11 -26q-106 -60 -106 -136q0 -44 59 -44q37 0 63 15l19 -54q-47 -22 -100 -22q-57 0 -87.5 25.5t-30.5 69.5q0 53 47 100.5t125 71.5z" />
<glyph unicode="&#x2dc;" horiz-adv-x="400" d="M248 650q-32 0 -63.5 24t-43.5 24q-26 0 -57 -44l-54 26q51 88 122 88q34 0 64.5 -24t42.5 -24q26 0 57 44l54 -25q-51 -89 -122 -89z" />
<glyph unicode="&#x2dd;" horiz-adv-x="411" d="M86 635l-56 28l105 176l75 -38zM248 633l-54 30l114 176l73 -41z" />
<glyph unicode="&#x300;" horiz-adv-x="0" d="M-105 678l-25 -53l-218 91l41 86z" />
<glyph unicode="&#x301;" horiz-adv-x="0" d="M-322 622l-25 53l202 124l41 -86z" />
<glyph unicode="&#x302;" horiz-adv-x="0" d="M-244 718l-138 -91l-36 44l153 121h61l118 -121l-46 -44z" />
<glyph unicode="&#x303;" horiz-adv-x="0" d="M-190 650q-32 0 -63.5 24t-43.5 24q-26 0 -57 -44l-54 26q51 88 122 88q34 0 64.5 -24t42.5 -24q26 0 57 44l54 -25q-51 -89 -122 -89z" />
<glyph unicode="&#x304;" horiz-adv-x="0" d="M-92 743l-9 -69h-273l9 69h273z" />
<glyph unicode="&#x306;" horiz-adv-x="0" d="M-253 628q-65 0 -98.5 43t-32.5 97l63 13q12 -84 77 -84q69 0 104 84l59 -13q-14 -54 -60.5 -97t-111.5 -43z" />
<glyph unicode="&#x307;" horiz-adv-x="0" d="M-171 715q0 -27 -18 -45t-47 -18q-28 0 -46 18t-18 45t18 44.5t46 17.5q29 0 47 -17.5t18 -44.5z" />
<glyph unicode="&#x308;" horiz-adv-x="0" d="M-339 647q-25 0 -41.5 16t-16.5 40q0 25 16.5 41t41.5 16q24 0 40.5 -16t16.5 -41q0 -24 -16.5 -40t-40.5 -16zM-130 647q-24 0 -40.5 16t-16.5 40q0 25 16.5 41t40.5 16q25 0 41.5 -16t16.5 -41q0 -24 -16.5 -40t-41.5 -16z" />
<glyph unicode="&#x30a;" horiz-adv-x="0" d="M-238 779q-26 0 -42.5 -17.5t-16.5 -46.5q0 -22 14 -35.5t36 -13.5q25 0 41.5 17t16.5 46q0 22 -13.5 36t-35.5 14zM-127 729q0 -46 -35.5 -79t-86.5 -33q-52 0 -80 28t-28 70q0 48 34 80.5t87 32.5q50 0 79.5 -29t29.5 -70z" />
<glyph unicode="&#x30b;" horiz-adv-x="0" d="M-319 635l-56 28l105 176l75 -38zM-157 633l-54 30l114 176l73 -41z" />
<glyph unicode="&#x30c;" horiz-adv-x="0" d="M-351 792l112 -91l138 91l34 -44l-152 -121h-61l-119 121z" />
<glyph unicode="&#x312;" horiz-adv-x="0" d="M-289 755l63 106h53l-43 -116q25 -18 25 -47q0 -24 -17 -40t-41 -16t-40.5 16t-16.5 40q0 28 17 57z" />
<glyph unicode="&#x313;" horiz-adv-x="0" d="M-187 749l-63 -106h-53l43 116q-25 18 -25 47q0 24 17 40t41 16t40.5 -16t16.5 -40q0 -28 -17 -57z" />
<glyph unicode="&#x326;" horiz-adv-x="1" d="M-313 -182l-63 -106h-53l43 116q-25 18 -25 47q0 24 17 40t41 16t40.5 -16t16.5 -40q0 -28 -17 -57z" />
<glyph unicode="&#x327;" horiz-adv-x="0" d="M-311 -181q52 0 52 45q0 37 -82 37l30 115h57l-12 -72q40 -4 62.5 -25.5t22.5 -54.5q0 -44 -35.5 -74.5t-92.5 -30.5q-62 0 -105 27l34 51q32 -18 69 -18z" />
<glyph unicode="&#x328;" horiz-adv-x="0" d="M-211 26l11 -26q-106 -60 -106 -136q0 -44 59 -44q37 0 63 15l19 -54q-47 -22 -100 -22q-57 0 -87.5 25.5t-30.5 69.5q0 53 47 100.5t125 71.5z" />
<glyph unicode="&#x335;" horiz-adv-x="0" d="M6 348l-9 -70h-348l9 70h348z" />
<glyph unicode="&#x336;" horiz-adv-x="0" d="M-17 348l-9 -70h-652l9 70h652z" />
<glyph unicode="&#x384;" horiz-adv-x="0" d="M-114 589l-66 12l67 211l97 -18z" />
<glyph unicode="&#x385;" horiz-adv-x="0" d="M-193 717l-66 10l54 179l98 -18zM-347 612q-25 0 -41.5 16t-16.5 40q0 25 16.5 41t41.5 16q24 0 40.5 -16t16.5 -41q0 -24 -16.5 -40t-40.5 -16zM-118 612q-24 0 -40.5 16t-16.5 40q0 25 16.5 41t40.5 16q25 0 41.5 -16t16.5 -41q0 -24 -16.5 -40t-41.5 -16z" />
<glyph unicode="&#x386;" horiz-adv-x="569" d="M436 0l-31 173h-266l-74 -173h-99l308 689h120l139 -689h-97zM323 603l-151 -353h219l-64 353h-4zM123 500l-69 12l72 189l97 -16z" />
<glyph unicode="&#x388;" horiz-adv-x="581" d="M553 613h-267l-28 -225h232l-9 -76h-232l-29 -236h286l-9 -76h-381l84 689h373zM69 500l-69 12l72 189l97 -16z" />
<glyph unicode="&#x389;" horiz-adv-x="720" d="M586 0h-95l39 323h-280l-39 -323h-95l84 689h95l-35 -288h280l35 288h95zM69 500l-69 12l72 189l97 -16z" />
<glyph unicode="&#x38a;" horiz-adv-x="344" d="M210 0h-95l84 689h95zM69 500l-69 12l72 189l97 -16z" />
<glyph unicode="&#x38c;" horiz-adv-x="715" d="M669 416q0 -79 -19 -152.5t-56.5 -136.5t-102.5 -101t-148 -38q-117 0 -186 73t-69 210q0 78 19 151.5t56.5 137.5t102.5 102.5t148 38.5q116 0 185.5 -74t69.5 -211zM344 66q64 0 110 33.5t69.5 89.5t34 114.5t10.5 121.5q0 198 -155 198q-63 0 -109.5 -34t-70 -89.5 t-34.5 -113.5t-11 -120q0 -200 156 -200zM77 500l-69 12l72 189l97 -16z" />
<glyph unicode="&#x38e;" horiz-adv-x="658" d="M707 689l-274 -425l-32 -264h-96l32 264l-170 425h99l125 -337h4l207 337h105zM47 500l-69 12l72 189l97 -16z" />
<glyph unicode="&#x38f;" horiz-adv-x="722" d="M89 290q0 70 19 139.5t56.5 131.5t102.5 101t148 39q116 0 185.5 -73.5t69.5 -209.5q0 -121 -47.5 -213t-120.5 -123l-1 -4h111l-9 -78h-214l9 73q74 27 122.5 116t48.5 229q0 109 -39.5 157t-115.5 48q-51 0 -91.5 -23.5t-64.5 -59t-40.5 -82.5t-22.5 -89.5t-6 -83.5 q0 -80 27 -136t75 -76l-9 -73h-215l9 78h121l1 4q-46 28 -77.5 87.5t-31.5 120.5zM77 500l-69 12l72 189l97 -16z" />
<glyph unicode="&#x390;" horiz-adv-x="269" d="M66 161l51 366h95l-52 -363q-3 -22 -3 -38q0 -24 9 -35.5t33 -21.5l-21 -81q-64 16 -90 44t-26 80q0 13 4 49zM226 717l-66 10l54 179l98 -18zM72 612q-25 0 -41.5 16t-16.5 40q0 25 16.5 41t41.5 16q24 0 40.5 -16t16.5 -41q0 -24 -16.5 -40t-40.5 -16zM301 612 q-24 0 -40.5 16t-16.5 40q0 25 16.5 41t40.5 16q25 0 41.5 -16t16.5 -41q0 -24 -16.5 -40t-41.5 -16z" />
<glyph unicode="&#x391;" horiz-adv-x="569" d="M436 0l-31 173h-266l-74 -173h-99l308 689h120l139 -689h-97zM323 603l-151 -353h219l-64 353h-4z" />
<glyph unicode="&#x392;" horiz-adv-x="616" d="M291 77q162 0 162 138q0 110 -129 110h-124l-31 -248h122zM325 398q66 0 102.5 35t36.5 97q0 84 -127 84h-102l-27 -216h117zM554 215q0 -100 -72.5 -157.5t-206.5 -57.5h-210l84 689h187q111 0 168.5 -42.5t57.5 -116.5q0 -54 -38 -101t-101 -61l-1 -4 q61 -11 96.5 -51.5t35.5 -97.5z" />
<glyph unicode="&#x393;" horiz-adv-x="493" d="M149 689h390l-20 -82h-285l-74 -607h-95z" />
<glyph unicode="&#x394;" horiz-adv-x="569" d="M394 689l139 -689h-567l308 689h120zM327 603h-4l-226 -525h324z" />
<glyph unicode="&#x395;" horiz-adv-x="530" d="M502 613h-267l-28 -225h232l-9 -76h-232l-29 -236h286l-9 -76h-381l84 689h373z" />
<glyph unicode="&#x396;" horiz-adv-x="509" d="M510 612l-405 -531h339l-20 -81h-436l9 76l407 533h-306l10 80h411z" />
<glyph unicode="&#x397;" horiz-adv-x="669" d="M535 0h-95l39 323h-280l-39 -323h-95l84 689h95l-35 -288h280l35 288h95z" />
<glyph unicode="&#x398;" horiz-adv-x="688" d="M475 387l-9 -70h-239l9 70h239zM642 416q0 -79 -19 -152.5t-56.5 -136.5t-102.5 -101t-148 -38q-117 0 -186 73t-69 210q0 78 19 151.5t56.5 137.5t102.5 102.5t148 38.5q116 0 185.5 -74t69.5 -211zM317 66q64 0 110 33.5t69.5 89.5t34 114.5t10.5 121.5q0 198 -155 198 q-63 0 -109.5 -34t-70 -89.5t-34.5 -113.5t-11 -120q0 -200 156 -200z" />
<glyph unicode="&#x399;" horiz-adv-x="294" d="M160 0h-95l84 689h95z" />
<glyph unicode="&#x39a;" horiz-adv-x="579" d="M244 689l-84 -689h-95l84 689h95zM442 0l-232 368l299 321h110l-302 -324l237 -365h-112z" />
<glyph unicode="&#x39b;" horiz-adv-x="569" d="M323 603l-258 -603h-99l308 689h120l139 -689h-97l-109 603h-4z" />
<glyph unicode="&#x39c;" horiz-adv-x="786" d="M694 0h-92l13 353q4 144 16 229h-4l-216 -509h-91l-97 509h-4q-17 -130 -37 -229l-70 -353h-90l141 689h125l89 -503h4l208 503h132z" />
<glyph unicode="&#x39d;" horiz-adv-x="678" d="M544 0h-126l-201 583h-4q0 -106 -17 -247l-41 -336h-90l84 689h123l204 -586h4q0 101 18 250l41 336h89z" />
<glyph unicode="&#x39e;" horiz-adv-x="535" d="M123 307l11 85h301l-11 -85h-301zM104 603l10 86h413l-22 -86h-401zM30 0l10 87h411l-10 -87h-411z" />
<glyph unicode="&#x39f;" horiz-adv-x="688" d="M642 416q0 -79 -19 -152.5t-56.5 -136.5t-102.5 -101t-148 -38q-117 0 -186 73t-69 210q0 78 19 151.5t56.5 137.5t102.5 102.5t148 38.5q116 0 185.5 -74t69.5 -211zM317 66q64 0 110 33.5t69.5 89.5t34 114.5t10.5 121.5q0 198 -155 198q-63 0 -109.5 -34t-70 -89.5 t-34.5 -113.5t-11 -120q0 -200 156 -200z" />
<glyph unicode="&#x3a0;" horiz-adv-x="680" d="M540 0h-95l75 609h-280l-75 -609h-95l84 689h470z" />
<glyph unicode="&#x3a1;" horiz-adv-x="581" d="M303 328q80 0 125.5 44t45.5 127q0 116 -158 116h-81l-35 -287h103zM574 501q0 -115 -73.5 -181.5t-200.5 -66.5h-109l-31 -253h-95l84 689h172q122 0 187.5 -49.5t65.5 -138.5z" />
<glyph unicode="&#x3a3;" horiz-adv-x="524" d="M376 372l-8 -62l-232 -232h310l-9 -78h-422l9 78l265 266l-199 267l9 78h422l-9 -78h-316z" />
<glyph unicode="&#x3a4;" horiz-adv-x="507" d="M533 608h-190l-74 -608h-95l74 608h-198l10 81h493z" />
<glyph unicode="&#x3a5;" horiz-adv-x="540" d="M589 689l-274 -425l-32 -264h-96l32 264l-170 425h99l125 -337h4l207 337h105z" />
<glyph unicode="&#x3a6;" horiz-adv-x="813" d="M418 0h-92l8 70q-138 5 -216 69.5t-78 178.5q0 137 91 218t271 86l9 67h92l-9 -68q137 -8 215.5 -72t78.5 -174q0 -139 -95.5 -220.5t-265.5 -84.5zM139 321q0 -81 53 -129t153 -53l50 413q-256 -1 -256 -231zM689 375q0 87 -54 131t-151 46l-51 -413q124 1 190 64 t66 172z" />
<glyph unicode="&#x3a7;" horiz-adv-x="551" d="M221 367l-155 322h103l112 -256h4l178 256h107l-236 -317l175 -372h-103l-130 302h-4l-201 -302h-107z" />
<glyph unicode="&#x3a8;" horiz-adv-x="712" d="M367 0h-91l25 207q-241 20 -241 227q0 23 3 50l25 205h93l-26 -211q-3 -26 -3 -47q0 -72 37 -106t121 -41l50 405h91l-50 -405q100 7 144.5 49t55.5 129l27 227h94l-27 -231q-14 -119 -88.5 -182t-214.5 -70z" />
<glyph unicode="&#x3a9;" horiz-adv-x="705" d="M72 290q0 70 19 139.5t56.5 131.5t102.5 101t148 39q116 0 185.5 -73.5t69.5 -209.5q0 -121 -47.5 -213t-120.5 -123l-1 -4h111l-9 -78h-214l9 73q74 27 122.5 116t48.5 229q0 109 -39.5 157t-115.5 48q-51 0 -91.5 -23.5t-64.5 -59t-40.5 -82.5t-22.5 -89.5t-6 -83.5 q0 -80 27 -136t75 -76l-9 -73h-215l9 78h121l1 4q-46 28 -77.5 87.5t-31.5 120.5z" />
<glyph unicode="&#x3aa;" horiz-adv-x="294" d="M160 0h-95l84 689h95zM110 769q-24 0 -40.5 16t-16.5 41q0 24 16.5 40t40.5 16q25 0 41.5 -16t16.5 -40q0 -25 -16.5 -41t-41.5 -16zM320 769q-25 0 -41.5 16t-16.5 41q0 24 16.5 40t41.5 16q24 0 41 -16t17 -40t-17 -40.5t-41 -16.5z" />
<glyph unicode="&#x3ab;" horiz-adv-x="540" d="M589 689l-274 -425l-32 -264h-96l32 264l-170 425h99l125 -337h4l207 337h105zM233 769q-24 0 -40.5 16t-16.5 41q0 24 16.5 40t40.5 16q25 0 41.5 -16t16.5 -40q0 -25 -16.5 -41t-41.5 -16zM443 769q-25 0 -41.5 16t-16.5 41q0 24 16.5 40t41.5 16q24 0 41 -16t17 -40 t-17 -40.5t-41 -16.5z" />
<glyph unicode="&#x3ac;" horiz-adv-x="593" d="M534 67l-34 -79q-81 15 -88 116l-4 54l-3 1q-25 -76 -79 -123.5t-113 -47.5q-76 0 -121 54t-45 162q0 155 70 245t166 90q64 0 105.5 -40.5t52.5 -114.5l4 -1l55 144l84 -23l-119 -229l30 -159q4 -22 12 -32t27 -17zM227 61q47 0 85.5 44.5t77.5 164.5q-1 100 -29.5 148 t-72.5 48q-57 0 -100 -69t-43 -193q0 -72 23 -107.5t59 -35.5zM345 589l-66 12l67 211l97 -18z" />
<glyph unicode="&#x3ad;" horiz-adv-x="471" d="M332 311l-22 -72h-56q-61 0 -94 -26.5t-33 -69.5q0 -77 102 -77q87 0 164 59l41 -65q-98 -72 -209 -72q-98 0 -149 41t-51 112q0 53 39 90.5t111 48.5l1 3q-45 17 -68.5 47t-23.5 66q0 67 48 105t141 38q53 0 104.5 -19t85.5 -50l-52 -54q-68 49 -141 49q-92 0 -92 -71 q0 -38 27.5 -60.5t77.5 -22.5h49zM326 589l-66 12l67 211l97 -18z" />
<glyph unicode="&#x3ae;" horiz-adv-x="584" d="M194 408q86 131 192 131q56 0 88.5 -32t32.5 -97q0 -20 -3 -42l-80 -570l-94 -11l78 561q4 24 4 47q0 39 -14 53.5t-44 14.5q-80 0 -164 -151l-43 -312h-92l43 306q9 68 9 117q0 51 -10 104l90 12q9 -29 9 -94q0 -15 -2 -37zM359 589l-66 12l67 211l97 -18z" />
<glyph unicode="&#x3af;" horiz-adv-x="269" d="M66 161l51 366h95l-52 -363q-3 -22 -3 -38q0 -24 9 -35.5t33 -21.5l-21 -81q-64 16 -90 44t-26 80q0 13 4 49zM190 589l-66 12l67 211l97 -18z" />
<glyph unicode="&#x3b0;" horiz-adv-x="564" d="M66 177l49 350h92l-47 -336q-3 -24 -3 -43q0 -45 19.5 -65.5t62.5 -20.5q180 0 180 358q0 52 -6 107h96q3 -47 3 -93q0 -234 -68.5 -340t-208.5 -106q-85 0 -128 41.5t-43 112.5q0 23 2 35zM373 717l-66 10l54 179l98 -18zM219 612q-25 0 -41.5 16t-16.5 40q0 25 16.5 41 t41.5 16q24 0 40.5 -16t16.5 -41q0 -24 -16.5 -40t-40.5 -16zM448 612q-24 0 -40.5 16t-16.5 40q0 25 16.5 41t40.5 16q25 0 41.5 -16t16.5 -41q0 -24 -16.5 -40t-41.5 -16z" />
<glyph unicode="&#x3b1;" horiz-adv-x="593" d="M534 67l-34 -79q-81 15 -88 116l-4 54l-3 1q-25 -76 -79 -123.5t-113 -47.5q-76 0 -121 54t-45 162q0 155 70 245t166 90q64 0 105.5 -40.5t52.5 -114.5l4 -1l55 144l84 -23l-119 -229l30 -159q4 -22 12 -32t27 -17zM227 61q47 0 85.5 44.5t77.5 164.5q-1 100 -29.5 148 t-72.5 48q-57 0 -100 -69t-43 -193q0 -72 23 -107.5t59 -35.5z" />
<glyph unicode="&#x3b2;" horiz-adv-x="564" d="M54 245q0 81 19.5 166.5t56.5 162.5t100.5 126.5t141.5 49.5q75 0 111 -33.5t36 -86.5q0 -125 -173 -188l-1 -4q82 -4 123 -49.5t41 -121.5q0 -113 -67 -196t-190 -83q-98 0 -148 66.5t-50 190.5zM254 62q73 0 113.5 56.5t40.5 149.5q0 120 -113 120q-42 0 -139 -46 q-6 -45 -6 -120q0 -160 104 -160zM365 680q-60 0 -114 -67t-82 -197q66 24 105.5 42t78 43t56 55t17.5 67q0 27 -15.5 42t-45.5 15z" />
<glyph unicode="&#x3b3;" horiz-adv-x="509" d="M170 19q-40 374 -135 486l99 33q79 -114 98 -404l3 -1l205 406l92 -21l-273 -500q-40 -73 -40 -146q0 -36 9 -74l-89 -11q-12 33 -12 72q0 79 43 160z" />
<glyph unicode="&#x3b4;" horiz-adv-x="573" d="M519 267q0 -115 -73 -197t-188 -82q-98 0 -157 59.5t-59 160.5q0 105 56.5 178t149.5 93l1 3q-50 30 -72 62t-22 74q0 59 46.5 95.5t130.5 36.5q105 0 180 -70l-52 -54q-64 54 -131 54q-38 0 -59.5 -17t-21.5 -45q0 -27 19.5 -48.5t73.5 -53.5q99 -58 138.5 -116 t39.5 -133zM421 265q0 60 -25.5 99.5t-95.5 79.5q-160 -54 -160 -243q0 -139 119 -139q56 0 94 33.5t53 77.5t15 92z" />
<glyph unicode="&#x3b5;" horiz-adv-x="471" d="M332 311l-22 -72h-56q-61 0 -94 -26.5t-33 -69.5q0 -77 102 -77q87 0 164 59l41 -65q-98 -72 -209 -72q-98 0 -149 41t-51 112q0 53 39 90.5t111 48.5l1 3q-45 17 -68.5 47t-23.5 66q0 67 48 105t141 38q53 0 104.5 -19t85.5 -50l-52 -54q-68 49 -141 49q-92 0 -92 -71 q0 -38 27.5 -60.5t77.5 -22.5h49z" />
<glyph unicode="&#x3b6;" horiz-adv-x="402" d="M368 -23q0 -69 -51 -116t-135 -84l-28 64q28 14 43.5 23.5t34.5 24.5t27.5 32t8.5 38q0 20 -14.5 33.5t-54.5 28.5q-94 36 -127.5 77.5t-33.5 117.5q0 88 76.5 201t221.5 206l-2 4q-40 -20 -87 -20q-90 0 -126 107l75 36q18 -39 41.5 -57.5t65.5 -18.5q60 0 137 60 l43 -52q-191 -156 -270 -264t-79 -200q0 -45 24.5 -72t92.5 -53q66 -25 91.5 -52t25.5 -64z" />
<glyph unicode="&#x3b7;" horiz-adv-x="584" d="M194 408q86 131 192 131q56 0 88.5 -32t32.5 -97q0 -20 -3 -42l-80 -570l-94 -11l78 561q4 24 4 47q0 39 -14 53.5t-44 14.5q-80 0 -164 -151l-43 -312h-92l43 306q9 68 9 117q0 51 -10 104l90 12q9 -29 9 -94q0 -15 -2 -37z" />
<glyph unicode="&#x3b8;" horiz-adv-x="566" d="M55 257q0 59 6.5 119t26 129.5t50 122t83.5 87.5t121 35q92 0 141 -66t49 -194q0 -95 -17 -182t-50 -160t-89.5 -116.5t-129.5 -43.5q-94 0 -142.5 70t-48.5 199zM334 675q-68 0 -113 -74t-64 -200h278q5 60 5 112q0 86 -25.5 124t-80.5 38zM251 62q67 0 111.5 73.5 t63.5 195.5h-276q-4 -44 -4 -103q0 -87 25.5 -126.5t79.5 -39.5z" />
<glyph unicode="&#x3b9;" horiz-adv-x="269" d="M66 161l51 366h95l-52 -363q-3 -22 -3 -38q0 -24 9 -35.5t33 -21.5l-21 -81q-64 16 -90 44t-26 80q0 13 4 49z" />
<glyph unicode="&#x3ba;" horiz-adv-x="500" d="M216 750q9 -50 9 -100q0 -58 -17 -183l-65 -467h-92l67 482q12 88 12 153q0 59 -10 103zM188 288l241 253l66 -54l-199 -202l95 -146q21 -32 37 -46t44 -25l-38 -80q-65 24 -103 82z" />
<glyph unicode="&#x3bb;" horiz-adv-x="500" d="M-19 23l249 516l40 -11q-11 73 -43 105t-108 45l21 74q202 -30 220 -232q19 -220 41.5 -328t61.5 -154l-84 -50q-43 62 -65 167t-32 305h-4l-210 -470z" />
<glyph unicode="&#x3bc;" horiz-adv-x="575" d="M113 -202l-92 -10l104 739h92l-52 -367q-3 -20 -3 -34q0 -36 16 -51t49 -15q34 0 76 31t70 78l52 358h92l-51 -357q-5 -34 -5 -75q0 -49 7 -95l-86 -12q-6 13 -11 46t-4 54q-35 -48 -78.5 -74t-81.5 -26q-46 0 -73 33l-3 -2q4 -18 4 -40q0 -26 -5 -63z" />
<glyph unicode="&#x3bd;" horiz-adv-x="517" d="M262 0h-111q-21 223 -46.5 332.5t-76.5 172.5l91 33q81 -111 102 -453h4l211 454l86 -34z" />
<glyph unicode="&#x3be;" horiz-adv-x="440" d="M301 93q66 -25 91.5 -52t25.5 -64q0 -69 -51 -116t-135 -84l-28 64q28 14 43.5 23.5t34.5 24.5t27.5 32t8.5 38q0 20 -14.5 33.5t-54.5 28.5q-112 42 -160.5 98.5t-48.5 129.5q0 79 49.5 130t139.5 63l1 3q-107 39 -107 138q0 73 55.5 120t146.5 47q101 0 175 -62 l-52 -54q-57 46 -124 46q-52 0 -79 -27.5t-27 -76.5q0 -48 26 -72t73 -24h51l-21 -79h-36q-78 0 -125 -43t-47 -106q0 -50 34 -87t128 -72z" />
<glyph unicode="&#x3bf;" horiz-adv-x="575" d="M254 62q83 0 125.5 77.5t42.5 186.5q0 139 -110 139q-75 0 -122 -67.5t-47 -196.5q0 -139 111 -139zM45 209q0 135 70.5 232.5t199.5 97.5q97 0 151 -59t54 -161q0 -146 -74 -238.5t-195 -92.5q-97 0 -151.5 59t-54.5 162z" />
<glyph unicode="&#x3c0;" horiz-adv-x="607" d="M171 0h-92l62 449h-81l11 78h365q98 0 168 22l13 -79q-48 -15 -106 -20l-41 -287q-3 -24 -3 -39q0 -23 9 -33t33 -16l-21 -87q-64 11 -90 37.5t-26 83.5q0 29 6 69l38 271h-183z" />
<glyph unicode="&#x3c1;" horiz-adv-x="575" d="M520 333q0 -143 -71.5 -244t-167.5 -101q-85 0 -143 64l-36 -254l-92 -11l66 469q21 151 84 217t171 66q85 0 137 -55.5t52 -150.5zM168 256l-19 -133q41 -63 112 -63q63 0 111 76.5t48 193.5q0 137 -95 137q-61 0 -101 -48t-56 -163z" />
<glyph unicode="&#x3c2;" horiz-adv-x="456" d="M264 94q66 -25 90.5 -51.5t24.5 -65.5q0 -69 -51 -116t-135 -84l-28 64q36 19 57 32t39 35.5t18 47.5q0 19 -14 32.5t-55 28.5q-167 62 -167 227q0 126 75.5 210.5t186.5 84.5q88 0 155 -56l-45 -62q-32 24 -54.5 32.5t-56.5 8.5q-65 0 -113 -60t-48 -152 q0 -60 25.5 -94.5t95.5 -61.5z" />
<glyph unicode="&#x3c3;" horiz-adv-x="581" d="M436 468l-1 -3q39 -32 61 -79.5t22 -100.5q0 -120 -74 -208.5t-192 -88.5q-97 0 -151.5 59t-54.5 162q0 147 87 236.5t218 89.5q23 0 53 -1.5t50 -1.5q56 0 107 18l12 -75q-37 -15 -78 -15q-29 0 -59 8zM420 286q0 115 -59 180q-217 -3 -217 -265q0 -139 111 -139 q77 0 121 68t44 156z" />
<glyph unicode="&#x3c4;" horiz-adv-x="470" d="M309 449h-13l-40 -286q-3 -24 -3 -39q0 -23 9 -33t33 -16l-21 -87q-64 11 -90 37.5t-26 83.5q0 29 6 69l38 271h-170l11 78h242q126 0 196 22l13 -79q-70 -21 -185 -21z" />
<glyph unicode="&#x3c5;" horiz-adv-x="564" d="M66 177l49 350h92l-47 -336q-3 -24 -3 -43q0 -45 19.5 -65.5t62.5 -20.5q180 0 180 358q0 52 -6 107h96q3 -47 3 -93q0 -234 -68.5 -340t-208.5 -106q-85 0 -128 41.5t-43 112.5q0 23 2 35z" />
<glyph unicode="&#x3c6;" horiz-adv-x="758" d="M142 208q0 -68 36 -103.5t120 -42.5l33 236q18 130 69 185.5t136 55.5q79 0 124.5 -50.5t45.5 -141.5q0 -161 -85 -255.5t-245 -102.5l-26 -191l-89 -11l28 204q-239 18 -239 206q0 84 31.5 174.5t75.5 155.5h89q-57 -105 -80.5 -178t-23.5 -141zM419 294l-33 -232 q112 11 169 85t57 198q0 122 -80 122q-46 0 -72.5 -36t-40.5 -137z" />
<glyph unicode="&#x3c7;" horiz-adv-x="479" d="M235 261h4l167 278l86 -35l-217 -328l129 -358l-91 -31l-98 308h-4l-175 -307l-86 35l228 357q-53 227 -143 325l95 33q38 -55 62 -117t43 -160z" />
<glyph unicode="&#x3c8;" horiz-adv-x="759" d="M69 242l41 285h92l-42 -292q-4 -24 -4 -49q0 -60 35 -89t118 -34l58 419q12 89 12 153q0 59 -10 103l93 12q9 -50 9 -100q0 -58 -17 -183l-58 -403q122 10 170 92.5t48 287.5q0 35 -6 83h96q3 -40 3 -82q0 -241 -72 -344.5t-249 -111.5l-27 -191l-89 -11l28 203 q-122 7 -177.5 54.5t-55.5 139.5q0 30 4 58z" />
<glyph unicode="&#x3c9;" horiz-adv-x="760" d="M437 367l-19 -136q-5 -32 -5 -68q0 -55 19 -78t59 -23q54 0 88.5 62t34.5 190q0 83 -27 213h89q32 -113 32 -204q0 -170 -57.5 -252.5t-162.5 -82.5q-65 0 -98.5 35t-29.5 97h-4q-18 -63 -59 -97.5t-93 -34.5q-77 0 -119.5 50t-42.5 141q0 105 28 186.5t76 161.5h97 q-59 -114 -82 -194t-23 -154q0 -117 81 -117q88 0 111 169l17 124z" />
<glyph unicode="&#x3ca;" horiz-adv-x="269" d="M66 161l51 366h95l-52 -363q-3 -22 -3 -38q0 -24 9 -35.5t33 -21.5l-21 -81q-64 16 -90 44t-26 80q0 13 4 49zM81 647q-25 0 -41.5 16t-16.5 40q0 25 16.5 41t41.5 16q24 0 40.5 -16t16.5 -41q0 -24 -16.5 -40t-40.5 -16zM290 647q-24 0 -40.5 16t-16.5 40q0 25 16.5 41 t40.5 16q25 0 41.5 -16t16.5 -41q0 -24 -16.5 -40t-41.5 -16z" />
<glyph unicode="&#x3cb;" horiz-adv-x="564" d="M66 177l49 350h92l-47 -336q-3 -24 -3 -43q0 -45 19.5 -65.5t62.5 -20.5q180 0 180 358q0 52 -6 107h96q3 -47 3 -93q0 -234 -68.5 -340t-208.5 -106q-85 0 -128 41.5t-43 112.5q0 23 2 35zM229 647q-25 0 -41.5 16t-16.5 40q0 25 16.5 41t41.5 16q24 0 40.5 -16 t16.5 -41q0 -24 -16.5 -40t-40.5 -16zM438 647q-24 0 -40.5 16t-16.5 40q0 25 16.5 41t40.5 16q25 0 41.5 -16t16.5 -41q0 -24 -16.5 -40t-41.5 -16z" />
<glyph unicode="&#x3cc;" horiz-adv-x="575" d="M254 62q83 0 125.5 77.5t42.5 186.5q0 139 -110 139q-75 0 -122 -67.5t-47 -196.5q0 -139 111 -139zM45 209q0 135 70.5 232.5t199.5 97.5q97 0 151 -59t54 -161q0 -146 -74 -238.5t-195 -92.5q-97 0 -151.5 59t-54.5 162zM368 589l-66 12l67 211l97 -18z" />
<glyph unicode="&#x3cd;" horiz-adv-x="564" d="M66 177l49 350h92l-47 -336q-3 -24 -3 -43q0 -45 19.5 -65.5t62.5 -20.5q180 0 180 358q0 52 -6 107h96q3 -47 3 -93q0 -234 -68.5 -340t-208.5 -106q-85 0 -128 41.5t-43 112.5q0 23 2 35zM344 589l-66 12l67 211l97 -18z" />
<glyph unicode="&#x3ce;" horiz-adv-x="760" d="M437 367l-19 -136q-5 -32 -5 -68q0 -55 19 -78t59 -23q54 0 88.5 62t34.5 190q0 83 -27 213h89q32 -113 32 -204q0 -170 -57.5 -252.5t-162.5 -82.5q-65 0 -98.5 35t-29.5 97h-4q-18 -63 -59 -97.5t-93 -34.5q-77 0 -119.5 50t-42.5 141q0 105 28 186.5t76 161.5h97 q-59 -114 -82 -194t-23 -154q0 -117 81 -117q88 0 111 169l17 124zM442 589l-66 12l67 211l97 -18z" />
<glyph unicode="&#x401;" horiz-adv-x="530" d="M502 613h-267l-28 -225h232l-9 -76h-232l-29 -236h286l-9 -76h-381l84 689h373zM246 769q-24 0 -40.5 16t-16.5 41q0 24 16.5 40t40.5 16q25 0 41.5 -16t16.5 -40q0 -25 -16.5 -41t-41.5 -16zM456 769q-25 0 -41.5 16t-16.5 41q0 24 16.5 40t41.5 16q24 0 41 -16t17 -40 t-17 -40.5t-41 -16.5z" />
<glyph unicode="&#x402;" horiz-adv-x="722" d="M449 -139l-14 78q66 25 92.5 62t35.5 106l13 101q4 36 4 49q0 62 -28 88t-85 26q-42 0 -85.5 -19.5t-75.5 -46.5l-37 -305h-95l74 608h-198l10 81h493l-20 -81h-190l-28 -227q88 71 174 71q187 0 187 -183q0 -30 -4 -57l-16 -118q-14 -102 -63.5 -154.5t-143.5 -78.5z " />
<glyph unicode="&#x403;" horiz-adv-x="493" d="M149 689h390l-20 -82h-285l-74 -607h-95zM274 755l-25 53l202 114l41 -86z" />
<glyph unicode="&#x404;" horiz-adv-x="569" d="M323 70q43 0 77 13.5t75 46.5l46 -65q-85 -77 -211 -77q-114 0 -182 74.5t-68 217.5q0 192 91 306.5t228 114.5q66 0 111.5 -17.5t86.5 -56.5l-57 -56q-34 29 -65 40.5t-77 11.5q-74 0 -131 -59t-77 -171h290l-10 -78h-288q-1 -12 -1 -35q0 -210 162 -210z" />
<glyph unicode="&#x405;" horiz-adv-x="530" d="M487 204q0 -90 -71 -153t-181 -63q-72 0 -133 25t-101 67l60 60q47 -41 86.5 -56.5t87.5 -15.5q64 0 108 37.5t44 93.5q0 46 -27.5 72.5t-105.5 51.5q-99 32 -141 78t-42 117q0 76 62 129.5t160 53.5q127 0 214 -76l-54 -62q-68 59 -161 59q-56 0 -89 -27.5t-33 -76.5 q0 -41 27.5 -65.5t110.5 -52.5q97 -32 138 -77t41 -119z" />
<glyph unicode="&#x406;" horiz-adv-x="294" d="M160 0h-95l84 689h95z" />
<glyph unicode="&#x407;" horiz-adv-x="294" d="M160 0h-95l84 689h95zM110 769q-24 0 -40.5 16t-16.5 41q0 24 16.5 40t40.5 16q25 0 41.5 -16t16.5 -40q0 -25 -16.5 -41t-41.5 -16zM320 769q-25 0 -41.5 16t-16.5 41q0 24 16.5 40t41.5 16q24 0 41 -16t17 -40t-17 -40.5t-41 -16.5z" />
<glyph unicode="&#x408;" horiz-adv-x="296" d="M-29 -139l-19 78q70 24 97.5 60t35.5 108l71 582h95l-73 -595q-12 -98 -59.5 -151.5t-147.5 -81.5z" />
<glyph unicode="&#x409;" horiz-adv-x="900" d="M7 -12l-37 74q27 16 44 28.5t34 36.5t28 46.5t26.5 72t28.5 100.5t36 143l49 200h365l-31 -253h65q122 0 188.5 -51.5t66.5 -145.5q0 -114 -71.5 -176.5t-206.5 -62.5h-190l74 611h-187l-29 -126q-28 -121 -49 -193.5t-40 -125t-44 -83.5t-50 -50.5t-70 -44.5zM601 75 q81 0 124 41t43 121q0 59 -40.5 92t-111.5 33h-75l-35 -287h95z" />
<glyph unicode="&#x40a;" horiz-adv-x="933" d="M604 689l-31 -266h75q255 0 255 -189q0 -111 -71.5 -172.5t-206.5 -61.5h-200l42 349h-265l-42 -349h-95l84 689h95l-33 -267h265l33 267h95zM634 75q80 0 123.5 40t43.5 117q0 117 -152 117h-85l-35 -274h105z" />
<glyph unicode="&#x40b;" horiz-adv-x="721" d="M533 608h-190l-28 -227q88 71 174 71q187 0 187 -186q0 -16 -4 -54l-26 -212h-95l25 208q3 27 3 48q0 63 -27.5 89t-84.5 26q-42 0 -85.5 -19.5t-75.5 -46.5l-37 -305h-95l74 608h-198l10 81h493z" />
<glyph unicode="&#x40c;" horiz-adv-x="592" d="M353 366l201 -366h-105l-175 323h-75l-39 -323h-95l84 689h95l-35 -288h67l158 197q38 47 67 67.5t77 35.5l29 -72q-33 -10 -52 -23t-44 -44zM300 755l-25 53l202 114l41 -86z" />
<glyph unicode="&#x40e;" horiz-adv-x="548" d="M605 689l-259 -503q-52 -101 -111.5 -144.5t-163.5 -53.5l-5 78q80 13 119 37.5t69 85.5h-34l-160 500h96l130 -435h4l216 435h99zM349 760q-68 0 -103.5 34.5t-37.5 78.5l62 13q11 -56 82 -56q72 0 98 56l60 -13q-12 -43 -55.5 -78t-105.5 -35z" />
<glyph unicode="&#x40f;" horiz-adv-x="664" d="M519 689h95l-84 -689h-193l-18 -150h-75l4 150h-183l84 689h95l-75 -612h275z" />
<glyph unicode="&#x410;" horiz-adv-x="569" d="M436 0l-31 173h-266l-74 -173h-99l308 689h120l139 -689h-97zM323 603l-151 -353h219l-64 353h-4z" />
<glyph unicode="&#x411;" horiz-adv-x="581" d="M539 689l-18 -77h-287l-23 -189h75q122 0 188.5 -49.5t66.5 -140.5q0 -108 -71.5 -170.5t-204.5 -62.5h-200l84 689h390zM274 75q165 0 165 156q0 55 -40.5 86.5t-111.5 31.5h-85l-33 -274h105z" />
<glyph unicode="&#x412;" horiz-adv-x="616" d="M291 77q162 0 162 138q0 110 -129 110h-124l-31 -248h122zM325 398q66 0 102.5 35t36.5 97q0 84 -127 84h-102l-27 -216h117zM554 215q0 -100 -72.5 -157.5t-206.5 -57.5h-210l84 689h187q111 0 168.5 -42.5t57.5 -116.5q0 -54 -38 -101t-101 -61l-1 -4 q61 -11 96.5 -51.5t35.5 -97.5z" />
<glyph unicode="&#x413;" horiz-adv-x="493" d="M149 689h390l-20 -82h-285l-74 -607h-95z" />
<glyph unicode="&#x414;" horiz-adv-x="652" d="M255 75q113 0 182.5 86t69.5 250q0 202 -202 202h-70l-66 -538h86zM607 415q0 -196 -95.5 -305.5t-261.5 -109.5h-185l84 689h163q137 0 216 -71t79 -203z" />
<glyph unicode="&#x415;" horiz-adv-x="530" d="M502 613h-267l-28 -225h232l-9 -76h-232l-29 -236h286l-9 -76h-381l84 689h373z" />
<glyph unicode="&#x416;" horiz-adv-x="863" d="M644 364l165 -364h-103l-141 323h-76l-39 -323h-93l39 323h-72l-217 -323h-109l254 367l-86 187q-16 34 -33.5 48.5t-51.5 24.5l27 74q58 -16 87 -37.5t49 -66.5l88 -196h74l35 288h93l-35 -288h68l111 161q49 71 78.5 96.5t84.5 42.5l27 -73q-36 -11 -59 -31.5 t-65 -83.5z" />
<glyph unicode="&#x417;" horiz-adv-x="540" d="M473 214q0 -99 -67.5 -162.5t-182.5 -63.5q-62 0 -122 27.5t-99 75.5l60 51q70 -74 161 -74q68 0 107.5 38t39.5 106q0 57 -35.5 87.5t-101.5 30.5h-71l21 78h59q68 0 107.5 35t39.5 91q0 89 -110 89q-79 0 -159 -63l-49 60q99 81 221 81q94 0 146 -43t52 -112 q0 -62 -40 -111.5t-107 -62.5l-1 -4q58 -14 94.5 -55.5t36.5 -98.5z" />
<glyph unicode="&#x418;" horiz-adv-x="672" d="M197 0h-132l84 689h95l-41 -336q-17 -141 -45 -253h4l331 589h129l-84 -689h-95l41 336q16 137 45 251h-4z" />
<glyph unicode="&#x419;" horiz-adv-x="672" d="M197 0h-132l84 689h95l-41 -336q-17 -141 -45 -253h4l331 589h129l-84 -689h-95l41 336q16 137 45 251h-4zM404 760q-68 0 -103.5 34.5t-37.5 78.5l62 13q11 -56 82 -56q72 0 98 56l60 -13q-12 -43 -55.5 -78t-105.5 -35z" />
<glyph unicode="&#x41a;" horiz-adv-x="592" d="M353 366l201 -366h-105l-175 323h-75l-39 -323h-95l84 689h95l-35 -288h67l158 197q38 47 67 67.5t77 35.5l29 -72q-33 -10 -52 -23t-44 -44z" />
<glyph unicode="&#x41b;" horiz-adv-x="641" d="M7 -12l-37 74q27 16 44 28.5t34 36.5t28 46.5t26.5 72t28.5 100.5t36 143l49 200h375l-84 -689h-95l75 611h-198l-29 -126q-46 -195 -78.5 -285.5t-67.5 -131t-107 -80.5z" />
<glyph unicode="&#x41c;" horiz-adv-x="786" d="M694 0h-92l13 353q4 144 16 229h-4l-216 -509h-91l-97 509h-4q-17 -130 -37 -229l-70 -353h-90l141 689h125l89 -503h4l208 503h132z" />
<glyph unicode="&#x41d;" horiz-adv-x="669" d="M535 0h-95l39 323h-280l-39 -323h-95l84 689h95l-35 -288h280l35 288h95z" />
<glyph unicode="&#x41e;" horiz-adv-x="688" d="M642 416q0 -79 -19 -152.5t-56.5 -136.5t-102.5 -101t-148 -38q-117 0 -186 73t-69 210q0 78 19 151.5t56.5 137.5t102.5 102.5t148 38.5q116 0 185.5 -74t69.5 -211zM317 66q64 0 110 33.5t69.5 89.5t34 114.5t10.5 121.5q0 198 -155 198q-63 0 -109.5 -34t-70 -89.5 t-34.5 -113.5t-11 -120q0 -200 156 -200z" />
<glyph unicode="&#x41f;" horiz-adv-x="669" d="M535 0h-95l75 609h-280l-75 -609h-95l84 689h470z" />
<glyph unicode="&#x420;" horiz-adv-x="581" d="M303 328q80 0 125.5 44t45.5 127q0 116 -158 116h-81l-35 -287h103zM574 501q0 -115 -73.5 -181.5t-200.5 -66.5h-109l-31 -253h-95l84 689h172q122 0 187.5 -49.5t65.5 -138.5z" />
<glyph unicode="&#x421;" horiz-adv-x="565" d="M324 70q43 0 77 13.5t75 46.5l46 -65q-87 -77 -211 -77q-114 0 -182 74.5t-68 217.5q0 190 95 305.5t230 115.5q117 0 192 -74l-57 -56q-59 51 -137 51q-92 0 -157 -88.5t-65 -253.5q0 -210 162 -210z" />
<glyph unicode="&#x422;" horiz-adv-x="507" d="M533 608h-190l-74 -608h-95l74 608h-198l10 81h493z" />
<glyph unicode="&#x423;" horiz-adv-x="548" d="M605 689l-259 -503q-52 -101 -111.5 -144.5t-163.5 -53.5l-5 78q80 13 119 37.5t69 85.5h-34l-160 500h96l130 -435h4l216 435h99z" />
<glyph unicode="&#x424;" horiz-adv-x="823" d="M419 -30h-92l7 61q-132 8 -210.5 81t-78.5 190q0 161 93 257.5t274 101.5l7 58h92l-7 -59q133 -9 211 -80.5t78 -186.5q0 -164 -98 -262.5t-269 -100.5zM144 305q0 -85 52 -140.5t148 -62.5l61 487q-261 0 -261 -284zM694 393q0 92 -53 141.5t-147 53.5l-62 -486 q129 0 195.5 77t66.5 214z" />
<glyph unicode="&#x425;" horiz-adv-x="551" d="M221 367l-155 322h103l112 -256h4l178 256h107l-236 -317l175 -372h-103l-130 302h-4l-201 -302h-107z" />
<glyph unicode="&#x426;" horiz-adv-x="664" d="M519 689h95l-75 -612h80l-28 -227h-75l4 150h-455l84 689h95l-75 -612h275z" />
<glyph unicode="&#x427;" horiz-adv-x="613" d="M479 0h-95l36 300q-83 -63 -167 -63q-90 0 -138.5 46t-48.5 136q0 23 3 48l27 222h95l-27 -218q-3 -23 -3 -42q0 -59 28.5 -85t88.5 -26q87 0 152 58l38 313h95z" />
<glyph unicode="&#x428;" horiz-adv-x="944" d="M477 689h89l-75 -612h235l75 612h93l-84 -689h-745l84 689h93l-75 -612h235z" />
<glyph unicode="&#x429;" horiz-adv-x="944" d="M477 689h89l-75 -612h235l75 612h93l-75 -612h80l-28 -227h-75l4 150h-735l84 689h93l-75 -612h235z" />
<glyph unicode="&#x42a;" horiz-adv-x="636" d="M307 689l-31 -253h75q122 0 188.5 -51t66.5 -144q0 -113 -71.5 -177t-206.5 -64h-200l74 608h-168l10 81h263zM337 75q81 0 124 42t43 122q0 57 -40.5 90t-111.5 33h-85l-35 -287h105z" />
<glyph unicode="&#x42b;" horiz-adv-x="818" d="M684 0h-95l84 689h95zM244 689l-31 -253h65q122 0 188.5 -51.5t66.5 -145.5q0 -114 -71.5 -176.5t-206.5 -62.5h-190l84 689h95zM264 75q80 0 123.5 41t43.5 121q0 59 -40.5 92t-111.5 33h-75l-35 -287h95z" />
<glyph unicode="&#x42c;" horiz-adv-x="573" d="M244 689l-31 -253h75q122 0 188.5 -51t66.5 -144q0 -113 -71.5 -177t-206.5 -64h-200l84 689h95zM274 75q81 0 124 42t43 122q0 57 -40.5 90t-111.5 33h-85l-35 -287h105z" />
<glyph unicode="&#x42d;" horiz-adv-x="568" d="M280 624q-70 0 -157 -63l-46 59q99 81 217 81q101 0 165 -70.5t64 -196.5q0 -212 -90.5 -329t-226.5 -117q-117 0 -197 88l54 54q66 -64 144 -64t134 62t75 187h-284l9 78h283q0 7 0.5 22t0.5 23q0 94 -38.5 140t-106.5 46z" />
<glyph unicode="&#x42e;" horiz-adv-x="908" d="M862 416q0 -105 -33.5 -200t-107.5 -161.5t-175 -66.5q-121 0 -182 80.5t-61 202.5q0 25 3 52h-107l-39 -323h-95l84 689h95l-35 -288h107q17 83 52.5 148t100 108.5t148.5 43.5q113 0 179 -74t66 -211zM547 66q60 0 104 33.5t67 89.5t33 114.5t10 121.5q0 198 -145 198 q-59 0 -103.5 -33.5t-67.5 -89t-34 -114t-11 -119.5q0 -103 39.5 -152t107.5 -49z" />
<glyph unicode="&#x42f;" horiz-adv-x="628" d="M432 274h-151l-176 -274h-110l199 298q-49 26 -75 70.5t-26 96.5q0 107 70.5 165.5t199.5 58.5h215l-84 -689h-95zM355 615q-161 0 -161 -147q0 -119 132 -119h115l33 266h-119z" />
<glyph unicode="&#x430;" horiz-adv-x="575" d="M513 494l-55 -366q-3 -18 -3 -29q0 -33 29 -45l-29 -66q-40 5 -64.5 29t-27.5 62q-33 -43 -74 -67t-79 -24q-77 0 -121 54t-44 158q0 151 81 245t198 94q56 0 94.5 -9.5t94.5 -35.5zM234 61q30 0 66.5 27t69.5 77l44 284q-39 17 -85 17q-79 0 -131.5 -69t-52.5 -197 q0 -72 25 -105.5t64 -33.5z" />
<glyph unicode="&#x431;" horiz-adv-x="572" d="M335 616q-69 -13 -114 -65.5t-73 -176.5l3 -1q37 61 93.5 96t115.5 35q71 0 118 -51t47 -144q0 -145 -75.5 -233t-187.5 -88q-95 0 -149.5 62t-54.5 179q0 220 75 332t195 134q68 12 131 55l45 -67q-43 -30 -76 -42.5t-93 -24.5zM335 430q-52 0 -96.5 -35.5t-77.5 -96.5 q-7 -44 -7 -80q0 -156 110 -156q65 0 113 63.5t48 175.5q0 65 -25 97t-65 32z" />
<glyph unicode="&#x432;" horiz-adv-x="531" d="M369 289l-1 -4q50 -7 81 -40t31 -76q0 -74 -59 -127.5t-157 -53.5q-100 0 -159.5 60t-59.5 164q0 149 82.5 238t203.5 89q73 0 114 -33.5t41 -87.5q0 -46 -30.5 -80t-86.5 -49zM384 169q0 59 -65 88q-95 -16 -178 -20q-1 -7 -1 -22q0 -72 32.5 -112.5t95.5 -40.5 q55 0 85.5 29t30.5 78zM324 470q-64 0 -111.5 -47.5t-64.5 -127.5q77 3 128.5 13.5t76.5 27t34 34t9 40.5q0 60 -72 60z" />
<glyph unicode="&#x433;" horiz-adv-x="457" d="M210 65q80 0 149 52l49 -62q-85 -67 -206 -67q-86 0 -140 41.5t-54 106.5q0 64 41.5 102t149.5 67q81 21 108.5 43t27.5 57q0 28 -21.5 43.5t-60.5 15.5q-75 0 -142 -41l-36 64q81 52 182 52q81 0 128 -37t47 -94q0 -60 -42.5 -101.5t-140.5 -66.5q-88 -23 -115.5 -43.5 t-27.5 -60.5q0 -32 28 -51.5t76 -19.5z" />
<glyph unicode="&#x434;" horiz-adv-x="556" d="M188 678l18 72q160 -5 237.5 -70.5t77.5 -208.5q0 -46 -5 -94t-16 -105t-33 -105.5t-51.5 -89.5t-75.5 -65t-102 -24q-91 0 -144.5 57t-53.5 158q0 135 69.5 216.5t164.5 81.5q106 0 158 -92l3 2q3 35 3 61q0 111 -56.5 157.5t-193.5 48.5zM243 61q66 0 114 71.5 t60 209.5q-44 88 -136 88q-57 0 -100 -59.5t-43 -166.5q0 -70 28 -106.5t77 -36.5z" />
<glyph unicode="&#x435;" horiz-adv-x="510" d="M484 404q0 -83 -84 -135.5t-258 -64.5q1 -69 30.5 -103.5t74.5 -34.5q72 0 140 48l39 -64q-84 -62 -175 -62q-97 0 -151.5 59.5t-54.5 162.5q0 150 78 239.5t192 89.5q78 0 123.5 -36t45.5 -99zM313 466q-61 0 -108 -53.5t-59 -143.5q134 11 186.5 43.5t52.5 89.5 q0 31 -19 47.5t-53 16.5z" />
<glyph unicode="&#x436;" horiz-adv-x="693" d="M162 287l-51 117q-13 29 -27.5 42.5t-44.5 24.5l28 68q53 -18 77 -38t41 -60l52 -126h70l30 212h89l-30 -212h64l65 104q37 59 64.5 81.5t79.5 38.5l29 -69q-39 -15 -60 -35t-53 -71l-52 -85l119 -279h-93l-102 243h-71l-34 -243h-89l34 243h-70l-165 -243h-97z" />
<glyph unicode="&#x437;" horiz-adv-x="470" d="M141 239l17 72h52q54 0 82.5 23.5t28.5 63.5q0 70 -84 70q-77 0 -146 -51l-42 59q86 63 194 63q81 0 128 -35.5t47 -95.5q0 -43 -30 -78.5t-78 -46.5l-1 -3q49 -13 75.5 -45t26.5 -78q0 -72 -60 -120.5t-157 -48.5q-122 0 -201 83l56 55q67 -64 149 -64q53 0 83.5 25.5 t30.5 68.5q0 39 -28 61t-79 22h-64z" />
<glyph unicode="&#x438;" horiz-adv-x="570" d="M438 0h-79l3 88q-35 -48 -79 -74t-86 -26q-132 0 -132 127q0 19 3 41l52 371h92l-52 -367q-3 -20 -3 -34q0 -36 16 -51t49 -15q34 0 76.5 31t70.5 79l51 357h92z" />
<glyph unicode="&#x439;" horiz-adv-x="570" d="M438 0h-79l3 88q-35 -48 -79 -74t-86 -26q-132 0 -132 127q0 19 3 41l52 371h92l-52 -367q-3 -20 -3 -34q0 -36 16 -51t49 -15q34 0 76.5 31t70.5 79l51 357h92zM331 628q-59 0 -98.5 34t-40.5 83l63 13q12 -61 80 -61q71 0 101 61l59 -13q-14 -49 -59.5 -83t-104.5 -34z " />
<glyph unicode="&#x43a;" horiz-adv-x="501" d="M143 0h-92l74 527h92l-30 -212h58l118 145q30 37 49.5 50.5t65.5 28.5l30 -69q-44 -14 -87 -65l-103 -123l150 -282h-99l-130 243h-62z" />
<glyph unicode="&#x43b;" horiz-adv-x="584" d="M11 -12l-34 67q41 26 64 53.5t45.5 86t45.5 162.5l37 170h357l-74 -527h-92l63 453h-181l-20 -90q-30 -136 -57.5 -207t-60 -104.5t-93.5 -63.5z" />
<glyph unicode="&#x43c;" horiz-adv-x="701" d="M603 0h-89l9 202q5 111 20 228h-4l-172 -372h-87l-82 372h-4q-13 -113 -28 -180l-54 -250h-90l121 527h116l75 -365h4l167 365h124z" />
<glyph unicode="&#x43d;" horiz-adv-x="584" d="M452 0h-92l32 232h-217l-32 -232h-92l74 527h92l-31 -221h217l31 221h92z" />
<glyph unicode="&#x43e;" horiz-adv-x="575" d="M254 62q83 0 125.5 77.5t42.5 186.5q0 139 -110 139q-75 0 -122 -67.5t-47 -196.5q0 -139 111 -139zM45 209q0 135 70.5 232.5t199.5 97.5q97 0 151 -59t54 -161q0 -146 -74 -238.5t-195 -92.5q-97 0 -151.5 59t-54.5 162z" />
<glyph unicode="&#x43f;" horiz-adv-x="576" d="M186 312l-43 -312h-92l74 527h79l-10 -112q85 124 188 124q56 0 88.5 -33t32.5 -98q0 -19 -3 -40l-51 -368h-92l47 348q4 24 4 47q0 39 -14 53.5t-44 14.5q-80 0 -164 -151z" />
<glyph unicode="&#x440;" horiz-adv-x="581" d="M204 527l-9 -112q34 58 84.5 91t97.5 33q69 0 109 -47t40 -140q0 -163 -70 -263.5t-168 -100.5q-81 0 -138 65l-36 -255l-93 -11l104 740h79zM353 466q-37 0 -81 -37.5t-85 -112.5l-27 -193q46 -63 114 -63q59 0 106 79.5t47 210.5q0 58 -21.5 87t-52.5 29z" />
<glyph unicode="&#x441;" horiz-adv-x="466" d="M255 66q56 0 122 44l35 -66q-79 -56 -167 -56q-90 0 -145 59.5t-55 166.5q0 149 77.5 237t186.5 88q89 0 157 -56l-45 -62q-52 41 -111 41q-68 0 -117 -66t-49 -182q0 -148 111 -148z" />
<glyph unicode="&#x442;" horiz-adv-x="853" d="M186 312l-43 -312h-92l74 527h79l-10 -112q85 124 187 124q46 0 75 -28t32 -84q81 112 183 112q50 0 79.5 -31t29.5 -92q0 -19 -3 -40l-53 -376h-92l49 352q4 27 4 51q0 34 -11.5 47t-34.5 13q-35 0 -77 -35.5t-85 -113.5l-44 -314h-91l49 352q4 27 4 51q0 34 -11.5 47 t-34.5 13q-35 0 -77.5 -36t-85.5 -115z" />
<glyph unicode="&#x443;" horiz-adv-x="478" d="M508 527l-248 -529q-46 -97 -108 -149t-166 -62l-3 74q76 13 117 45t71 94h-34l-98 527h95l72 -453h4l200 453h98z" />
<glyph unicode="&#x444;" horiz-adv-x="846" d="M306 -213l35 248q-56 -47 -123 -47q-77 0 -125 55.5t-48 159.5q0 147 73.5 241.5t170.5 94.5q68 0 115 -57l36 257l89 11l-40 -283q71 72 151 72q151 0 151 -189q0 -161 -70 -261.5t-170 -100.5q-72 0 -122 53l-34 -243zM620 466q-72 0 -144 -87l-37 -268q37 -48 99 -48 q63 0 110 76.5t47 208.5q0 60 -20.5 89t-54.5 29zM243 61q54 0 110 59l40 287q-38 59 -92 59q-61 0 -110.5 -74.5t-49.5 -188.5q0 -70 29.5 -106t72.5 -36z" />
<glyph unicode="&#x445;" horiz-adv-x="465" d="M284 281l143 -281h-106l-96 219h-4l-160 -219h-108l221 279l-126 248h103l81 -189h4l136 189h109z" />
<glyph unicode="&#x446;" horiz-adv-x="580" d="M369 93l-3 1q-36 -51 -81 -78.5t-88 -27.5q-132 0 -132 127q0 19 3 41l52 371h92l-52 -367q-3 -20 -3 -34q0 -36 16 -51t49 -15q34 0 76.5 31t70.5 79l51 357h92l-56 -399q-3 -20 -3 -33q0 -19 8.5 -27t29.5 -9h13l-31 -199h-70l4 143q-49 16 -38 90z" />
<glyph unicode="&#x447;" horiz-adv-x="536" d="M312 0l35 250q-72 -92 -159 -92q-132 0 -132 127q0 19 3 41l28 201h92l-28 -197q-3 -20 -3 -34q0 -36 16 -51t49 -15q34 0 76 31t70 78l27 188h92l-74 -527h-92z" />
<glyph unicode="&#x448;" horiz-adv-x="850" d="M216 60q31 0 72.5 31.5t71.5 77.5l50 358h92l-52 -367q-3 -19 -3 -35q0 -65 59 -65q30 0 71 30.5t71 75.5l52 361h92l-74 -527h-79l3 89q-35 -47 -77.5 -74t-80.5 -27q-118 0 -128 105q-36 -48 -79.5 -76.5t-82.5 -28.5q-129 0 -129 127q0 19 3 41l52 371h92l-52 -367 q-3 -20 -3 -35q0 -65 59 -65z" />
<glyph unicode="&#x449;" horiz-adv-x="860" d="M649 93l-3 1q-36 -49 -79 -77.5t-83 -28.5q-118 0 -128 105q-36 -48 -79.5 -76.5t-82.5 -28.5q-129 0 -129 127q0 19 3 41l52 371h92l-52 -367q-3 -20 -3 -35q0 -65 59 -65q31 0 72.5 31.5t71.5 77.5l50 358h92l-52 -367q-3 -19 -3 -35q0 -65 59 -65q30 0 71.5 31 t70.5 76l52 360h92l-56 -399q-3 -18 -3 -32q0 -21 9.5 -29t35.5 -8h6l-31 -199h-70l4 143q-49 17 -38 90z" />
<glyph unicode="&#x44a;" horiz-adv-x="536" d="M249 -8q-83 0 -161 21l63 442h-135l11 72h226l-24 -170h48q106 0 161 -41t55 -116q0 -100 -61.5 -154t-182.5 -54zM260 64q135 0 135 127q0 50 -29 73.5t-92 23.5h-55l-31 -215q39 -9 72 -9z" />
<glyph unicode="&#x44b;" horiz-adv-x="727" d="M595 0h-92l74 527h92zM224 64q62 0 94.5 33t32.5 94q0 47 -29.5 72t-83.5 25h-55l-31 -215q39 -9 72 -9zM213 -8q-83 0 -161 21l73 514h92l-24 -170h48q103 0 155.5 -40.5t52.5 -116.5q0 -99 -61 -153.5t-175 -54.5z" />
<glyph unicode="&#x44c;" horiz-adv-x="500" d="M224 64q135 0 135 127q0 50 -29 73.5t-92 23.5h-55l-31 -215q39 -9 72 -9zM213 -8q-83 0 -161 21l73 514h92l-24 -170h48q106 0 161 -41t55 -116q0 -100 -61.5 -154t-182.5 -54z" />
<glyph unicode="&#x44d;" horiz-adv-x="491" d="M228 466q-61 0 -130 -46l-35 60q81 59 173 59q91 0 145 -57.5t54 -157.5q0 -156 -72.5 -246t-181.5 -90q-106 0 -176 73l51 58q60 -57 124 -57q53 0 94.5 43.5t56.5 129.5h-222l9 70h220q2 91 -26 126t-84 35z" />
<glyph unicode="&#x44e;" horiz-adv-x="755" d="M247 232h-72l-32 -232h-92l74 527h92l-31 -221h70q22 102 86 167.5t163 65.5q91 0 143 -59t52 -161q0 -145 -72.5 -238t-187.5 -93q-94 0 -146 65t-47 179zM444 62q44 0 76.5 25t49 66.5t24.5 84.5t8 88q0 139 -100 139q-70 0 -114.5 -66.5t-44.5 -193.5q0 -143 101 -143 z" />
<glyph unicode="&#x44f;" horiz-adv-x="550" d="M327 0l30 199h-115l-135 -199h-112l157 223q-37 21 -57 56t-20 73q0 88 61 137.5t180 49.5q79 0 176 -17l-73 -522h-92zM303 468q-131 0 -131 -114q0 -85 110 -85h84l26 190q-46 9 -89 9z" />
<glyph unicode="&#x451;" horiz-adv-x="510" d="M484 404q0 -83 -84 -135.5t-258 -64.5q1 -69 30.5 -103.5t74.5 -34.5q72 0 140 48l39 -64q-84 -62 -175 -62q-97 0 -151.5 59.5t-54.5 162.5q0 150 78 239.5t192 89.5q78 0 123.5 -36t45.5 -99zM313 466q-61 0 -108 -53.5t-59 -143.5q134 11 186.5 43.5t52.5 89.5 q0 31 -19 47.5t-53 16.5zM228 647q-25 0 -41.5 16t-16.5 40q0 25 16.5 41t41.5 16q24 0 40.5 -16t16.5 -41q0 -24 -16.5 -40t-40.5 -16zM437 647q-24 0 -40.5 16t-16.5 40q0 25 16.5 41t40.5 16q25 0 41.5 -16t16.5 -41q0 -24 -16.5 -40t-41.5 -16z" />
<glyph unicode="&#x452;" horiz-adv-x="586" d="M153 0h-92l83 597h-79l10 70h79l10 72l94 11l-12 -83h166l-10 -70h-166l-24 -173q82 115 180 115q56 0 88.5 -33t32.5 -98q0 -19 -3 -40l-46 -336q-14 -103 -57 -156t-137 -88l-26 69q60 26 88 61t39 114l43 316q4 24 4 47q0 39 -14 53.5t-44 14.5q-81 0 -163 -150z" />
<glyph unicode="&#x453;" horiz-adv-x="457" d="M210 65q80 0 149 52l49 -62q-85 -67 -206 -67q-86 0 -140 41.5t-54 106.5q0 64 41.5 102t149.5 67q81 21 108.5 43t27.5 57q0 28 -21.5 43.5t-60.5 15.5q-75 0 -142 -41l-36 64q81 52 182 52q81 0 128 -37t47 -94q0 -60 -42.5 -101.5t-140.5 -66.5q-88 -23 -115.5 -43.5 t-27.5 -60.5q0 -32 28 -51.5t76 -19.5zM196 622l-25 53l202 124l41 -86z" />
<glyph unicode="&#x454;" horiz-adv-x="471" d="M255 66q56 0 122 44l35 -66q-79 -56 -167 -56q-90 0 -145 59.5t-55 166.5q0 150 76 237.5t188 87.5q89 0 157 -56l-45 -62q-52 41 -111 41q-58 0 -100 -40.5t-58 -116.5h219l-9 -70h-218q-7 -169 111 -169z" />
<glyph unicode="&#x455;" horiz-adv-x="462" d="M200 62q48 0 77.5 22.5t29.5 59.5q0 34 -23.5 54.5t-90.5 43.5q-139 46 -139 146q0 69 51.5 110t142.5 41q99 0 171 -58l-46 -62q-59 47 -129 47q-43 0 -67 -19t-24 -51q0 -29 21 -46t91 -42q141 -49 141 -155q0 -76 -55.5 -120.5t-157.5 -44.5q-57 0 -110.5 22t-85.5 54 l55 58q65 -60 148 -60z" />
<glyph unicode="&#x456;" horiz-adv-x="265" d="M138 0h-92l74 527h92zM255 715q0 -27 -18.5 -45t-46.5 -18t-46 18t-18 45t18 44.5t46 17.5t46.5 -18t18.5 -44z" />
<glyph unicode="&#x457;" horiz-adv-x="265" d="M138 0h-92l74 527h92zM88 647q-25 0 -41.5 16t-16.5 40q0 25 16.5 41t41.5 16q24 0 40.5 -16t16.5 -41q0 -24 -16.5 -40t-40.5 -16zM297 647q-24 0 -40.5 16t-16.5 40q0 25 16.5 41t40.5 16q25 0 41.5 -16t16.5 -41q0 -24 -16.5 -40t-41.5 -16z" />
<glyph unicode="&#x458;" horiz-adv-x="265" d="M-51 -212l-26 69q60 26 88 61t39 114l70 495h92l-70 -495q-15 -108 -58.5 -159t-134.5 -85zM255 715q0 -27 -18.5 -45t-46.5 -18t-46 18t-18 45t18 44.5t46 17.5t46.5 -18t18.5 -44z" />
<glyph unicode="&#x459;" horiz-adv-x="792" d="M513 -8q-83 0 -161 21l62 440h-172l-20 -90q-30 -136 -57.5 -207t-60 -104.5t-93.5 -63.5l-34 67q41 26 64 53.5t45.5 86t45.5 162.5l37 170h348l-24 -170h48q103 0 155.5 -40.5t52.5 -116.5q0 -99 -61 -153.5t-175 -54.5zM524 64q62 0 94.5 33t32.5 94q0 47 -29.5 72 t-83.5 25h-55l-31 -215q39 -9 72 -9z" />
<glyph unicode="&#x45a;" horiz-adv-x="807" d="M528 -8q-83 0 -161 21l34 242h-217l-35 -255h-91l74 527h91l-29 -201h217l29 201h92l-29 -201h48q107 0 160 -37t53 -104q0 -93 -59 -143t-177 -50zM539 64q127 0 127 112q0 38 -30 59.5t-88 21.5h-55l-26 -184q39 -9 72 -9z" />
<glyph unicode="&#x45b;" horiz-adv-x="586" d="M153 0h-92l83 597h-79l10 70h79l10 72l94 11l-12 -83h166l-10 -70h-166l-24 -173q82 115 180 115q56 0 88.5 -33t32.5 -98q0 -19 -3 -40l-51 -368h-92l47 348q4 24 4 47q0 39 -14 53.5t-44 14.5q-81 0 -163 -150z" />
<glyph unicode="&#x45c;" horiz-adv-x="501" d="M143 0h-92l74 527h92l-30 -212h58l118 145q30 37 49.5 50.5t65.5 28.5l30 -69q-44 -14 -87 -65l-103 -123l150 -282h-99l-130 243h-62zM246 622l-25 53l202 124l41 -86z" />
<glyph unicode="&#x45e;" horiz-adv-x="478" d="M508 527l-248 -529q-46 -97 -108 -149t-166 -62l-3 74q76 13 117 45t71 94h-34l-98 527h95l72 -453h4l200 453h98zM287 628q-59 0 -98.5 34t-40.5 83l63 13q12 -61 80 -61q71 0 101 61l59 -13q-14 -49 -59.5 -83t-104.5 -34z" />
<glyph unicode="&#x45f;" horiz-adv-x="589" d="M215 0h-164l74 527h92l-64 -455h222l64 455h92l-74 -527h-156l-20 -140h-71z" />
<glyph unicode="&#x462;" horiz-adv-x="691" d="M533 608h-189l-23 -185h75q122 0 188.5 -49.5t66.5 -140.5q0 -108 -71.5 -170.5t-204.5 -62.5h-200l74 608h-199l10 81h493zM384 75q165 0 165 156q0 55 -40.5 86.5t-111.5 31.5h-85l-33 -274h105z" />
<glyph unicode="&#x463;" horiz-adv-x="508" d="M221 -8q-83 0 -161 21l63 444h-84l10 70h84l17 119l93 11l-18 -130h133l-21 -70h-122l-14 -100h48q106 0 161 -41t55 -116q0 -101 -62.5 -154.5t-181.5 -53.5zM232 64q135 0 135 127q0 97 -121 97h-55l-31 -215q39 -9 72 -9z" />
<glyph unicode="&#x472;" horiz-adv-x="688" d="M642 416q0 -79 -19 -152.5t-56.5 -136.5t-102.5 -101t-148 -38q-117 0 -186 73t-69 210q0 78 19 151.5t56.5 137.5t102.5 102.5t148 38.5q116 0 185.5 -74t69.5 -211zM317 66q50 0 89.5 21t64.5 58.5t40 80.5t22 94h-370q-2 -19 -2 -54q0 -200 156 -200zM386 623 q-91 0 -143 -66t-71 -167h368q1 12 1 35q0 198 -155 198z" />
<glyph unicode="&#x473;" horiz-adv-x="575" d="M45 209q0 135 70.5 232.5t199.5 97.5q97 0 151 -59t54 -161q0 -146 -74 -238.5t-195 -92.5q-97 0 -151.5 59t-54.5 162zM254 62q63 0 103 46t55 121h-269q-4 -90 24.5 -128.5t86.5 -38.5zM312 465q-58 0 -101 -42.5t-59 -123.5h269q0 5 0.5 14t0.5 13q0 139 -110 139z " />
<glyph unicode="&#x474;" horiz-adv-x="573" d="M263 105h4l187 456q36 89 75 140l94 -17q-41 -52 -82 -146l-235 -538h-104l-143 689h98z" />
<glyph unicode="&#x475;" horiz-adv-x="494" d="M433 539l95 -12q-49 -60 -84 -137l-179 -390h-112l-108 527h96l75 -442h4l142 334q36 85 71 120z" />
<glyph unicode="&#x490;" horiz-adv-x="493" d="M149 689h298l18 147h92l-18 -147l-20 -82h-285l-74 -607h-95z" />
<glyph unicode="&#x491;" horiz-adv-x="431" d="M207 455l-64 -455h-92l74 527h240l19 135h92l-19 -135l-21 -72h-229z" />
<glyph unicode="&#x492;" horiz-adv-x="493" d="M149 689h390l-20 -82h-285l-21 -174h155l-8 -70h-156l-44 -363h-95l44 363h-98l8 70h99z" />
<glyph unicode="&#x493;" horiz-adv-x="493" d="M-3 258l15 65l180 -23l52 18q71 25 91.5 44t20.5 52q0 23 -21 37.5t-54 14.5q-75 0 -149 -43l-32 62q82 54 190 54q74 0 117.5 -34.5t43.5 -89.5q0 -49 -29.5 -81t-97.5 -50v-3l133 -5l-15 -65l-208 25q-64 -20 -86 -44t-22 -61q0 -31 28 -50t74 -19q82 0 154 53l43 -58 q-90 -69 -207 -69q-80 0 -135.5 38t-55.5 97q0 93 91 127v3z" />
<glyph unicode="&#x496;" horiz-adv-x="878" d="M644 364l130 -287h65l-28 -227h-75l4 150h-34l-141 323h-76l-39 -323h-93l39 323h-72l-217 -323h-109l254 367l-86 187q-16 34 -33.5 48.5t-51.5 24.5l27 74q58 -16 87 -37.5t49 -66.5l88 -196h74l35 288h93l-35 -288h68l111 161q49 71 78.5 96.5t84.5 42.5l27 -73 q-36 -11 -59 -31.5t-65 -83.5z" />
<glyph unicode="&#x497;" horiz-adv-x="703" d="M162 287l-51 117q-13 29 -27.5 42.5t-44.5 24.5l28 68q53 -18 77 -38t41 -60l52 -126h70l30 212h89l-30 -212h63l66 104q37 59 64.5 81.5t79.5 38.5l29 -69q-39 -15 -60 -35t-53 -71l-52 -85l64 -159q27 -67 82 -67h6l-30 -193h-70l5 137q-22 10 -36 28t-31 58l-68 160 h-69l-34 -243h-89l34 243h-70l-165 -243h-97z" />
<glyph unicode="&#x498;" horiz-adv-x="540" d="M198 -181q52 0 52 45q0 37 -82 37l23 89q-55 7 -105.5 33.5t-83.5 67.5l60 51q70 -74 161 -74q68 0 107.5 38t39.5 106q0 57 -35.5 87.5t-101.5 30.5h-71l21 78h59q68 0 107.5 35t39.5 91q0 89 -110 89q-79 0 -159 -63l-49 60q99 81 221 81q94 0 146 -43t52 -112 q0 -62 -40 -111.5t-107 -62.5l-1 -4q58 -14 94.5 -55.5t36.5 -98.5q0 -92 -60 -154.5t-163 -70.5l-7 -45q40 -4 62.5 -25.5t22.5 -54.5q0 -44 -35.5 -74.5t-92.5 -30.5q-62 0 -105 27l34 51q32 -18 69 -18z" />
<glyph unicode="&#x499;" horiz-adv-x="470" d="M170 -181q52 0 52 45q0 37 -82 37l23 89q-103 10 -170 81l56 55q67 -64 149 -64q53 0 83.5 25.5t30.5 68.5q0 39 -28 61t-79 22h-64l17 72h52q54 0 82.5 23.5t28.5 63.5q0 70 -84 70q-77 0 -146 -51l-42 59q86 63 194 63q81 0 128 -35.5t47 -95.5q0 -43 -30 -78.5 t-78 -46.5l-1 -3q49 -13 75.5 -45t26.5 -78q0 -66 -51.5 -113.5t-137.5 -54.5l-7 -45q40 -4 62.5 -25.5t22.5 -54.5q0 -44 -35.5 -74.5t-92.5 -30.5q-62 0 -105 27l34 51q32 -18 69 -18z" />
<glyph unicode="&#x49a;" horiz-adv-x="607" d="M353 366l158 -289h73l-28 -227h-75l4 150h-36l-175 323h-75l-39 -323h-95l84 689h95l-35 -288h67l158 197q38 47 67 67.5t77 35.5l29 -72q-33 -10 -52 -23t-44 -44z" />
<glyph unicode="&#x49b;" horiz-adv-x="511" d="M143 0h-92l74 527h92l-30 -212h56l120 145q30 37 49.5 50.5t65.5 28.5l30 -69q-44 -14 -87 -65l-103 -123l86 -162q19 -35 37.5 -51t45.5 -16h6l-30 -193h-70l5 137q-42 15 -79 86l-82 160h-60z" />
<glyph unicode="&#x49c;" horiz-adv-x="608" d="M269 150h-54l21 173h-37l-39 -323h-95l84 689h95l-35 -288h36l21 169h54l-21 -169h21l129 197q26 39 59 62.5t86 40.5l29 -74q-35 -10 -55.5 -25t-39.5 -43l-134 -195l160 -364h-113l-130 323h-21z" />
<glyph unicode="&#x49d;" horiz-adv-x="524" d="M141 0h-90l74 527h90l-30 -214h36l17 117h48l-17 -117h14l103 147q26 37 45.5 51.5t63.5 27.5l36 -70q-28 -8 -46 -21t-39 -42l-89 -125l121 -281h-100l-101 245h-18l-17 -125h-48l17 125h-36z" />
<glyph unicode="&#x4a0;" horiz-adv-x="655" d="M416 366l201 -366h-105l-175 323h-75l-39 -323h-95l74 608h-168l10 81h263l-35 -288h67l158 197q38 47 67 67.5t77 35.5l29 -72q-33 -10 -52 -23t-44 -44z" />
<glyph unicode="&#x4a1;" horiz-adv-x="537" d="M179 0h-92l64 455h-135l11 72h226l-30 -212h58l118 145q30 37 49.5 50.5t65.5 28.5l30 -69q-44 -14 -87 -65l-103 -123l150 -282h-99l-130 243h-62z" />
<glyph unicode="&#x4a2;" horiz-adv-x="669" d="M619 689l-75 -612h80l-28 -227h-75l4 150h-85l39 323h-280l-39 -323h-95l84 689h95l-35 -288h280l35 288h95z" />
<glyph unicode="&#x4a3;" horiz-adv-x="595" d="M393 232h-218l-32 -232h-92l74 527h92l-31 -221h218l31 221h92l-57 -405q-3 -18 -3 -32q0 -21 9.5 -29t35.5 -8h6l-30 -193h-70l4 136q-48 10 -48 75q0 16 3 37z" />
<glyph unicode="&#x4aa;" horiz-adv-x="565" d="M324 70q43 0 77 13.5t75 46.5l46 -65q-56 -50 -124 -66q-103 -60 -103 -135q0 -44 59 -44q37 0 63 15l19 -54q-47 -22 -100 -22q-57 0 -87.5 25.5t-30.5 69.5q0 77 88 134q-112 2 -178.5 76.5t-66.5 215.5q0 190 95 305.5t230 115.5q117 0 192 -74l-57 -56 q-59 51 -137 51q-92 0 -157 -88.5t-65 -253.5q0 -210 162 -210z" />
<glyph unicode="&#x4ab;" horiz-adv-x="466" d="M255 66q56 0 122 44l35 -66q-41 -30 -90 -44q-105 -60 -105 -136q0 -44 59 -44q37 0 63 15l19 -54q-47 -22 -100 -22q-57 0 -87.5 25.5t-30.5 69.5q0 78 88 135q-83 5 -133 64t-50 161q0 149 77.5 237t186.5 88q89 0 157 -56l-45 -62q-52 41 -111 41q-68 0 -117 -66 t-49 -182q0 -148 111 -148z" />
<glyph unicode="&#x4ae;" horiz-adv-x="540" d="M589 689l-274 -425l-32 -264h-96l32 264l-170 425h99l125 -337h4l207 337h105z" />
<glyph unicode="&#x4af;" horiz-adv-x="480" d="M217 -202l-93 -11l32 228l-118 512h95l81 -404h4l194 404h98l-262 -509z" />
<glyph unicode="&#x4b0;" horiz-adv-x="540" d="M589 689l-241 -373h101l-9 -70h-127l-30 -246h-96l30 246h-127l9 70h99l-149 373h99l125 -337h4l207 337h105z" />
<glyph unicode="&#x4b1;" horiz-adv-x="480" d="M510 527l-227 -441h78l-10 -70h-103l-31 -218l-93 -11l32 229h-103l10 70h76l-101 441h95l81 -404h4l194 404h98z" />
<glyph unicode="&#x4b2;" horiz-adv-x="566" d="M221 367l-155 322h103l112 -256h4l178 256h107l-236 -317l139 -295h86l-28 -227h-75l4 150h-54l-130 302h-4l-201 -302h-107z" />
<glyph unicode="&#x4b3;" horiz-adv-x="475" d="M284 281l73 -144q26 -50 45.5 -67t48.5 -17h6l-30 -193h-70l5 137q-26 5 -43.5 25.5t-38.5 69.5l-55 127h-4l-160 -219h-108l221 279l-126 248h103l81 -189h4l136 189h109z" />
<glyph unicode="&#x4b8;" horiz-adv-x="613" d="M287 150h-59l10 87q-83 3 -127.5 48.5t-44.5 132.5q0 24 3 49l27 222h95l-27 -218q-3 -24 -3 -44q0 -51 21 -76.5t66 -31.5l31 251h59l-31 -251q69 9 123 57l38 313h95l-84 -689h-95l36 300q-57 -44 -122 -58z" />
<glyph unicode="&#x4b9;" horiz-adv-x="536" d="M241 80h-55l11 78h-9q-132 0 -132 127q0 19 3 41l28 201h92l-28 -197q-3 -20 -3 -35q0 -34 14.5 -48.5t44.5 -16.5l23 160h55l-21 -145q59 32 95 94l27 188h92l-74 -527h-92l35 250q-42 -54 -93 -77z" />
<glyph unicode="&#x4ba;" horiz-adv-x="612" d="M149 689h95l-38 -308q90 71 178 71q85 0 133.5 -46.5t48.5 -141.5q0 -24 -3 -52l-26 -212h-95l25 208q3 27 3 48q0 63 -27.5 89t-84.5 26q-42 0 -85.5 -19.5t-75.5 -46.5l-37 -305h-95z" />
<glyph unicode="&#x4bb;" horiz-adv-x="570" d="M143 0h-92l103 738l94 12l-56 -403q81 112 181 112q119 0 119 -121q0 -20 -3 -42l-41 -296h-92l38 272q4 25 4 48q0 37 -14 52t-43 15q-82 0 -165 -154z" />
<glyph unicode="&#x4c0;" horiz-adv-x="294" d="M160 0h-95l84 689h95z" />
<glyph unicode="&#x4cb;" horiz-adv-x="613" d="M563 689l-75 -612h80l-28 -227h-75l4 150h-85l36 300q-83 -63 -167 -63q-90 0 -138.5 46t-48.5 136q0 23 3 48l27 222h95l-27 -218q-3 -23 -3 -42q0 -59 28.5 -85t88.5 -26q87 0 152 58l38 313h95z" />
<glyph unicode="&#x4cc;" horiz-adv-x="546" d="M329 108l19 144q-34 -45 -76.5 -69.5t-83.5 -24.5q-132 0 -132 127q0 19 3 41l28 201h92l-28 -197q-3 -20 -3 -34q0 -36 16 -51t49 -15q34 0 77 31.5t70 79.5l26 186h92l-57 -405q-3 -18 -3 -32q0 -21 9.5 -29t35.5 -8h6l-30 -193h-70l4 136q-47 10 -47 73q0 18 3 39z " />
<glyph unicode="&#x4cf;" horiz-adv-x="254" d="M197 71l21 -65q-40 -18 -77 -18q-51 0 -77 33t-17 94l88 624l94 11l-91 -643q-4 -23 2.5 -32.5t24.5 -9.5q17 0 32 6z" />
<glyph unicode="&#x4d8;" horiz-adv-x="669" d="M306 -12q-120 0 -185 72t-65 214q0 50 9 109h458q1 13 1 41q0 200 -155 200q-47 0 -99 -18.5t-92 -47.5l-44 63q108 80 239 80q115 0 183 -72t68 -203q0 -208 -90 -323t-228 -115zM307 65q76 0 132.5 61t75.5 181h-356q-4 -29 -4 -61q0 -88 40.5 -134.5t111.5 -46.5z" />
<glyph unicode="&#x4d9;" horiz-adv-x="547" d="M35 136q0 42 17 73t56.5 56t112.5 39t178 16q1 7 1 23q0 121 -101 121q-71 0 -152 -48l-34 65q94 58 202 58q79 0 130.5 -54t51.5 -148q0 -158 -82.5 -253.5t-202.5 -95.5q-84 0 -130.5 41t-46.5 107zM219 61q62 0 109.5 51.5t63.5 142.5q-105 -2 -164.5 -19t-77.5 -40.5 t-18 -60.5q0 -34 23 -54t64 -20z" />
<glyph unicode="&#x4e2;" horiz-adv-x="672" d="M197 0h-132l84 689h95l-41 -336q-17 -141 -45 -253h4l331 589h129l-84 -689h-95l41 336q16 137 45 251h-4zM544 866l-9 -70h-273l9 70h273z" />
<glyph unicode="&#x4e3;" horiz-adv-x="570" d="M438 0h-79l3 88q-35 -48 -79 -74t-86 -26q-132 0 -132 127q0 19 3 41l52 371h92l-52 -367q-3 -20 -3 -34q0 -36 16 -51t49 -15q34 0 76.5 31t70.5 79l51 357h92zM477 743l-9 -69h-273l9 69h273z" />
<glyph unicode="&#x4e8;" horiz-adv-x="688" d="M642 416q0 -79 -19 -152.5t-56.5 -136.5t-102.5 -101t-148 -38q-117 0 -186 73t-69 210q0 78 19 151.5t56.5 137.5t102.5 102.5t148 38.5q116 0 185.5 -74t69.5 -211zM317 66q50 0 89.5 21t64.5 58.5t40 80.5t22 94h-370q-2 -19 -2 -54q0 -200 156 -200zM386 623 q-91 0 -143 -66t-71 -167h368q1 12 1 35q0 198 -155 198z" />
<glyph unicode="&#x4e9;" horiz-adv-x="575" d="M45 209q0 135 70.5 232.5t199.5 97.5q97 0 151 -59t54 -161q0 -146 -74 -238.5t-195 -92.5q-97 0 -151.5 59t-54.5 162zM254 62q63 0 103 46t55 121h-269q-4 -90 24.5 -128.5t86.5 -38.5zM312 465q-58 0 -101 -42.5t-59 -123.5h269q0 5 0.5 14t0.5 13q0 139 -110 139z " />
<glyph unicode="&#x4ee;" horiz-adv-x="548" d="M605 689l-259 -503q-52 -101 -111.5 -144.5t-163.5 -53.5l-5 78q80 13 119 37.5t69 85.5h-34l-160 500h96l130 -435h4l216 435h99zM487 866l-9 -70h-273l9 70h273z" />
<glyph unicode="&#x4ef;" horiz-adv-x="478" d="M508 527l-248 -529q-46 -97 -108 -149t-166 -62l-3 74q76 13 117 45t71 94h-34l-98 527h95l72 -453h4l200 453h98zM435 743l-9 -69h-273l9 69h273z" />
<glyph unicode="&#x2007;" />
<glyph unicode="&#x2008;" horiz-adv-x="265" />
<glyph unicode="&#x200b;" horiz-adv-x="0" />
<glyph unicode="&#x2012;" d="M544 284h-530l10 78h530z" />
<glyph unicode="&#x2013;" horiz-adv-x="520" d="M486 274h-456l11 78h456z" />
<glyph unicode="&#x2014;" horiz-adv-x="791" d="M756 274h-726l11 78h726z" />
<glyph unicode="&#x2015;" horiz-adv-x="520" d="M486 274h-456l11 78h456z" />
<glyph unicode="&#x2018;" horiz-adv-x="256" d="M231 563q0 -26 -19.5 -44.5t-45.5 -18.5q-27 0 -45.5 17.5t-18.5 43.5q0 32 27 76l77 126h57l-55 -153q23 -16 23 -47z" />
<glyph unicode="&#x2019;" horiz-adv-x="255" d="M119 700q0 26 19.5 44.5t45.5 18.5q27 0 45.5 -17.5t18.5 -43.5q0 -32 -27 -76l-77 -126h-57l55 153q-23 16 -23 47z" />
<glyph unicode="&#x201a;" horiz-adv-x="255" d="M27 44q0 26 19.5 44.5t45.5 18.5q27 0 45.5 -17.5t18.5 -43.5q0 -32 -27 -76l-77 -126h-57l55 153q-23 16 -23 47z" />
<glyph unicode="&#x201c;" horiz-adv-x="437" d="M412 563q0 -26 -19.5 -44.5t-45.5 -18.5q-27 0 -45.5 17.5t-18.5 43.5q0 32 27 76l77 126h57l-55 -153q23 -16 23 -47zM231 563q0 -26 -19.5 -44.5t-45.5 -18.5q-27 0 -45.5 17.5t-18.5 43.5q0 32 27 76l77 126h57l-55 -153q23 -16 23 -47z" />
<glyph unicode="&#x201d;" horiz-adv-x="437" d="M119 700q0 26 19.5 44.5t45.5 18.5q27 0 45.5 -17.5t18.5 -43.5q0 -32 -27 -76l-77 -126h-57l55 153q-23 16 -23 47zM300 700q0 26 19.5 44.5t45.5 18.5q27 0 45.5 -17.5t18.5 -43.5q0 -32 -27 -76l-77 -126h-57l55 153q-23 16 -23 47z" />
<glyph unicode="&#x201e;" horiz-adv-x="435" d="M27 44q0 26 19.5 44.5t45.5 18.5q27 0 45.5 -17.5t18.5 -43.5q0 -32 -27 -76l-77 -126h-57l55 153q-23 16 -23 47zM208 44q0 26 19.5 44.5t45.5 18.5q27 0 45.5 -17.5t18.5 -43.5q0 -32 -27 -76l-77 -126h-57l55 153q-23 16 -23 47z" />
<glyph unicode="&#x2020;" horiz-adv-x="500" d="M483 445h-169l-55 -445h-88l55 445h-169l9 77h169l20 155h88l-20 -155h169z" />
<glyph unicode="&#x2021;" horiz-adv-x="500" d="M288 236h169l-9 -77h-169l-20 -159h-88l20 159h-169l9 77h169l25 202h-169l9 77h169l21 162h88l-21 -162h169l-9 -77h-169z" />
<glyph unicode="&#x2022;" horiz-adv-x="400" d="M208 218q-53 0 -88.5 35.5t-35.5 88.5t35.5 88t88.5 35t88.5 -35.5t35.5 -88.5t-35.5 -88t-88.5 -35z" />
<glyph unicode="&#x2026;" horiz-adv-x="794" d="M296 58q0 29 20.5 49t49.5 20t49 -20t20 -49t-20 -49.5t-49 -20.5t-49.5 20.5t-20.5 49.5zM32 58q0 29 20 49t49 20q30 0 50 -20t20 -49t-20 -49.5t-50 -20.5q-29 0 -49 20.5t-20 49.5zM561 58q0 29 20 49t49 20q30 0 50 -20t20 -49t-20 -49.5t-50 -20.5q-29 0 -49 20.5 t-20 49.5z" />
<glyph unicode="&#x2030;" horiz-adv-x="1181" d="M738 668l-549 -697l-62 40l548 697zM273 617q-41 0 -66 -31.5t-25 -90.5q0 -45 19.5 -68.5t54.5 -23.5q43 0 67 30.5t24 90.5q0 45 -20 69t-54 24zM429 528q0 -82 -43.5 -134.5t-127.5 -52.5q-70 0 -113.5 41t-43.5 109q0 90 45.5 139t126.5 49q69 0 112 -43t44 -108z M605 264q-41 0 -66 -32t-25 -93q0 -43 20.5 -66t54.5 -23q90 0 90 121q0 45 -20 69t-54 24zM761 175q0 -82 -43 -134.5t-127 -52.5q-71 0 -114.5 41t-43.5 109q0 90 45.5 139t126.5 49q69 0 112 -43t44 -108zM971 264q-41 0 -66 -32t-25 -93q0 -43 20.5 -66t54.5 -23 q90 0 90 121q0 45 -20 69t-54 24zM1127 175q0 -82 -43 -134.5t-127 -52.5q-71 0 -114.5 41t-43.5 109q0 90 45.5 139t126.5 49q69 0 112 -43t44 -108z" />
<glyph unicode="&#x2039;" horiz-adv-x="340" d="M153 293l104 -207l-56 -37l-150 211l9 65l205 210l50 -43z" />
<glyph unicode="&#x203a;" horiz-adv-x="344" d="M188 291l-104 207l56 37l150 -211l-9 -65l-205 -210l-50 43z" />
<glyph unicode="&#x2044;" horiz-adv-x="50" d="M321 720l-516 -800l-61 32l516 800z" />
<glyph unicode="&#x2070;" horiz-adv-x="400" d="M207 373q29 0 49.5 23t30 60t13 68.5t3.5 62.5q0 96 -62 96q-41 0 -68 -52t-27 -162q0 -96 61 -96zM382 584q0 -130 -48.5 -201t-130.5 -71q-66 0 -101.5 41.5t-35.5 119.5q0 132 48 202t132 70q65 0 100.5 -40t35.5 -121z" />
<glyph unicode="&#x2074;" horiz-adv-x="400" d="M364 414h-54l-11 -96h-76l11 96h-179l7 50l169 285l63 -26l-144 -248h92l22 105h67l-13 -105h54z" />
<glyph unicode="&#x2075;" horiz-adv-x="400" d="M359 474q0 -72 -44.5 -117t-119.5 -45q-94 0 -140 60l53 43q34 -41 88 -41q39 0 61 26.5t22 71.5q0 31 -16 46.5t-43 15.5q-25 0 -59 -16h-57l27 221h245l-14 -61h-163l-14 -100q33 14 59 14q53 0 84 -32.5t31 -85.5z" />
<glyph unicode="&#x2076;" horiz-adv-x="400" d="M272 684q-53 0 -82.5 -41t-40.5 -101q45 58 112 58q48 0 80.5 -32.5t32.5 -89.5q0 -75 -46.5 -120.5t-113.5 -45.5q-63 0 -104 44t-41 123q0 121 55.5 193.5t150.5 72.5q61 0 102 -30l-42 -49q-26 18 -63 18zM240 539q-23 0 -49.5 -15t-46.5 -40v-4q0 -107 71 -107 q36 0 58 27.5t22 73.5q0 65 -55 65z" />
<glyph unicode="&#x2077;" horiz-adv-x="400" d="M383 688l-216 -378l-69 26l197 341h-195l7 62h282z" />
<glyph unicode="&#x2078;" horiz-adv-x="400" d="M380 644q0 -35 -24.5 -61.5t-63.5 -35.5q81 -32 81 -102q0 -59 -45 -96t-123 -37q-70 0 -111.5 32.5t-41.5 80.5q0 39 27 69.5t74 42.5q-59 30 -59 91q0 53 40 85t109 32q61 0 99 -28.5t38 -72.5zM207 373q38 0 62 19t24 50q0 26 -22 40.5t-71 31.5q-68 -33 -68 -86 q0 -25 20 -40t55 -15zM241 686q-69 0 -69 -54q0 -40 71 -63q59 32 59 71q0 20 -17 33t-44 13z" />
<glyph unicode="&#x2079;" horiz-adv-x="400" d="M81 363q169 40 215 150l-2 1q-41 -47 -108 -47q-49 0 -80.5 34.5t-31.5 87.5q0 70 46.5 113t118.5 43q67 0 104.5 -38t37.5 -103q0 -125 -73.5 -195.5t-214.5 -104.5zM211 528q54 0 91 44q2 16 2 35q0 38 -18.5 57.5t-49.5 19.5q-37 0 -60 -24.5t-23 -66.5q0 -31 16 -48 t42 -17z" />
<glyph unicode="&#x207a;" horiz-adv-x="400" d="M108 546h85l11 89h69l-11 -89h84l-8 -64h-84l-11 -88h-69l11 88h-85z" />
<glyph unicode="&#x207b;" horiz-adv-x="400" d="M338 482h-238l8 64h238z" />
<glyph unicode="&#x207c;" horiz-adv-x="400" d="M330 421h-239l8 65h239zM345 542h-239l8 65h239z" />
<glyph unicode="&#x207d;" horiz-adv-x="400" d="M339 796q-65 -82 -97 -166t-32 -191q0 -108 59 -216l-52 -30q-27 47 -42 77.5t-27.5 78.5t-12.5 100q0 85 24.5 158t54 115.5t81.5 103.5z" />
<glyph unicode="&#x207e;" horiz-adv-x="400" d="M148 193l-44 30q65 82 97 166t32 191q0 108 -59 216l52 30q27 -47 42 -77.5t27.5 -78.5t12.5 -100q0 -85 -24.5 -158t-54 -115.5t-81.5 -103.5z" />
<glyph unicode="&#x2080;" horiz-adv-x="400" d="M207 -143q29 0 49.5 23t30 60t13 68.5t3.5 62.5q0 96 -62 96q-41 0 -68 -52t-27 -162q0 -96 61 -96zM382 68q0 -130 -48.5 -201t-130.5 -71q-66 0 -101.5 41.5t-35.5 119.5q0 132 48 202t132 70q65 0 100.5 -40t35.5 -121z" />
<glyph unicode="&#x2081;" horiz-adv-x="400" d="M273 -198h-77l41 336l-100 -51l-32 54l156 82h63z" />
<glyph unicode="&#x2082;" horiz-adv-x="400" d="M370 117q0 -27 -14.5 -57t-29.5 -50.5t-51.5 -54t-50 -44.5t-56.5 -46h181l-16 -63h-278l6 55q142 116 185 167.5t43 92.5q0 23 -14.5 36t-38.5 13q-51 0 -95 -47l-49 40q69 70 154 70q57 0 90.5 -29.5t33.5 -82.5z" />
<glyph unicode="&#x2083;" horiz-adv-x="400" d="M359 -65q0 -58 -47.5 -98.5t-118.5 -40.5q-102 0 -150 63l53 42q39 -43 96 -43q41 0 64 20.5t23 57.5q0 58 -72 58h-37l16 60h25q37 0 57.5 18t20.5 47q0 23 -14.5 36t-40.5 13q-54 0 -105 -40l-36 46q71 55 147 55q61 0 95 -27.5t34 -69.5q0 -31 -24 -61t-64 -39l-1 -3 q34 -6 56.5 -33.5t22.5 -60.5z" />
<glyph unicode="&#x2084;" horiz-adv-x="400" d="M364 -102h-54l-11 -96h-76l11 96h-179l7 50l169 285l63 -26l-144 -248h92l22 105h67l-13 -105h54z" />
<glyph unicode="&#x2085;" horiz-adv-x="400" d="M359 -42q0 -72 -44.5 -117t-119.5 -45q-94 0 -140 60l53 43q34 -41 88 -41q39 0 61 26.5t22 71.5q0 31 -16 46.5t-43 15.5q-25 0 -59 -16h-57l27 221h245l-14 -61h-163l-14 -100q33 14 59 14q53 0 84 -32.5t31 -85.5z" />
<glyph unicode="&#x2086;" horiz-adv-x="400" d="M272 168q-53 0 -82.5 -41t-40.5 -101q45 58 112 58q48 0 80.5 -32.5t32.5 -89.5q0 -75 -46.5 -120.5t-113.5 -45.5q-63 0 -104 44t-41 123q0 121 55.5 193.5t150.5 72.5q61 0 102 -30l-42 -49q-26 18 -63 18zM240 23q-23 0 -49.5 -15t-46.5 -40v-4q0 -107 71 -107 q36 0 58 27.5t22 73.5q0 65 -55 65z" />
<glyph unicode="&#x2087;" horiz-adv-x="400" d="M383 172l-216 -378l-69 26l197 341h-195l7 62h282z" />
<glyph unicode="&#x2088;" horiz-adv-x="400" d="M380 128q0 -35 -24.5 -61.5t-63.5 -35.5q81 -32 81 -102q0 -59 -45 -96t-123 -37q-70 0 -111.5 32.5t-41.5 80.5q0 39 27 69.5t74 42.5q-59 30 -59 91q0 53 40 85t109 32q61 0 99 -28.5t38 -72.5zM207 -143q38 0 62 19t24 50q0 26 -22 40.5t-71 31.5q-68 -33 -68 -86 q0 -25 20 -40t55 -15zM241 170q-69 0 -69 -54q0 -40 71 -63q59 32 59 71q0 20 -17 33t-44 13z" />
<glyph unicode="&#x2089;" horiz-adv-x="400" d="M81 -153q169 40 215 150l-2 1q-41 -47 -108 -47q-49 0 -80.5 34.5t-31.5 87.5q0 70 46.5 113t118.5 43q67 0 104.5 -38t37.5 -103q0 -125 -73.5 -195.5t-214.5 -104.5zM211 12q54 0 91 44q2 16 2 35q0 38 -18.5 57.5t-49.5 19.5q-37 0 -60 -24.5t-23 -66.5q0 -31 16 -48 t42 -17z" />
<glyph unicode="&#x208a;" horiz-adv-x="400" d="M108 30h85l11 89h69l-11 -89h84l-8 -64h-84l-11 -88h-69l11 88h-85z" />
<glyph unicode="&#x208b;" horiz-adv-x="400" d="M338 -34h-238l8 64h238z" />
<glyph unicode="&#x208c;" horiz-adv-x="400" d="M330 -95h-239l8 65h239zM345 26h-239l8 65h239z" />
<glyph unicode="&#x208d;" horiz-adv-x="400" d="M339 280q-65 -82 -97 -166t-32 -191q0 -108 59 -216l-52 -30q-27 47 -42 77.5t-27.5 78.5t-12.5 100q0 85 24.5 158t54 115.5t81.5 103.5z" />
<glyph unicode="&#x208e;" horiz-adv-x="400" d="M148 -323l-44 30q65 82 97 166t32 191q0 108 -59 216l52 30q27 -47 42 -77.5t27.5 -78.5t12.5 -100q0 -85 -24.5 -158t-54 -115.5t-81.5 -103.5z" />
<glyph unicode="&#x20ac;" horiz-adv-x="562" d="M62 444h74q31 106 98 170.5t177 64.5q81 0 151 -44l-44 -69q-49 37 -110 37q-64 0 -109.5 -41t-68.5 -118h246l-23 -62h-237q-6 -35 -8 -90h215l-22 -61h-192q13 -166 140 -166q76 0 141 50l-11 -91q-68 -36 -143 -36q-97 0 -157 65.5t-67 177.5h-92l23 61h69q1 38 10 90 h-83z" />
<glyph unicode="&#x2116;" horiz-adv-x="1159" d="M1012 0h-375l9 79h375zM866 327q59 0 92.5 48t33.5 145q0 54 -27.5 82.5t-67.5 28.5q-124 0 -124 -191q0 -57 25 -85t68 -28zM683 440q0 126 59 193t158 67q80 0 129.5 -48t49.5 -133q0 -119 -57.5 -189.5t-158.5 -70.5q-81 0 -130.5 47t-49.5 134zM544 0h-126l-201 583 h-4q0 -106 -17 -247l-41 -336h-90l84 689h123l204 -586h4q0 101 18 250l41 336h89z" />
<glyph unicode="&#x2122;" horiz-adv-x="900" d="M360 625h-121v-327h-77v327h-127v64h337zM816 298h-75l-9 211q-1 17 -1 53q0 35 1 51h-3l-86 -274h-67l-95 274h-3q1 -14 1 -42q0 -41 -1 -61l-8 -212h-72l16 391h105l89 -265h4l81 265h108z" />
<glyph unicode="&#x2126;" horiz-adv-x="705" d="M72 290q0 70 19 139.5t56.5 131.5t102.5 101t148 39q116 0 185.5 -73.5t69.5 -209.5q0 -121 -47.5 -213t-120.5 -123l-1 -4h111l-9 -78h-214l9 73q74 27 122.5 116t48.5 229q0 109 -39.5 157t-115.5 48q-51 0 -91.5 -23.5t-64.5 -59t-40.5 -82.5t-22.5 -89.5t-6 -83.5 q0 -80 27 -136t75 -76l-9 -73h-215l9 78h121l1 4q-46 28 -77.5 87.5t-31.5 120.5z" />
<glyph unicode="&#x212e;" horiz-adv-x="945" d="M867 334h-644v-212q29 -44 102 -69.5t148 -25.5q73 0 144.5 25t110.5 71h57q-116 -135 -313 -135q-169 0 -281.5 100t-112.5 254q0 153 115 256.5t279 103.5q162 0 278.5 -104t116.5 -264zM722 373v191q-92 99 -249 99q-169 0 -250 -99v-191h499z" />
<glyph unicode="&#x2153;" horiz-adv-x="850" d="M283 278h-77l41 336l-100 -51l-32 54l156 82h63zM721 720l-516 -800l-61 32l516 800zM817 133q0 -58 -47.5 -98.5t-118.5 -40.5q-102 0 -150 63l53 42q39 -43 96 -43q41 0 64 20.5t23 57.5q0 58 -72 58h-37l16 60h25q37 0 57.5 18t20.5 47q0 23 -14.5 36t-40.5 13 q-54 0 -105 -40l-36 46q71 55 147 55q61 0 95 -27.5t34 -69.5q0 -31 -24 -61t-64 -39l-1 -3q34 -6 56.5 -33.5t22.5 -60.5z" />
<glyph unicode="&#x2154;" horiz-adv-x="850" d="M340 593q0 -27 -14.5 -57t-29.5 -50.5t-51.5 -54t-50 -44.5t-56.5 -46h181l-16 -63h-278l6 55q142 116 185 167.5t43 92.5q0 23 -14.5 36t-38.5 13q-51 0 -95 -47l-49 40q69 70 154 70q57 0 90.5 -29.5t33.5 -82.5zM721 720l-516 -800l-61 32l516 800zM805 133 q0 -58 -47.5 -98.5t-118.5 -40.5q-102 0 -150 63l53 42q39 -43 96 -43q41 0 64 20.5t23 57.5q0 58 -72 58h-37l16 60h25q37 0 57.5 18t20.5 47q0 23 -14.5 36t-40.5 13q-54 0 -105 -40l-36 46q71 55 147 55q61 0 95 -27.5t34 -69.5q0 -31 -24 -61t-64 -39l-1 -3 q34 -6 56.5 -33.5t22.5 -60.5z" />
<glyph unicode="&#x2155;" horiz-adv-x="850" d="M283 278h-77l41 336l-100 -51l-32 54l156 82h63zM721 720l-516 -800l-61 32l516 800zM805 156q0 -72 -44.5 -117t-119.5 -45q-94 0 -140 60l53 43q34 -41 88 -41q39 0 61 26.5t22 71.5q0 31 -16 46.5t-43 15.5q-25 0 -59 -16h-57l27 221h245l-14 -61h-163l-14 -100 q33 14 59 14q53 0 84 -32.5t31 -85.5z" />
<glyph unicode="&#x2156;" horiz-adv-x="850" d="M350 593q0 -27 -14.5 -57t-29.5 -50.5t-51.5 -54t-50 -44.5t-56.5 -46h181l-16 -63h-278l6 55q142 116 185 167.5t43 92.5q0 23 -14.5 36t-38.5 13q-51 0 -95 -47l-49 40q69 70 154 70q57 0 90.5 -29.5t33.5 -82.5zM721 720l-516 -800l-61 32l516 800zM805 156 q0 -72 -44.5 -117t-119.5 -45q-94 0 -140 60l53 43q34 -41 88 -41q39 0 61 26.5t22 71.5q0 31 -16 46.5t-43 15.5q-25 0 -59 -16h-57l27 221h245l-14 -61h-163l-14 -100q33 14 59 14q53 0 84 -32.5t31 -85.5z" />
<glyph unicode="&#x2157;" horiz-adv-x="850" d="M349 411q0 -58 -47.5 -98.5t-118.5 -40.5q-102 0 -150 63l53 42q39 -43 96 -43q41 0 64 20.5t23 57.5q0 58 -72 58h-37l16 60h25q37 0 57.5 18t20.5 47q0 23 -14.5 36t-40.5 13q-54 0 -105 -40l-36 46q71 55 147 55q61 0 95 -27.5t34 -69.5q0 -31 -24 -61t-64 -39l-1 -3 q34 -6 56.5 -33.5t22.5 -60.5zM721 720l-516 -800l-61 32l516 800zM805 156q0 -72 -44.5 -117t-119.5 -45q-94 0 -140 60l53 43q34 -41 88 -41q39 0 61 26.5t22 71.5q0 31 -16 46.5t-43 15.5q-25 0 -59 -16h-57l27 221h245l-14 -61h-163l-14 -100q33 14 59 14q53 0 84 -32.5 t31 -85.5z" />
<glyph unicode="&#x2158;" horiz-adv-x="850" d="M364 374h-54l-11 -96h-76l11 96h-179l7 50l169 285l63 -26l-144 -248h92l22 105h67l-13 -105h54zM721 720l-516 -800l-61 32l516 800zM775 156q0 -72 -44.5 -117t-119.5 -45q-94 0 -140 60l53 43q34 -41 88 -41q39 0 61 26.5t22 71.5q0 31 -16 46.5t-43 15.5 q-25 0 -59 -16h-57l27 221h245l-14 -61h-163l-14 -100q33 14 59 14q53 0 84 -32.5t31 -85.5z" />
<glyph unicode="&#x2159;" horiz-adv-x="850" d="M283 278h-77l41 336l-100 -51l-32 54l156 82h63zM721 720l-516 -800l-61 32l516 800zM698 366q-53 0 -82.5 -41t-40.5 -101q45 58 112 58q48 0 80.5 -32.5t32.5 -89.5q0 -75 -46.5 -120.5t-113.5 -45.5q-63 0 -104 44t-41 123q0 121 55.5 193.5t150.5 72.5q61 0 102 -30 l-42 -49q-26 18 -63 18zM666 221q-23 0 -49.5 -15t-46.5 -40v-4q0 -107 71 -107q36 0 58 27.5t22 73.5q0 65 -55 65z" />
<glyph unicode="&#x215a;" horiz-adv-x="850" d="M359 434q0 -72 -44.5 -117t-119.5 -45q-94 0 -140 60l53 43q34 -41 88 -41q39 0 61 26.5t22 71.5q0 31 -16 46.5t-43 15.5q-25 0 -59 -16h-57l27 221h245l-14 -61h-163l-14 -100q33 14 59 14q53 0 84 -32.5t31 -85.5zM721 720l-516 -800l-61 32l516 800zM688 366 q-53 0 -82.5 -41t-40.5 -101q45 58 112 58q48 0 80.5 -32.5t32.5 -89.5q0 -75 -46.5 -120.5t-113.5 -45.5q-63 0 -104 44t-41 123q0 121 55.5 193.5t150.5 72.5q61 0 102 -30l-42 -49q-26 18 -63 18zM656 221q-23 0 -49.5 -15t-46.5 -40v-4q0 -107 71 -107q36 0 58 27.5 t22 73.5q0 65 -55 65z" />
<glyph unicode="&#x215b;" horiz-adv-x="850" d="M283 278h-77l41 336l-100 -51l-32 54l156 82h63zM721 720l-516 -800l-61 32l516 800zM826 326q0 -35 -24.5 -61.5t-63.5 -35.5q81 -32 81 -102q0 -59 -45 -96t-123 -37q-70 0 -111.5 32.5t-41.5 80.5q0 39 27 69.5t74 42.5q-59 30 -59 91q0 53 40 85t109 32 q61 0 99 -28.5t38 -72.5zM653 55q38 0 62 19t24 50q0 26 -22 40.5t-71 31.5q-68 -33 -68 -86q0 -25 20 -40t55 -15zM687 368q-69 0 -69 -54q0 -40 71 -63q59 32 59 71q0 20 -17 33t-44 13z" />
<glyph unicode="&#x215c;" horiz-adv-x="850" d="M349 411q0 -58 -47.5 -98.5t-118.5 -40.5q-102 0 -150 63l53 42q39 -43 96 -43q41 0 64 20.5t23 57.5q0 58 -72 58h-37l16 60h25q37 0 57.5 18t20.5 47q0 23 -14.5 36t-40.5 13q-54 0 -105 -40l-36 46q71 55 147 55q61 0 95 -27.5t34 -69.5q0 -31 -24 -61t-64 -39l-1 -3 q34 -6 56.5 -33.5t22.5 -60.5zM721 720l-516 -800l-61 32l516 800zM826 326q0 -35 -24.5 -61.5t-63.5 -35.5q81 -32 81 -102q0 -59 -45 -96t-123 -37q-70 0 -111.5 32.5t-41.5 80.5q0 39 27 69.5t74 42.5q-59 30 -59 91q0 53 40 85t109 32q61 0 99 -28.5t38 -72.5zM653 55 q38 0 62 19t24 50q0 26 -22 40.5t-71 31.5q-68 -33 -68 -86q0 -25 20 -40t55 -15zM687 368q-69 0 -69 -54q0 -40 71 -63q59 32 59 71q0 20 -17 33t-44 13z" />
<glyph unicode="&#x215d;" horiz-adv-x="850" d="M359 434q0 -72 -44.5 -117t-119.5 -45q-94 0 -140 60l53 43q34 -41 88 -41q39 0 61 26.5t22 71.5q0 31 -16 46.5t-43 15.5q-25 0 -59 -16h-57l27 221h245l-14 -61h-163l-14 -100q33 14 59 14q53 0 84 -32.5t31 -85.5zM721 720l-516 -800l-61 32l516 800zM796 326 q0 -35 -24.5 -61.5t-63.5 -35.5q81 -32 81 -102q0 -59 -45 -96t-123 -37q-70 0 -111.5 32.5t-41.5 80.5q0 39 27 69.5t74 42.5q-59 30 -59 91q0 53 40 85t109 32q61 0 99 -28.5t38 -72.5zM623 55q38 0 62 19t24 50q0 26 -22 40.5t-71 31.5q-68 -33 -68 -86q0 -25 20 -40 t55 -15zM657 368q-69 0 -69 -54q0 -40 71 -63q59 32 59 71q0 20 -17 33t-44 13z" />
<glyph unicode="&#x215e;" horiz-adv-x="850" d="M383 648l-216 -378l-69 26l197 341h-195l7 62h282zM721 720l-516 -800l-61 32l516 800zM796 326q0 -35 -24.5 -61.5t-63.5 -35.5q81 -32 81 -102q0 -59 -45 -96t-123 -37q-70 0 -111.5 32.5t-41.5 80.5q0 39 27 69.5t74 42.5q-59 30 -59 91q0 53 40 85t109 32 q61 0 99 -28.5t38 -72.5zM623 55q38 0 62 19t24 50q0 26 -22 40.5t-71 31.5q-68 -33 -68 -86q0 -25 20 -40t55 -15zM657 368q-69 0 -69 -54q0 -40 71 -63q59 32 59 71q0 20 -17 33t-44 13z" />
<glyph unicode="&#x215f;" horiz-adv-x="850" d="M283 278h-77l41 336l-100 -51l-32 54l156 82h63zM721 720l-516 -800l-61 32l516 800z" />
<glyph unicode="&#x2190;" horiz-adv-x="900" d="M783 289h-520l-1 -3q22 -17 62 -60q136 -148 140 -152l-67 -57l-280 312l280 312l67 -57l-140 -152q-40 -43 -62 -60l1 -3h520v-80z" />
<glyph unicode="&#x2191;" horiz-adv-x="900" d="M495 529v-529h-90v529l-3 1q-18 -25 -66 -69l-144 -133l-55 61l313 282l313 -282l-55 -61l-151 140q-39 38 -59 62z" />
<glyph unicode="&#x2192;" horiz-adv-x="900" d="M637 289h-520v80h520l1 3q-23 17 -69 68l-133 144l67 57l280 -312l-280 -312l-67 57l140 152q40 43 62 60z" />
<glyph unicode="&#x2193;" horiz-adv-x="900" d="M495 635v-528l3 -1q18 26 59 62l151 139l55 -61l-313 -281l-313 281l55 61l151 -139q41 -36 59 -62l3 1v528h90z" />
<glyph unicode="&#x2194;" horiz-adv-x="1280" d="M1027 289h-774l-1 -3q22 -17 62 -60l140 -152l-67 -57l-280 312l280 312l67 -57l-140 -152q-40 -43 -62 -60l1 -3h774l1 3q-22 17 -62 60l-140 152l67 57l280 -312l-280 -312l-67 57l140 152q40 43 62 60z" />
<glyph unicode="&#x2195;" horiz-adv-x="900" d="M495 731v-782l3 -1q15 22 59 62l151 140l55 -62l-313 -281l-313 281l55 62l151 -140q44 -40 60 -62l3 1v782l-1 1h-2q-17 -22 -60 -62l-151 -140l-55 62l313 281l313 -281l-55 -62l-151 140q-41 38 -59 62h-1q-1 -1 -2 -1z" />
<glyph unicode="&#x2196;" horiz-adv-x="900" d="M343 508l371 -373l-61 -61l-370 373l-3 -1q2 -44 2 -70v-26l-9 -197l-87 4l22 422l422 22l7 -83l-196 -8q-7 0 -20.5 -0.5t-19.5 -0.5q-19 0 -57 2z" />
<glyph unicode="&#x2197;" horiz-adv-x="900" d="M186 135l371 373l-1 3q-38 -2 -57 -2q-6 0 -19.5 0.5t-20.5 0.5l-196 8l7 83l422 -22l22 -422l-87 -4l-9 197v26q0 26 2 70l-3 1l-370 -373z" />
<glyph unicode="&#x2198;" horiz-adv-x="900" d="M557 133l-371 373l61 61l370 -373l3 1q-3 30 -3 61q0 6 0.5 17.5t0.5 17.5l9 197l87 -4l-22 -422l-422 -22l-7 83l196 8q7 0 20 0.5t20 0.5q19 0 57 -2z" />
<glyph unicode="&#x2199;" horiz-adv-x="900" d="M714 506l-371 -373l1 -3q38 2 57 2q7 0 20 -0.5t20 -0.5l196 -8l-7 -83l-422 22l-22 422l87 4l9 -197q0 -6 0.5 -17.5t0.5 -17.5q0 -31 -3 -61l3 -1l370 373z" />
<glyph unicode="&#x21e6;" horiz-adv-x="1000" d="M920 387v-148q0 -23 -14 -36.5t-36 -13.5h-532v-176l-298 300l298 300v-176h532q22 0 36 -13.5t14 -36.5zM876 233v160h-583v111l-189 -191l189 -191v111h583z" />
<glyph unicode="&#x21e7;" horiz-adv-x="720" d="M441 -12h-162q-23 0 -36.5 14t-13.5 36v496h-169l300 298l300 -298h-169v-496q0 -22 -13.5 -36t-36.5 -14zM276 32h168v547h107l-191 189l-191 -189h107v-547z" />
<glyph unicode="&#x21e8;" horiz-adv-x="1000" d="M80 239v148q0 23 14 36.5t36 13.5h532v176l298 -300l-298 -300v176h-532q-22 0 -36 13.5t-14 36.5zM124 393v-160h583v-111l189 191l-189 191v-111h-583z" />
<glyph unicode="&#x21e9;" horiz-adv-x="720" d="M279 750h162q23 0 36.5 -14t13.5 -36v-496h169l-300 -298l-300 298h169v496q0 22 13.5 36t36.5 14zM444 706h-168v-547h-107l191 -189l191 189h-107v547z" />
<glyph unicode="&#x21ea;" horiz-adv-x="720" d="M491 255h-262v279h-169l300 298l300 -298h-169v-279zM229 155h262v-117q0 -22 -13.5 -36t-36.5 -14h-162q-23 0 -36.5 14t-13.5 36v117zM276 297h168v282h107l-191 189l-191 -189h107v-282zM444 113h-168v-81h168v81z" />
<glyph unicode="&#x2202;" horiz-adv-x="549" d="M409 329q0 4 0.5 11.5t0.5 11.5q0 103 -59.5 165t-195.5 93l28 70q156 -36 231 -117t75 -213q0 -176 -65 -269t-185 -93q-84 0 -139.5 55t-55.5 145q0 102 58.5 168t144.5 66q104 0 159 -94zM246 61q126 0 144 205q-49 84 -133 84q-53 0 -85.5 -44t-32.5 -121 q0 -57 30.5 -90.5t76.5 -33.5z" />
<glyph unicode="&#x2206;" horiz-adv-x="569" d="M394 689l139 -689h-567l308 689h120zM327 603h-4l-226 -525h324z" />
<glyph unicode="&#x220f;" horiz-adv-x="670" d="M491 -202l-92 -11l85 806h-214l-83 -795l-93 -11l85 806h-92l9 76h579l-9 -76h-92z" />
<glyph unicode="&#x2211;" horiz-adv-x="520" d="M359 366l-8 -62l-218 -226h292l-9 -78h-403l9 78l256 264l-192 249l10 78h403l-10 -78h-303z" />
<glyph unicode="&#x2212;" horiz-adv-x="500" d="M436 274h-376l10 77h376z" />
<glyph unicode="&#x2215;" horiz-adv-x="50" d="M260 720l-404 -800l-66 32l405 800z" />
<glyph unicode="&#x2219;" horiz-adv-x="265" d="M71 338q0 29 20 49t49 20q30 0 50 -20t20 -49t-20 -49.5t-50 -20.5q-29 0 -49 20.5t-20 49.5z" />
<glyph unicode="&#x221a;" horiz-adv-x="520" d="M702 790h-184l-302 -790h-104l-118 457l82 27l92 -383h4l289 766h250z" />
<glyph unicode="&#x221e;" horiz-adv-x="900" d="M272 523q61 0 113 -35t76 -93q40 60 86.5 94t113.5 34q88 0 139.5 -55t51.5 -130q0 -102 -53.5 -166t-162.5 -64q-61 0 -113.5 35t-77.5 92q-40 -60 -85.5 -93.5t-112.5 -33.5q-88 0 -140.5 55.5t-52.5 129.5q0 103 53.5 166.5t164.5 63.5zM642 183q59 0 89.5 40.5 t30.5 103.5q0 51 -31 85.5t-77 34.5q-53 0 -91.5 -39t-71.5 -103q57 -122 151 -122zM265 448q-58 0 -88.5 -39.5t-30.5 -103.5q0 -51 30.5 -86t76.5 -35q93 0 162 142q-20 47 -57.5 84.5t-92.5 37.5z" />
<glyph unicode="&#x222b;" horiz-adv-x="290" d="M-176 -184l33 64q39 -19 83 -19q33 0 50.5 19t23.5 70l89 738q10 86 51 125t114 39q63 0 126 -33l-35 -64q-46 23 -93 23q-33 0 -50.5 -19t-23.5 -70l-89 -738q-10 -87 -50 -125.5t-115 -38.5q-57 0 -114 29z" />
<glyph unicode="&#x2248;" horiz-adv-x="500" d="M338 344q-34 0 -64 14t-52.5 28.5t-38.5 14.5q-38 0 -73 -51l-57 31q61 92 141 92q34 0 64 -14t52.5 -28t38.5 -14q23 0 38.5 12.5t33.5 37.5l56 -32q-55 -91 -139 -91zM314 155q-34 0 -64 14.5t-52.5 28.5t-38.5 14q-37 0 -73 -51l-56 31q58 92 140 92q34 0 64 -14 t52.5 -28t38.5 -14q38 0 72 50l57 -32q-58 -91 -140 -91z" />
<glyph unicode="&#x2260;" horiz-adv-x="500" d="M424 176h-234l-108 -151l-49 30l87 121h-72l9 78h119l82 114h-187l10 78h233l108 150l48 -28l-87 -122h74l-10 -78h-120l-82 -114h188z" />
<glyph unicode="&#x2264;" horiz-adv-x="500" d="M402 0h-376l10 79h376zM402 146l-339 156l11 94l378 162l28 -75l-339 -136l305 -127z" />
<glyph unicode="&#x2265;" horiz-adv-x="500" d="M402 0h-376l10 79h376zM113 557l338 -162l-11 -94l-377 -156l-28 75l338 130l-304 133z" />
<glyph unicode="&#x22c5;" horiz-adv-x="265" d="M71 338q0 29 20 49t49 20q30 0 50 -20t20 -49t-20 -49.5t-50 -20.5q-29 0 -49 20.5t-20 49.5z" />
<glyph unicode="&#x2326;" horiz-adv-x="1400" d="M503 355l-154 -154l67 -67l154 154l154 -154l67 67l-154 154l154 153l-67 69l-154 -155l-154 155l-67 -69zM980 -12h-830q-22 0 -36 14t-14 36v625q0 23 14 36.5t36 13.5h830l380 -361z" />
<glyph unicode="&#x2327;" horiz-adv-x="1240" d="M553 355l-154 -154l67 -67l154 154l154 -154l67 67l-154 154l154 153l-67 69l-154 -155l-154 155l-67 -69zM1090 -12h-940q-22 0 -36 14t-14 36v625q0 23 14 36.5t36 13.5h940q22 0 36 -13.5t14 -36.5v-625q0 -22 -14 -36t-36 -14z" />
<glyph unicode="&#x2328;" horiz-adv-x="1460" d="M1290 -12h-1120q-22 0 -36 14t-14 36v625q0 23 14 36.5t36 13.5h1120q22 0 36 -13.5t14 -36.5v-625q0 -22 -14 -36t-36 -14zM279 658h-74q-8 0 -14 -6t-6 -14v-74q0 -8 6 -14t14 -6h74q8 0 14 6t6 14v74q0 8 -6 14t-14 6zM459 658h-74q-8 0 -14 -6t-6 -14v-74q0 -8 6 -14 t14 -6h74q8 0 14 6t6 14v74q0 8 -6 14t-14 6zM639 658h-74q-8 0 -14 -6t-6 -14v-74q0 -8 6 -14t14 -6h74q8 0 14 6t6 14v74q0 8 -6 14t-14 6zM819 658h-74q-8 0 -14 -6t-6 -14v-74q0 -8 6 -14t14 -6h74q8 0 14 6t6 14v74q0 8 -6 14t-14 6zM999 658h-74q-8 0 -14 -6t-6 -14 v-74q0 -8 6 -14t14 -6h74q8 0 14 6t6 14v74q0 8 -6 14t-14 6zM1239 658h-134q-8 0 -14 -6t-6 -14v-74q0 -8 6 -14t14 -6h134q8 0 14 6t6 14v74q0 8 -6 14t-14 6zM1165 359v-130q0 -8 6 -14t14 -6h54q8 0 14 6t6 14v244q0 8 -6 14t-14 6h-94q-8 0 -14 -6t-6 -14v-74 q0 -8 6 -14t14 -6t14 -6t6 -14zM319 493h-74q-8 0 -14 -6t-6 -14v-74q0 -8 6 -14t14 -6h74q8 0 14 6t6 14v74q0 8 -6 14t-14 6zM499 493h-74q-8 0 -14 -6t-6 -14v-74q0 -8 6 -14t14 -6h74q8 0 14 6t6 14v74q0 8 -6 14t-14 6zM679 493h-74q-8 0 -14 -6t-6 -14v-74q0 -8 6 -14 t14 -6h74q8 0 14 6t6 14v74q0 8 -6 14t-14 6zM859 493h-74q-8 0 -14 -6t-6 -14v-74q0 -8 6 -14t14 -6h74q8 0 14 6t6 14v74q0 8 -6 14t-14 6zM1039 493h-74q-8 0 -14 -6t-6 -14v-74q0 -8 6 -14t14 -6h74q8 0 14 6t6 14v74q0 8 -6 14t-14 6zM359 323h-74q-8 0 -14 -6t-6 -14 v-74q0 -8 6 -14t14 -6h74q8 0 14 6t6 14v74q0 8 -6 14t-14 6zM539 323h-74q-8 0 -14 -6t-6 -14v-74q0 -8 6 -14t14 -6h74q8 0 14 6t6 14v74q0 8 -6 14t-14 6zM719 323h-74q-8 0 -14 -6t-6 -14v-74q0 -8 6 -14t14 -6h74q8 0 14 6t6 14v74q0 8 -6 14t-14 6zM899 323h-74 q-8 0 -14 -6t-6 -14v-74q0 -8 6 -14t14 -6h74q8 0 14 6t6 14v74q0 8 -6 14t-14 6zM1079 323h-74q-8 0 -14 -6t-6 -14v-74q0 -8 6 -14t14 -6h74q8 0 14 6t6 14v74q0 8 -6 14t-14 6zM1039 158h-614q-8 0 -14 -6t-6 -14v-74q0 -8 6 -14t14 -6h614q8 0 14 6t6 14v74q0 8 -6 14 t-14 6z" />
<glyph unicode="&#x232b;" horiz-adv-x="1400" d="M1051 201l-154 154l154 153l-67 69l-154 -155l-154 155l-67 -69l154 -153l-154 -154l67 -67l154 154l154 -154zM1250 -12h-830l-380 364l380 361h830q22 0 36 -13.5t14 -36.5v-625q0 -22 -14 -36t-36 -14z" />
<glyph unicode="&#x23ce;" horiz-adv-x="1000" d="M641 438v262q0 22 13.5 36t36.5 14h159q22 0 36 -14t14 -36v-461q0 -23 -14 -36.5t-36 -13.5h-512v-174l-298 298l298 299v-174h303zM854 233v473h-168v-313h-393v111l-189 -191l189 -191v111h561z" />
<glyph unicode="&#x25af;" horiz-adv-x="589" d="M495 0h-397v689h397v-689zM190 597v-505h213v505h-213z" />
<glyph unicode="&#x25ca;" horiz-adv-x="531" d="M236 71h4l172 266l-106 261h-4l-170 -261zM287 0h-107l-144 336l221 333h107l144 -331z" />
<glyph unicode="&#x25fc;" horiz-adv-x="525" d="M0 525h525v-525h-525v525z" />
<glyph unicode="&#x27a1;" horiz-adv-x="1000" d="M80 239v148q0 23 14 36.5t36 13.5h532v176l298 -300l-298 -300v176h-532q-22 0 -36 13.5t-14 36.5z" />
<glyph unicode="&#x2b05;" horiz-adv-x="1000" d="M920 387v-148q0 -23 -14 -36.5t-36 -13.5h-532v-176l-298 300l298 300v-176h532q22 0 36 -13.5t14 -36.5z" />
<glyph unicode="&#x2b06;" horiz-adv-x="720" d="M441 -12h-162q-23 0 -36.5 14t-13.5 36v496h-169l300 298l300 -298h-169v-496q0 -22 -13.5 -36t-36.5 -14z" />
<glyph unicode="&#x2b07;" horiz-adv-x="720" d="M279 750h162q23 0 36.5 -14t13.5 -36v-496h169l-300 -298l-300 298h169v496q0 22 13.5 36t36.5 14z" />
<glyph unicode="&#xe000;" horiz-adv-x="0" d="M67 478l-1 8q58 58 137 120q43 34 70.5 53.5t72 46.5t88 40t86.5 13q29 0 98 -22.5t75 -22.5q47 14 83 14q55 0 81.5 -34.5t26.5 -65.5l-3 -23q30 -34 90 -60q28 -12 71 -28t65.5 -24.5t43 -22t25.5 -27.5q1 -4 2.5 -17t2.5 -30.5t2 -23.5q2 -18 5.5 -35t3.5 -22 q0 -13 -23.5 -65.5t-35.5 -57.5q-6 -3 -19 -3q-17 0 -23 3q-20 -16 -49.5 -33t-45.5 -17t-53 7q-10 2 -34 8.5t-45.5 11t-37.5 4.5q-10 0 -21.5 -3.5t-18.5 -7t-18.5 -9.5t-13.5 -7q-28 -15 -44 -27.5t-26 -32.5t-14.5 -36t-11.5 -53q-9 -50 -21 -68q10 -24 10 -38 q-28 -4 -63 -4q-136 0 -248 67q-39 23 -74.5 54t-51.5 51l-16 20l52 28q-24 1 -34 2l-2 7q10 13 51 40q-34 -11 -78 -33l-4 8q11 39 40 72l-75 -52l-4 7q20 60 75 111l-117 -60l-3 8q28 64 96 125q0 1 -42 -18.5t-79 -37.5l-3 8q21 36 57.5 69t60.5 46q-131 -49 -140 -52 l-3 7q44 57 172 151zM308 570l2 -3q32 9 57 12l1 -5q-62 -45 -62 -130q0 -28 7 -50l-4 -4q-15 11 -30 53h-2q-4 -14 -7 -39l-5 -1l-10 16l-2 -1q-2 -14 -2 -20q0 -48 28 -95q5 -8 20.5 -28t25.5 -37t10 -28q0 -14 -13.5 -37t-13.5 -37l3 -15q49 1 69 4l4 -4 q-12 -18 -117 -67l6 -5l86 19l3 -5l-64 -38q56 -47 133.5 -73t130.5 -26v2q-22 24 -42 66l4 4l61 -40q9 15 15 28q-20 15 -42 42t-27 44l4 3q15 -12 44 -26.5t41 -14.5q7 20 7 43l17 26q0 1 -0.5 1t-0.5 1q-10 -1 -30.5 -10.5t-32.5 -19.5l-6 1q0 39 65 77v5l-39 16 q-11 6 -37 43.5t-26 66.5l10 -3q62 -72 146 -83q17 1 78 15.5t70 18.5q24 -13 73 -31t66 -21q8 1 20 6t20 10l7 4q-12 10 -23 14.5t-22.5 7t-42.5 11t-69 22.5q-82 29 -105 68h-3q-1 -3 -1 -7q0 -5 1 -9.5t4 -9.5t5 -8t7 -8l7 -7t8.5 -7.5t7.5 -6.5l-1 -4q-23 2 -52 9l-4 2 q-5 2 -8 3.5t-9.5 5.5t-11 7.5t-11 9t-11.5 11.5t-10 14t-8 16.5t-5 19t-2 21.5q0 35 14 80h5l5 -55l19 -32q18 24 18 48q0 16 -18 34l-53 60l3 3l50 -21q75 -62 161 -117.5t139 -68.5q25 -7 57 -12.5t51 -7.5l19 -2q9 20 9 44q0 16 -4 30.5t-10 14.5q-8 0 -8 -19 q0 -3 2 -23h-6q-31 36 -31 53q0 10 14.5 25t14.5 24q-2 3 -5.5 5.5t-9 6t-10.5 6t-13.5 6t-15.5 6t-18 6.5t-18.5 7t-21 7.5t-21.5 7.5q-84 29 -148 83l-4 -1l44 -53l-2 -5q-67 0 -105 18t-38 44q0 27 44 38l2 4q-2 2 -16 2q-21 0 -40 -10.5t-19 -36.5q0 -22 20 -45h-12 q-14 8 -25 23t-15 26l-3 11l-77 13l2 5q145 57 191 57q25 0 38 -8h5q-17 29 -45 29q-45 0 -166 -43l-6 1q3 19 23 35l-1 4q-63 23 -119 23q-40 0 -78.5 -17t-64 -42t-41 -44t-22.5 -32zM485 473l-6 3q32 28 86 38v3l-31 17l1 4q46 9 67 9v2l-27 34l1 4q46 -15 79 -50l-1 -4 q-5 -1 -40 -7v-4l27 -49l-3 -3q-42 9 -74 9zM418 563l-4 4q25 87 116 87l40 -5l-5 -7l-51 -26q-13 -26 -13 -61q0 -13 3 -26h-6q-38 27 -38 63q-9 -3 -19.5 -10.5t-16.5 -13.5zM801 506l40 -3l-5 -8q-12 -5 -29 -5q-34 0 -77 35l18 1z" />
<glyph unicode="&#xe001;" horiz-adv-x="0" d="M308 570q7 13 22.5 32t41 44t64 42t78.5 17q56 0 119 -23l1 -4q-20 -16 -23 -35l6 -1q121 43 166 43q28 0 45 -29h-5q-13 8 -38 8q-46 0 -191 -57l-2 -5l77 -13q11 -41 43 -60h12q-20 23 -20 45q0 26 19 36.5t40 10.5q14 0 16 -2l-2 -4q-44 -11 -44 -38q0 -26 38 -44 t105 -18l2 5l-44 53l4 1q64 -54 148 -83q8 -3 21.5 -7.5t21 -7.5t18.5 -7t18 -6.5t15.5 -6t13.5 -6t10.5 -6t9 -6t5.5 -5.5q0 -9 -14.5 -24t-14.5 -25q0 -17 31 -53h6q-2 20 -2 23q0 19 8 19q6 0 10 -14.5t4 -30.5q0 -11 -2.5 -22t-4.5 -16l-2 -6q-70 7 -127 22 q-53 13 -139 68.5t-161 117.5l-50 21l-3 -3l53 -60q18 -18 18 -34q0 -24 -18 -48l-19 32l-5 55h-5q-14 -45 -14 -80q0 -11 2 -21.5t5 -19t8 -16.5t10 -14t11.5 -11.5t11 -9t11 -7.5t9.5 -5.5t8 -3.5l4 -2q29 -7 52 -9l1 4q-2 1 -6.5 5.5t-7 6.5t-6.5 6l-6.5 6.5t-5.5 7 t-4.5 8t-2.5 8t-1 8.5t1 7h3q23 -39 105 -68q38 -14 69 -22.5t42.5 -11t22.5 -7t23 -14.5q-28 -18 -47 -20q-17 3 -66 21t-73 31q-9 -4 -70 -18.5t-78 -15.5q-84 11 -146 83l-10 3q0 -29 26 -66.5t37 -43.5l39 -16v-5q-65 -38 -65 -77l6 -1q12 10 32.5 19.5t30.5 10.5 q0 -1 0.5 -1t0.5 -1l-17 -26q0 -23 -7 -43q-12 0 -41 14.5t-44 26.5l-4 -3q5 -17 27 -44t42 -42l-15 -28q-42 26 -61 40l-4 -4q20 -42 42 -66v-2q-53 0 -130.5 26t-133.5 73l64 38l-3 5l-86 -19l-6 5q105 49 117 67l-4 4l-69 -4q-3 2 -3 15q0 14 13.5 37t13.5 37 q0 11 -10 28t-25.5 37t-20.5 28q-28 47 -28 95q0 6 2 20l2 1l10 -16l5 1q3 25 7 39h2q15 -42 30 -53l4 4q-7 22 -7 50q0 85 62 130l-1 5q-26 -3 -57 -12zM479 476l6 -3q35 6 79 6q14 0 32.5 -2.5t29.5 -4.5l12 -2l3 3l-27 49v4q35 6 40 7l1 4q-15 16 -34.5 28.5t-32.5 16.5 l-12 5l-1 -4l27 -34v-2l-67 -9l-1 -4l31 -17v-3q-54 -10 -86 -38zM418 563q21 22 42 29q0 -36 38 -63h6q-3 13 -3 26q0 35 13 61l51 26l5 7q-16 5 -40 5q-91 0 -116 -87zM841 503l-40 3l-53 20l-18 -1q43 -35 77 -35q17 0 29 5z" />
<glyph unicode="&#xe002;" horiz-adv-x="0" d="M864 308q0 13 6 20q16 0 25 -12l-30 -22q-1 7 -1 14zM1107 218l-3 38h16q7 0 7 -6q0 -4 -5 -12t-10 -14zM1022 271q15 -2 28 -5q-4 -14 -24 -30zM982 281l26 -5q-15 -24 -27 -27q1 28 1 32zM1063 255q0 7 6 7q12 0 20 -4q0 -4 -9 -13.5t-14 -11.5q-3 12 -3 22zM908 309 q19 0 22 -10l-24 -23q0 25 2 33zM785 582q-15 -6 -15 -21q0 -3 2 -7q-15 12 -17 31q19 0 30 -3zM943 286q0 4 4 8q11 -2 19 -8l-22 -24q-1 22 -1 24zM834 542q-14 -2 -18 -2q-6 0 -16 2q13 5 13 19v6q11 -10 21 -25z" />
<glyph unicode="&#xe003;" horiz-adv-x="1234" d="M67 478l-1 8q58 58 137 120q43 34 70.5 53.5t72 46.5t88 40t86.5 13q29 0 98 -22.5t75 -22.5q47 14 83 14q55 0 81.5 -34.5t26.5 -65.5l-3 -23q30 -34 90 -60q28 -12 71 -28t65.5 -24.5t43 -22t25.5 -27.5q1 -4 2.5 -17t2.5 -30.5t2 -23.5q2 -18 5.5 -35t3.5 -22 q0 -13 -23.5 -65.5t-35.5 -57.5q-6 -3 -19 -3q-17 0 -23 3q-20 -16 -49.5 -33t-45.5 -17t-53 7q-10 2 -34 8.5t-45.5 11t-37.5 4.5q-10 0 -21.5 -3.5t-18.5 -7t-18.5 -9.5t-13.5 -7q-28 -15 -44 -27.5t-26 -32.5t-14.5 -36t-11.5 -53q-9 -50 -21 -68q10 -24 10 -38 q-28 -4 -63 -4q-136 0 -248 67q-39 23 -74.5 54t-51.5 51l-16 20l52 28q-24 1 -34 2l-2 7q10 13 51 40q-34 -11 -78 -33l-4 8q11 39 40 72l-75 -52l-4 7q20 60 75 111l-117 -60l-3 8q28 64 96 125q0 1 -42 -18.5t-79 -37.5l-3 8q21 36 57.5 69t60.5 46q-131 -49 -140 -52 l-3 7q44 57 172 151zM308 570l2 -3q32 9 57 12l1 -5q-62 -45 -62 -130q0 -28 7 -50l-4 -4q-15 11 -30 53h-2q-4 -14 -7 -39l-5 -1l-10 16l-2 -1q-2 -14 -2 -20q0 -48 28 -95q5 -8 20.5 -28t25.5 -37t10 -28q0 -14 -13.5 -37t-13.5 -37l3 -15q49 1 69 4l4 -4 q-12 -18 -117 -67l6 -5l86 19l3 -5l-64 -38q56 -47 133.5 -73t130.5 -26v2q-22 24 -42 66l4 4l61 -40q9 15 15 28q-20 15 -42 42t-27 44l4 3q15 -12 44 -26.5t41 -14.5q7 20 7 43l17 26q0 1 -0.5 1t-0.5 1q-10 -1 -30.5 -10.5t-32.5 -19.5l-6 1q0 39 65 77v5l-39 16 q-11 6 -37 43.5t-26 66.5l10 -3q62 -72 146 -83q17 1 78 15.5t70 18.5q24 -13 73 -31t66 -21q8 1 20 6t20 10l7 4q-12 10 -23 14.5t-22.5 7t-42.5 11t-69 22.5q-82 29 -105 68h-3q-1 -3 -1 -7q0 -5 1 -9.5t4 -9.5t5 -8t7 -8l7 -7t8.5 -7.5t7.5 -6.5l-1 -4q-23 2 -52 9l-4 2 q-5 2 -8 3.5t-9.5 5.5t-11 7.5t-11 9t-11.5 11.5t-10 14t-8 16.5t-5 19t-2 21.5q0 35 14 80h5l5 -55l19 -32q18 24 18 48q0 16 -18 34l-53 60l3 3l50 -21q75 -62 161 -117.5t139 -68.5q25 -7 57 -12.5t51 -7.5l19 -2q9 20 9 44q0 16 -4 30.5t-10 14.5q-8 0 -8 -19 q0 -3 2 -23h-6q-31 36 -31 53q0 10 14.5 25t14.5 24q-2 3 -5.5 5.5t-9 6t-10.5 6t-13.5 6t-15.5 6t-18 6.5t-18.5 7t-21 7.5t-21.5 7.5q-84 29 -148 83l-4 -1l44 -53l-2 -5q-67 0 -105 18t-38 44q0 27 44 38l2 4q-2 2 -16 2q-21 0 -40 -10.5t-19 -36.5q0 -22 20 -45h-12 q-14 8 -25 23t-15 26l-3 11l-77 13l2 5q145 57 191 57q25 0 38 -8h5q-17 29 -45 29q-45 0 -166 -43l-6 1q3 19 23 35l-1 4q-63 23 -119 23q-40 0 -78.5 -17t-64 -42t-41 -44t-22.5 -32zM485 473l-6 3q32 28 86 38v3l-31 17l1 4q46 9 67 9v2l-27 34l1 4q46 -15 79 -50l-1 -4 q-5 -1 -40 -7v-4l27 -49l-3 -3q-42 9 -74 9zM418 563l-4 4q25 87 116 87l40 -5l-5 -7l-51 -26q-13 -26 -13 -61q0 -13 3 -26h-6q-38 27 -38 63q-9 -3 -19.5 -10.5t-16.5 -13.5zM801 506l40 -3l-5 -8q-12 -5 -29 -5q-34 0 -77 35l18 1zM864 308l1 -14l30 22q-9 12 -25 12 q-6 -7 -6 -20zM1022 271q2 -24 4 -35q20 16 24 30zM1104 256l3 -38q20 24 20 32q0 6 -7 6h-16zM982 281l-1 -32q5 1 12 8t11 13l4 6q-13 3 -26 5zM1063 255q0 -10 3 -22q5 2 14 11.5t9 13.5q-8 4 -20 4q-6 0 -6 -7zM908 309l-2 -33q19 18 24 23q-3 10 -22 10zM943 286l1 -24 q16 16 22 24q-8 6 -19 8q-4 -4 -4 -8zM785 582q-11 3 -30 3q2 -19 17 -31q-2 4 -2 7q0 15 15 21zM834 542q-10 15 -21 25v-6q0 -14 -13 -19q10 -2 16 -2q4 0 18 2z" />
<glyph unicode="&#xfb01;" horiz-adv-x="572" d="M63 32l60 424h-84l10 71h84l8 59q12 86 58.5 125t128.5 39q83 0 155 -37l-35 -66q-60 29 -122 29q-43 0 -65 -19.5t-28 -69.5l-8 -60h294l-74 -527h-91l64 456h-203l-60 -424q-16 -109 -59 -159.5t-133 -84.5l-25 67q59 26 86.5 61.5t38.5 115.5z" />
<glyph unicode="&#xfb02;" horiz-adv-x="582" d="M521 70l15 -64q-39 -18 -79 -18q-90 0 -90 94q0 18 3 39l74 532q-56 23 -118 23q-43 0 -65 -19.5t-28 -69.5l-8 -60h120l-20 -71h-110l-60 -424q-16 -109 -59 -159.5t-133 -84.5l-25 67q59 26 86.5 61.5t38.5 115.5l60 424h-84l10 71h84l8 59q12 86 58.5 125t128.5 39 q62 0 128 -21l92 14l-88 -630q-4 -27 2 -38t24 -11q20 0 35 6z" />
<glyph unicode="&#xfeff;" horiz-adv-x="0" />
<glyph unicode="&#x1f310;" horiz-adv-x="1200" d="M1074 366q0 -197 -138.5 -336.5t-335.5 -139.5t-335.5 139.5t-138.5 336.5t138.5 336.5t335.5 139.5t335.5 -139.5t138.5 -336.5zM252 615q-72 -100 -78 -226h162q3 84 31 172q-64 23 -115 54zM1026 389q-8 127 -79 226q-50 -31 -115 -54q28 -83 31 -172h163zM174 343 q6 -125 78 -227q49 31 115 55q-28 88 -31 172h-162zM947 116q72 101 79 227h-163q-3 -89 -31 -172q67 -24 115 -55zM789 547q-87 -24 -165 -27v-131h193q-3 86 -28 158zM624 211q84 -3 165 -27q25 74 28 159h-193v-132zM574 520q-85 5 -164 27q-25 -77 -28 -158h192v131z M410 184q85 24 164 27v132h-192q3 -80 28 -159zM639 792q-10 0 -15 1v-231q70 3 150 24q-43 106 -135 206zM624 -61q5 1 15 1q91 99 135 205q-73 21 -150 24v-230zM574 793q-5 -1 -13 -1q-90 -96 -136 -206q80 -21 149 -24v231zM561 -60q8 0 13 -1v230q-76 -3 -149 -24 q47 -110 136 -205zM499 782q-131 -32 -220 -133q47 -30 103 -49q43 103 117 182zM701 -50q130 32 219 132q-39 27 -102 50q-41 -100 -117 -182zM279 82q90 -101 220 -132q-74 79 -117 182q-63 -23 -103 -50zM920 649q-89 101 -219 133q76 -82 117 -182q57 19 102 49z" />
<glyph horiz-adv-x="265" d="M138 0h-92l74 527h92zM255 715q0 -27 -18.5 -45t-46.5 -18t-46 18t-18 45t18 44.5t46 17.5t46.5 -18t18.5 -44z" />
<glyph horiz-adv-x="493" d="M432 0h-367l84 689h95l-75 -606h283zM450 361q0 -27 -18 -45t-47 -18q-28 0 -46 18t-18 45t18 44.5t46 17.5q29 0 47 -17.5t18 -44.5z" />
<glyph horiz-adv-x="314" d="M206 71l21 -65q-41 -18 -77 -18q-51 0 -77 33t-17 94l88 624l94 11l-91 -643q-4 -23 2.5 -32.5t24.5 -9.5q17 0 32 6zM356 359q0 -27 -18 -45t-47 -18q-28 0 -46 18t-18 45t18 44.5t46 17.5q29 0 47 -17.5t18 -44.5z" />
<glyph horiz-adv-x="400" d="M339 756q-65 -82 -97 -166t-32 -191q0 -108 59 -216l-52 -30q-27 47 -42 77.5t-27.5 78.5t-12.5 100q0 85 24.5 158t54 115.5t81.5 103.5z" />
<glyph horiz-adv-x="400" d="M148 153l-44 30q65 82 97 166t32 191q0 108 -59 216l52 30q27 -47 42 -77.5t27.5 -78.5t12.5 -100q0 -85 -24.5 -158t-54 -115.5t-81.5 -103.5z" />
<glyph horiz-adv-x="400" d="M108 506h85l11 89h69l-11 -89h84l-8 -64h-84l-11 -88h-69l11 88h-85z" />
<glyph horiz-adv-x="400" d="M207 333q29 0 49.5 23t30 60t13 68.5t3.5 62.5q0 96 -62 96q-41 0 -68 -52t-27 -162q0 -96 61 -96zM382 544q0 -130 -48.5 -201t-130.5 -71q-66 0 -101.5 41.5t-35.5 119.5q0 132 48 202t132 70q65 0 100.5 -40t35.5 -121z" />
<glyph horiz-adv-x="402" d="M273 278h-77l41 336l-100 -51l-32 54l156 82h63z" />
<glyph horiz-adv-x="400" d="M370 593q0 -27 -14.5 -57t-29.5 -50.5t-51.5 -54t-50 -44.5t-56.5 -46h181l-16 -63h-278l6 55q142 116 185 167.5t43 92.5q0 23 -14.5 36t-38.5 13q-51 0 -95 -47l-49 40q69 70 154 70q57 0 90.5 -29.5t33.5 -82.5z" />
<glyph horiz-adv-x="400" d="M359 411q0 -58 -47.5 -98.5t-118.5 -40.5q-102 0 -150 63l53 42q39 -43 96 -43q41 0 64 20.5t23 57.5q0 58 -72 58h-37l16 60h25q37 0 57.5 18t20.5 47q0 23 -14.5 36t-40.5 13q-54 0 -105 -40l-36 46q71 55 147 55q61 0 95 -27.5t34 -69.5q0 -31 -24 -61t-64 -39l-1 -3 q34 -6 56.5 -33.5t22.5 -60.5z" />
<glyph horiz-adv-x="400" d="M364 374h-54l-11 -96h-76l11 96h-179l7 50l169 285l63 -26l-144 -248h92l22 105h67l-13 -105h54z" />
<glyph horiz-adv-x="400" d="M359 434q0 -72 -44.5 -117t-119.5 -45q-94 0 -140 60l53 43q34 -41 88 -41q39 0 61 26.5t22 71.5q0 31 -16 46.5t-43 15.5q-25 0 -59 -16h-57l27 221h245l-14 -61h-163l-14 -100q33 14 59 14q53 0 84 -32.5t31 -85.5z" />
<glyph horiz-adv-x="400" d="M272 644q-53 0 -82.5 -41t-40.5 -101q45 58 112 58q48 0 80.5 -32.5t32.5 -89.5q0 -75 -46.5 -120.5t-113.5 -45.5q-63 0 -104 44t-41 123q0 121 55.5 193.5t150.5 72.5q61 0 102 -30l-42 -49q-26 18 -63 18zM240 499q-23 0 -49.5 -15t-46.5 -40v-4q0 -107 71 -107 q36 0 58 27.5t22 73.5q0 65 -55 65z" />
<glyph horiz-adv-x="400" d="M383 648l-216 -378l-69 26l197 341h-195l7 62h282z" />
<glyph horiz-adv-x="400" d="M380 604q0 -35 -24.5 -61.5t-63.5 -35.5q81 -32 81 -102q0 -59 -45 -96t-123 -37q-70 0 -111.5 32.5t-41.5 80.5q0 39 27 69.5t74 42.5q-59 30 -59 91q0 53 40 85t109 32q61 0 99 -28.5t38 -72.5zM207 333q38 0 62 19t24 50q0 26 -22 40.5t-71 31.5q-68 -33 -68 -86 q0 -25 20 -40t55 -15zM241 646q-69 0 -69 -54q0 -40 71 -63q59 32 59 71q0 20 -17 33t-44 13z" />
<glyph horiz-adv-x="400" d="M81 323q169 40 215 150l-2 1q-41 -47 -108 -47q-49 0 -80.5 34.5t-31.5 87.5q0 70 46.5 113t118.5 43q67 0 104.5 -38t37.5 -103q0 -125 -73.5 -195.5t-214.5 -104.5zM211 488q54 0 91 44q2 16 2 35q0 38 -18.5 57.5t-49.5 19.5q-37 0 -60 -24.5t-23 -66.5q0 -31 16 -48 t42 -17z" />
<glyph horiz-adv-x="400" d="M330 381h-239l8 65h239zM345 502h-239l8 65h239z" />
<glyph horiz-adv-x="400" d="M338 442h-238l8 64h238z" />
<glyph horiz-adv-x="400" d="M339 478q-65 -82 -97 -166t-32 -191q0 -108 59 -216l-52 -30q-27 47 -42 77.5t-27.5 78.5t-12.5 100q0 85 24.5 158t54 115.5t81.5 103.5z" />
<glyph horiz-adv-x="400" d="M148 -125l-44 30q65 82 97 166t32 191q0 108 -59 216l52 30q27 -47 42 -77.5t27.5 -78.5t12.5 -100q0 -85 -24.5 -158t-54 -115.5t-81.5 -103.5z" />
<glyph horiz-adv-x="400" d="M108 228h85l11 89h69l-11 -89h84l-8 -64h-84l-11 -88h-69l11 88h-85z" />
<glyph horiz-adv-x="400" d="M173 55q29 0 49.5 23t30 60t13 68.5t3.5 62.5q0 96 -62 96q-41 0 -68 -52t-27 -162q0 -96 61 -96zM348 266q0 -130 -48.5 -201t-130.5 -71q-66 0 -101.5 41.5t-35.5 119.5q0 132 48 202t132 70q65 0 100.5 -40t35.5 -121z" />
<glyph horiz-adv-x="402" d="M239 0h-77l41 336l-100 -51l-32 54l156 82h63z" />
<glyph horiz-adv-x="400" d="M336 315q0 -27 -14.5 -57t-29.5 -50.5t-51.5 -54t-50 -44.5t-56.5 -46h181l-16 -63h-278l6 55q142 116 185 167.5t43 92.5q0 23 -14.5 36t-38.5 13q-51 0 -95 -47l-49 40q69 70 154 70q57 0 90.5 -29.5t33.5 -82.5z" />
<glyph horiz-adv-x="400" d="M325 133q0 -58 -47.5 -98.5t-118.5 -40.5q-102 0 -150 63l53 42q39 -43 96 -43q41 0 64 20.5t23 57.5q0 58 -72 58h-37l16 60h25q37 0 57.5 18t20.5 47q0 23 -14.5 36t-40.5 13q-54 0 -105 -40l-36 46q71 55 147 55q61 0 95 -27.5t34 -69.5q0 -31 -24 -61t-64 -39l-1 -3 q34 -6 56.5 -33.5t22.5 -60.5z" />
<glyph horiz-adv-x="400" d="M330 96h-54l-11 -96h-76l11 96h-179l7 50l169 285l63 -26l-144 -248h92l22 105h67l-13 -105h54z" />
<glyph horiz-adv-x="400" d="M325 156q0 -72 -44.5 -117t-119.5 -45q-94 0 -140 60l53 43q34 -41 88 -41q39 0 61 26.5t22 71.5q0 31 -16 46.5t-43 15.5q-25 0 -59 -16h-57l27 221h245l-14 -61h-163l-14 -100q33 14 59 14q53 0 84 -32.5t31 -85.5z" />
<glyph horiz-adv-x="400" d="M238 366q-53 0 -82.5 -41t-40.5 -101q45 58 112 58q48 0 80.5 -32.5t32.5 -89.5q0 -75 -46.5 -120.5t-113.5 -45.5q-63 0 -104 44t-41 123q0 121 55.5 193.5t150.5 72.5q61 0 102 -30l-42 -49q-26 18 -63 18zM206 221q-23 0 -49.5 -15t-46.5 -40v-4q0 -107 71 -107 q36 0 58 27.5t22 73.5q0 65 -55 65z" />
<glyph horiz-adv-x="400" d="M349 370l-216 -378l-69 26l197 341h-195l7 62h282z" />
<glyph horiz-adv-x="400" d="M346 326q0 -35 -24.5 -61.5t-63.5 -35.5q81 -32 81 -102q0 -59 -45 -96t-123 -37q-70 0 -111.5 32.5t-41.5 80.5q0 39 27 69.5t74 42.5q-59 30 -59 91q0 53 40 85t109 32q61 0 99 -28.5t38 -72.5zM173 55q38 0 62 19t24 50q0 26 -22 40.5t-71 31.5q-68 -33 -68 -86 q0 -25 20 -40t55 -15zM207 368q-69 0 -69 -54q0 -40 71 -63q59 32 59 71q0 20 -17 33t-44 13z" />
<glyph horiz-adv-x="400" d="M47 45q169 40 215 150l-2 1q-41 -47 -108 -47q-49 0 -80.5 34.5t-31.5 87.5q0 70 46.5 113t118.5 43q67 0 104.5 -38t37.5 -103q0 -125 -73.5 -195.5t-214.5 -104.5zM177 210q54 0 91 44q2 16 2 35q0 38 -18.5 57.5t-49.5 19.5q-37 0 -60 -24.5t-23 -66.5q0 -31 16 -48 t42 -17z" />
<glyph horiz-adv-x="400" d="M330 103h-239l8 65h239zM345 224h-239l8 65h239z" />
<glyph horiz-adv-x="400" d="M338 164h-238l8 64h238z" />
<glyph horiz-adv-x="40" />
<glyph horiz-adv-x="500" d="M516 435h-86l-51 -199h79l-9 -69h-89l-41 -167h-78l42 167h-140l-42 -167h-78l42 167h-76l9 69h85l52 199h-80l8 70h89l42 164h78l-43 -164h141l42 164h78l-43 -164h77zM212 435l-51 -199h140l52 199h-141z" />
<glyph horiz-adv-x="503" d="M482 194q0 -83 -64 -142t-168 -64l-17 -142h-79l18 147q-106 15 -174 86l58 59q47 -40 87 -55t89 -15q65 0 107.5 33.5t42.5 85.5q0 45 -27.5 72.5t-104.5 51.5q-105 33 -147 77t-42 115q0 68 53.5 116t144.5 53l16 153h78l-17 -156q88 -12 159 -72l-53 -61 q-69 59 -162 59q-58 0 -89 -23.5t-31 -65.5q0 -40 28 -66t113 -55q99 -33 139 -76.5t42 -114.5z" />
<glyph horiz-adv-x="850" d="M738 668l-549 -697l-62 40l548 697zM273 617q-41 0 -66 -31.5t-25 -90.5q0 -45 19.5 -68.5t54.5 -23.5q43 0 67 30.5t24 90.5q0 45 -20 69t-54 24zM429 528q0 -82 -43.5 -134.5t-127.5 -52.5q-70 0 -113.5 41t-43.5 109q0 90 45.5 139t126.5 49q69 0 112 -43t44 -108z M605 264q-41 0 -66 -32t-25 -93q0 -43 20.5 -66t54.5 -23q90 0 90 121q0 45 -20 69t-54 24zM761 175q0 -82 -43 -134.5t-127 -52.5q-71 0 -114.5 41t-43.5 109q0 90 45.5 139t126.5 49q69 0 112 -43t44 -108z" />
<glyph horiz-adv-x="500" d="M70 349h145l18 150h84l-18 -150h146l-10 -76h-146l-18 -149h-84l18 149h-145z" />
<glyph horiz-adv-x="590" d="M322 501q-65 0 -112 -41.5t-67.5 -100.5t-20.5 -125q0 -84 40 -128.5t105 -44.5q34 0 68 15t64.5 44.5t49.5 83.5t19 124q0 85 -40.5 129t-105.5 44zM561 330q0 -64 -19 -124t-54.5 -109t-93.5 -79t-129 -30q-105 0 -170.5 65.5t-65.5 179.5q0 158 83.5 249.5t213.5 91.5 q105 0 170 -64.5t65 -179.5z" />
<glyph horiz-adv-x="402" d="M269 0h-90l56 463l-160 -94l-37 68l222 127h79z" />
<glyph horiz-adv-x="505" d="M455 419q0 -39 -15.5 -75.5t-38 -65.5t-68.5 -65.5t-86 -63.5t-111 -72h289l-19 -77h-405l8 73q195 130 247 173q99 88 102 158q0 47 -25.5 71.5t-73.5 24.5q-75 0 -150 -75l-60 52q95 99 224 99q82 0 131.5 -44t50.5 -113z" />
<glyph horiz-adv-x="498" d="M425 99q0 -97 -64 -159t-170 -62q-63 0 -120 27.5t-90 74.5l63 48q57 -75 149 -75q64 0 100 39t36 106q0 113 -128 113h-43l20 71h27q64 0 104 36.5t40 93.5q0 42 -28 66t-80 24q-66 0 -143 -62l-46 59q90 77 202 77q88 0 138.5 -41t50.5 -112q0 -58 -40.5 -108.5 t-112.5 -62.5l-1 -4q61 -11 97.5 -51t38.5 -98z" />
<glyph horiz-adv-x="524" d="M457 40h-77l-18 -152h-89l18 152h-291l7 65l259 471l75 -33l-233 -430h192l34 180h77l-22 -180h77z" />
<glyph horiz-adv-x="515" d="M443 132q0 -113 -65 -183.5t-176 -70.5q-61 0 -117.5 22.5t-91.5 67.5l63 51q25 -32 67 -49t79 -17q69 0 107 46t38 127q0 62 -27.5 93t-78.5 31q-40 0 -94 -24h-72l43 338h353l-20 -73h-255l-27 -195q56 25 108 25q73 0 119 -50t47 -139z" />
<glyph horiz-adv-x="535" d="M346 606q-61 0 -116 -68.5t-77 -188.5q74 91 166 91q67 0 114.5 -49.5t47.5 -132.5q0 -123 -69.5 -196.5t-164.5 -73.5q-97 0 -146.5 59t-49.5 171q0 215 85.5 338t214.5 123q83 0 136 -42l-45 -60q-40 29 -96 29zM293 367q-80 0 -149 -96q-2 -34 -2 -53q0 -83 25.5 -120 t79.5 -37q60 0 100.5 54.5t40.5 142.5q0 55 -26.5 82t-68.5 27z" />
<glyph horiz-adv-x="443" d="M438 495l-305 -609l-84 30l292 573h-293l10 75h389z" />
<glyph horiz-adv-x="556" d="M511 522q0 -52 -29 -91t-103 -73q116 -50 116 -162q0 -87 -68.5 -147.5t-183.5 -60.5q-94 0 -154 50.5t-60 123.5q0 129 159 189q-42 22 -63 60.5t-21 81.5q0 84 57.5 135t160.5 51q84 0 136.5 -43.5t52.5 -113.5zM247 61q66 0 108.5 39.5t42.5 95.5q0 43 -32 72.5 t-121 58.5q-120 -56 -120 -165q0 -46 33 -73.5t89 -27.5zM318 610q-57 0 -90 -32t-33 -85q0 -38 28 -64.5t95 -47.5q56 29 79 63t23 78q0 40 -27.5 64t-74.5 24z" />
<glyph horiz-adv-x="534" d="M52 -51q284 77 324 266l-2 1q-68 -76 -158 -76q-67 0 -114 50.5t-47 139.5q0 110 65.5 178t166.5 68q91 0 144.5 -56.5t53.5 -152.5q0 -208 -106 -327t-315 -165zM242 212q81 0 144 82q6 42 6 74q0 67 -30.5 101t-79.5 34q-60 0 -97 -45.5t-37 -127.5q0 -55 26.5 -86.5 t67.5 -31.5z" />
<glyph horiz-adv-x="500" d="M398 115l-336 171l12 94l378 171l28 -75l-339 -145l301 -142z" />
<glyph horiz-adv-x="500" d="M424 176h-376l9 78h376zM448 368h-376l9 78h376z" />
<glyph horiz-adv-x="500" d="M114 551l336 -171l-12 -94l-378 -171l-28 75l339 145l-301 142z" />
<glyph horiz-adv-x="500" d="M326 250q-34 0 -64 14t-52.5 28.5t-38.5 14.5q-38 0 -73 -51l-57 31q58 92 140 92q34 0 64 -14t52.5 -28t38.5 -14q38 0 72 50l57 -32q-55 -91 -139 -91z" />
<glyph horiz-adv-x="477" d="M261 66q56 0 122 44l35 -66q-62 -44 -131 -53l-17 -145h-80l17 146q-72 14 -114 71.5t-42 150.5q0 135 64.5 220.5t160.5 101.5l18 148h79l-17 -148q62 -10 116 -53l-45 -62q-52 41 -111 41q-68 0 -117 -66t-49 -182q0 -148 111 -148z" />
<glyph horiz-adv-x="500" d="M137 498q21 181 187 181q115 0 180 -88l-67 -46q-47 59 -112 59q-46 0 -68.5 -25t-28.5 -80l-15 -122h203l-7 -60h-203l-13 -108q-13 -98 -71 -128l-1 -4h324l-20 -77h-430l8 73q55 17 73.5 47t24.5 85l14 112h-81l7 60h81z" />
<glyph horiz-adv-x="600" d="M96 610l88 -89q53 33 123 33q71 0 121 -33l88 88l56 -56l-86 -87q36 -54 36 -124q0 -69 -37 -126l87 -86l-56 -56l-89 87q-50 -32 -120 -32q-71 0 -123 32l-88 -88l-56 56l88 88q-35 54 -35 125q0 70 34 123l-87 89zM307 202q61 0 92.5 36.5t31.5 103.5q0 66 -31.5 103 t-92.5 37t-93 -37t-32 -103q0 -67 32 -103.5t93 -36.5z" />
<glyph horiz-adv-x="500" d="M69 346h116l-142 323h97l118 -291h4l189 291h102l-225 -323h117l-7 -61h-141l-11 -89h141l-7 -60h-141l-17 -136h-94l17 136h-141l7 60h141l11 89h-141z" />
<glyph horiz-adv-x="500" d="M103 531q0 65 50.5 105.5t139.5 40.5q106 0 175 -54l-50 -59q-58 39 -128 39q-90 0 -90 -76q0 -26 23.5 -43.5t88.5 -38.5q76 -24 106 -58.5t30 -84.5q0 -74 -92 -130q43 -37 43 -97q0 -68 -49 -107t-143 -39q-45 0 -97.5 15.5t-82.5 39.5l49 60q58 -42 133 -42 q94 0 94 77q0 25 -21.5 42t-90.5 39q-73 23 -105 59t-32 87q0 40 21 69.5t69 55.5q-41 40 -41 100zM224 237l76 -31q2 -2 4 -2q53 38 53 94q0 21 -13.5 35t-49.5 28l-100 38q-48 -39 -48 -93q0 -23 16 -37t62 -32z" />
<glyph horiz-adv-x="500" d="M445 351l-28 -220h-83l18 143h-293l10 77h376z" />
<glyph horiz-adv-x="500" d="M248 447q43 0 68.5 27.5t25.5 75.5q0 39 -23.5 63.5t-57.5 24.5q-43 0 -68.5 -26t-25.5 -76q0 -41 22.5 -65t58.5 -24zM246 385q-63 0 -110 42t-47 103q0 79 47.5 125t126.5 46q63 0 110 -42.5t47 -104.5q0 -79 -46 -124t-128 -45z" />
<glyph horiz-adv-x="500" d="M435 274h-145l-15 -124h-86l15 124h-145l10 76h145l18 150h86l-18 -150h145zM402 0h-376l9 78h376z" />
<glyph horiz-adv-x="500" d="M154 472l103 -118l131 118l51 -60l-131 -117l103 -116l-63 -56l-103 116l-133 -119l-51 59l133 119l-103 117z" />
<glyph horiz-adv-x="500" d="M436 274h-376l10 77h376zM160 115q0 29 20.5 49t49.5 20t49.5 -20t20.5 -49t-20.5 -49.5t-49.5 -20.5t-49.5 20.5t-20.5 49.5zM208 511q0 29 20.5 49t49.5 20t49.5 -20t20.5 -49t-20.5 -49t-49.5 -20t-49.5 20t-20.5 49z" />
<glyph d="M544 284h-530l10 78h530z" />
<glyph horiz-adv-x="500" d="M483 445h-169l-55 -445h-88l55 445h-169l9 77h169l20 155h88l-20 -155h169z" />
<glyph horiz-adv-x="500" d="M288 236h169l-9 -77h-169l-20 -159h-88l20 159h-169l9 77h169l25 202h-169l9 77h169l21 162h88l-21 -162h169l-9 -77h-169z" />
<glyph horiz-adv-x="1181" d="M738 668l-549 -697l-62 40l548 697zM273 617q-41 0 -66 -31.5t-25 -90.5q0 -45 19.5 -68.5t54.5 -23.5q43 0 67 30.5t24 90.5q0 45 -20 69t-54 24zM429 528q0 -82 -43.5 -134.5t-127.5 -52.5q-70 0 -113.5 41t-43.5 109q0 90 45.5 139t126.5 49q69 0 112 -43t44 -108z M605 264q-41 0 -66 -32t-25 -93q0 -43 20.5 -66t54.5 -23q90 0 90 121q0 45 -20 69t-54 24zM761 175q0 -82 -43 -134.5t-127 -52.5q-71 0 -114.5 41t-43.5 109q0 90 45.5 139t126.5 49q69 0 112 -43t44 -108zM971 264q-41 0 -66 -32t-25 -93q0 -43 20.5 -66t54.5 -23 q90 0 90 121q0 45 -20 69t-54 24zM1127 175q0 -82 -43 -134.5t-127 -52.5q-71 0 -114.5 41t-43.5 109q0 90 45.5 139t126.5 49q69 0 112 -43t44 -108z" />
<glyph horiz-adv-x="562" d="M62 444h74q31 106 98 170.5t177 64.5q81 0 151 -44l-44 -69q-49 37 -110 37q-64 0 -109.5 -41t-68.5 -118h246l-23 -62h-237q-6 -35 -8 -90h215l-22 -61h-192q13 -166 140 -166q76 0 141 50l-11 -91q-68 -36 -143 -36q-97 0 -157 65.5t-67 177.5h-92l23 61h69q1 38 10 90 h-83z" />
<glyph horiz-adv-x="549" d="M409 329q0 4 0.5 11.5t0.5 11.5q0 103 -59.5 165t-195.5 93l28 70q156 -36 231 -117t75 -213q0 -176 -65 -269t-185 -93q-84 0 -139.5 55t-55.5 145q0 102 58.5 168t144.5 66q104 0 159 -94zM246 61q126 0 144 205q-49 84 -133 84q-53 0 -85.5 -44t-32.5 -121 q0 -57 30.5 -90.5t76.5 -33.5z" />
<glyph horiz-adv-x="670" d="M491 -202l-92 -11l85 806h-214l-83 -795l-93 -11l85 806h-92l9 76h579l-9 -76h-92z" />
<glyph horiz-adv-x="520" d="M359 366l-8 -62l-218 -226h292l-9 -78h-403l9 78l256 264l-192 249l10 78h403l-10 -78h-303z" />
<glyph horiz-adv-x="500" d="M436 274h-376l10 77h376z" />
<glyph horiz-adv-x="520" d="M702 790h-184l-302 -790h-104l-118 457l82 27l92 -383h4l289 766h250z" />
<glyph horiz-adv-x="900" d="M272 523q61 0 113 -35t76 -93q40 60 86.5 94t113.5 34q88 0 139.5 -55t51.5 -130q0 -102 -53.5 -166t-162.5 -64q-61 0 -113.5 35t-77.5 92q-40 -60 -85.5 -93.5t-112.5 -33.5q-88 0 -140.5 55.5t-52.5 129.5q0 103 53.5 166.5t164.5 63.5zM642 183q59 0 89.5 40.5 t30.5 103.5q0 51 -31 85.5t-77 34.5q-53 0 -91.5 -39t-71.5 -103q57 -122 151 -122zM265 448q-58 0 -88.5 -39.5t-30.5 -103.5q0 -51 30.5 -86t76.5 -35q93 0 162 142q-20 47 -57.5 84.5t-92.5 37.5z" />
<glyph horiz-adv-x="290" d="M-176 -184l33 64q39 -19 83 -19q33 0 50.5 19t23.5 70l89 738q10 86 51 125t114 39q63 0 126 -33l-35 -64q-46 23 -93 23q-33 0 -50.5 -19t-23.5 -70l-89 -738q-10 -87 -50 -125.5t-115 -38.5q-57 0 -114 29z" />
<glyph horiz-adv-x="500" d="M338 344q-34 0 -64 14t-52.5 28.5t-38.5 14.5q-38 0 -73 -51l-57 31q61 92 141 92q34 0 64 -14t52.5 -28t38.5 -14q23 0 38.5 12.5t33.5 37.5l56 -32q-55 -91 -139 -91zM314 155q-34 0 -64 14.5t-52.5 28.5t-38.5 14q-37 0 -73 -51l-56 31q58 92 140 92q34 0 64 -14 t52.5 -28t38.5 -14q38 0 72 50l57 -32q-58 -91 -140 -91z" />
<glyph horiz-adv-x="500" d="M424 176h-234l-108 -151l-49 30l87 121h-72l9 78h119l82 114h-187l10 78h233l108 150l48 -28l-87 -122h74l-10 -78h-120l-82 -114h188z" />
<glyph horiz-adv-x="500" d="M402 0h-376l10 79h376zM402 146l-339 156l11 94l378 162l28 -75l-339 -136l305 -127z" />
<glyph horiz-adv-x="500" d="M402 0h-376l10 79h376zM113 557l338 -162l-11 -94l-377 -156l-28 75l338 130l-304 133z" />
<glyph horiz-adv-x="531" d="M236 71h4l172 266l-106 261h-4l-170 -261zM287 0h-107l-144 336l221 333h107l144 -331z" />
<glyph d="M549 455h-87l-56 -219h79l-8 -69h-89l-41 -167h-78l42 167h-140l-42 -167h-78l42 167h-77l8 69h86l57 219h-79l9 70h88l42 164h78l-43 -164h141l42 164h78l-43 -164h78zM244 455l-56 -219h140l57 219h-141z" />
<glyph d="M509 204q0 -84 -63.5 -145.5t-163.5 -69.5l-16 -143h-80l16 146q-109 13 -180 87l60 59q47 -40 86.5 -55t88.5 -15q64 0 108 37.5t44 93.5q0 45 -27 71t-106 51q-99 32 -141 78.5t-42 118.5q0 71 54.5 123t143.5 59l19 149h79l-19 -152q88 -11 159 -72l-54 -61 q-68 59 -161 59q-57 0 -89.5 -28t-32.5 -77q0 -41 27.5 -65.5t111.5 -52.5q96 -32 137 -77t41 -119z" />
<glyph horiz-adv-x="900" d="M764 668l-561 -697l-61 40l560 697zM290 639q-42 0 -67.5 -33t-25.5 -95q0 -42 20 -64t53 -22q93 0 93 128q0 41 -20.5 63.5t-52.5 22.5zM445 550q0 -81 -45 -134t-129 -53q-71 0 -113 41t-42 109q0 89 47 138.5t128 49.5q69 0 111.5 -43t42.5 -108zM644 264 q-42 0 -67.5 -33t-25.5 -95q0 -42 20 -64t53 -22q93 0 93 128q0 41 -20.5 63.5t-52.5 22.5zM799 175q0 -81 -45 -134t-129 -53q-71 0 -113 41t-42 109q0 89 47 138.5t128 49.5q69 0 111.5 -43t42.5 -108z" />
<glyph d="M100 349h145l18 150h84l-18 -150h146l-10 -76h-146l-18 -149h-84l18 149h-145z" />
<glyph d="M321 628q-72 0 -122 -100.5t-50 -285.5q0 -181 107 -181q54 0 94 55.5t59 142t19 188.5q0 181 -107 181zM522 448q0 -74 -12.5 -146.5t-41 -147t-86 -120.5t-136.5 -46q-94 0 -143 65t-49 189q0 228 78.5 343.5t198.5 115.5q89 0 140 -64t51 -189z" />
<glyph d="M251 74l63 514l-178 -100l-37 66l238 135h80l-75 -615h144l-9 -74h-404l9 74h169z" />
<glyph d="M498 531q0 -34 -13.5 -72t-29.5 -68t-51.5 -72t-56.5 -64.5t-69 -66t-64 -57t-65 -54.5h309l-20 -77h-410l8 73q216 190 291 281.5t75 171.5q0 45 -27.5 71.5t-75.5 26.5q-74 0 -146 -75l-60 46q97 106 221 106q89 0 136.5 -46t47.5 -124z" />
<glyph d="M484 211q0 -98 -66.5 -160.5t-170.5 -62.5q-69 0 -129 26.5t-93 73.5l66 49q58 -74 157 -74q65 0 102.5 38.5t37.5 111.5q0 114 -136 114h-40l21 71h24q69 0 112 38t43 103q0 42 -26.5 65t-78.5 23q-72 0 -152 -62l-42 59q97 77 208 77q87 0 136 -42t49 -114 q0 -60 -38.5 -107t-107.5 -68l-1 -4q58 -12 91.5 -53t33.5 -102z" />
<glyph d="M492 165h-87l-20 -165h-89l20 165h-282l8 65l259 471l76 -33l-233 -430h181l34 180h77l-22 -180h87z" />
<glyph d="M487 250q0 -120 -66.5 -191t-177.5 -71q-61 0 -118 22.5t-92 67.5l67 51q56 -66 143 -66q71 0 109.5 47t38.5 140q0 116 -109 116q-40 0 -94 -24h-72l43 347h362l-22 -72h-263l-25 -205q56 25 108 25q76 0 122 -49.5t46 -137.5z" />
<glyph d="M357 628q-65 0 -122 -73t-80 -197q38 45 86 68t87 23q80 0 127 -49.5t47 -141.5q0 -124 -72 -197t-174 -73q-95 0 -149.5 59.5t-54.5 170.5q0 218 87.5 350.5t222.5 132.5q88 0 141 -42l-46 -60q-40 29 -100 29zM311 376q-39 0 -87 -27t-79 -69q-2 -40 -2 -62 q0 -80 30.5 -118.5t82.5 -38.5q69 0 111 54t42 143q0 118 -98 118z" />
<glyph d="M528 620l-327 -632l-83 29l314 597h-319l11 75h414z" />
<glyph d="M521 538q0 -105 -137 -169q121 -49 121 -168q0 -92 -69 -152.5t-188 -60.5q-102 0 -160.5 50.5t-58.5 131.5q0 134 165 193q-42 23 -66 65t-24 87q0 83 59 134.5t162 51.5q88 0 142 -45t54 -118zM252 61q71 0 113.5 40t42.5 100q0 45 -33.5 77t-124.5 60 q-125 -55 -125 -168q0 -50 33 -79.5t94 -29.5zM321 632q-126 0 -126 -114q0 -38 31 -72t97 -54q107 54 107 146q0 43 -29 68.5t-80 25.5z" />
<glyph d="M78 51q135 37 223 107t108 169q-31 -34 -81 -54t-92 -20q-68 0 -116 54t-48 143q0 110 70.5 180.5t172.5 70.5q101 0 154 -61t53 -170q0 -206 -110 -324t-323 -168zM259 325q41 0 87 21t77 61q6 42 6 74q0 147 -119 147q-61 0 -103 -48.5t-42 -129.5q0 -56 27 -90.5 t67 -34.5z" />
<glyph d="M418 115l-336 171l12 94l378 171l28 -75l-339 -145l301 -142z" />
<glyph d="M454 176h-376l9 78h376zM478 368h-376l9 78h376z" />
<glyph d="M153 551l336 -171l-12 -94l-378 -171l-28 75l339 145l-301 142z" />
<glyph d="M352 250q-34 0 -64 14t-52.5 28.5t-38.5 14.5q-38 0 -73 -51l-57 31q58 92 140 92q34 0 64 -14t52.5 -28t38.5 -14q38 0 72 50l57 -32q-55 -91 -139 -91z" />
<glyph d="M291 66q56 0 122 44l35 -66q-62 -44 -130 -53l-17 -145h-79l17 146q-72 12 -115 70t-43 152q0 135 64.5 220.5t161.5 101.5l18 148h78l-18 -148q63 -10 117 -53l-45 -62q-52 41 -111 41q-68 0 -117 -66t-49 -182q0 -148 111 -148z" />
<glyph d="M169 520q24 181 190 181q116 0 179 -88l-68 -46q-46 59 -111 59q-45 0 -68.5 -25.5t-30.5 -79.5l-16 -132h203l-8 -60h-203l-15 -120q-13 -96 -73 -128l-1 -4h334l-21 -77h-441l10 73q55 17 74 47t26 85l16 124h-81l8 60h81z" />
<glyph d="M83 610l88 -89q53 33 123 33q71 0 121 -33l88 88l56 -56l-86 -87q36 -54 36 -124q0 -69 -37 -126l87 -86l-56 -56l-89 87q-50 -32 -120 -32q-71 0 -123 32l-88 -88l-56 56l88 88q-35 54 -35 125q0 70 34 123l-87 89zM294 202q61 0 92.5 36.5t31.5 103.5q0 66 -31.5 103 t-92.5 37t-93 -37t-32 -103q0 -67 32 -103.5t93 -36.5z" />
<glyph d="M100 346h114l-149 343h99l124 -313h4l200 313h101l-234 -343h117l-8 -61h-141l-10 -84h141l-7 -61h-141l-17 -140h-96l17 140h-139l7 61h139l10 84h-139z" />
<glyph d="M138 548q0 67 51.5 110t141.5 43q107 0 174 -54l-50 -57q-58 37 -128 37q-43 0 -67.5 -21t-24.5 -58q0 -27 24 -46.5t87 -39.5q75 -24 104.5 -58t29.5 -83q0 -78 -102 -136q49 -40 49 -103q0 -70 -50 -111.5t-145 -41.5q-45 0 -97.5 15.5t-81.5 39.5l50 60 q56 -41 132 -41q48 0 72 21.5t24 57.5q0 26 -22 44.5t-89 40.5q-71 23 -103 58.5t-32 84.5q0 85 100 131q-47 43 -47 107zM388 315q0 21 -13 35t-48 28l-92 35q-57 -44 -57 -100q0 -23 15.5 -37t60.5 -32l71 -29q63 41 63 100z" />
<glyph d="M477 351l-28 -220h-83l18 143h-293l10 77h376z" />
<glyph d="M253 497q43 0 68.5 27.5t25.5 75.5q0 39 -23.5 63.5t-57.5 24.5q-43 0 -68.5 -26t-25.5 -76q0 -41 22.5 -65t58.5 -24zM251 435q-63 0 -110 42t-47 103q0 79 47.5 125t126.5 46q63 0 110 -42.5t47 -104.5q0 -79 -46 -124t-128 -45z" />
<glyph d="M466 274h-145l-15 -124h-86l15 124h-145l10 76h145l18 150h86l-18 -150h145zM433 0h-376l9 78h376z" />
<glyph d="M183 472l103 -118l131 118l51 -60l-131 -117l103 -116l-63 -56l-103 116l-133 -119l-51 59l133 119l-103 117z" />
<glyph d="M462 274h-376l10 77h376zM186 115q0 29 20.5 49t49.5 20t49.5 -20t20.5 -49t-20.5 -49.5t-49.5 -20.5t-49.5 20.5t-20.5 49.5zM234 511q0 29 20.5 49t49.5 20t49.5 -20t20.5 -49t-20.5 -49t-49.5 -20t-49.5 20t-20.5 49z" />
<glyph />
<glyph d="M544 284h-530l10 78h530z" />
<glyph d="M523 470h-177l-57 -470h-88l57 470h-177l10 77h177l23 192h88l-23 -192h177z" />
<glyph d="M322 269h177l-10 -77h-177l-23 -192h-88l23 192h-177l10 77h177l24 201h-177l10 77h177l23 192h88l-23 -192h177l-10 -77h-177z" />
<glyph horiz-adv-x="1200" d="M752 668l-561 -697l-61 40l560 697zM292 639q-42 0 -67.5 -33t-25.5 -95q0 -42 20 -64t53 -22q93 0 93 128q0 41 -20.5 63.5t-52.5 22.5zM447 550q0 -81 -45 -134t-129 -53q-71 0 -113 41t-42 109q0 89 47 138.5t128 49.5q69 0 111.5 -43t42.5 -108zM620 264 q-42 0 -67.5 -33t-25.5 -95q0 -42 20 -64t53 -22q93 0 93 128q0 41 -20.5 63.5t-52.5 22.5zM775 175q0 -81 -45 -134t-129 -53q-71 0 -113 41t-42 109q0 89 47 138.5t128 49.5q69 0 111.5 -43t42.5 -108zM986 264q-42 0 -67.5 -33t-25.5 -95q0 -42 20 -64t53 -22 q93 0 93 128q0 41 -20.5 63.5t-52.5 22.5zM1141 175q0 -81 -45 -134t-129 -53q-71 0 -113 41t-42 109q0 89 47 138.5t128 49.5q69 0 111.5 -43t42.5 -108z" />
<glyph d="M583 657l-54 -66q-47 32 -107 32q-58 0 -109 -43.5t-79 -125.5h244l-22 -61h-237q-9 -49 -10 -90h217l-23 -62h-193q12 -173 140 -173q77 0 142 44l-13 -92q-68 -32 -142 -32q-94 0 -154.5 64.5t-69.5 188.5h-93l23 62h69q2 48 9 90h-82l22 61h74q35 118 113.5 182.5 t176.5 64.5q97 0 158 -44z" />
<glyph d="M416 339q1 11 1 31q0 102 -58.5 166t-191.5 94l30 70q153 -35 226.5 -115.5t73.5 -214.5q0 -47 -11 -120q-19 -128 -81.5 -195t-163.5 -67q-86 0 -139 55.5t-53 148.5q0 104 60.5 172t146.5 68q104 0 157 -94zM247 61q130 0 150 214q-48 85 -132 85q-54 0 -87.5 -47 t-33.5 -130q0 -53 31 -87.5t72 -34.5z" />
<glyph d="M408 -202l-92 -11l102 826h-196l-100 -815l-93 -11l102 826h-85l9 76h546l-9 -76h-84z" />
<glyph d="M379 374l-8 -62l-223 -234h296l-9 -78h-403l9 78l253 271l-187 262l9 78h403l-9 -78h-296z" />
<glyph d="M466 274h-376l10 77h376z" />
<glyph d="M722 790h-184l-302 -790h-104l-118 457l82 27l92 -383h4l289 766h250z" />
<glyph horiz-adv-x="900" d="M272 523q61 0 113 -35t76 -93q40 60 86.5 94t113.5 34q88 0 139.5 -55t51.5 -130q0 -102 -53.5 -166t-162.5 -64q-61 0 -113.5 35t-77.5 92q-40 -60 -85.5 -93.5t-112.5 -33.5q-88 0 -140.5 55.5t-52.5 129.5q0 103 53.5 166.5t164.5 63.5zM642 183q59 0 89.5 40.5 t30.5 103.5q0 51 -31 85.5t-77 34.5q-53 0 -91.5 -39t-71.5 -103q57 -122 151 -122zM265 448q-58 0 -88.5 -39.5t-30.5 -103.5q0 -51 30.5 -86t76.5 -35q93 0 162 142q-20 47 -57.5 84.5t-92.5 37.5z" />
<glyph d="M-66 -184l33 64q39 -19 83 -19q33 0 50.5 19t23.5 70l89 738q10 86 51 125t114 39q63 0 126 -33l-35 -64q-46 23 -93 23q-33 0 -50.5 -19t-23.5 -70l-89 -738q-10 -87 -50 -125.5t-115 -38.5q-57 0 -114 29z" />
<glyph d="M364 344q-34 0 -64 14t-52.5 28.5t-38.5 14.5q-38 0 -73 -51l-57 31q61 92 141 92q34 0 64 -14t52.5 -28t38.5 -14q23 0 38.5 12.5t33.5 37.5l56 -32q-55 -91 -139 -91zM340 155q-34 0 -64 14.5t-52.5 28.5t-38.5 14q-37 0 -73 -51l-56 31q58 92 140 92q34 0 64 -14 t52.5 -28t38.5 -14q38 0 72 50l57 -32q-58 -91 -140 -91z" />
<glyph d="M454 176h-235l-107 -150l-48 29l87 121h-73l10 78h119l82 114h-187l9 78h234l108 150l46 -27l-88 -123h76l-9 -78h-122l-82 -114h190z" />
<glyph d="M429 0h-376l10 79h376zM429 146l-339 156l11 94l378 162l28 -75l-339 -136l305 -127z" />
</font>
</defs>
</svg>
