<?xml version="1.0" standalone="no"?>
<!DOCTYPE svg PUBLIC "-//W3C//DTD SVG 1.1//EN" "http://www.w3.org/Graphics/SVG/1.1/DTD/svg11.dtd" >
<svg xmlns="http://www.w3.org/2000/svg">
<metadata></metadata>
<defs>
<font id="fira_sans_otregular" horiz-adv-x="560" >
<font-face units-per-em="1000" ascent="800" descent="-200" />
<missing-glyph horiz-adv-x="265" />
<glyph unicode="&#xd;" horiz-adv-x="265" />
<glyph unicode=" "  horiz-adv-x="265" />
<glyph unicode="&#x09;" horiz-adv-x="265" />
<glyph unicode="&#xa0;" horiz-adv-x="265" />
<glyph unicode="!" horiz-adv-x="265" d="M63 58q0 29 20 49t49 20q30 0 50 -20t20 -49t-20 -49.5t-50 -20.5q-29 0 -49 20.5t-20 49.5zM172 230h-81l-11 459h102z" />
<glyph unicode="&#x22;" horiz-adv-x="455" d="M187 427h-68l-31 262h99v-262zM367 427h-68l-31 262h99v-262z" />
<glyph unicode="#" horiz-adv-x="500" d="M497 435h-86l-26 -199h79v-69h-89l-21 -167h-78l22 167h-140l-22 -167h-78l22 167h-77v69h86l27 199h-80v70h89l21 164h78l-22 -164h141l21 164h78l-22 -164h77v-70zM193 435l-26 -199h140l27 199h-141z" />
<glyph unicode="$" horiz-adv-x="503" d="M481 186q0 -81 -50.5 -132t-143.5 -60v-148h-79v147q-120 11 -194 83l53 58q73 -70 173 -70q64 0 104.5 30.5t40.5 88.5q0 49 -29.5 75.5t-114.5 52.5q-101 32 -151 78.5t-50 115.5q0 68 46 113t123 55v152h78v-150q101 -8 173 -76l-53 -56q-64 60 -152 60 q-53 0 -86.5 -24t-33.5 -71q0 -43 30 -67.5t119 -52.5q46 -14 77 -28.5t60.5 -37t44.5 -57t15 -79.5z" />
<glyph unicode="%" horiz-adv-x="850" d="M689 669l-463 -697l-64 39l462 697zM156 510q0 -107 81 -107t81 107t-81 107t-81 -107zM400 510q0 -77 -45.5 -123t-117.5 -46q-71 0 -116.5 46t-45.5 123t45.5 123t116.5 46q72 0 117.5 -46t45.5 -123zM532 157q0 -107 81 -107t81 107q0 106 -81 106t-81 -106zM775 157 q0 -77 -45 -123t-117 -46t-117.5 46t-45.5 123t45.5 123t117.5 46t117 -46t45 -123z" />
<glyph unicode="&#x26;" horiz-adv-x="777" d="M592 369l86 -25q-36 -118 -92 -202l159 -142h-121l-90 79q-91 -91 -214 -91q-108 0 -168 50t-60 137q0 63 32 110t98 89q-55 50 -80 86t-25 82q0 71 48 115t136 44q83 0 135 -42.5t52 -108.5q0 -59 -37 -101.5t-103 -81.5l177 -172q42 70 67 174zM320 61q91 0 158 69 l-201 195q-50 -32 -70.5 -65t-20.5 -79q0 -56 35 -88t99 -32zM207 541q0 -32 20.5 -59.5t65.5 -66.5q51 31 77.5 61t26.5 66q0 42 -25.5 66.5t-69.5 24.5q-46 0 -70.5 -25t-24.5 -67z" />
<glyph unicode="'" horiz-adv-x="275" d="M187 427h-68l-31 262h99v-262z" />
<glyph unicode="(" horiz-adv-x="325" d="M136 350q0 -149 36 -245.5t115 -206.5l-58 -40q-49 67 -74 104.5t-56.5 100.5t-45 132.5t-13.5 154.5t13.5 154.5t45 132.5t56.5 100.5t74 104.5l58 -40q-79 -111 -115 -207t-36 -245z" />
<glyph unicode=")" horiz-adv-x="325" d="M189 350q0 149 -36 245t-115 207l58 40q49 -67 74 -104.5t56.5 -100.5t45 -132.5t13.5 -154.5t-13.5 -154.5t-45 -132.5t-56.5 -100.5t-74 -104.5l-58 40q79 110 115 206.5t36 245.5z" />
<glyph unicode="*" horiz-adv-x="440" d="M265 738l-16 -153l140 60l27 -85l-147 -32l105 -109l-73 -55l-80 130l-75 -132l-75 51l101 115l-148 32l27 85l139 -60l-15 153h90z" />
<glyph unicode="+" horiz-adv-x="500" d="M62 349h145v150h84v-150h146v-76h-146v-149h-84v149h-145v76z" />
<glyph unicode="," horiz-adv-x="265" d="M63 58q0 29 20 49t49 20q30 0 50 -20t20 -49q0 -31 -18 -71l-67 -153h-66l40 166q-28 21 -28 58z" />
<glyph unicode="-" horiz-adv-x="405" d="M344 274h-283v78h283v-78z" />
<glyph unicode="." horiz-adv-x="265" d="M63 58q0 29 20 49t49 20q30 0 50 -20t20 -49t-20 -49.5t-50 -20.5q-29 0 -49 20.5t-20 49.5z" />
<glyph unicode="/" horiz-adv-x="520" d="M415 792l-231 -896l-79 19l232 895z" />
<glyph unicode="0" d="M152 334q0 -144 31.5 -208.5t96.5 -64.5q64 0 96 64.5t32 208.5q0 143 -32 207.5t-96 64.5q-65 0 -96.5 -64t-31.5 -208zM504 334q0 -168 -56.5 -257t-167.5 -89t-167.5 89t-56.5 257t56.5 256.5t167.5 88.5t167.5 -88.5t56.5 -256.5z" />
<glyph unicode="1" horiz-adv-x="400" d="M302 0h-92v568l-149 -93l-43 64l203 130h81v-669z" />
<glyph unicode="2" horiz-adv-x="507" d="M431 490q0 -86 -62 -173t-223 -240h301l-11 -77h-395v73q181 181 237.5 259.5t56.5 154.5q0 55 -30 85.5t-80 30.5q-41 0 -72 -17t-64 -56l-62 48q81 101 203 101q91 0 146 -52.5t55 -136.5z" />
<glyph unicode="3" horiz-adv-x="502" d="M445 193q0 -89 -62.5 -147t-165.5 -58q-126 0 -203 92l61 50q56 -67 139 -67q63 0 99 35.5t36 95.5q0 66 -34 93t-99 27h-43l11 71h27q52 0 86.5 31t34.5 87q0 47 -30 74.5t-81 27.5q-74 0 -138 -60l-48 55q85 79 191 79q92 0 145 -49.5t53 -120.5q0 -60 -35.5 -100.5 t-89.5 -51.5l1 -4q61 -6 103 -47.5t42 -112.5z" />
<glyph unicode="4" horiz-adv-x="524" d="M491 165h-87v-165h-89v165h-278v66l193 448l77 -32l-173 -409h181l9 180h80v-180h87v-73z" />
<glyph unicode="5" horiz-adv-x="515" d="M464 214q0 -99 -64 -162.5t-167 -63.5q-124 0 -200 90l63 51q56 -66 136 -66q63 0 100 42t37 111q0 139 -122 139q-41 0 -90 -23h-72v337h360l-11 -72h-261v-193q45 22 102 22q86 0 137.5 -56.5t51.5 -155.5z" />
<glyph unicode="6" horiz-adv-x="535" d="M441 639l-39 -62q-40 29 -97 29q-70 0 -111.5 -69t-44.5 -185q61 88 155 88q79 0 131.5 -55t52.5 -158q0 -107 -60.5 -173t-149.5 -66q-222 0 -222 330q0 163 67.5 262t182.5 99q79 0 135 -40zM287 367q-82 0 -138 -93q3 -109 34 -161t95 -52q56 0 86.5 44t30.5 119 q0 143 -108 143z" />
<glyph unicode="7" horiz-adv-x="443" d="M414 600l-250 -610l-85 26l242 578h-296v75h389v-69z" />
<glyph unicode="8" horiz-adv-x="556" d="M481 509q0 -91 -114 -150q141 -60 141 -180q0 -83 -65 -137t-167 -54q-103 0 -166 53t-63 136q0 116 132 174q-104 52 -104 156q0 58 33 98.5t77 57t93 16.5q83 0 143 -43t60 -127zM412 178q0 26 -9 46.5t-19.5 33t-38 26.5t-45.5 21t-60 22q-97 -47 -97 -150 q0 -55 35.5 -85.5t97.5 -30.5t99 33.5t37 83.5zM165 506q0 -50 32.5 -76t107.5 -49q46 26 66 55t20 70q0 47 -30.5 75.5t-82.5 28.5t-82.5 -27t-30.5 -77z" />
<glyph unicode="9" horiz-adv-x="534" d="M100 47q127 36 201 103.5t82 165.5l-2 1q-54 -74 -151 -74q-79 0 -131 58.5t-52 156.5q0 102 61.5 161.5t152.5 59.5q100 0 158 -71t58 -189q0 -194 -82 -290t-274 -151zM251 315q81 0 133 82q0 209 -124 209q-55 0 -87.5 -39.5t-32.5 -110.5q0 -69 30.5 -105t80.5 -36z " />
<glyph unicode=":" horiz-adv-x="265" d="M63 58q0 29 20 49t49 20q30 0 50 -20t20 -49t-20 -49.5t-50 -20.5q-29 0 -49 20.5t-20 49.5zM63 431q0 29 20 49t49 20q30 0 50 -20t20 -49t-20 -49.5t-50 -20.5q-29 0 -49 20.5t-20 49.5z" />
<glyph unicode=";" horiz-adv-x="265" d="M63 58q0 29 20 49t49 20q30 0 50 -20t20 -49q0 -31 -18 -71l-67 -153h-66l40 166q-28 21 -28 58zM63 431q0 29 20 49t49 20q30 0 50 -20t20 -49t-20 -49.5t-50 -20.5q-29 0 -49 20.5t-20 49.5z" />
<glyph unicode="&#x3c;" horiz-adv-x="500" d="M419 115l-357 171v94l357 171l36 -73l-320 -145l320 -142z" />
<glyph unicode="=" horiz-adv-x="500" d="M438 176h-376v78h376v-78zM438 368h-376v78h376v-78z" />
<glyph unicode="&#x3e;" horiz-adv-x="500" d="M81 551l357 -171v-94l-357 -171l-36 74l320 144l-320 142z" />
<glyph unicode="?" horiz-adv-x="507" d="M261 263v-33h-91v38q0 45 18 79.5t44 55.5t52 39.5t44 42.5t18 54q0 41 -27.5 63.5t-76.5 22.5q-77 0 -136 -72l-64 48q85 100 209 100q90 0 140.5 -46t50.5 -110q0 -44 -18.5 -76t-45 -52t-53.5 -38.5t-45.5 -47.5t-18.5 -68zM149 58q0 29 20 49t49 20q30 0 50 -20 t20 -49t-20 -49.5t-50 -20.5q-29 0 -49 20.5t-20 49.5z" />
<glyph unicode="@" horiz-adv-x="1020" d="M718 -103l25 -71q-112 -39 -218 -39q-203 0 -329 123.5t-126 329.5q0 201 125.5 331t338.5 130q132 0 228 -55.5t142 -143.5t46 -195q0 -130 -50 -214t-147 -84q-56 0 -87.5 30.5t-39.5 69.5h-4q-16 -41 -51 -68t-90 -27q-82 0 -127.5 58.5t-45.5 158.5q0 126 60 193.5 t158 67.5q82 0 157 -40v-284q0 -88 68 -88q106 0 106 225q0 147 -85 233.5t-238 86.5q-177 0 -274 -106.5t-97 -278.5q0 -170 96 -273.5t267 -103.5q95 0 192 34zM529 426q-131 0 -131 -195q0 -150 94 -150q75 0 108 86v242q-34 17 -71 17z" />
<glyph unicode="A" horiz-adv-x="579" d="M473 0l-53 173h-265l-53 -173h-96l224 689h120l223 -689h-100zM286 603l-108 -353h219l-107 353h-4z" />
<glyph unicode="B" horiz-adv-x="626" d="M468 195q0 129 -144 129h-124v-248h120q148 0 148 119zM441 509q0 105 -132 105h-109v-217h117q124 0 124 112zM568 197q0 -54 -22 -94t-60.5 -61.5t-82.5 -31.5t-96 -10h-202v689h187q49 0 90.5 -8.5t78 -27.5t57 -54t20.5 -84q0 -61 -35.5 -98.5t-84.5 -48.5v-4 q63 -12 106.5 -51t43.5 -116z" />
<glyph unicode="C" horiz-adv-x="571" d="M353 68q83 0 150 59l49 -62q-81 -77 -203 -77q-128 0 -207.5 93.5t-79.5 263.5q0 167 82 261.5t204 94.5q63 0 107 -16.5t87 -51.5l-52 -61q-61 51 -136 51q-85 0 -138 -66.5t-53 -211.5q0 -142 52 -209.5t138 -67.5z" />
<glyph unicode="D" horiz-adv-x="656" d="M493 348q0 67 -13.5 117t-33.5 77.5t-49.5 44t-56.5 21.5t-60 5h-80v-538h81q42 0 76.5 12t66.5 40.5t50.5 84.5t18.5 136zM594 348q0 -82 -20 -145t-51 -101t-75 -61.5t-86.5 -32t-91.5 -8.5h-165v689h154q54 0 99 -7.5t90.5 -30t76 -59.5t50 -99t19.5 -145z" />
<glyph unicode="E" horiz-adv-x="540" d="M467 613h-267v-225h232v-76h-232v-236h286v-76h-381v689h373z" />
<glyph unicode="F" horiz-adv-x="496" d="M460 613h-260v-235h225v-75h-225v-303h-95v689h366z" />
<glyph unicode="G" horiz-adv-x="638" d="M344 -12q-131 0 -206.5 91t-75.5 266q0 168 88.5 262t211.5 94q68 0 115 -18.5t91 -58.5l-56 -58q-61 57 -149 57q-85 0 -142.5 -66.5t-57.5 -211.5t47.5 -212t140.5 -67q77 0 131 32v204h-130l-11 77h235v-330q-104 -61 -232 -61z" />
<glyph unicode="H" horiz-adv-x="680" d="M575 0h-95v323h-280v-323h-95v689h95v-288h280v288h95v-689z" />
<glyph unicode="I" horiz-adv-x="306" d="M201 0h-96v689h96v-689z" />
<glyph unicode="J" horiz-adv-x="308" d="M29 -139l-24 74q65 26 86.5 60t21.5 105v589h95v-593q0 -100 -44.5 -152.5t-134.5 -82.5z" />
<glyph unicode="K" horiz-adv-x="594" d="M200 689v-689h-95v689h95zM477 0l-272 368l262 321h108l-261 -315l280 -374h-117z" />
<glyph unicode="L" horiz-adv-x="503" d="M472 0h-367v689h95v-606h283z" />
<glyph unicode="M" horiz-adv-x="796" d="M734 0h-92l-30 353q-11 133 -11 229h-4l-154 -509h-91l-160 509h-4q0 -115 -9 -229l-27 -353h-90l57 689h128l151 -503h4l146 503h129z" />
<glyph unicode="N" horiz-adv-x="689" d="M584 0h-129l-270 583h-4q13 -104 13 -247v-336h-89v689h126l273 -586h4q-13 104 -13 250v336h89v-689z" />
<glyph unicode="O" horiz-adv-x="696" d="M634 344q0 -169 -78 -262.5t-208 -93.5t-208 92t-78 263q0 169 78.5 263.5t207.5 94.5q130 0 208 -93t78 -264zM533 344q0 279 -185 279t-185 -280q0 -277 185 -277t185 278z" />
<glyph unicode="P" horiz-adv-x="586" d="M453 475q0 140 -158 140h-95v-287h95q76 0 117 32t41 115zM554 476q0 -115 -71.5 -169t-195.5 -54h-87v-253h-95v689h180q128 0 198.5 -53.5t70.5 -159.5z" />
<glyph unicode="Q" horiz-adv-x="696" d="M533 344q0 279 -185 279t-185 -280q0 -277 185 -277t185 278zM634 344q0 -226 -141 -301l1 -4q105 0 194 -62l-62 -80q-58 52 -119 72.5t-156 20.5q-133 0 -211 91t-78 262q0 169 78.5 263.5t207.5 94.5q130 0 208 -93t78 -264z" />
<glyph unicode="R" horiz-adv-x="607" d="M548 494q0 -74 -45.5 -122.5t-119.5 -67.5l202 -304h-113l-184 292h-88v-292h-95v689h181q262 0 262 -195zM447 494q0 64 -37 92.5t-115 28.5h-95v-250h96q151 0 151 129z" />
<glyph unicode="S" horiz-adv-x="545" d="M507 192q0 -91 -65.5 -147.5t-178.5 -56.5q-145 0 -236 89l55 61q75 -72 178 -72q64 0 106 31.5t42 91.5q0 49 -31.5 77.5t-117.5 55.5q-106 32 -155 77t-49 122q0 80 60 130t157 50q127 0 213 -80l-54 -60q-68 62 -155 62q-54 0 -89 -25t-35 -73q0 -45 30 -70.5 t121 -53.5q48 -15 79.5 -29t62.5 -38t46.5 -59t15.5 -83z" />
<glyph unicode="T" horiz-adv-x="517" d="M499 608h-190v-608h-95v608h-198v81h493z" />
<glyph unicode="U" horiz-adv-x="672" d="M577 689v-465q0 -107 -64 -171.5t-178 -64.5q-115 0 -177.5 64t-62.5 172v465h95v-461q0 -160 145 -160q146 0 146 160v461h96z" />
<glyph unicode="V" horiz-adv-x="585" d="M293 109h4l177 580h96l-226 -689h-102l-227 689h102z" />
<glyph unicode="W" horiz-adv-x="830" d="M805 689l-140 -689h-124l-126 558h-4l-127 -558h-119l-140 689h93l109 -597h4l133 597h101l136 -594h4l113 594h87z" />
<glyph unicode="X" horiz-adv-x="555" d="M217 367l-194 322h108l142 -256h4l148 256h102l-197 -317l220 -372h-108l-167 302h-4l-164 -302h-102z" />
<glyph unicode="Y" horiz-adv-x="550" d="M545 689l-222 -424v-265h-96v264l-222 425h105l166 -337h4l166 337h99z" />
<glyph unicode="Z" horiz-adv-x="521" d="M478 612l-341 -531h341l-11 -81h-436v76l344 533h-308v80h411v-77z" />
<glyph unicode="[" horiz-adv-x="325" d="M274 -116h-207v932h207v-77h-120v-779h120v-76z" />
<glyph unicode="\" horiz-adv-x="520" d="M336 -104l-231 896l78 18l232 -895z" />
<glyph unicode="]" horiz-adv-x="325" d="M258 -116h-207v76h120v779h-120v77h207v-932z" />
<glyph unicode="^" horiz-adv-x="520" d="M30 527l189 313h82l189 -313h-98l-133 233l-132 -233h-97z" />
<glyph unicode="_" horiz-adv-x="520" d="M503 -142h-486v79h486v-79z" />
<glyph unicode="`" horiz-adv-x="297" d="M267 687l-28 -49l-209 84l47 78z" />
<glyph unicode="a" horiz-adv-x="546" d="M453 367v-248q0 -30 9 -44.5t30 -22.5l-22 -64q-75 10 -97 74q-55 -74 -157 -74q-79 0 -125 44.5t-46 118.5q0 82 64 126t184 44h68v41q0 55 -27.5 78.5t-86.5 23.5q-61 0 -138 -27l-24 68q92 34 176 34q192 0 192 -172zM241 57q72 0 120 73v130h-63q-152 0 -152 -105 q0 -98 95 -98z" />
<glyph unicode="b" horiz-adv-x="592" d="M190 750v-290q60 79 149 79q196 0 196 -275q0 -124 -54.5 -200t-153.5 -76q-91 0 -142 66l-6 -54h-81v739zM305 61q131 0 131 203q0 202 -119 202q-72 0 -127 -82v-257q43 -66 115 -66z" />
<glyph unicode="c" horiz-adv-x="476" d="M293 66q57 0 115 43l44 -63q-71 -58 -160 -58q-115 0 -175 73t-60 200q0 124 61.5 201t174.5 77q91 0 159 -57l-45 -60q-55 41 -114 41q-65 0 -101 -50.5t-36 -151.5q0 -195 137 -195z" />
<glyph unicode="d" horiz-adv-x="596" d="M289 466q-64 0 -98.5 -51t-34.5 -152q0 -202 123 -202q74 0 127 81v259q-44 65 -117 65zM265 539q88 0 141 -61v272l92 -11v-739h-81l-8 68q-56 -80 -151 -80q-99 0 -150 73.5t-51 201.5q0 122 56 199t152 77z" />
<glyph unicode="e" horiz-adv-x="546" d="M491 232h-336q12 -169 142 -169q72 0 132 49l42 -61q-79 -63 -176 -63q-115 0 -176.5 74.5t-61.5 200.5q0 122 60 199t163 77q102 0 157.5 -69t55.5 -191q0 -23 -2 -47zM280 466q-115 0 -125 -166h247q-3 166 -122 166z" />
<glyph unicode="f" horiz-adv-x="336" d="M270 750q63 0 126 -27l-29 -67q-45 20 -92 20q-42 0 -60 -18.5t-18 -57.5v-73h128l-10 -71h-118v-456h-92v456h-84v71h84v72q0 68 43.5 109.5t121.5 41.5z" />
<glyph unicode="g" horiz-adv-x="526" d="M193 184q-22 -20 -22 -48q0 -43 57 -43h73q96 0 148 -38t52 -110q0 -79 -68 -118.5t-176 -39.5q-226 0 -226 156v4h83q0 -49 36.5 -68.5t106.5 -19.5q151 0 151 81q0 37 -24 56.5t-88 19.5h-70q-64 0 -102 28t-38 75q0 51 52 89q-83 49 -83 146q0 80 56 132.5t150 52.5 q133 0 238 47l27 -83q-50 -16 -148 -16v-4q84 -39 84 -130q0 -78 -53.5 -128t-145.5 -50q-35 0 -70 9zM149 354q0 -53 29.5 -85.5t82.5 -32.5t81.5 32t28.5 87q0 118 -110 118q-53 0 -82.5 -33t-29.5 -86z" />
<glyph unicode="h" horiz-adv-x="589" d="M190 0h-92v738l92 10v-288q66 79 162 79q143 0 143 -156v-383h-92v377q0 48 -18.5 69t-63.5 21q-73 0 -131 -85v-382z" />
<glyph unicode="i" horiz-adv-x="279" d="M204 710q0 -27 -18.5 -45t-46.5 -18t-46 18t-18 45t18 44.5t46 17.5t46.5 -18t18.5 -44zM185 0h-92v527h92v-527z" />
<glyph unicode="j" horiz-adv-x="279" d="M25 -212l-34 67q39 18 58.5 34t31.5 49t12 88v501h92v-495q0 -74 -19.5 -121t-51 -72t-89.5 -51zM204 710q0 -27 -18.5 -45t-46.5 -18t-46 18t-18 45t18 44.5t46 17.5t46.5 -18t18.5 -44z" />
<glyph unicode="k" horiz-adv-x="515" d="M190 0h-92v739l92 11v-750zM405 0l-209 288l197 239h103l-197 -233l216 -294h-110z" />
<glyph unicode="l" horiz-adv-x="290" d="M247 70l24 -64q-38 -18 -75 -18q-50 0 -79 30.5t-29 95.5v625l92 11v-644q0 -42 33 -42q19 0 34 6z" />
<glyph unicode="m" horiz-adv-x="864" d="M190 0h-92v527h79l7 -72q65 84 156 84q104 0 130 -84q69 84 160 84q140 0 140 -156v-383h-92v371q0 52 -16.5 74t-56.5 22q-35 0 -68.5 -24.5t-56.5 -60.5v-382h-92v378q0 47 -17 68t-56 21q-35 0 -68.5 -24.5t-56.5 -60.5v-382z" />
<glyph unicode="n" horiz-adv-x="589" d="M190 382v-382h-92v527h79l7 -72q67 84 168 84q143 0 143 -156v-383h-92v377q0 48 -18.5 69t-63.5 21q-73 0 -131 -85z" />
<glyph unicode="o" horiz-adv-x="584" d="M428 264q0 201 -135 201q-137 0 -137 -202q0 -201 136 -201t136 202zM57 263q0 125 62.5 200.5t173.5 75.5t172.5 -74t61.5 -201q0 -124 -62.5 -200t-172.5 -76q-111 0 -173 74t-62 201z" />
<glyph unicode="p" horiz-adv-x="592" d="M190 -202l-92 -11v740h79l7 -72q61 84 156 84q195 0 195 -275q0 -124 -54 -200t-153 -76q-88 0 -138 60v-250zM306 63q130 0 130 201q0 202 -119 202q-72 0 -127 -82v-257q42 -64 116 -64z" />
<glyph unicode="q" horiz-adv-x="596" d="M289 466q-64 0 -98.5 -51t-34.5 -152q0 -200 123 -200q76 0 127 79v259q-43 65 -117 65zM498 527v-740l-92 11v266q-56 -76 -148 -76q-102 0 -151.5 72.5t-49.5 202.5q0 122 56.5 199t152.5 77q92 0 146 -68l7 56h79z" />
<glyph unicode="r" horiz-adv-x="384" d="M190 0h-92v527h80l11 -101q46 113 138 113q28 0 52 -6l-17 -90q-24 6 -46 6q-46 0 -78.5 -40t-47.5 -100v-309z" />
<glyph unicode="s" horiz-adv-x="474" d="M223 62q50 0 80.5 21.5t30.5 58.5q0 39 -25.5 59t-103.5 39q-76 19 -116 54.5t-40 96.5q0 66 56 107t141 41q96 0 170 -53l-41 -62q-61 42 -133 42q-43 0 -70.5 -19t-27.5 -50q0 -33 26 -50t96 -36q82 -23 124.5 -57.5t42.5 -104.5q0 -79 -60.5 -120t-147.5 -41 q-120 0 -199 69l51 58q64 -53 146 -53z" />
<glyph unicode="t" horiz-adv-x="367" d="M330 87l35 -63q-48 -36 -118 -36q-71 0 -106.5 41t-35.5 112v316h-84v70h84v119l92 11v-130h133l-11 -70h-122v-315q0 -41 14.5 -59.5t48.5 -18.5q33 0 70 23z" />
<glyph unicode="u" horiz-adv-x="582" d="M93 527h92v-372q0 -51 17.5 -73t60.5 -22q77 0 129 81v386h92v-527h-79l-7 70q-63 -82 -160 -82q-145 0 -145 156v383z" />
<glyph unicode="v" horiz-adv-x="494" d="M483 527l-183 -527h-107l-182 527h98l138 -442h4l137 442h95z" />
<glyph unicode="w" horiz-adv-x="729" d="M708 527l-120 -527h-125l-96 434h-4l-97 -434h-122l-123 527h92l93 -454h4l107 454h103l102 -452h4l94 452h88z" />
<glyph unicode="x" horiz-adv-x="479" d="M239 219h-4l-129 -219h-104l183 278l-162 249h108l108 -189h4l109 189h104l-161 -245l182 -282h-111z" />
<glyph unicode="y" horiz-adv-x="491" d="M480 527l-176 -530q-31 -92 -86.5 -146t-155.5 -64l-13 72q77 13 112 45t55 96h-31l-174 527h98l136 -453h4l136 453h95z" />
<glyph unicode="z" horiz-adv-x="440" d="M405 457l-275 -380h278l-11 -77h-371v69l274 380h-251v78h356v-70z" />
<glyph unicode="{" horiz-adv-x="325" d="M26 313v74q42 0 56 16.5t14 57.5v226q0 83 46 116t141 33v-71q-54 0 -77 -15.5t-23 -52.5v-239q0 -50 -19 -73.5t-56 -32.5v-4q37 -9 56 -32.5t19 -73.5v-239q0 -38 22.5 -53t77.5 -15v-71q-95 0 -141 33t-46 116v225q0 41 -14 58t-56 17z" />
<glyph unicode="|" horiz-adv-x="403" d="M160 -102v909h83v-909h-83z" />
<glyph unicode="}" horiz-adv-x="325" d="M299 387v-74q-42 0 -56 -17t-14 -58v-225q0 -83 -46 -116t-141 -33v71q55 0 77.5 15t22.5 53v239q0 50 19 73.5t56 32.5v4q-37 9 -56 32.5t-19 73.5v239q0 37 -23 52.5t-77 15.5v71q95 0 141 -33t46 -116v-226q0 -41 14 -57.5t56 -16.5z" />
<glyph unicode="~" horiz-adv-x="500" d="M325 250q-34 0 -64 14t-53 28.5t-39 14.5q-38 0 -67 -51l-61 31q47 92 134 92q34 0 64 -14t53 -28t39 -14q38 0 67 50l61 -32q-47 -91 -134 -91z" />
<glyph unicode="&#xa1;" horiz-adv-x="265" d="M202 430q0 -29 -20.5 -49t-49.5 -20t-49 20t-20 49t20 49.5t49 20.5t49.5 -20.5t20.5 -49.5zM93 258h78l14 -456h-105z" />
<glyph unicode="&#xa2;" horiz-adv-x="477" d="M288 66q58 0 115 44l44 -64q-53 -43 -122 -53v-147h-80v148q-94 13 -143 83t-49 184q0 111 50 184.5t143 87.5v151h79v-150q66 -8 122 -52l-45 -60q-55 41 -115 41q-64 0 -99.5 -50.5t-35.5 -151.5q0 -195 136 -195z" />
<glyph unicode="&#xa3;" horiz-adv-x="500" d="M111 493q0 83 50 134.5t139 51.5q112 0 176 -88l-61 -46q-46 59 -111 59q-49 0 -75.5 -28.5t-26.5 -81.5v-117h203v-60h-203v-108q0 -97 -55 -128v-4h314l-11 -77h-421v73q28 9 45.5 21.5t25 31.5t9.5 35t2 44v112h-81v60h81v116z" />
<glyph unicode="&#xa4;" d="M70 610l88 -89q53 33 123 33q71 0 121 -33l88 88l56 -56l-86 -87q36 -54 36 -124q0 -69 -37 -126l87 -86l-56 -56l-89 87q-50 -32 -120 -32q-71 0 -123 32l-88 -88l-56 56l88 88q-35 54 -35 125q0 70 34 123l-87 89zM281 202q61 0 92.5 36.5t31.5 103.5q0 66 -31.5 103 t-92.5 37t-93 -37t-32 -103q0 -67 32 -103.5t93 -36.5z" />
<glyph unicode="&#xa5;" horiz-adv-x="500" d="M62 346h116l-183 323h102l154 -291h4l153 291h97l-184 -323h117v-61h-141v-89h141v-60h-141v-136h-94v136h-141v60h141v89h-141v61z" />
<glyph unicode="&#xa6;" horiz-adv-x="403" d="M160 451v356h83v-356h-83zM160 -102v356h83v-356h-83z" />
<glyph unicode="&#xa7;" horiz-adv-x="500" d="M53 311q0 75 76 124q-52 41 -52 98q0 66 53.5 105t133.5 39q95 0 173 -54l-43 -58q-59 41 -131 41q-43 0 -69 -18t-26 -48q0 -34 24 -54t98 -45q84 -28 120 -61t36 -90q0 -66 -75 -116q53 -40 53 -99q0 -67 -54 -106.5t-141 -39.5q-101 0 -174 55l42 60q61 -43 135 -43 q44 0 72 17t28 48q0 35 -23 53.5t-99 43.5q-85 28 -121 59.5t-36 88.5zM142 323q0 -39 23.5 -55.5t107.5 -45.5q9 -3 14.5 -5t14.5 -5t17 -6q39 37 39 74q0 40 -30 58.5t-148 61.5q-38 -38 -38 -77z" />
<glyph unicode="&#xa8;" horiz-adv-x="385" d="M88 654q-25 0 -41.5 16.5t-16.5 40.5t16.5 40.5t41.5 16.5q24 0 40.5 -16.5t16.5 -40.5t-16.5 -40.5t-40.5 -16.5zM297 654q-24 0 -40.5 16.5t-16.5 40.5t16.5 40.5t40.5 16.5q25 0 41.5 -16.5t16.5 -40.5t-16.5 -40.5t-41.5 -16.5z" />
<glyph unicode="&#xa9;" horiz-adv-x="800" d="M404 308q47 0 84 34l34 -50q-53 -47 -121 -47q-74 0 -119 50t-45 140q0 89 47 139.5t116 50.5q65 0 117 -40l-37 -49q-36 29 -76 29q-41 0 -66 -32t-25 -98q0 -63 24.5 -95t66.5 -32zM401 174q107 0 179.5 75.5t72.5 184.5q0 110 -72.5 186t-179.5 76q-108 0 -180.5 -76 t-72.5 -186q0 -109 72.5 -184.5t180.5 -75.5zM401 121q-130 0 -222 91.5t-92 221.5t91.5 222t222.5 92q130 0 221 -91.5t91 -222.5q0 -130 -91 -221.5t-221 -91.5z" />
<glyph unicode="&#xaa;" horiz-adv-x="600" d="M452 609v-194q0 -39 33 -50l-20 -58q-65 8 -86 59q-51 -59 -129 -59q-68 0 -107.5 36.5t-39.5 96.5q0 67 55 102.5t157 35.5h53v28q0 41 -22.5 58.5t-69.5 17.5q-48 0 -116 -24l-24 62q80 30 152 30q164 0 164 -141zM271 370q57 0 97 55v94h-50q-124 0 -124 -75 q0 -74 77 -74zM493 0h-385v79h385v-79z" />
<glyph unicode="&#xab;" horiz-adv-x="551" d="M152 293l133 -207l-55 -35l-175 209v65l175 210l55 -35zM363 293l133 -207l-55 -35l-176 209v65l176 210l55 -35z" />
<glyph unicode="&#xac;" horiz-adv-x="500" d="M438 351v-220h-83v143h-293v77h376z" />
<glyph unicode="&#xad;" horiz-adv-x="405" d="M344 274h-283v78h283v-78z" />
<glyph unicode="&#xae;" horiz-adv-x="646" d="M323 236q-107 0 -181.5 74.5t-74.5 180.5q0 107 75 182t181 75t180.5 -75t74.5 -182t-74 -181t-181 -74zM323 285q86 0 143 59.5t57 146.5t-57.5 147.5t-142.5 60.5q-86 0 -143.5 -60.5t-57.5 -147.5t57.5 -146.5t143.5 -59.5zM432 551q0 -60 -66 -79l85 -118h-68 l-74 108h-28v-108h-58v282h85q124 0 124 -85zM372 551q0 40 -62 40h-29v-84h31q60 0 60 44z" />
<glyph unicode="&#xaf;" horiz-adv-x="333" d="M303 751v-69h-273v69h273z" />
<glyph unicode="&#xb0;" horiz-adv-x="500" d="M219 447q37 0 62 24.5t25 70.5t-25 71t-62 25t-62 -24.5t-25 -70.5t25.5 -71t61.5 -25zM219 385q-66 0 -115 43t-49 115t49 115t115 43q67 0 115.5 -43.5t48.5 -115.5t-48.5 -114.5t-115.5 -42.5z" />
<glyph unicode="&#xb1;" horiz-adv-x="500" d="M438 274h-145v-124h-86v124h-145v76h145v150h86v-150h145v-76zM438 0h-376v76h376v-76z" />
<glyph unicode="&#xb2;" horiz-adv-x="400" d="M333 624q0 -52 -42 -107.5t-136 -135.5h188l-9 -63h-278v55q115 105 155.5 156t40.5 93q0 28 -17.5 44t-45.5 16q-47 0 -86 -47l-53 40q61 70 143 70q64 0 102 -34t38 -87z" />
<glyph unicode="&#xb3;" horiz-adv-x="400" d="M344 444q0 -57 -45 -94.5t-117 -37.5q-89 0 -145 63l49 43q38 -44 94 -44q39 0 61.5 19t22.5 51q0 66 -79 66h-37l8 60h25q31 0 51 14.5t20 43.5q0 27 -19 41.5t-49 14.5q-51 0 -94 -40l-41 46q64 55 138 55q66 0 104.5 -31t38.5 -78q0 -30 -20.5 -54.5t-56.5 -33.5v-3 q37 -5 64 -34t27 -67z" />
<glyph unicode="&#xb4;" horiz-adv-x="297" d="M58 638l-28 49l190 112l47 -77z" />
<glyph unicode="&#xb5;" horiz-adv-x="588" d="M98 527h92v-296q0 -37 1 -57.5t5 -44t12.5 -35t23.5 -19.5t38 -8q75 0 128 77v383h92v-357q0 -79 26 -170l-86 -12q-17 30 -23 84q-22 -38 -59 -61t-74 -23q-62 0 -92 42l-4 -1q11 -51 11 -85v-146l-91 -11v740z" />
<glyph unicode="&#xb6;" horiz-adv-x="734" d="M609 -202l-83 -11v828h-109v-817l-83 -11v499q-117 1 -180.5 57t-63.5 143q0 89 66.5 146t187.5 57h265v-891z" />
<glyph unicode="&#xb7;" horiz-adv-x="265" d="M63 338q0 29 20 49t49 20q30 0 50 -20t20 -49t-20 -49.5t-50 -20.5q-29 0 -49 20.5t-20 49.5z" />
<glyph unicode="&#xb8;" horiz-adv-x="291" d="M184 -141q0 25 -21.5 33.5t-65.5 8.5l9 115h61v-72q47 -4 70.5 -28t23.5 -57q0 -47 -36 -73.5t-89 -26.5q-63 0 -106 25l28 51q30 -16 67 -16q59 0 59 40z" />
<glyph unicode="&#xb9;" horiz-adv-x="400" d="M272 318h-75v336l-94 -51l-37 52l145 84h61v-421z" />
<glyph unicode="&#xba;" horiz-adv-x="600" d="M410 529q0 153 -110 153q-111 0 -111 -153q0 -154 111 -154q110 0 110 154zM99 529q0 99 54 160t147 61q94 0 147 -60t53 -161q0 -100 -53.5 -161t-146.5 -61q-94 0 -147.5 60.5t-53.5 161.5zM493 0h-385v79h385v-79z" />
<glyph unicode="&#xbb;" horiz-adv-x="551" d="M55 86l133 207l-133 207l55 35l175 -210v-65l-175 -209zM265 86l133 207l-133 207l55 35l176 -210v-65l-176 -209z" />
<glyph unicode="&#xbc;" horiz-adv-x="920" d="M272 278h-75v336l-94 -51l-37 52l145 84h61v-421zM693 721l-404 -800l-62 30l405 800zM869 96h-54v-96h-76v96h-179v50l134 285l65 -26l-113 -248h93l7 105h69v-105h54v-61z" />
<glyph unicode="&#xbd;" horiz-adv-x="920" d="M272 278h-75v336l-94 -51l-37 52l145 84h61v-421zM693 721l-404 -800l-62 30l405 800zM858 306q0 -52 -42 -107.5t-136 -135.5h188l-9 -63h-278v55q115 105 155.5 156t40.5 93q0 28 -17.5 44t-45.5 16q-47 0 -86 -47l-53 40q61 70 143 70q64 0 102 -34t38 -87z" />
<glyph unicode="&#xbe;" horiz-adv-x="920" d="M344 404q0 -57 -45 -94.5t-117 -37.5q-89 0 -145 63l49 43q38 -44 94 -44q39 0 61.5 19t22.5 51q0 66 -79 66h-37l8 60h25q31 0 51 14.5t20 43.5q0 27 -19 41.5t-49 14.5q-51 0 -94 -40l-41 46q64 55 138 55q66 0 104.5 -31t38.5 -78q0 -30 -20.5 -54.5t-56.5 -33.5v-3 q37 -5 64 -34t27 -67zM693 721l-404 -800l-62 30l405 800zM869 96h-54v-96h-76v96h-179v50l134 285l65 -26l-113 -248h93l7 105h69v-105h54v-61z" />
<glyph unicode="&#xbf;" horiz-adv-x="507" d="M246 225v33h91v-38q0 -45 -18 -79.5t-44 -55.5t-52 -39.5t-44 -42.5t-18 -54q0 -41 27.5 -63.5t75.5 -22.5q78 0 137 72l64 -49q-86 -99 -209 -99q-90 0 -140.5 46t-50.5 110q0 44 18.5 76t45 52t53.5 38.5t45.5 47.5t18.5 68zM358 430q0 -29 -20.5 -49t-49.5 -20t-49 20 t-20 49t20 49.5t49 20.5t49.5 -20.5t20.5 -49.5z" />
<glyph unicode="&#xc0;" horiz-adv-x="579" d="M473 0l-53 173h-265l-53 -173h-96l224 689h120l223 -689h-100zM286 603l-108 -353h219l-107 353h-4zM404 799l-27 -49l-209 82l48 77z" />
<glyph unicode="&#xc1;" horiz-adv-x="579" d="M473 0l-53 173h-265l-53 -173h-96l224 689h120l223 -689h-100zM286 603l-108 -353h219l-107 353h-4zM200 752l-28 49l189 109l47 -77z" />
<glyph unicode="&#xc2;" horiz-adv-x="579" d="M473 0l-53 173h-265l-53 -173h-96l224 689h120l223 -689h-100zM286 603l-108 -353h219l-107 353h-4zM289 835l-126 -81l-40 45l136 111h61l135 -111l-39 -45z" />
<glyph unicode="&#xc3;" horiz-adv-x="579" d="M473 0l-53 173h-265l-53 -173h-96l224 689h120l223 -689h-100zM286 603l-108 -353h219l-107 353h-4zM342 768q-32 0 -65 24t-45 24q-16 0 -27 -10t-24 -34l-57 25q38 89 113 89q34 0 66 -24t44 -24q16 0 27 10t24 33l57 -25q-39 -88 -113 -88z" />
<glyph unicode="&#xc4;" horiz-adv-x="579" d="M473 0l-53 173h-265l-53 -173h-96l224 689h120l223 -689h-100zM286 603l-108 -353h219l-107 353h-4zM184 764q-24 0 -40.5 16t-16.5 41q0 24 16.5 40t40.5 16q25 0 41.5 -16t16.5 -40q0 -25 -16.5 -41t-41.5 -16zM394 764q-25 0 -41.5 16t-16.5 41q0 24 16.5 40t41.5 16 q24 0 41 -16t17 -40t-17 -40.5t-41 -16.5z" />
<glyph unicode="&#xc5;" horiz-adv-x="579" d="M473 0l-53 173h-265l-53 -173h-96l224 689h120l223 -689h-100zM286 603l-108 -353h219l-107 353h-4zM235 840q0 -26 14.5 -41.5t39.5 -15.5q24 0 38.5 15.5t14.5 41.5t-14.5 41t-38.5 15q-25 0 -39.5 -15t-14.5 -41zM403 840q0 -45 -32 -75.5t-82 -30.5t-82 30.5 t-32 75.5q0 44 32 74.5t82 30.5t82 -30.5t32 -74.5z" />
<glyph unicode="&#xc6;" horiz-adv-x="794" d="M458 0l-41 173h-267l-65 -173h-97l274 689h459l-11 -75h-309l56 -227h255v-75h-235l58 -237h227v-75h-304zM313 605l-135 -355h222l-82 355h-5z" />
<glyph unicode="&#xc7;" horiz-adv-x="571" d="M374 -141q0 25 -21.5 33.5t-65.5 8.5l7 92q-106 19 -169 110.5t-63 241.5q0 167 82 261.5t204 94.5q63 0 107 -16.5t87 -51.5l-52 -61q-61 51 -136 51q-85 0 -138 -66.5t-53 -211.5q0 -142 52 -209.5t138 -67.5q83 0 150 59l49 -62q-78 -74 -195 -77v-44q47 -4 70.5 -28 t23.5 -57q0 -47 -36 -73.5t-89 -26.5q-63 0 -106 25l28 51q30 -16 66 -16q60 0 60 40z" />
<glyph unicode="&#xc8;" horiz-adv-x="540" d="M467 613h-267v-225h232v-76h-232v-236h286v-76h-381v689h373zM409 799l-27 -49l-209 82l48 77z" />
<glyph unicode="&#xc9;" horiz-adv-x="540" d="M467 613h-267v-225h232v-76h-232v-236h286v-76h-381v689h373zM212 750l-28 49l189 109l47 -77z" />
<glyph unicode="&#xca;" horiz-adv-x="540" d="M467 613h-267v-225h232v-76h-232v-236h286v-76h-381v689h373zM288 835l-126 -81l-40 45l136 111h61l135 -111l-39 -45z" />
<glyph unicode="&#xcb;" horiz-adv-x="540" d="M467 613h-267v-225h232v-76h-232v-236h286v-76h-381v689h373zM183 764q-24 0 -40.5 16t-16.5 41q0 24 16.5 40t40.5 16q25 0 41.5 -16t16.5 -40q0 -25 -16.5 -41t-41.5 -16zM393 764q-25 0 -41.5 16t-16.5 41q0 24 16.5 40t41.5 16q24 0 41 -16t17 -40t-17 -40.5 t-41 -16.5z" />
<glyph unicode="&#xcc;" horiz-adv-x="306" d="M201 0h-96v689h96v-689zM271 799l-27 -49l-209 82l48 77z" />
<glyph unicode="&#xcd;" horiz-adv-x="306" d="M201 0h-96v689h96v-689zM63 750l-28 49l189 109l47 -77z" />
<glyph unicode="&#xce;" horiz-adv-x="306" d="M201 0h-96v689h96v-689zM153 835l-126 -81l-40 45l136 111h61l135 -111l-39 -45z" />
<glyph unicode="&#xcf;" horiz-adv-x="306" d="M201 0h-96v689h96v-689zM48 764q-24 0 -40.5 16t-16.5 41q0 24 16.5 40t40.5 16q25 0 41.5 -16t16.5 -40q0 -25 -16.5 -41t-41.5 -16zM258 764q-25 0 -41.5 16t-16.5 41q0 24 16.5 40t41.5 16q24 0 41 -16t17 -40t-17 -40.5t-41 -16.5z" />
<glyph unicode="&#xd0;" horiz-adv-x="656" d="M594 348q0 -82 -20 -145t-51 -101t-75 -61.5t-86.5 -32t-91.5 -8.5h-165v318h-82v70h82v301h154q54 0 99 -7.5t90.5 -30t76 -59.5t50 -99t19.5 -145zM493 348q0 67 -13.5 117t-33.5 77.5t-49.5 44t-56.5 21.5t-60 5h-80v-225h172v-70h-172v-243h81q42 0 76.5 12 t66.5 40.5t50.5 84.5t18.5 136z" />
<glyph unicode="&#xd1;" horiz-adv-x="689" d="M584 0h-129l-270 583h-4q13 -104 13 -247v-336h-89v689h126l273 -586h4q-13 104 -13 250v336h89v-689zM394 768q-32 0 -65 24t-45 24q-16 0 -27 -10t-24 -34l-57 25q38 89 113 89q34 0 66 -24t44 -24q16 0 27 10t24 33l57 -25q-39 -88 -113 -88z" />
<glyph unicode="&#xd2;" horiz-adv-x="696" d="M634 344q0 -169 -78 -262.5t-208 -93.5t-208 92t-78 263q0 169 78.5 263.5t207.5 94.5q130 0 208 -93t78 -264zM533 344q0 279 -185 279t-185 -280q0 -277 185 -277t185 278zM463 799l-27 -49l-209 82l48 77z" />
<glyph unicode="&#xd3;" horiz-adv-x="696" d="M634 344q0 -169 -78 -262.5t-208 -93.5t-208 92t-78 263q0 169 78.5 263.5t207.5 94.5q130 0 208 -93t78 -264zM533 344q0 279 -185 279t-185 -280q0 -277 185 -277t185 278zM260 750l-28 49l189 109l47 -77z" />
<glyph unicode="&#xd4;" horiz-adv-x="696" d="M634 344q0 -169 -78 -262.5t-208 -93.5t-208 92t-78 263q0 169 78.5 263.5t207.5 94.5q130 0 208 -93t78 -264zM533 344q0 279 -185 279t-185 -280q0 -277 185 -277t185 278zM348 835l-126 -81l-40 45l136 111h61l135 -111l-39 -45z" />
<glyph unicode="&#xd5;" horiz-adv-x="696" d="M634 344q0 -169 -78 -262.5t-208 -93.5t-208 92t-78 263q0 169 78.5 263.5t207.5 94.5q130 0 208 -93t78 -264zM533 344q0 279 -185 279t-185 -280q0 -277 185 -277t185 278zM401 768q-32 0 -65 24t-45 24q-16 0 -27 -10t-24 -34l-57 25q38 89 113 89q34 0 66 -24t44 -24 q16 0 27 10t24 33l57 -25q-39 -88 -113 -88z" />
<glyph unicode="&#xd6;" horiz-adv-x="696" d="M634 344q0 -169 -78 -262.5t-208 -93.5t-208 92t-78 263q0 169 78.5 263.5t207.5 94.5q130 0 208 -93t78 -264zM533 344q0 279 -185 279t-185 -280q0 -277 185 -277t185 278zM243 764q-24 0 -40.5 16t-16.5 41q0 24 16.5 40t40.5 16q25 0 41.5 -16t16.5 -40 q0 -25 -16.5 -41t-41.5 -16zM453 764q-25 0 -41.5 16t-16.5 41q0 24 16.5 40t41.5 16q24 0 41 -16t17 -40t-17 -40.5t-41 -16.5z" />
<glyph unicode="&#xd7;" horiz-adv-x="500" d="M76 179l118 118l-118 118l56 57l118 -119l118 119l56 -57l-118 -118l118 -118l-56 -56l-118 118l-118 -118z" />
<glyph unicode="&#xd8;" horiz-adv-x="696" d="M533 344q0 190 -81 248l-151 -521q17 -5 47 -5q185 0 185 278zM163 343q0 -188 81 -247l151 522q-27 5 -47 5q-185 0 -185 -280zM634 344q0 -169 -78 -262.5t-208 -93.5q-35 0 -63 7l-37 -126l-79 21l41 132q-70 39 -109 120.5t-39 200.5q0 169 78.5 263.5t207.5 94.5 q28 0 63 -7l37 125l79 -21l-41 -132q70 -39 109 -121.5t39 -200.5z" />
<glyph unicode="&#xd9;" horiz-adv-x="672" d="M577 689v-465q0 -107 -64 -171.5t-178 -64.5q-115 0 -177.5 64t-62.5 172v465h95v-461q0 -160 145 -160q146 0 146 160v461h96zM443 799l-27 -49l-209 82l48 77z" />
<glyph unicode="&#xda;" horiz-adv-x="672" d="M577 689v-465q0 -107 -64 -171.5t-178 -64.5q-115 0 -177.5 64t-62.5 172v465h95v-461q0 -160 145 -160q146 0 146 160v461h96zM255 750l-28 49l189 109l47 -77z" />
<glyph unicode="&#xdb;" horiz-adv-x="672" d="M577 689v-465q0 -107 -64 -171.5t-178 -64.5q-115 0 -177.5 64t-62.5 172v465h95v-461q0 -160 145 -160q146 0 146 160v461h96zM336 835l-126 -81l-40 45l136 111h61l135 -111l-39 -45z" />
<glyph unicode="&#xdc;" horiz-adv-x="672" d="M577 689v-465q0 -107 -64 -171.5t-178 -64.5q-115 0 -177.5 64t-62.5 172v465h95v-461q0 -160 145 -160q146 0 146 160v461h96zM230 764q-24 0 -40.5 16t-16.5 41q0 24 16.5 40t40.5 16q25 0 41.5 -16t16.5 -40q0 -25 -16.5 -41t-41.5 -16zM440 764q-25 0 -41.5 16 t-16.5 41q0 24 16.5 40t41.5 16q24 0 41 -16t17 -40t-17 -40.5t-41 -16.5z" />
<glyph unicode="&#xdd;" horiz-adv-x="550" d="M545 689l-222 -424v-265h-96v264l-222 425h105l166 -337h4l166 337h99zM195 750l-28 49l189 109l47 -77z" />
<glyph unicode="&#xde;" horiz-adv-x="590" d="M461 353q0 146 -157 146h-104v-297h105q75 0 115.5 34t40.5 117zM561 355q0 -116 -71 -172t-194 -56h-96v-127h-95v689h95v-116h94q129 0 198 -54t69 -164z" />
<glyph unicode="&#xdf;" horiz-adv-x="595" d="M98 0v533q0 105 53.5 161t150.5 56q79 0 128 -40.5t49 -104.5q0 -33 -17.5 -59.5t-38 -41.5t-38 -35t-17.5 -40q0 -23 20.5 -43.5t49.5 -38t58 -39t49.5 -58t20.5 -83.5q0 -84 -54 -131.5t-134 -47.5q-75 0 -129 34l36 63q39 -23 84 -23q49 0 76 25.5t27 75.5 q0 35 -20 61.5t-48 45t-56.5 37t-48.5 46.5t-20 64q0 26 11.5 47.5t28 36t33 28t28 31t11.5 37.5q0 32 -21.5 56.5t-68.5 24.5q-56 0 -83.5 -33t-27.5 -106v-539h-92z" />
<glyph unicode="&#xe0;" horiz-adv-x="546" d="M453 367v-248q0 -30 9 -44.5t30 -22.5l-22 -64q-75 10 -97 74q-55 -74 -157 -74q-79 0 -125 44.5t-46 118.5q0 82 64 126t184 44h68v41q0 55 -27.5 78.5t-86.5 23.5q-61 0 -138 -27l-24 68q92 34 176 34q192 0 192 -172zM241 57q72 0 120 73v130h-63q-152 0 -152 -105 q0 -98 95 -98zM382 672l-29 -50l-206 93l47 77z" />
<glyph unicode="&#xe1;" horiz-adv-x="546" d="M453 367v-248q0 -30 9 -44.5t30 -22.5l-22 -64q-75 10 -97 74q-55 -74 -157 -74q-79 0 -125 44.5t-46 118.5q0 82 64 126t184 44h68v41q0 55 -27.5 78.5t-86.5 23.5q-61 0 -138 -27l-24 68q92 34 176 34q192 0 192 -172zM241 57q72 0 120 73v130h-63q-152 0 -152 -105 q0 -98 95 -98zM177 622l-30 50l188 119l47 -77z" />
<glyph unicode="&#xe2;" horiz-adv-x="546" d="M453 367v-248q0 -30 9 -44.5t30 -22.5l-22 -64q-75 10 -97 74q-55 -74 -157 -74q-79 0 -125 44.5t-46 118.5q0 82 64 126t184 44h68v41q0 55 -27.5 78.5t-86.5 23.5q-61 0 -138 -27l-24 68q92 34 176 34q192 0 192 -172zM241 57q72 0 120 73v130h-63q-152 0 -152 -105 q0 -98 95 -98zM265 718l-125 -91l-42 44l136 121h61l135 -121l-40 -44z" />
<glyph unicode="&#xe3;" horiz-adv-x="546" d="M453 367v-248q0 -30 9 -44.5t30 -22.5l-22 -64q-75 10 -97 74q-55 -74 -157 -74q-79 0 -125 44.5t-46 118.5q0 82 64 126t184 44h68v41q0 55 -27.5 78.5t-86.5 23.5q-61 0 -138 -27l-24 68q92 34 176 34q192 0 192 -172zM241 57q72 0 120 73v130h-63q-152 0 -152 -105 q0 -98 95 -98zM318 650q-32 0 -65 24t-45 24q-26 0 -51 -44l-57 26q37 88 113 88q34 0 66 -24t44 -24q26 0 51 44l57 -25q-38 -89 -113 -89z" />
<glyph unicode="&#xe4;" horiz-adv-x="546" d="M453 367v-248q0 -30 9 -44.5t30 -22.5l-22 -64q-75 10 -97 74q-55 -74 -157 -74q-79 0 -125 44.5t-46 118.5q0 82 64 126t184 44h68v41q0 55 -27.5 78.5t-86.5 23.5q-61 0 -138 -27l-24 68q92 34 176 34q192 0 192 -172zM241 57q72 0 120 73v130h-63q-152 0 -152 -105 q0 -98 95 -98zM164 647q-25 0 -41.5 16t-16.5 40q0 25 16.5 41t41.5 16q24 0 40.5 -16t16.5 -41q0 -24 -16.5 -40t-40.5 -16zM373 647q-24 0 -40.5 16t-16.5 40q0 25 16.5 41t40.5 16q25 0 41.5 -16t16.5 -41q0 -24 -16.5 -40t-41.5 -16z" />
<glyph unicode="&#xe5;" horiz-adv-x="546" d="M453 367v-248q0 -30 9 -44.5t30 -22.5l-22 -64q-75 10 -97 74q-55 -74 -157 -74q-79 0 -125 44.5t-46 118.5q0 82 64 126t184 44h68v41q0 55 -27.5 78.5t-86.5 23.5q-61 0 -138 -27l-24 68q92 34 176 34q192 0 192 -172zM241 57q72 0 120 73v130h-63q-152 0 -152 -105 q0 -98 95 -98zM212 722q0 -26 14.5 -41t38.5 -15q25 0 39 15t14 41t-14 41t-39 15q-24 0 -38.5 -15t-14.5 -41zM379 722q0 -44 -32 -74.5t-82 -30.5t-82 30.5t-32 74.5q0 45 32 75.5t82 30.5t82 -30.5t32 -75.5z" />
<glyph unicode="&#xe6;" horiz-adv-x="840" d="M419 453q54 86 155 86q102 0 157.5 -69t55.5 -191q0 -23 -2 -47h-336q12 -169 142 -169q72 0 132 49l42 -61q-79 -63 -176 -63q-120 0 -181 90q-65 -90 -186 -90q-84 0 -130.5 44t-46.5 119q0 82 64 126t184 44h69v41q0 54 -28 78t-87 24q-61 0 -138 -27l-24 68 q92 34 176 34q123 0 158 -86zM241 57q83 0 135 93q-14 45 -14 110h-64q-153 0 -153 -104q0 -99 96 -99zM574 466q-115 0 -125 -166h247q-3 166 -122 166z" />
<glyph unicode="&#xe7;" horiz-adv-x="476" d="M324 -141q0 25 -21.5 33.5t-65.5 8.5l7 91q-92 15 -139.5 85.5t-47.5 183.5q0 124 61.5 201t174.5 77q91 0 159 -57l-45 -60q-55 41 -114 41q-65 0 -101 -50.5t-36 -151.5q0 -195 137 -195q57 0 115 43l44 -63q-63 -52 -145 -57v-45q47 -4 70.5 -28t23.5 -57 q0 -47 -36 -73.5t-89 -26.5q-63 0 -106 25l28 51q30 -16 67 -16q59 0 59 40z" />
<glyph unicode="&#xe8;" horiz-adv-x="546" d="M491 232h-336q12 -169 142 -169q72 0 132 49l42 -61q-79 -63 -176 -63q-115 0 -176.5 74.5t-61.5 200.5q0 122 60 199t163 77q102 0 157.5 -69t55.5 -191q0 -23 -2 -47zM280 466q-115 0 -125 -166h247q-3 166 -122 166zM398 672l-29 -50l-206 93l47 77z" />
<glyph unicode="&#xe9;" horiz-adv-x="546" d="M491 232h-336q12 -169 142 -169q72 0 132 49l42 -61q-79 -63 -176 -63q-115 0 -176.5 74.5t-61.5 200.5q0 122 60 199t163 77q102 0 157.5 -69t55.5 -191q0 -23 -2 -47zM280 466q-115 0 -125 -166h247q-3 166 -122 166zM193 622l-30 50l188 119l47 -77z" />
<glyph unicode="&#xea;" horiz-adv-x="546" d="M491 232h-336q12 -169 142 -169q72 0 132 49l42 -61q-79 -63 -176 -63q-115 0 -176.5 74.5t-61.5 200.5q0 122 60 199t163 77q102 0 157.5 -69t55.5 -191q0 -23 -2 -47zM280 466q-115 0 -125 -166h247q-3 166 -122 166zM282 718l-125 -91l-42 44l136 121h61l135 -121 l-40 -44z" />
<glyph unicode="&#xeb;" horiz-adv-x="546" d="M491 232h-336q12 -169 142 -169q72 0 132 49l42 -61q-79 -63 -176 -63q-115 0 -176.5 74.5t-61.5 200.5q0 122 60 199t163 77q102 0 157.5 -69t55.5 -191q0 -23 -2 -47zM280 466q-115 0 -125 -166h247q-3 166 -122 166zM176 647q-25 0 -41.5 16t-16.5 40q0 25 16.5 41 t41.5 16q24 0 40.5 -16t16.5 -41q0 -24 -16.5 -40t-40.5 -16zM385 647q-24 0 -40.5 16t-16.5 40q0 25 16.5 41t40.5 16q25 0 41.5 -16t16.5 -41q0 -24 -16.5 -40t-41.5 -16z" />
<glyph unicode="&#xec;" horiz-adv-x="279" d="M185 0h-92v527h92v-527zM254 672l-29 -50l-206 93l47 77z" />
<glyph unicode="&#xed;" horiz-adv-x="279" d="M185 0h-92v527h92v-527zM53 622l-30 50l188 119l47 -77z" />
<glyph unicode="&#xee;" horiz-adv-x="279" d="M140 718l-125 -91l-42 44l136 121h61l135 -121l-40 -44zM185 0h-92v527h92v-527z" />
<glyph unicode="&#xef;" horiz-adv-x="279" d="M35 647q-25 0 -41.5 16t-16.5 40q0 25 16.5 41t41.5 16q24 0 40.5 -16t16.5 -41q0 -24 -16.5 -40t-40.5 -16zM244 647q-24 0 -40.5 16t-16.5 40q0 25 16.5 41t40.5 16q25 0 41.5 -16t16.5 -41q0 -24 -16.5 -40t-41.5 -16zM185 0h-92v527h92v-527z" />
<glyph unicode="&#xf0;" horiz-adv-x="566" d="M212 531l-64 32l78 82q-44 21 -109 35l20 70q89 -20 144 -48l70 74l54 -47l-61 -63q86 -60 125 -158t39 -243q0 -125 -63.5 -201t-166.5 -76q-96 0 -158.5 66t-62.5 181q0 108 59 177t142 69q90 0 141 -61l3 1q-25 119 -114 188zM415 266q0 34 -3 66q-51 77 -140 77 q-52 0 -86.5 -43t-34.5 -127q0 -86 34 -132t92 -46q63 0 100.5 53t37.5 152z" />
<glyph unicode="&#xf1;" horiz-adv-x="589" d="M190 382v-382h-92v527h79l7 -72q67 84 168 84q143 0 143 -156v-383h-92v377q0 48 -18.5 69t-63.5 21q-73 0 -131 -85zM354 650q-32 0 -65 24t-45 24q-26 0 -51 -44l-57 26q37 88 113 88q34 0 66 -24t44 -24q26 0 51 44l57 -25q-38 -89 -113 -89z" />
<glyph unicode="&#xf2;" horiz-adv-x="584" d="M428 264q0 201 -135 201q-137 0 -137 -202q0 -201 136 -201t136 202zM57 263q0 125 62.5 200.5t173.5 75.5t172.5 -74t61.5 -201q0 -124 -62.5 -200t-172.5 -76q-111 0 -173 74t-62 201zM407 672l-29 -50l-206 93l47 77z" />
<glyph unicode="&#xf3;" horiz-adv-x="584" d="M428 264q0 201 -135 201q-137 0 -137 -202q0 -201 136 -201t136 202zM57 263q0 125 62.5 200.5t173.5 75.5t172.5 -74t61.5 -201q0 -124 -62.5 -200t-172.5 -76q-111 0 -173 74t-62 201zM206 622l-30 50l188 119l47 -77z" />
<glyph unicode="&#xf4;" horiz-adv-x="584" d="M428 264q0 201 -135 201q-137 0 -137 -202q0 -201 136 -201t136 202zM57 263q0 125 62.5 200.5t173.5 75.5t172.5 -74t61.5 -201q0 -124 -62.5 -200t-172.5 -76q-111 0 -173 74t-62 201zM292 718l-125 -91l-42 44l136 121h61l135 -121l-40 -44z" />
<glyph unicode="&#xf5;" horiz-adv-x="584" d="M345 650q-32 0 -65 24t-45 24q-26 0 -51 -44l-57 26q37 88 113 88q34 0 66 -24t44 -24q26 0 51 44l57 -25q-38 -89 -113 -89zM428 264q0 201 -135 201q-137 0 -137 -202q0 -201 136 -201t136 202zM57 263q0 125 62.5 200.5t173.5 75.5t172.5 -74t61.5 -201 q0 -124 -62.5 -200t-172.5 -76q-111 0 -173 74t-62 201z" />
<glyph unicode="&#xf6;" horiz-adv-x="584" d="M188 647q-25 0 -41.5 16t-16.5 40q0 25 16.5 41t41.5 16q24 0 40.5 -16t16.5 -41q0 -24 -16.5 -40t-40.5 -16zM397 647q-24 0 -40.5 16t-16.5 40q0 25 16.5 41t40.5 16q25 0 41.5 -16t16.5 -41q0 -24 -16.5 -40t-41.5 -16zM428 264q0 201 -135 201q-137 0 -137 -202 q0 -201 136 -201t136 202zM57 263q0 125 62.5 200.5t173.5 75.5t172.5 -74t61.5 -201q0 -124 -62.5 -200t-172.5 -76q-111 0 -173 74t-62 201z" />
<glyph unicode="&#xf7;" horiz-adv-x="500" d="M438 274h-376v77h376v-77zM180 115q0 29 20.5 49t49.5 20t49.5 -20t20.5 -49t-20.5 -49.5t-49.5 -20.5t-49.5 20.5t-20.5 49.5zM180 511q0 29 20.5 49t49.5 20t49.5 -20t20.5 -49t-20.5 -49t-49.5 -20t-49.5 20t-20.5 49z" />
<glyph unicode="&#xf8;" horiz-adv-x="584" d="M57 263q0 125 62.5 200.5t173.5 75.5q22 0 47 -5l38 121l75 -22l-41 -125q55 -32 85 -95.5t30 -148.5q0 -124 -62.5 -200t-172.5 -76q-28 0 -47 5l-38 -124l-75 22l41 126q-56 32 -86 95.5t-30 150.5zM156 263q0 -130 53 -174l116 373q-20 2 -32 2q-137 0 -137 -201z M428 264q0 128 -52 172l-115 -371q15 -3 31 -3q136 0 136 202z" />
<glyph unicode="&#xf9;" horiz-adv-x="582" d="M93 527h92v-372q0 -51 17.5 -73t60.5 -22q77 0 129 81v386h92v-527h-79l-7 70q-63 -82 -160 -82q-145 0 -145 156v383zM399 672l-29 -50l-206 93l47 77z" />
<glyph unicode="&#xfa;" horiz-adv-x="582" d="M93 527h92v-372q0 -51 17.5 -73t60.5 -22q77 0 129 81v386h92v-527h-79l-7 70q-63 -82 -160 -82q-145 0 -145 156v383zM219 622l-30 50l188 119l47 -77z" />
<glyph unicode="&#xfb;" horiz-adv-x="582" d="M93 527h92v-372q0 -51 17.5 -73t60.5 -22q77 0 129 81v386h92v-527h-79l-7 70q-63 -82 -160 -82q-145 0 -145 156v383zM290 718l-125 -91l-42 44l136 121h61l135 -121l-40 -44z" />
<glyph unicode="&#xfc;" horiz-adv-x="582" d="M93 527h92v-372q0 -51 17.5 -73t60.5 -22q77 0 129 81v386h92v-527h-79l-7 70q-63 -82 -160 -82q-145 0 -145 156v383zM185 647q-25 0 -41.5 16t-16.5 40q0 25 16.5 41t41.5 16q24 0 40.5 -16t16.5 -41q0 -24 -16.5 -40t-40.5 -16zM394 647q-24 0 -40.5 16t-16.5 40 q0 25 16.5 41t40.5 16q25 0 41.5 -16t16.5 -41q0 -24 -16.5 -40t-41.5 -16z" />
<glyph unicode="&#xfd;" horiz-adv-x="491" d="M480 527l-176 -530q-31 -92 -86.5 -146t-155.5 -64l-13 72q77 13 112 45t55 96h-31l-174 527h98l136 -453h4l136 453h95zM176 622l-30 50l188 119l47 -77z" />
<glyph unicode="&#xfe;" horiz-adv-x="592" d="M98 -213v952l92 11v-290q60 79 149 79q196 0 196 -275q0 -124 -54.5 -200t-153.5 -76q-87 0 -137 60v-250zM317 466q-72 0 -127 -82v-257q42 -64 115 -64q131 0 131 201q0 202 -119 202z" />
<glyph unicode="&#xff;" horiz-adv-x="491" d="M480 527l-176 -530q-31 -92 -86.5 -146t-155.5 -64l-13 72q77 13 112 45t55 96h-31l-174 527h98l136 -453h4l136 453h95zM143 647q-25 0 -41.5 16t-16.5 40q0 25 16.5 41t41.5 16q24 0 40.5 -16t16.5 -41q0 -24 -16.5 -40t-40.5 -16zM352 647q-24 0 -40.5 16t-16.5 40 q0 25 16.5 41t40.5 16q25 0 41.5 -16t16.5 -41q0 -24 -16.5 -40t-41.5 -16z" />
<glyph unicode="&#x100;" horiz-adv-x="579" d="M473 0l-53 173h-265l-53 -173h-96l224 689h120l223 -689h-100zM286 603l-108 -353h219l-107 353h-4zM426 861v-70h-273v70h273z" />
<glyph unicode="&#x101;" horiz-adv-x="546" d="M453 367v-248q0 -30 9 -44.5t30 -22.5l-22 -64q-75 10 -97 74q-55 -74 -157 -74q-79 0 -125 44.5t-46 118.5q0 82 64 126t184 44h68v41q0 55 -27.5 78.5t-86.5 23.5q-61 0 -138 -27l-24 68q92 34 176 34q192 0 192 -172zM241 57q72 0 120 73v130h-63q-152 0 -152 -105 q0 -98 95 -98zM401 743v-69h-273v69h273z" />
<glyph unicode="&#x102;" horiz-adv-x="579" d="M473 0l-53 173h-265l-53 -173h-96l224 689h120l223 -689h-100zM286 603l-108 -353h219l-107 353h-4zM288 755q-65 0 -104 40t-46 91l61 13q20 -74 89 -74q71 0 91 74l61 -13q-7 -51 -46.5 -91t-105.5 -40z" />
<glyph unicode="&#x103;" horiz-adv-x="546" d="M453 367v-248q0 -30 9 -44.5t30 -22.5l-22 -64q-75 10 -97 74q-55 -74 -157 -74q-79 0 -125 44.5t-46 118.5q0 82 64 126t184 44h68v41q0 55 -27.5 78.5t-86.5 23.5q-61 0 -138 -27l-24 68q92 34 176 34q192 0 192 -172zM241 57q72 0 120 73v130h-63q-152 0 -152 -105 q0 -98 95 -98zM263 628q-64 0 -103.5 42.5t-46.5 97.5l61 13q24 -84 89 -84q68 0 92 84l61 -13q-7 -54 -47.5 -97t-105.5 -43z" />
<glyph unicode="&#x104;" horiz-adv-x="579" d="M473 0l-53 173h-265l-53 -173h-96l224 689h120l223 -689q-90 -54 -90 -127q0 -53 64 -53q36 0 62 15l25 -54q-44 -22 -97 -22q-62 0 -96.5 30t-34.5 81q0 36 24.5 70.5t67.5 59.5h-25zM286 603l-108 -353h219l-107 353h-4z" />
<glyph unicode="&#x105;" horiz-adv-x="546" d="M453 367v-248q0 -30 9 -44.5t30 -22.5l-22 -64q-40 -21 -57.5 -54t-17.5 -61q0 -53 64 -53q37 0 61 15l25 -54q-44 -22 -96 -22q-62 0 -96.5 30t-34.5 81q0 38 27 73.5t74 59.5q-34 19 -46 59q-56 -74 -157 -74q-79 0 -125 44.5t-46 118.5q0 82 64 126t184 44h69v41 q0 54 -28 78t-87 24q-61 0 -138 -27l-24 68q92 34 176 34q192 0 192 -172zM241 57q73 0 121 73v130h-64q-153 0 -153 -105q0 -98 96 -98z" />
<glyph unicode="&#x106;" horiz-adv-x="571" d="M353 68q83 0 150 59l49 -62q-81 -77 -203 -77q-128 0 -207.5 93.5t-79.5 263.5q0 167 82 261.5t204 94.5q63 0 107 -16.5t87 -51.5l-52 -61q-61 51 -136 51q-85 0 -138 -66.5t-53 -211.5q0 -142 52 -209.5t138 -67.5zM250 750l-28 49l189 109l47 -77z" />
<glyph unicode="&#x107;" horiz-adv-x="476" d="M293 66q57 0 115 43l44 -63q-71 -58 -160 -58q-115 0 -175 73t-60 200q0 124 61.5 201t174.5 77q91 0 159 -57l-45 -60q-55 41 -114 41q-65 0 -101 -50.5t-36 -151.5q0 -195 137 -195zM192 622l-30 50l188 119l47 -77z" />
<glyph unicode="&#x108;" horiz-adv-x="571" d="M353 68q83 0 150 59l49 -62q-81 -77 -203 -77q-128 0 -207.5 93.5t-79.5 263.5q0 167 82 261.5t204 94.5q63 0 107 -16.5t87 -51.5l-52 -61q-61 51 -136 51q-85 0 -138 -66.5t-53 -211.5q0 -142 52 -209.5t138 -67.5zM338 835l-126 -81l-40 45l136 111h61l135 -111 l-39 -45z" />
<glyph unicode="&#x109;" horiz-adv-x="476" d="M293 66q57 0 115 43l44 -63q-71 -58 -160 -58q-115 0 -175 73t-60 200q0 124 61.5 201t174.5 77q91 0 159 -57l-45 -60q-55 41 -114 41q-65 0 -101 -50.5t-36 -151.5q0 -195 137 -195zM280 718l-125 -91l-42 44l136 121h61l135 -121l-40 -44z" />
<glyph unicode="&#x10a;" horiz-adv-x="571" d="M353 68q83 0 150 59l49 -62q-81 -77 -203 -77q-128 0 -207.5 93.5t-79.5 263.5q0 167 82 261.5t204 94.5q63 0 107 -16.5t87 -51.5l-52 -61q-61 51 -136 51q-85 0 -138 -66.5t-53 -211.5q0 -142 52 -209.5t138 -67.5zM401 832q0 -27 -18 -45t-46 -18t-46 18t-18 45 t18 44.5t46 17.5t46 -17.5t18 -44.5z" />
<glyph unicode="&#x10b;" horiz-adv-x="476" d="M293 66q57 0 115 43l44 -63q-71 -58 -160 -58q-115 0 -175 73t-60 200q0 124 61.5 201t174.5 77q91 0 159 -57l-45 -60q-55 41 -114 41q-65 0 -101 -50.5t-36 -151.5q0 -195 137 -195zM344 715q0 -27 -18 -45t-47 -18q-28 0 -46 18t-18 45t18 44.5t46 17.5q29 0 47 -17.5 t18 -44.5z" />
<glyph unicode="&#x10c;" horiz-adv-x="571" d="M353 68q83 0 150 59l49 -62q-81 -77 -203 -77q-128 0 -207.5 93.5t-79.5 263.5q0 167 82 261.5t204 94.5q63 0 107 -16.5t87 -51.5l-52 -61q-61 51 -136 51q-85 0 -138 -66.5t-53 -211.5q0 -142 52 -209.5t138 -67.5zM212 910l127 -82l126 82l39 -45l-135 -111h-61 l-136 111z" />
<glyph unicode="&#x10d;" horiz-adv-x="476" d="M293 66q57 0 115 43l44 -63q-71 -58 -160 -58q-115 0 -175 73t-60 200q0 124 61.5 201t174.5 77q91 0 159 -57l-45 -60q-55 41 -114 41q-65 0 -101 -50.5t-36 -151.5q0 -195 137 -195zM155 792l125 -91l125 91l40 -44l-135 -121h-61l-136 121z" />
<glyph unicode="&#x10e;" horiz-adv-x="656" d="M493 348q0 67 -13.5 117t-33.5 77.5t-49.5 44t-56.5 21.5t-60 5h-80v-538h81q42 0 76.5 12t66.5 40.5t50.5 84.5t18.5 136zM594 348q0 -82 -20 -145t-51 -101t-75 -61.5t-86.5 -32t-91.5 -8.5h-165v689h154q54 0 99 -7.5t90.5 -30t76 -59.5t50 -99t19.5 -145zM176 910 l127 -82l126 82l39 -45l-135 -111h-61l-136 111z" />
<glyph unicode="&#x10f;" horiz-adv-x="603" d="M289 466q-64 0 -98.5 -51t-34.5 -152q0 -202 123 -202q74 0 127 81v259q-44 65 -117 65zM265 539q88 0 141 -61v272l92 -11v-739h-81l-8 68q-56 -80 -151 -80q-99 0 -150 73.5t-51 201.5q0 122 56 199t152 77zM570 762q0 23 17 39t41 16t40.5 -16t16.5 -39q0 -24 -17 -58 l-50 -106h-53l28 117q-23 18 -23 47z" />
<glyph unicode="&#x110;" horiz-adv-x="656" d="M594 348q0 -82 -20 -145t-51 -101t-75 -61.5t-86.5 -32t-91.5 -8.5h-165v318h-82v70h82v301h154q54 0 99 -7.5t90.5 -30t76 -59.5t50 -99t19.5 -145zM493 348q0 67 -13.5 117t-33.5 77.5t-49.5 44t-56.5 21.5t-60 5h-80v-225h172v-70h-172v-243h81q42 0 76.5 12 t66.5 40.5t50.5 84.5t18.5 136z" />
<glyph unicode="&#x111;" horiz-adv-x="606" d="M289 466q-64 0 -98.5 -51t-34.5 -152q0 -202 123 -202q74 0 127 81v259q-44 65 -117 65zM265 539q88 0 141 -61v119h-166v70h166v83l92 -11v-72h79v-70h-79v-597h-81l-8 68q-56 -80 -151 -80q-103 0 -152 72.5t-49 202.5q0 122 56 199t152 77z" />
<glyph unicode="&#x112;" horiz-adv-x="540" d="M467 613h-267v-225h232v-76h-232v-236h286v-76h-381v689h373zM425 861v-70h-273v70h273z" />
<glyph unicode="&#x113;" horiz-adv-x="546" d="M491 232h-336q12 -169 142 -169q72 0 132 49l42 -61q-79 -63 -176 -63q-115 0 -176.5 74.5t-61.5 200.5q0 122 60 199t163 77q102 0 157.5 -69t55.5 -191q0 -23 -2 -47zM280 466q-115 0 -125 -166h247q-3 166 -122 166zM417 743v-69h-273v69h273z" />
<glyph unicode="&#x114;" horiz-adv-x="540" d="M467 613h-267v-225h232v-76h-232v-236h286v-76h-381v689h373zM287 755q-65 0 -104 40t-46 91l61 13q20 -74 89 -74q71 0 91 74l61 -13q-7 -51 -46.5 -91t-105.5 -40z" />
<glyph unicode="&#x115;" horiz-adv-x="546" d="M491 232h-336q12 -169 142 -169q72 0 132 49l42 -61q-79 -63 -176 -63q-115 0 -176.5 74.5t-61.5 200.5q0 122 60 199t163 77q102 0 157.5 -69t55.5 -191q0 -23 -2 -47zM280 466q-115 0 -125 -166h247q-3 166 -122 166zM280 628q-64 0 -103.5 42.5t-46.5 97.5l61 13 q24 -84 89 -84q68 0 92 84l61 -13q-7 -54 -47.5 -97t-105.5 -43z" />
<glyph unicode="&#x116;" horiz-adv-x="540" d="M467 613h-267v-225h232v-76h-232v-236h286v-76h-381v689h373zM351 832q0 -27 -18 -45t-46 -18t-46 18t-18 45t18 44.5t46 17.5t46 -17.5t18 -44.5z" />
<glyph unicode="&#x117;" horiz-adv-x="546" d="M491 232h-336q12 -169 142 -169q72 0 132 49l42 -61q-79 -63 -176 -63q-115 0 -176.5 74.5t-61.5 200.5q0 122 60 199t163 77q102 0 157.5 -69t55.5 -191q0 -23 -2 -47zM280 466q-115 0 -125 -166h247q-3 166 -122 166zM345 715q0 -27 -18 -45t-47 -18q-28 0 -46 18 t-18 45t18 44.5t46 17.5q29 0 47 -17.5t18 -44.5z" />
<glyph unicode="&#x118;" horiz-adv-x="540" d="M467 613h-267v-225h232v-76h-232v-237h286v-75q-90 -54 -90 -127q0 -53 64 -53q37 0 61 15l25 -54q-44 -22 -96 -22q-62 0 -96.5 30t-34.5 81q0 36 24.5 70.5t67.5 59.5h-306v689h373z" />
<glyph unicode="&#x119;" horiz-adv-x="546" d="M491 232h-336q12 -169 142 -169q72 0 132 49l41 -60q-143 -95 -143 -179q0 -53 64 -53q36 0 62 15l24 -54q-43 -22 -96 -22q-62 0 -96.5 30t-34.5 81q0 76 98 133q-42 -15 -74 -15q-97 0 -157 76t-60 199q0 122 60 199t163 77q102 0 157.5 -69t55.5 -191q0 -21 -2 -47z M280 466q-115 0 -125 -166h247q-3 166 -122 166z" />
<glyph unicode="&#x11a;" horiz-adv-x="540" d="M467 613h-267v-225h232v-76h-232v-236h286v-76h-381v689h373zM162 910l127 -82l126 82l39 -45l-135 -111h-61l-136 111z" />
<glyph unicode="&#x11b;" horiz-adv-x="546" d="M491 232h-336q12 -169 142 -169q72 0 132 49l42 -61q-79 -63 -176 -63q-115 0 -176.5 74.5t-61.5 200.5q0 122 60 199t163 77q102 0 157.5 -69t55.5 -191q0 -23 -2 -47zM280 466q-115 0 -125 -166h247q-3 166 -122 166zM157 792l125 -91l125 91l40 -44l-135 -121h-61 l-136 121z" />
<glyph unicode="&#x11c;" horiz-adv-x="638" d="M344 -12q-131 0 -206.5 91t-75.5 266q0 168 88.5 262t211.5 94q68 0 115 -18.5t91 -58.5l-56 -58q-61 57 -149 57q-85 0 -142.5 -66.5t-57.5 -211.5t47.5 -212t140.5 -67q77 0 131 32v204h-130l-11 77h235v-330q-104 -61 -232 -61zM346 835l-126 -81l-40 45l136 111h61 l135 -111l-39 -45z" />
<glyph unicode="&#x11d;" horiz-adv-x="526" d="M193 184q-22 -20 -22 -48q0 -43 57 -43h73q96 0 148 -38t52 -110q0 -79 -68 -118.5t-176 -39.5q-226 0 -226 156v4h83q0 -49 36.5 -68.5t106.5 -19.5q151 0 151 81q0 37 -24 56.5t-88 19.5h-70q-64 0 -102 28t-38 75q0 51 52 89q-83 49 -83 146q0 80 56 132.5t150 52.5 q133 0 238 47l27 -83q-50 -16 -148 -16v-4q84 -39 84 -130q0 -78 -53.5 -128t-145.5 -50q-35 0 -70 9zM149 354q0 -53 29.5 -85.5t82.5 -32.5t81.5 32t28.5 87q0 118 -110 118q-53 0 -82.5 -33t-29.5 -86zM261 718l-125 -91l-42 44l136 121h61l135 -121l-40 -44z" />
<glyph unicode="&#x11e;" horiz-adv-x="638" d="M344 -12q-131 0 -206.5 91t-75.5 266q0 168 88.5 262t211.5 94q68 0 115 -18.5t91 -58.5l-56 -58q-61 57 -149 57q-85 0 -142.5 -66.5t-57.5 -211.5t47.5 -212t140.5 -67q77 0 131 32v204h-130l-11 77h235v-330q-104 -61 -232 -61zM343 755q-65 0 -104 40t-46 91l61 13 q20 -74 89 -74q71 0 91 74l61 -13q-7 -51 -46.5 -91t-105.5 -40z" />
<glyph unicode="&#x11f;" horiz-adv-x="526" d="M193 184q-22 -20 -22 -48q0 -43 57 -43h73q96 0 148 -38t52 -110q0 -79 -68 -118.5t-176 -39.5q-226 0 -226 156v4h83q0 -49 36.5 -68.5t106.5 -19.5q151 0 151 81q0 37 -24 56.5t-88 19.5h-70q-64 0 -102 28t-38 75q0 51 52 89q-83 49 -83 146q0 80 56 132.5t150 52.5 q133 0 238 47l27 -83q-50 -16 -148 -16v-4q84 -39 84 -130q0 -78 -53.5 -128t-145.5 -50q-35 0 -70 9zM149 354q0 -53 29.5 -85.5t82.5 -32.5t81.5 32t28.5 87q0 118 -110 118q-53 0 -82.5 -33t-29.5 -86zM259 628q-64 0 -103.5 42.5t-46.5 97.5l61 13q24 -84 89 -84 q68 0 92 84l61 -13q-7 -54 -47.5 -97t-105.5 -43z" />
<glyph unicode="&#x120;" horiz-adv-x="638" d="M344 -12q-131 0 -206.5 91t-75.5 266q0 168 88.5 262t211.5 94q68 0 115 -18.5t91 -58.5l-56 -58q-61 57 -149 57q-85 0 -142.5 -66.5t-57.5 -211.5t47.5 -212t140.5 -67q77 0 131 32v204h-130l-11 77h235v-330q-104 -61 -232 -61zM406 832q0 -27 -18 -45t-46 -18t-46 18 t-18 45t18 44.5t46 17.5t46 -17.5t18 -44.5z" />
<glyph unicode="&#x121;" horiz-adv-x="526" d="M193 184q-22 -20 -22 -48q0 -43 57 -43h73q96 0 148 -38t52 -110q0 -79 -68 -118.5t-176 -39.5q-226 0 -226 156v4h83q0 -49 36.5 -68.5t106.5 -19.5q151 0 151 81q0 37 -24 56.5t-88 19.5h-70q-64 0 -102 28t-38 75q0 51 52 89q-83 49 -83 146q0 80 56 132.5t150 52.5 q133 0 238 47l27 -83q-50 -16 -148 -16v-4q84 -39 84 -130q0 -78 -53.5 -128t-145.5 -50q-35 0 -70 9zM149 354q0 -53 29.5 -85.5t82.5 -32.5t81.5 32t28.5 87q0 118 -110 118q-53 0 -82.5 -33t-29.5 -86zM326 715q0 -27 -18 -45t-47 -18q-28 0 -46 18t-18 45t18 44.5 t46 17.5q29 0 47 -17.5t18 -44.5z" />
<glyph unicode="&#x122;" horiz-adv-x="638" d="M344 -12q-131 0 -206.5 91t-75.5 266q0 168 88.5 262t211.5 94q68 0 115 -18.5t91 -58.5l-56 -58q-61 57 -149 57q-85 0 -142.5 -66.5t-57.5 -211.5t47.5 -212t140.5 -67q77 0 131 32v204h-130l-11 77h235v-330q-104 -61 -232 -61zM291 -126q0 24 17 40t41 16t40.5 -16 t16.5 -40q0 -23 -17 -57l-50 -106h-53l29 116q-24 21 -24 47z" />
<glyph unicode="&#x123;" horiz-adv-x="526" d="M193 184q-22 -20 -22 -48q0 -43 57 -43h73q96 0 148 -38t52 -110q0 -79 -68 -118.5t-176 -39.5q-226 0 -226 156v4h83q0 -49 36.5 -68.5t106.5 -19.5q151 0 151 81q0 37 -24 56.5t-88 19.5h-70q-64 0 -102 28t-38 75q0 51 52 89q-83 49 -83 146q0 80 56 132.5t150 52.5 q133 0 238 47l27 -83q-50 -16 -148 -16v-4q84 -39 84 -130q0 -78 -53.5 -128t-145.5 -50q-35 0 -70 9zM149 354q0 -53 29.5 -85.5t82.5 -32.5t81.5 32t28.5 87q0 118 -110 118q-53 0 -82.5 -33t-29.5 -86zM315 698q0 -23 -17 -39.5t-41 -16.5t-40.5 16.5t-16.5 39.5 q0 24 17 58l50 106h53l-28 -117q23 -18 23 -47z" />
<glyph unicode="&#x124;" horiz-adv-x="680" d="M575 0h-95v323h-280v-323h-95v689h95v-288h280v288h95v-689zM340 835l-126 -81l-40 45l136 111h61l135 -111l-39 -45z" />
<glyph unicode="&#x125;" horiz-adv-x="589" d="M190 0h-92v738l92 10v-288q66 79 162 79q143 0 143 -156v-383h-92v377q0 48 -18.5 69t-63.5 21q-73 0 -131 -85v-382zM296 855l-126 -81l-40 45l136 111h61l135 -111l-39 -45z" />
<glyph unicode="&#x126;" horiz-adv-x="695" d="M583 0h-95v323h-281v-323h-95v508h-77v69h77v112h95v-112h281v112h95v-112h77v-69h-77v-508zM207 401h281v107h-281v-107z" />
<glyph unicode="&#x127;" horiz-adv-x="599" d="M200 382v-382h-92v597h-79v70h79v71l92 10v-81h166v-70h-166v-137q66 79 162 79q143 0 143 -156v-383h-92v377q0 48 -18.5 69t-63.5 21q-73 0 -131 -85z" />
<glyph unicode="&#x128;" horiz-adv-x="306" d="M201 0h-96v689h96v-689zM206 768q-32 0 -65 24t-45 24q-16 0 -27 -10t-24 -34l-57 25q38 89 113 89q34 0 66 -24t44 -24q16 0 27 10t24 33l57 -25q-39 -88 -113 -88z" />
<glyph unicode="&#x129;" horiz-adv-x="279" d="M185 0h-92v527h92v-527zM192 650q-32 0 -65 24t-45 24q-26 0 -51 -44l-57 26q37 88 113 88q34 0 66 -24t44 -24q26 0 51 44l57 -25q-38 -89 -113 -89z" />
<glyph unicode="&#x12a;" horiz-adv-x="306" d="M201 0h-96v689h96v-689zM289 861v-70h-273v70h273z" />
<glyph unicode="&#x12b;" horiz-adv-x="279" d="M275 743v-69h-273v69h273zM185 0h-92v527h92v-527z" />
<glyph unicode="&#x12c;" horiz-adv-x="306" d="M201 0h-96v689h96v-689zM152 755q-65 0 -104 40t-46 91l61 13q20 -74 89 -74q71 0 91 74l61 -13q-7 -51 -46.5 -91t-105.5 -40z" />
<glyph unicode="&#x12d;" horiz-adv-x="279" d="M137 628q-64 0 -103.5 42.5t-46.5 97.5l61 13q24 -84 89 -84q68 0 92 84l61 -13q-7 -54 -47.5 -97t-105.5 -43zM185 0h-92v527h92v-527z" />
<glyph unicode="&#x12e;" horiz-adv-x="306" d="M201 0q-91 -53 -91 -127q0 -53 64 -53q36 0 62 15l25 -54q-44 -22 -97 -22q-62 0 -96.5 30t-34.5 81q0 36 24.5 70.5t67.5 59.5h-20v689h96v-689z" />
<glyph unicode="&#x12f;" horiz-adv-x="279" d="M185 0q-90 -54 -90 -127q0 -53 64 -53q36 0 62 15l25 -54q-44 -22 -97 -22q-62 0 -96.5 30t-34.5 81q0 36 24.5 70.5t67.5 59.5h-17v527h92v-527zM204 715q0 -27 -18.5 -45t-46.5 -18t-46 18t-18 45t18 44.5t46 17.5t46.5 -18t18.5 -44z" />
<glyph unicode="&#x130;" horiz-adv-x="306" d="M201 0h-96v689h96v-689zM216 832q0 -27 -18 -45t-46 -18t-46 18t-18 45t18 44.5t46 17.5t46 -17.5t18 -44.5z" />
<glyph unicode="&#x131;" horiz-adv-x="279" d="M185 0h-92v527h92v-527z" />
<glyph unicode="&#x132;" horiz-adv-x="613" d="M201 0h-96v689h96v-689zM334 -139l-24 74q65 26 86.5 60t21.5 105v589h95v-593q0 -100 -44.5 -152.5t-134.5 -82.5z" />
<glyph unicode="&#x133;" horiz-adv-x="558" d="M204 710q0 -27 -18.5 -45t-46.5 -18t-46 18t-18 45t18 44.5t46 17.5t46.5 -18t18.5 -44zM185 0h-92v527h92v-527zM304 -212l-34 67q39 18 58.5 34t31.5 49t12 88v501h92v-495q0 -74 -19.5 -121t-51 -72t-89.5 -51zM483 710q0 -27 -18.5 -45t-46.5 -18t-46 18t-18 45 t18 44.5t46 17.5t46.5 -18t18.5 -44z" />
<glyph unicode="&#x134;" horiz-adv-x="308" d="M29 -139l-24 74q65 26 86.5 60t21.5 105v589h95v-593q0 -100 -44.5 -152.5t-134.5 -82.5zM159 835l-126 -81l-40 45l136 111h61l135 -111l-39 -45z" />
<glyph unicode="&#x135;" horiz-adv-x="279" d="M140 718l-125 -91l-42 44l136 121h61l135 -121l-40 -44zM25 -212l-34 67q39 18 58.5 34t31.5 49t12 88v501h92v-495q0 -74 -19.5 -121t-51 -72t-89.5 -51z" />
<glyph unicode="&#x136;" horiz-adv-x="594" d="M200 689v-689h-95v689h95zM477 0l-272 368l262 321h108l-261 -315l280 -374h-117zM255 -125q0 24 17 40t41 16t40.5 -16t16.5 -40q0 -23 -17 -57l-50 -106h-53l29 116q-24 21 -24 47z" />
<glyph unicode="&#x137;" horiz-adv-x="515" d="M190 0h-92v739l92 11v-750zM405 0l-209 288l197 239h103l-197 -233l216 -294h-110zM221 -126q0 24 17 40t41 16t40.5 -16t16.5 -40q0 -23 -17 -57l-50 -106h-53l29 116q-24 21 -24 47z" />
<glyph unicode="&#x138;" horiz-adv-x="515" d="M190 0h-92v527h92v-527zM405 0l-209 282l197 245h103l-197 -239l216 -288h-110z" />
<glyph unicode="&#x139;" horiz-adv-x="503" d="M472 0h-367v689h95v-606h283zM96 750l-28 49l189 109l47 -77z" />
<glyph unicode="&#x13a;" horiz-adv-x="290" d="M247 70l24 -64q-38 -18 -75 -18q-50 0 -79 30.5t-29 95.5v625l92 11v-644q0 -42 33 -42q19 0 34 6zM46 770l-28 49l189 109l47 -77z" />
<glyph unicode="&#x13b;" horiz-adv-x="503" d="M472 0h-367v689h95v-606h283zM222 -125q0 24 17 40t41 16t40.5 -16t16.5 -40q0 -23 -17 -57l-50 -106h-53l29 116q-24 21 -24 47z" />
<glyph unicode="&#x13c;" horiz-adv-x="290" d="M247 70l24 -64q-38 -18 -75 -18q-50 0 -79 30.5t-29 95.5v625l92 11v-644q0 -42 33 -42q19 0 34 6zM114 -126q0 24 17 40t41 16t40.5 -16t16.5 -40q0 -23 -17 -57l-50 -106h-53l29 116q-24 21 -24 47z" />
<glyph unicode="&#x13d;" horiz-adv-x="503" d="M472 0h-367v689h95v-606h283zM308 637q0 23 17 39t41 16t40.5 -16t16.5 -39q0 -24 -17 -58l-50 -106h-53l28 117q-23 18 -23 47z" />
<glyph unicode="&#x13e;" horiz-adv-x="327" d="M247 70l24 -64q-38 -18 -75 -18q-50 0 -79 30.5t-29 95.5v625l92 11v-644q0 -42 33 -42q19 0 34 6zM242 762q0 23 17 39t41 16t40.5 -16t16.5 -39q0 -24 -17 -58l-50 -106h-53l28 117q-23 18 -23 47z" />
<glyph unicode="&#x13f;" horiz-adv-x="503" d="M472 0h-367v689h95v-606h283zM451 361q0 -27 -18 -45t-47 -18q-28 0 -46 18t-18 45t18 44.5t46 17.5q29 0 47 -17.5t18 -44.5z" />
<glyph unicode="&#x140;" horiz-adv-x="325" d="M247 70l24 -64q-38 -18 -75 -18q-50 0 -79 30.5t-29 95.5v625l92 11v-644q0 -42 33 -42q19 0 34 6zM361 359q0 -27 -18 -45t-47 -18q-28 0 -46 18t-18 45t18 44.5t46 17.5q29 0 47 -17.5t18 -44.5z" />
<glyph unicode="&#x141;" horiz-adv-x="513" d="M482 0h-367v263l-56 -34l-38 60l94 58v342h95v-283l160 99l39 -59l-199 -124v-239h283z" />
<glyph unicode="&#x142;" horiz-adv-x="306" d="M298 423l-108 -67v-250q0 -42 33 -42q19 0 34 6l24 -64q-38 -18 -75 -18q-50 0 -79 30.5t-29 95.5v186l-49 -30l-38 58l87 53v358l92 11v-312l70 43z" />
<glyph unicode="&#x143;" horiz-adv-x="689" d="M584 0h-129l-270 583h-4q13 -104 13 -247v-336h-89v689h126l273 -586h4q-13 104 -13 250v336h89v-689zM275 750l-28 49l189 109l47 -77z" />
<glyph unicode="&#x144;" horiz-adv-x="589" d="M190 382v-382h-92v527h79l7 -72q67 84 168 84q143 0 143 -156v-383h-92v377q0 48 -18.5 69t-63.5 21q-73 0 -131 -85zM222 622l-30 50l188 119l47 -77z" />
<glyph unicode="&#x145;" horiz-adv-x="689" d="M584 0h-129l-270 583h-4q13 -104 13 -247v-336h-89v689h126l273 -586h4q-13 104 -13 250v336h89v-689zM286 -125q0 24 17 40t41 16t40.5 -16t16.5 -40q0 -23 -17 -57l-50 -106h-53l29 116q-24 21 -24 47z" />
<glyph unicode="&#x146;" horiz-adv-x="589" d="M190 382v-382h-92v527h79l7 -72q67 84 168 84q143 0 143 -156v-383h-92v377q0 48 -18.5 69t-63.5 21q-73 0 -131 -85zM239 -126q0 24 17 40t41 16t40.5 -16t16.5 -40q0 -23 -17 -57l-50 -106h-53l29 116q-24 21 -24 47z" />
<glyph unicode="&#x147;" horiz-adv-x="689" d="M584 0h-129l-270 583h-4q13 -104 13 -247v-336h-89v689h126l273 -586h4q-13 104 -13 250v336h89v-689zM214 910l127 -82l126 82l39 -45l-135 -111h-61l-136 111z" />
<glyph unicode="&#x148;" horiz-adv-x="589" d="M190 382v-382h-92v527h79l7 -72q67 84 168 84q143 0 143 -156v-383h-92v377q0 48 -18.5 69t-63.5 21q-73 0 -131 -85zM178 792l125 -91l125 91l40 -44l-135 -121h-61l-136 121z" />
<glyph unicode="&#x149;" horiz-adv-x="589" d="M190 382v-382h-92v527h79l7 -72q67 84 168 84q143 0 143 -156v-383h-92v377q0 48 -18.5 69t-63.5 21q-73 0 -131 -85zM43 807q0 23 17 39t41 16t40.5 -16t16.5 -39q0 -24 -17 -58l-50 -106h-53l28 117q-23 18 -23 47z" />
<glyph unicode="&#x14a;" horiz-adv-x="689" d="M584 -2q0 -80 -45.5 -130.5t-132.5 -80.5l-24 72q64 25 87 56.5t24 84.5h-38l-270 583h-4q13 -110 13 -264v-319h-89v689h126l274 -586h4q-13 111 -13 266v320h88v-691z" />
<glyph unicode="&#x14b;" horiz-adv-x="589" d="M495 383v-351q0 -56 -9.5 -95t-31.5 -66.5t-48.5 -45.5t-70.5 -37l-34 67q58 27 80.5 59.5t22.5 111.5v351q0 48 -19 69t-64 21q-73 0 -131 -85v-382h-92v527h79l7 -72q67 84 168 84q143 0 143 -156z" />
<glyph unicode="&#x14c;" horiz-adv-x="696" d="M634 344q0 -169 -78 -262.5t-208 -93.5t-208 92t-78 263q0 169 78.5 263.5t207.5 94.5q130 0 208 -93t78 -264zM533 344q0 279 -185 279t-185 -280q0 -277 185 -277t185 278zM484 861v-70h-273v70h273z" />
<glyph unicode="&#x14d;" horiz-adv-x="584" d="M428 743v-69h-273v69h273zM428 264q0 201 -135 201q-137 0 -137 -202q0 -201 136 -201t136 202zM57 263q0 125 62.5 200.5t173.5 75.5t172.5 -74t61.5 -201q0 -124 -62.5 -200t-172.5 -76q-111 0 -173 74t-62 201z" />
<glyph unicode="&#x14e;" horiz-adv-x="696" d="M634 344q0 -169 -78 -262.5t-208 -93.5t-208 92t-78 263q0 169 78.5 263.5t207.5 94.5q130 0 208 -93t78 -264zM533 344q0 279 -185 279t-185 -280q0 -277 185 -277t185 278zM346 755q-65 0 -104 40t-46 91l61 13q20 -74 89 -74q71 0 91 74l61 -13q-7 -51 -46.5 -91 t-105.5 -40z" />
<glyph unicode="&#x14f;" horiz-adv-x="584" d="M428 264q0 201 -135 201q-137 0 -137 -202q0 -201 136 -201t136 202zM57 263q0 125 62.5 200.5t173.5 75.5t172.5 -74t61.5 -201q0 -124 -62.5 -200t-172.5 -76q-111 0 -173 74t-62 201zM290 628q-64 0 -103.5 42.5t-46.5 97.5l61 13q24 -84 89 -84q68 0 92 84l61 -13 q-7 -54 -47.5 -97t-105.5 -43z" />
<glyph unicode="&#x150;" horiz-adv-x="696" d="M634 344q0 -169 -78 -262.5t-208 -93.5t-208 92t-78 263q0 169 78.5 263.5t207.5 94.5q130 0 208 -93t78 -264zM533 344q0 279 -185 279t-185 -280q0 -277 185 -277t185 278zM301 760l-58 27l80 176l78 -37zM463 758l-56 29l89 176l77 -40z" />
<glyph unicode="&#x151;" horiz-adv-x="584" d="M194 635l-58 27l80 176l78 -37zM356 633l-56 29l89 176l77 -40zM428 264q0 201 -135 201q-137 0 -137 -202q0 -201 136 -201t136 202zM57 263q0 125 62.5 200.5t173.5 75.5t172.5 -74t61.5 -201q0 -124 -62.5 -200t-172.5 -76q-111 0 -173 74t-62 201z" />
<glyph unicode="&#x152;" horiz-adv-x="921" d="M522 344q0 147 -43.5 212.5t-128.5 65.5q-83 0 -132 -67.5t-49 -211.5q0 -143 49.5 -210t131.5 -67q90 0 131 64.5t41 213.5zM848 614h-303q63 -75 71 -227h197v-75h-197q-5 -158 -73 -237h324v-75h-436q-37 -12 -81 -12q-124 0 -203 92.5t-79 262.5q0 167 79.5 262.5 t202.5 95.5q45 0 84 -12h425z" />
<glyph unicode="&#x153;" horiz-adv-x="906" d="M851 232h-336q12 -169 142 -169q72 0 132 49l42 -61q-79 -63 -176 -63q-131 0 -184 107q-57 -107 -181 -107q-110 0 -171.5 74t-61.5 201q0 124 62 200t171 76q127 0 182 -109q51 109 168 109q102 0 157.5 -69t55.5 -191q0 -23 -2 -47zM426 264q0 200 -136 200 q-134 0 -134 -201q0 -200 134 -200q136 0 136 201zM640 466q-115 0 -125 -166h247q-3 166 -122 166z" />
<glyph unicode="&#x154;" horiz-adv-x="607" d="M548 494q0 -74 -45.5 -122.5t-119.5 -67.5l202 -304h-113l-184 292h-88v-292h-95v689h181q262 0 262 -195zM447 494q0 64 -37 92.5t-115 28.5h-95v-250h96q151 0 151 129zM229 750l-28 49l189 109l47 -77z" />
<glyph unicode="&#x155;" horiz-adv-x="384" d="M190 0h-92v527h80l11 -101q46 113 138 113q28 0 52 -6l-17 -90q-24 6 -46 6q-46 0 -78.5 -40t-47.5 -100v-309zM142 622l-30 50l188 119l47 -77z" />
<glyph unicode="&#x156;" horiz-adv-x="607" d="M548 494q0 -74 -45.5 -122.5t-119.5 -67.5l202 -304h-113l-184 292h-88v-292h-95v689h181q262 0 262 -195zM447 494q0 64 -37 92.5t-115 28.5h-95v-250h96q151 0 151 129zM252 -125q0 24 17 40t41 16t40.5 -16t16.5 -40q0 -23 -17 -57l-50 -106h-53l29 116q-24 21 -24 47 z" />
<glyph unicode="&#x157;" horiz-adv-x="384" d="M190 0h-92v527h80l11 -101q46 113 138 113q28 0 52 -6l-17 -90q-24 6 -46 6q-46 0 -78.5 -40t-47.5 -100v-309zM91 -126q0 24 17 40t41 16t40.5 -16t16.5 -40q0 -23 -17 -57l-50 -106h-53l29 116q-24 21 -24 47z" />
<glyph unicode="&#x158;" horiz-adv-x="607" d="M548 494q0 -74 -45.5 -122.5t-119.5 -67.5l202 -304h-113l-184 292h-88v-292h-95v689h181q262 0 262 -195zM447 494q0 64 -37 92.5t-115 28.5h-95v-250h96q151 0 151 129zM177 910l127 -82l126 82l39 -45l-135 -111h-61l-136 111z" />
<glyph unicode="&#x159;" horiz-adv-x="384" d="M190 0h-92v527h80l11 -101q46 113 138 113q28 0 52 -6l-17 -90q-24 6 -46 6q-46 0 -78.5 -40t-47.5 -100v-309zM93 792l125 -91l125 91l40 -44l-135 -121h-61l-136 121z" />
<glyph unicode="&#x15a;" horiz-adv-x="545" d="M507 192q0 -91 -65.5 -147.5t-178.5 -56.5q-145 0 -236 89l55 61q75 -72 178 -72q64 0 106 31.5t42 91.5q0 49 -31.5 77.5t-117.5 55.5q-106 32 -155 77t-49 122q0 80 60 130t157 50q127 0 213 -80l-54 -60q-68 62 -155 62q-54 0 -89 -25t-35 -73q0 -45 30 -70.5 t121 -53.5q48 -15 79.5 -29t62.5 -38t46.5 -59t15.5 -83zM188 750l-28 49l189 109l47 -77z" />
<glyph unicode="&#x15b;" horiz-adv-x="474" d="M223 62q50 0 80.5 21.5t30.5 58.5q0 39 -25.5 59t-103.5 39q-76 19 -116 54.5t-40 96.5q0 66 56 107t141 41q96 0 170 -53l-41 -62q-61 42 -133 42q-43 0 -70.5 -19t-27.5 -50q0 -33 26 -50t96 -36q82 -23 124.5 -57.5t42.5 -104.5q0 -79 -60.5 -120t-147.5 -41 q-120 0 -199 69l51 58q64 -53 146 -53zM143 622l-30 50l188 119l47 -77z" />
<glyph unicode="&#x15c;" horiz-adv-x="545" d="M507 192q0 -91 -65.5 -147.5t-178.5 -56.5q-145 0 -236 89l55 61q75 -72 178 -72q64 0 106 31.5t42 91.5q0 49 -31.5 77.5t-117.5 55.5q-106 32 -155 77t-49 122q0 80 60 130t157 50q127 0 213 -80l-54 -60q-68 62 -155 62q-54 0 -89 -25t-35 -73q0 -45 30 -70.5 t121 -53.5q48 -15 79.5 -29t62.5 -38t46.5 -59t15.5 -83zM278 835l-126 -81l-40 45l136 111h61l135 -111l-39 -45z" />
<glyph unicode="&#x15d;" horiz-adv-x="474" d="M223 62q50 0 80.5 21.5t30.5 58.5q0 39 -25.5 59t-103.5 39q-76 19 -116 54.5t-40 96.5q0 66 56 107t141 41q96 0 170 -53l-41 -62q-61 42 -133 42q-43 0 -70.5 -19t-27.5 -50q0 -33 26 -50t96 -36q82 -23 124.5 -57.5t42.5 -104.5q0 -79 -60.5 -120t-147.5 -41 q-120 0 -199 69l51 58q64 -53 146 -53zM235 718l-125 -91l-42 44l136 121h61l135 -121l-40 -44z" />
<glyph unicode="&#x15e;" horiz-adv-x="545" d="M311 -141q0 25 -21.5 33.5t-65.5 8.5l7 88q-123 9 -204 88l55 61q75 -72 178 -72q64 0 106 31.5t42 91.5q0 49 -31 76.5t-117 54.5q-106 32 -155.5 78t-49.5 123q0 80 60 130t157 50q127 0 213 -80l-54 -60q-68 62 -155 62q-54 0 -89 -25t-35 -73q0 -44 31 -70t122 -54 q47 -15 79 -29t62.5 -38t45.5 -59t15 -83q0 -86 -55.5 -141t-157.5 -62v-45q47 -4 70.5 -28t23.5 -57q0 -47 -36 -73.5t-89 -26.5q-63 0 -106 25l28 51q30 -16 66 -16q60 0 60 40z" />
<glyph unicode="&#x15f;" horiz-adv-x="474" d="M275 -141q0 25 -21.5 33.5t-65.5 8.5l7 88q-101 8 -169 68l51 58q64 -53 146 -53q50 0 80.5 21.5t30.5 58.5q0 38 -25.5 57t-102.5 39t-117 56t-40 97q0 66 55.5 107t139.5 41q96 0 167 -51l-41 -62q-58 40 -130 40q-43 0 -69.5 -19t-26.5 -50q0 -32 26 -49t97 -36 q81 -23 123.5 -58t42.5 -105q0 -72 -49.5 -112t-125.5 -47v-46q47 -4 70.5 -28t23.5 -57q0 -47 -36 -73.5t-89 -26.5q-63 0 -106 25l28 51q30 -16 67 -16q59 0 59 40z" />
<glyph unicode="&#x160;" horiz-adv-x="545" d="M507 192q0 -91 -65.5 -147.5t-178.5 -56.5q-145 0 -236 89l55 61q75 -72 178 -72q64 0 106 31.5t42 91.5q0 49 -31.5 77.5t-117.5 55.5q-106 32 -155 77t-49 122q0 80 60 130t157 50q127 0 213 -80l-54 -60q-68 62 -155 62q-54 0 -89 -25t-35 -73q0 -45 30 -70.5 t121 -53.5q48 -15 79.5 -29t62.5 -38t46.5 -59t15.5 -83zM152 910l127 -82l126 82l39 -45l-135 -111h-61l-136 111z" />
<glyph unicode="&#x161;" horiz-adv-x="474" d="M223 62q50 0 80.5 21.5t30.5 58.5q0 39 -25.5 59t-103.5 39q-76 19 -116 54.5t-40 96.5q0 66 56 107t141 41q96 0 170 -53l-41 -62q-61 42 -133 42q-43 0 -70.5 -19t-27.5 -50q0 -33 26 -50t96 -36q82 -23 124.5 -57.5t42.5 -104.5q0 -79 -60.5 -120t-147.5 -41 q-120 0 -199 69l51 58q64 -53 146 -53zM111 792l125 -91l125 91l40 -44l-135 -121h-61l-136 121z" />
<glyph unicode="&#x162;" horiz-adv-x="517" d="M326 -141q0 25 -21.5 33.5t-65.5 8.5l7 99h-32v608h-198v81h493l-10 -81h-190v-664q47 -4 70.5 -28t23.5 -57q0 -47 -36 -73.5t-89 -26.5q-63 0 -106 25l28 51q30 -16 66 -16q60 0 60 40z" />
<glyph unicode="&#x163;" horiz-adv-x="367" d="M283 -141q0 25 -21.5 33.5t-65.5 8.5l7 92q-98 23 -98 148v316h-84v70h84v119l92 11v-130h133l-11 -70h-122v-315q0 -41 14.5 -59.5t48.5 -18.5q33 0 70 23l35 -63q-40 -30 -99 -35v-45q47 -4 70.5 -28t23.5 -57q0 -47 -36 -73.5t-89 -26.5q-63 0 -106 25l28 51 q30 -16 67 -16q59 0 59 40z" />
<glyph unicode="&#x164;" horiz-adv-x="517" d="M499 608h-190v-608h-95v608h-198v81h493zM132 910l127 -82l126 82l39 -45l-135 -111h-61l-136 111z" />
<glyph unicode="&#x165;" horiz-adv-x="367" d="M330 87l35 -63q-48 -36 -118 -36q-71 0 -106.5 41t-35.5 112v316h-84v70h84v119l92 11v-130h133l-11 -70h-122v-315q0 -41 14.5 -59.5t48.5 -18.5q33 0 70 23zM270 762q0 23 17 39t41 16t40.5 -16t16.5 -39q0 -24 -17 -58l-50 -106h-53l28 117q-23 18 -23 47z" />
<glyph unicode="&#x166;" horiz-adv-x="517" d="M434 433v-70h-125v-363h-95v363h-124v70h124v175h-198v81h493l-10 -81h-190v-175h125z" />
<glyph unicode="&#x167;" horiz-adv-x="367" d="M330 87l35 -63q-48 -36 -118 -36q-142 0 -142 160v137h-79v68h79v104h-84v70h84v119l92 11v-130h133l-11 -70h-122v-104h115v-68h-115v-143q0 -41 14.5 -59.5t48.5 -18.5q33 0 70 23z" />
<glyph unicode="&#x168;" horiz-adv-x="672" d="M577 689v-465q0 -107 -64 -171.5t-178 -64.5q-115 0 -177.5 64t-62.5 172v465h95v-461q0 -160 145 -160q146 0 146 160v461h96zM388 768q-32 0 -65 24t-45 24q-16 0 -27 -10t-24 -34l-57 25q38 89 113 89q34 0 66 -24t44 -24q16 0 27 10t24 33l57 -25q-39 -88 -113 -88z " />
<glyph unicode="&#x169;" horiz-adv-x="582" d="M93 527h92v-372q0 -51 17.5 -73t60.5 -22q77 0 129 81v386h92v-527h-79l-7 70q-63 -82 -160 -82q-145 0 -145 156v383zM342 650q-32 0 -65 24t-45 24q-26 0 -51 -44l-57 26q37 88 113 88q34 0 66 -24t44 -24q26 0 51 44l57 -25q-38 -89 -113 -89z" />
<glyph unicode="&#x16a;" horiz-adv-x="672" d="M577 689v-465q0 -107 -64 -171.5t-178 -64.5q-115 0 -177.5 64t-62.5 172v465h95v-461q0 -160 145 -160q146 0 146 160v461h96zM472 861v-70h-273v70h273z" />
<glyph unicode="&#x16b;" horiz-adv-x="582" d="M93 527h92v-372q0 -51 17.5 -73t60.5 -22q77 0 129 81v386h92v-527h-79l-7 70q-63 -82 -160 -82q-145 0 -145 156v383zM425 743v-69h-273v69h273z" />
<glyph unicode="&#x16c;" horiz-adv-x="672" d="M577 689v-465q0 -107 -64 -171.5t-178 -64.5q-115 0 -177.5 64t-62.5 172v465h95v-461q0 -160 145 -160q146 0 146 160v461h96zM334 755q-65 0 -104 40t-46 91l61 13q20 -74 89 -74q71 0 91 74l61 -13q-7 -51 -46.5 -91t-105.5 -40z" />
<glyph unicode="&#x16d;" horiz-adv-x="582" d="M93 527h92v-372q0 -51 17.5 -73t60.5 -22q77 0 129 81v386h92v-527h-79l-7 70q-63 -82 -160 -82q-145 0 -145 156v383zM288 628q-64 0 -103.5 42.5t-46.5 97.5l61 13q24 -84 89 -84q68 0 92 84l61 -13q-7 -54 -47.5 -97t-105.5 -43z" />
<glyph unicode="&#x16e;" horiz-adv-x="672" d="M577 689v-465q0 -107 -64 -171.5t-178 -64.5q-115 0 -177.5 64t-62.5 172v465h95v-461q0 -160 145 -160q146 0 146 160v461h96zM282 840q0 -26 14.5 -41.5t39.5 -15.5q24 0 38.5 15.5t14.5 41.5t-14.5 41t-38.5 15q-25 0 -39.5 -15t-14.5 -41zM450 840q0 -45 -32 -75.5 t-82 -30.5t-82 30.5t-32 75.5q0 44 32 74.5t82 30.5t82 -30.5t32 -74.5z" />
<glyph unicode="&#x16f;" horiz-adv-x="582" d="M93 527h92v-372q0 -51 17.5 -73t60.5 -22q77 0 129 81v386h92v-527h-79l-7 70q-63 -82 -160 -82q-145 0 -145 156v383zM236 722q0 -26 14.5 -41t38.5 -15q25 0 39 15t14 41t-14 41t-39 15q-24 0 -38.5 -15t-14.5 -41zM403 722q0 -44 -32 -74.5t-82 -30.5t-82 30.5 t-32 74.5q0 45 32 75.5t82 30.5t82 -30.5t32 -75.5z" />
<glyph unicode="&#x170;" horiz-adv-x="672" d="M577 689v-465q0 -107 -64 -171.5t-178 -64.5q-115 0 -177.5 64t-62.5 172v465h95v-461q0 -160 145 -160q146 0 146 160v461h96zM271 760l-58 27l80 176l78 -37zM433 758l-56 29l89 176l77 -40z" />
<glyph unicode="&#x171;" horiz-adv-x="582" d="M93 527h92v-372q0 -51 17.5 -73t60.5 -22q77 0 129 81v386h92v-527h-79l-7 70q-63 -82 -160 -82q-145 0 -145 156v383zM220 635l-58 27l80 176l78 -37zM382 633l-56 29l89 176l77 -40z" />
<glyph unicode="&#x172;" horiz-adv-x="672" d="M577 689v-465q0 -75 -33.5 -130.5t-94.5 -84.5q-107 -51 -107 -136q0 -53 64 -53q37 0 61 15l25 -54q-44 -22 -96 -22q-62 0 -96.5 30t-34.5 81q0 69 77 118q-113 0 -180 62t-67 174v465h95v-461q0 -160 145 -160q146 0 146 160v461h96z" />
<glyph unicode="&#x173;" horiz-adv-x="582" d="M93 527h92v-372q0 -51 17.5 -73t60.5 -22q77 0 129 81v386h92v-527q-90 -62 -90 -127q0 -53 64 -53q36 0 62 15l25 -54q-44 -22 -97 -22q-62 0 -96.5 30t-34.5 81q0 37 27.5 71t74.5 59h-14l-7 70q-63 -82 -160 -82q-145 0 -145 156v383z" />
<glyph unicode="&#x174;" horiz-adv-x="830" d="M805 689l-140 -689h-124l-126 558h-4l-127 -558h-119l-140 689h93l109 -597h4l133 597h101l136 -594h4l113 594h87zM414 835l-126 -81l-40 45l136 111h61l135 -111l-39 -45z" />
<glyph unicode="&#x175;" horiz-adv-x="729" d="M708 527l-120 -527h-125l-96 434h-4l-97 -434h-122l-123 527h92l93 -454h4l107 454h103l102 -452h4l94 452h88zM365 718l-125 -91l-42 44l136 121h61l135 -121l-40 -44z" />
<glyph unicode="&#x176;" horiz-adv-x="550" d="M545 689l-222 -424v-265h-96v264l-222 425h105l166 -337h4l166 337h99zM275 835l-126 -81l-40 45l136 111h61l135 -111l-39 -45z" />
<glyph unicode="&#x177;" horiz-adv-x="491" d="M480 527l-176 -530q-31 -92 -86.5 -146t-155.5 -64l-13 72q77 13 112 45t55 96h-31l-174 527h98l136 -453h4l136 453h95zM248 718l-125 -91l-42 44l136 121h61l135 -121l-40 -44z" />
<glyph unicode="&#x178;" horiz-adv-x="550" d="M545 689l-222 -424v-265h-96v264l-222 425h105l166 -337h4l166 337h99zM170 764q-24 0 -40.5 16t-16.5 41q0 24 16.5 40t40.5 16q25 0 41.5 -16t16.5 -40q0 -25 -16.5 -41t-41.5 -16zM380 764q-25 0 -41.5 16t-16.5 41q0 24 16.5 40t41.5 16q24 0 41 -16t17 -40 t-17 -40.5t-41 -16.5z" />
<glyph unicode="&#x179;" horiz-adv-x="521" d="M478 612l-341 -531h341l-11 -81h-436v76l344 533h-308v80h411v-77zM188 750l-28 49l189 109l47 -77z" />
<glyph unicode="&#x17a;" horiz-adv-x="440" d="M405 457l-275 -380h278l-11 -77h-371v69l274 380h-251v78h356v-70zM134 622l-30 50l188 119l47 -77z" />
<glyph unicode="&#x17b;" horiz-adv-x="521" d="M478 612l-341 -531h341l-11 -81h-436v76l344 533h-308v80h411v-77zM333 832q0 -27 -18 -45t-46 -18t-46 18t-18 45t18 44.5t46 17.5t46 -17.5t18 -44.5z" />
<glyph unicode="&#x17c;" horiz-adv-x="440" d="M405 457l-275 -380h278l-11 -77h-371v69l274 380h-251v78h356v-70zM287 715q0 -27 -18 -45t-47 -18q-28 0 -46 18t-18 45t18 44.5t46 17.5q29 0 47 -17.5t18 -44.5z" />
<glyph unicode="&#x17d;" horiz-adv-x="521" d="M478 612l-341 -531h341l-11 -81h-436v76l344 533h-308v80h411v-77zM144 910l127 -82l126 82l39 -45l-135 -111h-61l-136 111z" />
<glyph unicode="&#x17e;" horiz-adv-x="440" d="M405 457l-275 -380h278l-11 -77h-371v69l274 380h-251v78h356v-70zM98 792l125 -91l125 91l40 -44l-135 -121h-61l-136 121z" />
<glyph unicode="&#x192;" horiz-adv-x="336" d="M36 -212l-33 66q57 27 79.5 60t22.5 112v430h-84v71h84v71q0 68 43.5 110t121.5 42q64 0 126 -28l-30 -66q-44 20 -91 20q-43 0 -61 -18.5t-18 -58.5v-72h129l-11 -71h-118v-414q0 -78 -18.5 -126.5t-50 -75t-91.5 -52.5z" />
<glyph unicode="&#x1fc;" horiz-adv-x="794" d="M458 0l-41 173h-267l-65 -173h-97l274 689h459l-11 -75h-309l56 -227h255v-75h-235l58 -237h227v-75h-304zM313 605l-135 -355h222l-82 355h-5zM389 749l-28 49l189 109l47 -77z" />
<glyph unicode="&#x1fd;" horiz-adv-x="840" d="M419 453q54 86 155 86q102 0 157.5 -69t55.5 -191q0 -23 -2 -47h-336q12 -169 142 -169q72 0 132 49l42 -61q-79 -63 -176 -63q-120 0 -181 90q-65 -90 -186 -90q-84 0 -130.5 44t-46.5 119q0 82 64 126t184 44h69v41q0 54 -28 78t-87 24q-61 0 -138 -27l-24 68 q92 34 176 34q123 0 158 -86zM241 57q83 0 135 93q-14 45 -14 110h-64q-153 0 -153 -104q0 -99 96 -99zM574 466q-115 0 -125 -166h247q-3 166 -122 166zM348 622l-30 50l188 119l47 -77z" />
<glyph unicode="&#x1fe;" horiz-adv-x="696" d="M533 344q0 190 -81 248l-151 -521q17 -5 47 -5q185 0 185 278zM163 343q0 -188 81 -247l151 522q-27 5 -47 5q-185 0 -185 -280zM634 344q0 -169 -78 -262.5t-208 -93.5q-35 0 -63 7l-37 -126l-79 21l41 132q-70 39 -109 120.5t-39 200.5q0 169 78.5 263.5t207.5 94.5 q28 0 63 -7l37 125l79 -21l-41 -132q70 -39 109 -121.5t39 -200.5zM230 778l-28 49l189 109l47 -77z" />
<glyph unicode="&#x1ff;" horiz-adv-x="584" d="M57 263q0 125 62.5 200.5t173.5 75.5q22 0 47 -5l38 121l75 -22l-41 -125q55 -32 85 -95.5t30 -148.5q0 -124 -62.5 -200t-172.5 -76q-28 0 -47 5l-38 -124l-75 22l41 126q-56 32 -86 95.5t-30 150.5zM156 263q0 -130 53 -174l116 373q-20 2 -32 2q-137 0 -137 -201z M428 264q0 128 -52 172l-115 -371q15 -3 31 -3q136 0 136 202zM195 623l-30 50l188 119l47 -77z" />
<glyph unicode="&#x218;" horiz-adv-x="545" d="M507 192q0 -91 -65.5 -147.5t-178.5 -56.5q-145 0 -236 89l55 61q75 -72 178 -72q64 0 106 31.5t42 91.5q0 49 -31.5 77.5t-117.5 55.5q-106 32 -155 77t-49 122q0 80 60 130t157 50q127 0 213 -80l-54 -60q-68 62 -155 62q-54 0 -89 -25t-35 -73q0 -45 30 -70.5 t121 -53.5q48 -15 79.5 -29t62.5 -38t46.5 -59t15.5 -83zM217 -126q0 24 17 40t41 16t40.5 -16t16.5 -40q0 -23 -17 -57l-50 -106h-53l29 116q-24 21 -24 47z" />
<glyph unicode="&#x219;" horiz-adv-x="474" d="M223 62q50 0 80.5 21.5t30.5 58.5q0 39 -25.5 59t-103.5 39q-76 19 -116 54.5t-40 96.5q0 66 56 107t141 41q96 0 170 -53l-41 -62q-61 42 -133 42q-43 0 -70.5 -19t-27.5 -50q0 -33 26 -50t96 -36q82 -23 124.5 -57.5t42.5 -104.5q0 -79 -60.5 -120t-147.5 -41 q-120 0 -199 69l51 58q64 -53 146 -53zM180 -126q0 24 17 40t41 16t40.5 -16t16.5 -40q0 -23 -17 -57l-50 -106h-53l29 116q-24 21 -24 47z" />
<glyph unicode="&#x21a;" horiz-adv-x="517" d="M499 608h-190v-608h-95v608h-198v81h493zM206 -125q0 24 17 40t41 16t40.5 -16t16.5 -40q0 -23 -17 -57l-50 -106h-53l29 116q-24 21 -24 47z" />
<glyph unicode="&#x21b;" horiz-adv-x="367" d="M330 87l35 -63q-48 -36 -118 -36q-71 0 -106.5 41t-35.5 112v316h-84v70h84v119l92 11v-130h133l-11 -70h-122v-315q0 -41 14.5 -59.5t48.5 -18.5q33 0 70 23zM164 -126q0 24 17 40t41 16t40.5 -16t16.5 -40q0 -23 -17 -57l-50 -106h-53l29 116q-24 21 -24 47z" />
<glyph unicode="&#x237;" horiz-adv-x="279" d="M25 -212l-34 67q39 18 58.5 34t31.5 49t12 88v501h92v-495q0 -74 -19.5 -121t-51 -72t-89.5 -51z" />
<glyph unicode="&#x2c6;" horiz-adv-x="392" d="M197 726l-127 -84l-40 45l136 113h61l135 -113l-39 -45z" />
<glyph unicode="&#x2c7;" horiz-adv-x="392" d="M70 800l126 -84l127 84l39 -45l-135 -113h-61l-136 113z" />
<glyph unicode="&#x2c9;" horiz-adv-x="333" d="M303 751v-69h-273v69h273z" />
<glyph unicode="&#x2d8;" horiz-adv-x="363" d="M180 643q-65 0 -104 40.5t-46 92.5l61 13q21 -76 89 -76q71 0 92 76l61 -13q-7 -52 -47 -92.5t-106 -40.5z" />
<glyph unicode="&#x2d9;" horiz-adv-x="189" d="M159 717q0 -27 -18 -44.5t-47 -17.5q-28 0 -46 17.5t-18 44.5t18 45t46 18q29 0 47 -18t18 -45z" />
<glyph unicode="&#x2da;" horiz-adv-x="288" d="M91 730q0 -26 14 -41t39 -15q24 0 38.5 15t14.5 41t-14 41t-39 15t-39 -15t-14 -41zM258 730q0 -45 -32 -75.5t-82 -30.5t-82 30.5t-32 75.5t32 75.5t82 30.5t82 -30.5t32 -75.5z" />
<glyph unicode="&#x2db;" horiz-adv-x="287" d="M107 -127q0 -53 64 -53q36 0 62 15l24 -54q-43 -22 -96 -22q-62 0 -96.5 30t-34.5 81q0 47 42 90.5t109 65.5h69q-143 -58 -143 -153z" />
<glyph unicode="&#x2dc;" horiz-adv-x="390" d="M247 658q-32 0 -64.5 24t-44.5 24q-16 0 -27 -10t-24 -34l-57 26q37 88 113 88q33 0 65 -24t45 -24q26 0 51 44l56 -26q-37 -88 -113 -88z" />
<glyph unicode="&#x2dd;" horiz-adv-x="388" d="M90 650l-60 25l77 171l80 -38zM252 648l-58 27l86 171l78 -41z" />
<glyph unicode="&#x300;" horiz-adv-x="0" d="M-169 672l-29 -50l-206 93l47 77z" />
<glyph unicode="&#x301;" horiz-adv-x="0" d="M-365 622l-30 50l188 119l47 -77z" />
<glyph unicode="&#x302;" horiz-adv-x="0" d="M-300 718l-125 -91l-42 44l136 121h61l135 -121l-40 -44z" />
<glyph unicode="&#x303;" horiz-adv-x="0" d="M-240 650q-32 0 -65 24t-45 24q-26 0 -51 -44l-57 26q37 88 113 88q34 0 66 -24t44 -24q26 0 51 44l57 -25q-38 -89 -113 -89z" />
<glyph unicode="&#x304;" horiz-adv-x="0" d="M-151 743v-69h-273v69h273z" />
<glyph unicode="&#x306;" horiz-adv-x="0" d="M-297 628q-64 0 -103.5 42.5t-46.5 97.5l61 13q24 -84 89 -84q68 0 92 84l61 -13q-7 -54 -47.5 -97t-105.5 -43z" />
<glyph unicode="&#x307;" horiz-adv-x="0" d="M-225 715q0 -27 -18 -45t-47 -18q-28 0 -46 18t-18 45t18 44.5t46 17.5q29 0 47 -17.5t18 -44.5z" />
<glyph unicode="&#x308;" horiz-adv-x="0" d="M-392 647q-25 0 -41.5 16t-16.5 40q0 25 16.5 41t41.5 16q24 0 40.5 -16t16.5 -41q0 -24 -16.5 -40t-40.5 -16zM-183 647q-24 0 -40.5 16t-16.5 40q0 25 16.5 41t40.5 16q25 0 41.5 -16t16.5 -41q0 -24 -16.5 -40t-41.5 -16z" />
<glyph unicode="&#x30a;" horiz-adv-x="0" d="M-349 722q0 -26 14.5 -41t38.5 -15q25 0 39 15t14 41t-14 41t-39 15q-24 0 -38.5 -15t-14.5 -41zM-182 722q0 -44 -32 -74.5t-82 -30.5t-82 30.5t-32 74.5q0 45 32 75.5t82 30.5t82 -30.5t32 -75.5z" />
<glyph unicode="&#x30b;" horiz-adv-x="0" d="M-359 635l-58 27l80 176l78 -37zM-197 633l-56 29l89 176l77 -40z" />
<glyph unicode="&#x30c;" horiz-adv-x="0" d="M-417 792l125 -91l125 91l40 -44l-135 -121h-61l-136 121z" />
<glyph unicode="&#x312;" horiz-adv-x="0" d="M-238 698q0 -23 -17 -39.5t-41 -16.5t-40.5 16.5t-16.5 39.5q0 24 17 58l50 106h53l-28 -117q23 -18 23 -47z" />
<glyph unicode="&#x313;" horiz-adv-x="0" d="M-348 807q0 23 17 39t41 16t40.5 -16t16.5 -39q0 -24 -17 -58l-50 -106h-53l28 117q-23 18 -23 47z" />
<glyph unicode="&#x326;" horiz-adv-x="0" d="M-348 -126q0 24 17 40t41 16t40.5 -16t16.5 -40q0 -23 -17 -57l-50 -106h-53l29 116q-24 21 -24 47z" />
<glyph unicode="&#x327;" horiz-adv-x="0" d="M-255 -141q0 25 -21.5 33.5t-65.5 8.5l9 115h61v-72q47 -4 70.5 -28t23.5 -57q0 -47 -36 -73.5t-89 -26.5q-63 0 -106 25l28 51q30 -16 67 -16q59 0 59 40z" />
<glyph unicode="&#x328;" horiz-adv-x="0" d="M-230 26l14 -26q-89 -52 -89 -127q0 -53 64 -53q36 0 62 15l25 -54q-44 -22 -97 -22q-62 0 -96.5 30t-34.5 81q0 47 42 90.5t110 65.5z" />
<glyph unicode="&#x335;" horiz-adv-x="0" d="M-2 348v-70h-349v70h349z" />
<glyph unicode="&#x336;" horiz-adv-x="0" d="M-25 348v-70h-653v70h653z" />
<glyph unicode="&#x384;" horiz-adv-x="0" d="M-66 589l-69 12l38 211l100 -18z" />
<glyph unicode="&#x385;" horiz-adv-x="0" d="M-402 612q-25 0 -41.5 16t-16.5 40q0 25 16.5 41t41.5 16q24 0 40.5 -16t16.5 -41q0 -24 -16.5 -40t-40.5 -16zM-173 612q-24 0 -40.5 16t-16.5 40q0 25 16.5 41t40.5 16q25 0 41.5 -16t16.5 -41q0 -24 -16.5 -40t-41.5 -16zM-254 717l-68 10l29 179l101 -18z" />
<glyph unicode="&#x386;" horiz-adv-x="579" d="M473 0l-53 173h-265l-53 -173h-96l224 689h120l223 -689h-100zM286 603l-108 -353h219l-107 353h-4zM106 500l-70 12l48 189l100 -16z" />
<glyph unicode="&#x388;" horiz-adv-x="588" d="M515 613h-267v-225h232v-76h-232v-236h286v-76h-381v689h373zM45 500l-70 12l48 189l100 -16z" />
<glyph unicode="&#x389;" horiz-adv-x="728" d="M623 0h-95v323h-280v-323h-95v689h95v-288h280v288h95v-689zM45 500l-70 12l48 189l100 -16z" />
<glyph unicode="&#x38a;" horiz-adv-x="353" d="M248 0h-96v689h96v-689zM45 500l-70 12l48 189l100 -16z" />
<glyph unicode="&#x38c;" horiz-adv-x="719" d="M657 344q0 -169 -78 -262.5t-208 -93.5t-208 92t-78 263q0 169 78.5 263.5t207.5 94.5q130 0 208 -93t78 -264zM556 344q0 279 -185 279t-185 -280q0 -277 185 -277t185 278zM55 500l-70 12l48 189l100 -16z" />
<glyph unicode="&#x38e;" horiz-adv-x="663" d="M658 689l-222 -424v-265h-96v264l-222 425h105l166 -337h4l166 337h99zM30 500l-70 12l48 189l100 -16z" />
<glyph unicode="&#x38f;" horiz-adv-x="731" d="M377 623q-185 0 -185 -271q0 -215 132 -281v-71h-222v76h122v4q-133 64 -133 272q0 163 79 256t207 93t207 -93t79 -256q0 -207 -134 -272v-4h123v-76h-221v71q131 65 131 281q0 271 -185 271zM60 500l-70 12l48 189l100 -16z" />
<glyph unicode="&#x390;" horiz-adv-x="281" d="M92 130v397h92v-386q0 -56 49 -79l-32 -74q-47 12 -78 47.5t-31 94.5zM24 612q-25 0 -41.5 16t-16.5 40q0 25 16.5 41t41.5 16q24 0 40.5 -16t16.5 -41q0 -24 -16.5 -40t-40.5 -16zM253 612q-24 0 -40.5 16t-16.5 40q0 25 16.5 41t40.5 16q25 0 41.5 -16t16.5 -41 q0 -24 -16.5 -40t-41.5 -16zM172 717l-68 10l29 179l101 -18z" />
<glyph unicode="&#x391;" horiz-adv-x="579" d="M473 0l-53 173h-265l-53 -173h-96l224 689h120l223 -689h-100zM286 603l-108 -353h219l-107 353h-4z" />
<glyph unicode="&#x392;" horiz-adv-x="626" d="M468 195q0 129 -144 129h-124v-248h120q148 0 148 119zM441 509q0 105 -132 105h-109v-217h117q124 0 124 112zM568 197q0 -54 -22 -94t-60.5 -61.5t-82.5 -31.5t-96 -10h-202v689h187q49 0 90.5 -8.5t78 -27.5t57 -54t20.5 -84q0 -61 -35.5 -98.5t-84.5 -48.5v-4 q63 -12 106.5 -51t43.5 -116z" />
<glyph unicode="&#x393;" horiz-adv-x="503" d="M105 689h390l-10 -82h-285v-607h-95v689z" />
<glyph unicode="&#x394;" horiz-adv-x="579" d="M6 0l224 689h120l223 -689h-567zM286 603l-160 -525h323l-159 525h-4z" />
<glyph unicode="&#x395;" horiz-adv-x="540" d="M467 613h-267v-225h232v-76h-232v-236h286v-76h-381v689h373z" />
<glyph unicode="&#x396;" horiz-adv-x="521" d="M478 612l-341 -531h341l-11 -81h-436v76l344 533h-308v80h411v-77z" />
<glyph unicode="&#x397;" horiz-adv-x="680" d="M575 0h-95v323h-280v-323h-95v689h95v-288h280v288h95v-689z" />
<glyph unicode="&#x398;" horiz-adv-x="696" d="M467 384v-74h-239v74h239zM634 344q0 -169 -78 -262.5t-208 -93.5t-208 92t-78 263q0 169 78.5 263.5t207.5 94.5q130 0 208 -93t78 -264zM533 344q0 279 -185 279t-185 -280q0 -277 185 -277t185 278z" />
<glyph unicode="&#x399;" horiz-adv-x="306" d="M201 0h-96v689h96v-689z" />
<glyph unicode="&#x39a;" horiz-adv-x="594" d="M200 689v-689h-95v689h95zM477 0l-272 368l262 321h108l-261 -315l280 -374h-117z" />
<glyph unicode="&#x39b;" horiz-adv-x="569" d="M281 597l-179 -597h-96l219 689h120l218 -689h-100l-178 597h-4z" />
<glyph unicode="&#x39c;" horiz-adv-x="796" d="M734 0h-92l-30 353q-11 133 -11 229h-4l-154 -509h-91l-160 509h-4q0 -115 -9 -229l-27 -353h-90l57 689h128l151 -503h4l146 503h129z" />
<glyph unicode="&#x39d;" horiz-adv-x="689" d="M584 0h-129l-270 583h-4q13 -104 13 -247v-336h-89v689h126l273 -586h4q-13 104 -13 250v336h89v-689z" />
<glyph unicode="&#x39e;" horiz-adv-x="526" d="M115 307v85h291v-85h-291zM54 602v87h413l-13 -87h-400zM54 0v89h421v-89h-421z" />
<glyph unicode="&#x39f;" horiz-adv-x="696" d="M634 344q0 -169 -78 -262.5t-208 -93.5t-208 92t-78 263q0 169 78.5 263.5t207.5 94.5q130 0 208 -93t78 -264zM533 344q0 279 -185 279t-185 -280q0 -277 185 -277t185 278z" />
<glyph unicode="&#x3a0;" horiz-adv-x="680" d="M575 0h-95v608h-280v-608h-95v689h470v-689z" />
<glyph unicode="&#x3a1;" horiz-adv-x="586" d="M453 475q0 140 -158 140h-95v-287h95q76 0 117 32t41 115zM554 476q0 -115 -71.5 -169t-195.5 -54h-87v-253h-95v689h180q128 0 198.5 -53.5t70.5 -159.5z" />
<glyph unicode="&#x3a3;" horiz-adv-x="505" d="M351 377v-62l-200 -237h316v-78h-423v78l222 266l-222 267v78h423v-78h-316z" />
<glyph unicode="&#x3a4;" horiz-adv-x="517" d="M499 608h-190v-608h-95v608h-198v81h493z" />
<glyph unicode="&#x3a5;" horiz-adv-x="550" d="M545 689l-222 -424v-265h-96v264l-222 425h105l166 -337h4l166 337h99z" />
<glyph unicode="&#x3a6;" horiz-adv-x="810" d="M451 0h-92v71q-52 1 -96.5 9.5t-87.5 29t-73 50.5t-48.5 78t-18.5 109q0 262 324 273v69h92v-69q324 -11 324 -273q0 -61 -18.5 -109t-48.5 -78t-73 -50.5t-87.5 -29t-96.5 -9.5v-71zM677 347q0 52 -14 90t-35 59t-53.5 33.5t-60.5 16t-65 3.5v-407q48 3 83 11.5t71 29 t55 62t19 102.5zM133 347q0 -50 13.5 -87t34.5 -58t53 -34.5t60.5 -18.5t66.5 -7v407q-47 0 -81.5 -7t-71 -26.5t-56 -62t-19.5 -106.5z" />
<glyph unicode="&#x3a7;" horiz-adv-x="555" d="M217 367l-194 322h108l142 -256h4l148 256h102l-197 -317l220 -372h-108l-167 302h-4l-164 -302h-102z" />
<glyph unicode="&#x3a8;" horiz-adv-x="704" d="M398 0h-93v202q-137 10 -203.5 76.5t-66.5 170.5v240h93v-236q0 -80 39 -123t140 -51v410h89v-410q101 8 140.5 51.5t39.5 122.5v236h93v-240q0 -103 -66.5 -170t-204.5 -77v-202z" />
<glyph unicode="&#x3a9;" horiz-adv-x="708" d="M354 623q-185 0 -185 -271q0 -215 132 -281v-71h-222v76h122v4q-133 64 -133 272q0 163 79 256t207 93t207 -93t79 -256q0 -207 -134 -272v-4h123v-76h-221v71q131 65 131 281q0 271 -185 271z" />
<glyph unicode="&#x3aa;" horiz-adv-x="306" d="M201 0h-96v689h96v-689zM47 764q-24 0 -40.5 16t-16.5 41q0 24 16.5 40t40.5 16q25 0 41.5 -16t16.5 -40q0 -25 -16.5 -41t-41.5 -16zM257 764q-25 0 -41.5 16t-16.5 41q0 24 16.5 40t41.5 16q24 0 41 -16t17 -40t-17 -40.5t-41 -16.5z" />
<glyph unicode="&#x3ab;" horiz-adv-x="550" d="M545 689l-222 -424v-265h-96v264l-222 425h105l166 -337h4l166 337h99zM169 764q-24 0 -40.5 16t-16.5 41q0 24 16.5 40t40.5 16q25 0 41.5 -16t16.5 -40q0 -25 -16.5 -41t-41.5 -16zM379 764q-25 0 -41.5 16t-16.5 41q0 24 16.5 40t41.5 16q24 0 41 -16t17 -40 t-17 -40.5t-41 -16.5z" />
<glyph unicode="&#x3ac;" horiz-adv-x="607" d="M565 67l-34 -80q-33 6 -58 28.5t-32 62.5l-17 72h-4q-21 -71 -65 -116.5t-109 -45.5q-95 0 -142 73.5t-47 201.5q0 122 54.5 199t146.5 77q141 0 172 -145h4l38 134l84 -24l-83 -227l48 -161q11 -38 44 -49zM258 61q96 0 135 209q-31 196 -122 196q-56 0 -86 -52.5 t-30 -150.5q0 -99 27.5 -150.5t75.5 -51.5zM303 589l-69 12l38 211l100 -18z" />
<glyph unicode="&#x3ad;" horiz-adv-x="516" d="M338 311l-11 -72h-56q-60 0 -86.5 -20t-26.5 -63q0 -44 30 -69t87 -25q97 0 168 61l48 -60q-92 -75 -215 -75q-98 0 -158.5 42.5t-60.5 121.5q0 55 33.5 87.5t84.5 40.5v4q-42 11 -69.5 42t-27.5 72q0 67 57 104t144 37q46 0 97 -15t85 -44l-45 -56q-58 43 -137 43 q-106 0 -106 -79q0 -35 28 -56t76 -21h61zM294 589l-69 12l38 211l100 -18z" />
<glyph unicode="&#x3ae;" horiz-adv-x="597" d="M503 383v-585l-92 -11v536q0 85 -14 114.5t-68 29.5q-73 0 -131 -85v-382h-92v357q0 79 -26 170l86 12q18 -32 24 -87q69 87 170 87q143 0 143 -156zM328 589l-69 12l38 211l100 -18z" />
<glyph unicode="&#x3af;" horiz-adv-x="281" d="M92 130v397h92v-386q0 -56 49 -79l-32 -74q-47 12 -78 47.5t-31 94.5zM155 589l-69 12l38 211l100 -18z" />
<glyph unicode="&#x3b0;" horiz-adv-x="583" d="M93 177v350h92v-336q0 -68 22.5 -98.5t74.5 -30.5q67 0 103.5 51t36.5 150q0 129 -26 264h93q26 -141 26 -277q0 -120 -63.5 -191t-170.5 -71q-96 0 -142 51t-46 138zM177 612q-25 0 -41.5 16t-16.5 40q0 25 16.5 41t41.5 16q24 0 40.5 -16t16.5 -41q0 -24 -16.5 -40 t-40.5 -16zM406 612q-24 0 -40.5 16t-16.5 40q0 25 16.5 41t40.5 16q25 0 41.5 -16t16.5 -41q0 -24 -16.5 -40t-41.5 -16zM325 717l-68 10l29 179l101 -18z" />
<glyph unicode="&#x3b1;" horiz-adv-x="607" d="M565 67l-34 -80q-33 6 -58 28.5t-32 62.5l-17 72h-4q-21 -71 -65 -116.5t-109 -45.5q-95 0 -142 73.5t-47 201.5q0 122 54.5 199t146.5 77q141 0 172 -145h4l38 134l84 -24l-83 -227l48 -161q11 -38 44 -49zM258 61q96 0 135 209q-31 196 -122 196q-56 0 -86 -52.5 t-30 -150.5q0 -99 27.5 -150.5t75.5 -51.5z" />
<glyph unicode="&#x3b2;" horiz-adv-x="578" d="M68 356q0 193 74.5 293.5t185.5 100.5q83 0 121.5 -40t38.5 -102q0 -106 -149 -166v-4q96 -3 143.5 -62t47.5 -157q0 -95 -63 -163t-170 -68q-122 0 -175.5 93.5t-53.5 274.5zM296 62q62 0 97.5 41.5t35.5 111.5q0 84 -29.5 128.5t-103.5 44.5q-37 0 -129 -45 q1 -141 28.5 -211t100.5 -70zM325 680q-142 0 -157 -263l64.5 27t53.5 24.5t47 28t31.5 30.5t23 38.5t6.5 45.5q0 32 -18 50.5t-51 18.5z" />
<glyph unicode="&#x3b3;" horiz-adv-x="500" d="M201 19q-38 159 -91 294.5t-110 191.5l93 33q96 -116 158 -417h4l147 418l93 -21l-203 -500q-36 -89 -12 -220l-74 -11q-25 48 -26 111.5t21 120.5z" />
<glyph unicode="&#x3b4;" horiz-adv-x="577" d="M52 243q0 86 44 147.5t115 89.5q-53 27 -75 57.5t-22 72.5q0 65 53 102.5t138 37.5q95 0 168 -60l-46 -54q-57 44 -126 44q-43 0 -67.5 -18t-24.5 -49q0 -32 23 -49.5t93 -45.5q108 -44 155.5 -104.5t47.5 -169.5q0 -107 -65 -181.5t-173 -74.5q-109 0 -173.5 73 t-64.5 182zM429 244q0 86 -31.5 127.5t-120.5 79.5q-67 -32 -96.5 -82.5t-29.5 -125.5q0 -85 36.5 -133t102.5 -48q67 0 103 46.5t36 135.5z" />
<glyph unicode="&#x3b5;" horiz-adv-x="516" d="M338 311l-11 -72h-56q-60 0 -86.5 -20t-26.5 -63q0 -44 30 -69t87 -25q97 0 168 61l48 -60q-92 -75 -215 -75q-98 0 -158.5 42.5t-60.5 121.5q0 55 33.5 87.5t84.5 40.5v4q-42 11 -69.5 42t-27.5 72q0 67 57 104t144 37q46 0 97 -15t85 -44l-45 -56q-58 43 -137 43 q-106 0 -106 -79q0 -35 28 -56t76 -21h61z" />
<glyph unicode="&#x3b6;" horiz-adv-x="403" d="M415 -43q0 -108 -160 -180l-37 64q25 14 38.5 22.5t29.5 22.5t23 29.5t7 34.5q0 25 -18 40.5t-60 30.5q-99 35 -144.5 86t-45.5 145q0 90 59.5 187.5t167.5 173.5l-2 3q-15 -6 -36 -6q-52 0 -98.5 26t-70.5 79l64 35q46 -76 123 -76q33 0 59.5 13.5t65.5 44.5l48 -51 q-150 -137 -216 -237.5t-66 -188.5q0 -69 30.5 -101.5t104.5 -60.5q69 -25 101.5 -53.5t32.5 -82.5z" />
<glyph unicode="&#x3b7;" horiz-adv-x="597" d="M503 383v-585l-92 -11v536q0 85 -14 114.5t-68 29.5q-73 0 -131 -85v-382h-92v357q0 79 -26 170l86 12q18 -32 24 -87q69 87 170 87q143 0 143 -156z" />
<glyph unicode="&#x3b8;" horiz-adv-x="574" d="M57 371q0 178 60 278.5t171 100.5t170 -99t59 -279q0 -178 -60 -281t-170 -103q-111 0 -170.5 101t-59.5 282zM288 675q-68 0 -100.5 -64.5t-35.5 -209.5h270q-3 145 -35 209.5t-99 64.5zM287 62q66 0 98 64t36 205h-269q4 -141 36.5 -205t98.5 -64z" />
<glyph unicode="&#x3b9;" horiz-adv-x="281" d="M92 130v397h92v-386q0 -56 49 -79l-32 -74q-47 12 -78 47.5t-31 94.5z" />
<glyph unicode="&#x3ba;" horiz-adv-x="528" d="M161 750q14 -34 20.5 -78.5t7.5 -77t1 -97.5v-497h-92v512q0 136 -27 226zM194 288l215 251l77 -38l-184 -210l124 -159q23 -29 41.5 -43t50.5 -26l-32 -75q-70 17 -121 82z" />
<glyph unicode="&#x3bb;" horiz-adv-x="528" d="M30 7l182 532h36q-22 64 -58.5 97t-110.5 45l14 71q114 -17 170 -70.5t82 -161.5q29 -121 43 -174.5t38 -130.5t48 -120.5t54 -73.5l-96 -33q-52 65 -88.5 180.5t-69.5 292.5h-4l-151 -474z" />
<glyph unicode="&#x3bc;" horiz-adv-x="588" d="M98 527h92v-296q0 -37 1 -57.5t5 -44t12.5 -35t23.5 -19.5t38 -8q75 0 128 77v383h92v-357q0 -79 26 -170l-86 -12q-17 30 -23 84q-22 -38 -59 -61t-74 -23q-62 0 -92 42l-4 -1q11 -51 11 -85v-146l-91 -11v740z" />
<glyph unicode="&#x3bd;" horiz-adv-x="510" d="M302 0h-111q-97 420 -191 505l91 33q88 -102 160 -453h4l148 454l92 -21z" />
<glyph unicode="&#x3be;" horiz-adv-x="441" d="M52 265q0 43 14.5 76.5t37.5 53.5t47.5 31.5t49.5 16.5v4q-46 16 -78.5 51t-32.5 83q0 77 58.5 123t144.5 46q96 0 167 -59l-44 -54q-58 43 -123 43q-52 0 -80 -25.5t-28 -73.5t28 -74.5t76 -26.5h59l-11 -79h-56q-58 0 -94 -39.5t-36 -92.5q0 -24 6 -44t13 -34.5t24 -28 t27.5 -21.5t35.5 -18.5t36.5 -14.5t41.5 -14q68 -24 101 -53.5t33 -83.5q0 -108 -160 -180l-37 64q25 14 38.5 22.5t29.5 22.5t23 29.5t7 34.5q0 25 -18.5 41t-60.5 30q-29 10 -41.5 14.5t-43.5 18t-47 24.5t-40 30.5t-36 41t-21.5 51.5t-9.5 64z" />
<glyph unicode="&#x3bf;" horiz-adv-x="584" d="M428 264q0 201 -135 201q-137 0 -137 -202q0 -201 136 -201t136 202zM57 263q0 125 62.5 200.5t173.5 75.5t172.5 -74t61.5 -201q0 -124 -62.5 -200t-172.5 -76q-111 0 -173 74t-62 201z" />
<glyph unicode="&#x3c0;" horiz-adv-x="624" d="M218 0h-92v452h-82v75h341h32h5q89 1 159 17l11 -76q-44 -11 -97 -14v-313q0 -56 49 -79l-32 -74q-47 12 -78 47.5t-31 94.5v322h-185v-452z" />
<glyph unicode="&#x3c1;" horiz-adv-x="578" d="M176 -202l-92 -11v484q0 131 54.5 199.5t160.5 68.5q222 0 222 -275q0 -118 -54.5 -197t-152.5 -79q-88 0 -138 60v-250zM292 63q63 0 96.5 51.5t33.5 149.5q0 203 -125 203q-65 0 -93 -52.5t-28 -158.5v-129q42 -64 116 -64z" />
<glyph unicode="&#x3c2;" horiz-adv-x="461" d="M430 -43q0 -108 -160 -180l-37 64q25 14 38.5 22.5t29.5 22.5t23 29.5t7 34.5q0 25 -19.5 39.5t-69.5 31.5q-96 34 -143 94.5t-47 166.5q0 111 64.5 184t171.5 73q93 0 159 -55l-45 -60q-52 39 -114 39q-61 0 -99.5 -47t-38.5 -134q0 -83 29 -120.5t105 -65.5 q30 -11 46.5 -18t38.5 -19.5t33 -25.5t19.5 -32.5t8.5 -43.5z" />
<glyph unicode="&#x3c3;" horiz-adv-x="589" d="M426 264q0 137 -70 198q-100 0 -150 -41.5t-50 -157.5q0 -201 136 -201q134 0 134 202zM525 264q0 -125 -61.5 -200.5t-171.5 -75.5q-111 0 -173 74t-62 201q0 124 67.5 197t187.5 73q159 0 241 16l14 -74q-67 -12 -137 -12q95 -55 95 -199z" />
<glyph unicode="&#x3c4;" horiz-adv-x="464" d="M178 130v322h-173v75h279q104 1 169 17l11 -76q-65 -16 -154 -16h-40v-311q0 -56 49 -79l-32 -74q-47 12 -78 47.5t-31 94.5z" />
<glyph unicode="&#x3c5;" horiz-adv-x="583" d="M93 177v350h92v-336q0 -68 22.5 -98.5t74.5 -30.5q67 0 103.5 51t36.5 150q0 129 -26 264h93q26 -141 26 -277q0 -120 -63.5 -191t-170.5 -71q-96 0 -142 51t-46 138z" />
<glyph unicode="&#x3c6;" horiz-adv-x="749" d="M160 260q0 -98 34.5 -145.5t128.5 -55.5v260q0 220 172 220q186 0 186 -271q0 -138 -68 -204t-202 -74v-192l-88 -11v203q-133 8 -194 70.5t-61 178.5q0 142 60 288h92q-60 -160 -60 -267zM411 304v-246q101 8 138.5 56.5t37.5 153.5q0 107 -21.5 153t-71.5 46 q-27 0 -44 -12t-25.5 -36.5t-11 -50.5t-2.5 -64z" />
<glyph unicode="&#x3c7;" horiz-adv-x="474" d="M236 261h4l124 278l91 -21l-167 -336l181 -369l-94 -26l-137 316h-4l-136 -316l-92 20l181 377q-80 211 -192 321l94 33q52 -63 86 -124t61 -153z" />
<glyph unicode="&#x3c8;" horiz-adv-x="748" d="M335 512q0 136 -27 226l86 12q14 -34 20.5 -78.5t7.5 -77t1 -97.5v-434q90 9 127 58t37 141q0 115 -26 265h93q26 -162 26 -273q0 -115 -65.5 -183t-191.5 -78v-195l-88 -11v206q-120 9 -184.5 64.5t-64.5 136.5v333h92v-326q0 -125 157 -138v449z" />
<glyph unicode="&#x3c9;" horiz-adv-x="790" d="M439 231q0 -83 20 -126t70 -43q56 0 78 48.5t22 149.5q0 104 -61 267h92q62 -151 62 -288q0 -251 -186 -251q-59 0 -97 33t-43 94h-4q-10 -58 -49 -92.5t-91 -34.5q-97 0 -140.5 63t-43.5 188q0 142 60 288h92q-59 -157 -59 -267q0 -101 22 -149.5t78 -48.5q90 0 90 169 v124l88 12v-136z" />
<glyph unicode="&#x3ca;" horiz-adv-x="281" d="M92 130v397h92v-386q0 -56 49 -79l-32 -74q-47 12 -78 47.5t-31 94.5zM34 647q-25 0 -41.5 16t-16.5 40q0 25 16.5 41t41.5 16q24 0 40.5 -16t16.5 -41q0 -24 -16.5 -40t-40.5 -16zM243 647q-24 0 -40.5 16t-16.5 40q0 25 16.5 41t40.5 16q25 0 41.5 -16t16.5 -41 q0 -24 -16.5 -40t-41.5 -16z" />
<glyph unicode="&#x3cb;" horiz-adv-x="583" d="M93 177v350h92v-336q0 -68 22.5 -98.5t74.5 -30.5q67 0 103.5 51t36.5 150q0 129 -26 264h93q26 -141 26 -277q0 -120 -63.5 -191t-170.5 -71q-96 0 -142 51t-46 138zM190 647q-25 0 -41.5 16t-16.5 40q0 25 16.5 41t41.5 16q24 0 40.5 -16t16.5 -41q0 -24 -16.5 -40 t-40.5 -16zM399 647q-24 0 -40.5 16t-16.5 40q0 25 16.5 41t40.5 16q25 0 41.5 -16t16.5 -41q0 -24 -16.5 -40t-41.5 -16z" />
<glyph unicode="&#x3cc;" horiz-adv-x="584" d="M428 264q0 201 -135 201q-137 0 -137 -202q0 -201 136 -201t136 202zM57 263q0 125 62.5 200.5t173.5 75.5t172.5 -74t61.5 -201q0 -124 -62.5 -200t-172.5 -76q-111 0 -173 74t-62 201zM332 589l-69 12l38 211l100 -18z" />
<glyph unicode="&#x3cd;" horiz-adv-x="583" d="M93 177v350h92v-336q0 -68 22.5 -98.5t74.5 -30.5q67 0 103.5 51t36.5 150q0 129 -26 264h93q26 -141 26 -277q0 -120 -63.5 -191t-170.5 -71q-96 0 -142 51t-46 138zM315 589l-69 12l38 211l100 -18z" />
<glyph unicode="&#x3ce;" horiz-adv-x="790" d="M439 231q0 -83 20 -126t70 -43q56 0 78 48.5t22 149.5q0 104 -61 267h92q62 -151 62 -288q0 -251 -186 -251q-59 0 -97 33t-43 94h-4q-10 -58 -49 -92.5t-91 -34.5q-97 0 -140.5 63t-43.5 188q0 142 60 288h92q-59 -157 -59 -267q0 -101 22 -149.5t78 -48.5q90 0 90 169 v124l88 12v-136zM415 589l-69 12l38 211l100 -18z" />
<glyph unicode="&#x401;" horiz-adv-x="540" d="M467 613h-267v-225h232v-76h-232v-236h286v-76h-381v689h373zM184 764q-24 0 -40.5 16t-16.5 41q0 24 16.5 40t40.5 16q25 0 41.5 -16t16.5 -40q0 -25 -16.5 -41t-41.5 -16zM394 764q-25 0 -41.5 16t-16.5 41q0 24 16.5 40t41.5 16q24 0 41 -16t17 -40t-17 -40.5 t-41 -16.5z" />
<glyph unicode="&#x402;" horiz-adv-x="720" d="M507 -139l-24 74q65 26 86 60t21 105v118q0 83 -29.5 118t-105.5 35q-86 0 -146 -51v-320h-95v608h-198v81h493l-10 -81h-190v-217q76 61 168 61q108 0 158 -57t50 -173v-126q0 -100 -44 -152.5t-134 -82.5z" />
<glyph unicode="&#x403;" horiz-adv-x="503" d="M105 689h390l-10 -82h-285v-607h-95v689zM221 750l-28 49l189 109l47 -77z" />
<glyph unicode="&#x404;" horiz-adv-x="577" d="M353 66q83 0 150 59l49 -60q-81 -77 -203 -77q-128 0 -207.5 93.5t-79.5 263.5q0 167 82 261.5t204 94.5q63 0 107 -16.5t87 -51.5l-52 -59q-61 51 -136 51q-79 0 -131 -56t-60 -176h288v-78h-290q6 -127 57.5 -188t134.5 -61z" />
<glyph unicode="&#x405;" horiz-adv-x="545" d="M507 192q0 -91 -65.5 -147.5t-178.5 -56.5q-145 0 -236 89l55 61q75 -72 178 -72q64 0 106 31.5t42 91.5q0 49 -31.5 77.5t-117.5 55.5q-106 32 -155 77t-49 122q0 80 60 130t157 50q127 0 213 -80l-54 -60q-68 62 -155 62q-54 0 -89 -25t-35 -73q0 -45 30 -70.5 t121 -53.5q48 -15 79.5 -29t62.5 -38t46.5 -59t15.5 -83z" />
<glyph unicode="&#x406;" horiz-adv-x="306" d="M201 0h-96v689h96v-689z" />
<glyph unicode="&#x407;" horiz-adv-x="306" d="M201 0h-96v689h96v-689zM47 764q-24 0 -40.5 16t-16.5 41q0 24 16.5 40t40.5 16q25 0 41.5 -16t16.5 -40q0 -25 -16.5 -41t-41.5 -16zM257 764q-25 0 -41.5 16t-16.5 41q0 24 16.5 40t41.5 16q24 0 41 -16t17 -40t-17 -40.5t-41 -16.5z" />
<glyph unicode="&#x408;" horiz-adv-x="308" d="M29 -139l-24 74q65 26 86.5 60t21.5 105v589h95v-593q0 -100 -44.5 -152.5t-134.5 -82.5z" />
<glyph unicode="&#x409;" horiz-adv-x="909" d="M52 -12l-42 69q27 20 43 39t30 45.5t24.5 75t20 108t22.5 164.5l25 200h365v-253h75q269 0 269 -213q0 -115 -71.5 -169t-195.5 -54h-172v611h-187l-14 -126q-16 -142 -28.5 -217.5t-34.5 -134.5t-50.5 -88t-78.5 -57zM783 222q0 140 -158 140h-85v-285h85q76 0 117 31.5 t41 113.5z" />
<glyph unicode="&#x40a;" horiz-adv-x="929" d="M637 0h-172v349h-265v-349h-95v689h95v-266h265v266h95v-266h75q131 0 200 -49t69 -158q0 -216 -267 -216zM645 349h-85v-272h85q77 0 117.5 29t40.5 109q0 74 -41 104t-117 30z" />
<glyph unicode="&#x40b;" horiz-adv-x="720" d="M499 608h-190v-217q76 61 168 61q108 0 158 -57t50 -173v-222h-95v218q0 83 -29.5 118t-105.5 35q-86 0 -146 -51v-320h-95v608h-198v81h493z" />
<glyph unicode="&#x40c;" horiz-adv-x="594" d="M481 0l-213 323h-68v-323h-95v689h95v-288h69l205 288h101l-226 -323l245 -366h-113zM247 750l-28 49l189 109l47 -77z" />
<glyph unicode="&#x40e;" horiz-adv-x="565" d="M560 689l-197 -503q-37 -95 -91 -140t-160 -58l-14 74q84 12 119 40t58 87h-39l-221 500h99l184 -435h4l162 435h96zM281 755q-65 0 -104 35t-46 78l61 13q19 -56 89 -56q72 0 91 56l61 -13q-7 -43 -46.5 -78t-105.5 -35z" />
<glyph unicode="&#x40f;" horiz-adv-x="675" d="M475 689h95v-689h-192v-150h-75l-15 150h-183v689h95v-611h275v611z" />
<glyph unicode="&#x410;" horiz-adv-x="579" d="M473 0l-53 173h-265l-53 -173h-96l224 689h120l223 -689h-100zM286 603l-108 -353h219l-107 353h-4z" />
<glyph unicode="&#x411;" horiz-adv-x="584" d="M495 689l-9 -78h-286v-188h85q269 0 269 -207q0 -112 -71.5 -164t-195.5 -52h-182v689h390zM453 215q0 134 -158 134h-95v-273h95q76 0 117 30.5t41 108.5z" />
<glyph unicode="&#x412;" horiz-adv-x="626" d="M468 195q0 129 -144 129h-124v-248h120q148 0 148 119zM441 509q0 105 -132 105h-109v-217h117q124 0 124 112zM568 197q0 -54 -22 -94t-60.5 -61.5t-82.5 -31.5t-96 -10h-202v689h187q49 0 90.5 -8.5t78 -27.5t57 -54t20.5 -84q0 -61 -35.5 -98.5t-84.5 -48.5v-4 q63 -12 106.5 -51t43.5 -116z" />
<glyph unicode="&#x413;" horiz-adv-x="503" d="M105 689h390l-10 -82h-285v-607h-95v689z" />
<glyph unicode="&#x414;" horiz-adv-x="642" d="M-5 78h47q38 37 53.5 106t45.5 305l25 200h370v-611h56v-228h-75l-15 150h-417l-15 -150h-75v228zM441 611h-192l-14 -126q-25 -218 -42.5 -293t-61.5 -114h310v533z" />
<glyph unicode="&#x415;" horiz-adv-x="540" d="M467 613h-267v-225h232v-76h-232v-236h286v-76h-381v689h373z" />
<glyph unicode="&#x416;" horiz-adv-x="821" d="M365 0v323h-83l-171 -323h-106l201 366l-182 323h103l156 -288h82v288h91v-288h82l158 288h101l-182 -323l201 -366h-108l-170 323h-82v-323h-91z" />
<glyph unicode="&#x417;" horiz-adv-x="536" d="M481 201q0 -92 -67.5 -152.5t-178.5 -60.5q-143 0 -220 93l60 54q57 -67 157 -67q70 0 108.5 35.5t38.5 98.5q0 66 -38.5 97t-103.5 31h-81l11 78h64q54 0 91 28t37 82q0 52 -35 78.5t-92 26.5q-84 0 -150 -62l-53 59q85 81 208 81q100 0 160.5 -48.5t60.5 -121.5 q0 -61 -36.5 -103t-90.5 -52v-4q61 -4 105.5 -50t44.5 -121z" />
<glyph unicode="&#x418;" horiz-adv-x="683" d="M230 0h-125v689h95v-336q0 -140 -13 -250h4l264 586h123v-689h-95v336q0 117 13 247h-4z" />
<glyph unicode="&#x419;" horiz-adv-x="683" d="M230 0h-125v689h95v-336q0 -140 -13 -250h4l264 586h123v-689h-95v336q0 117 13 247h-4zM340 755q-65 0 -104 35t-46 78l61 13q19 -56 89 -56q72 0 91 56l61 -13q-7 -43 -46.5 -78t-105.5 -35z" />
<glyph unicode="&#x41a;" horiz-adv-x="594" d="M481 0l-213 323h-68v-323h-95v689h95v-288h69l205 288h101l-226 -323l245 -366h-113z" />
<glyph unicode="&#x41b;" horiz-adv-x="655" d="M52 -12l-42 69q27 20 43 39t30 45.5t24.5 75t20 108t22.5 164.5l25 200h375v-689h-95v609h-197l-14 -124q-16 -142 -28.5 -217.5t-34.5 -134.5t-50.5 -88t-78.5 -57z" />
<glyph unicode="&#x41c;" horiz-adv-x="796" d="M734 0h-92l-30 353q-11 133 -11 229h-4l-154 -509h-91l-160 509h-4q0 -115 -9 -229l-27 -353h-90l57 689h128l151 -503h4l146 503h129z" />
<glyph unicode="&#x41d;" horiz-adv-x="680" d="M575 0h-95v323h-280v-323h-95v689h95v-288h280v288h95v-689z" />
<glyph unicode="&#x41e;" horiz-adv-x="696" d="M634 344q0 -169 -78 -262.5t-208 -93.5t-208 92t-78 263q0 169 78.5 263.5t207.5 94.5q130 0 208 -93t78 -264zM533 344q0 279 -185 279t-185 -280q0 -277 185 -277t185 278z" />
<glyph unicode="&#x41f;" horiz-adv-x="680" d="M575 0h-95v608h-280v-608h-95v689h470v-689z" />
<glyph unicode="&#x420;" horiz-adv-x="586" d="M453 475q0 140 -158 140h-95v-287h95q76 0 117 32t41 115zM554 476q0 -115 -71.5 -169t-195.5 -54h-87v-253h-95v689h180q128 0 198.5 -53.5t70.5 -159.5z" />
<glyph unicode="&#x421;" horiz-adv-x="571" d="M353 68q83 0 150 59l49 -62q-81 -77 -203 -77q-128 0 -207.5 93.5t-79.5 263.5q0 167 82 261.5t204 94.5q63 0 107 -16.5t87 -51.5l-52 -61q-61 51 -136 51q-85 0 -138 -66.5t-53 -211.5q0 -142 52 -209.5t138 -67.5z" />
<glyph unicode="&#x422;" horiz-adv-x="517" d="M499 608h-190v-608h-95v608h-198v81h493z" />
<glyph unicode="&#x423;" d="M555 689l-197 -503q-37 -95 -91 -140t-160 -58l-14 74q84 12 119 40t58 87h-39l-221 500h99l184 -435h4l162 435h96z" />
<glyph unicode="&#x424;" horiz-adv-x="820" d="M456 -30h-92v62q-65 2 -120 19t-102.5 52t-74.5 97.5t-27 146.5q0 82 25.5 142.5t72 95.5t102 52.5t124.5 21.5v60h92v-60q69 -4 124.5 -21.5t102 -52.5t72 -95.5t25.5 -142.5q0 -84 -27 -146.5t-74.5 -97.5t-102.5 -52t-120 -19v-62zM682 347q0 59 -14 103.5t-35.5 70 t-53.5 41t-61 21t-64 6.5v-487q46 3 82.5 14.5t71.5 37t54.5 74.5t19.5 119zM138 347q0 -70 19.5 -119t54.5 -74.5t71 -37t83 -14.5v487q-36 -1 -65 -6.5t-60.5 -21t-53 -41t-35.5 -70t-14 -103.5z" />
<glyph unicode="&#x425;" horiz-adv-x="555" d="M217 367l-194 322h108l142 -256h4l148 256h102l-197 -317l220 -372h-108l-167 302h-4l-164 -302h-102z" />
<glyph unicode="&#x426;" horiz-adv-x="680" d="M475 689h95v-611h80v-228h-75l-15 150h-455v689h95v-611h275v611z" />
<glyph unicode="&#x427;" horiz-adv-x="617" d="M512 0h-95v290q-67 -53 -159 -53q-218 0 -218 230v222h95v-218q0 -82 31 -117.5t104 -35.5q85 0 147 51v320h95v-689z" />
<glyph unicode="&#x428;" horiz-adv-x="955" d="M433 689h89v-611h235v611h93v-689h-745v689h93v-611h235v611z" />
<glyph unicode="&#x429;" horiz-adv-x="960" d="M433 689h89v-611h235v611h93v-611h80v-228h-75l-15 150h-735v689h93v-611h235v611z" />
<glyph unicode="&#x42a;" horiz-adv-x="642" d="M263 689v-253h85q269 0 269 -213q0 -115 -71.5 -169t-195.5 -54h-182v608h-168v81h263zM516 222q0 140 -158 140h-95v-286h95q76 0 117 31.5t41 114.5z" />
<glyph unicode="&#x42b;" horiz-adv-x="829" d="M200 689v-253h75q269 0 269 -213q0 -115 -71.5 -169t-195.5 -54h-172v689h95zM443 222q0 140 -158 140h-85v-285h85q76 0 117 31.5t41 113.5zM724 0h-95v689h95v-689z" />
<glyph unicode="&#x42c;" horiz-adv-x="579" d="M200 689v-253h85q269 0 269 -213q0 -115 -71.5 -169t-195.5 -54h-182v689h95zM453 222q0 140 -158 140h-95v-286h95q76 0 117 31.5t41 114.5z" />
<glyph unicode="&#x42d;" horiz-adv-x="568" d="M238 624q-48 0 -82.5 -16.5t-71.5 -47.5l-51 58q92 83 209 83q128 0 196 -88t68 -260q0 -180 -69 -272.5t-202 -92.5q-134 0 -210 86l55 57q69 -63 149 -63q88 0 130 59t47 188h-281v78h281q-5 124 -45.5 177.5t-122.5 53.5z" />
<glyph unicode="&#x42e;" horiz-adv-x="898" d="M568 -12q-114 0 -186.5 90.5t-77.5 244.5h-104v-323h-95v689h95v-288h106q11 142 79.5 221t182.5 79q126 0 197 -92t71 -265q0 -171 -70 -263.5t-198 -92.5zM568 623q-165 0 -165 -278q0 -279 165 -279q169 0 169 278q0 149 -46.5 214t-122.5 65z" />
<glyph unicode="&#x42f;" horiz-adv-x="639" d="M439 274h-153l-143 -274h-108l161 295q-120 54 -120 188q0 99 67.5 152.5t195.5 53.5h195v-689h-95v274zM177 483q0 -134 137 -134h125v266h-109q-78 0 -115.5 -32t-37.5 -100z" />
<glyph unicode="&#x430;" horiz-adv-x="546" d="M453 367v-248q0 -30 9 -44.5t30 -22.5l-22 -64q-75 10 -97 74q-55 -74 -157 -74q-79 0 -125 44.5t-46 118.5q0 82 64 126t184 44h68v41q0 55 -27.5 78.5t-86.5 23.5q-61 0 -138 -27l-24 68q92 34 176 34q192 0 192 -172zM241 57q72 0 120 73v130h-63q-152 0 -152 -105 q0 -98 95 -98z" />
<glyph unicode="&#x431;" horiz-adv-x="565" d="M286 600q-58 -21 -86 -60.5t-39 -121.5h3q49 86 152 86q93 0 150 -69t57 -179q0 -130 -64.5 -199t-167.5 -69q-108 0 -168.5 73t-60.5 219q0 84 7 142t25.5 109t53.5 84t89 51q104 35 189 85l39 -69q-47 -30 -80 -45t-99 -37zM302 430q-67 0 -105 -41.5t-40 -126.5v-9 q0 -88 34.5 -139.5t101.5 -51.5q61 0 96 41.5t35 151.5q0 175 -122 175z" />
<glyph unicode="&#x432;" horiz-adv-x="569" d="M415 160q0 87 -118 87h-107v-175h103q64 0 93 20.5t29 67.5zM391 391q0 41 -29 59t-88 18q-44 0 -84 -6v-147h101q51 0 75.5 18t24.5 58zM512 155q0 -155 -222 -155h-192v520q93 19 174 19q214 0 214 -142q0 -81 -88 -106v-4q50 -9 82 -41.5t32 -90.5z" />
<glyph unicode="&#x433;" horiz-adv-x="430" d="M190 451v-451h-92v527h332l-11 -76h-229z" />
<glyph unicode="&#x434;" horiz-adv-x="582" d="M434 0h-343l-15 -140h-71v213h37q36 31 53.5 89.5t27.5 194.5l12 170h345v-454h40v-213h-71zM388 454h-170l-6 -91q-10 -143 -28.5 -200.5t-63.5 -89.5h268v381z" />
<glyph unicode="&#x435;" horiz-adv-x="546" d="M491 232h-336q12 -169 142 -169q72 0 132 49l42 -61q-79 -63 -176 -63q-115 0 -176.5 74.5t-61.5 200.5q0 122 60 199t163 77q102 0 157.5 -69t55.5 -191q0 -23 -2 -47zM280 466q-115 0 -125 -166h247q-3 166 -122 166z" />
<glyph unicode="&#x436;" horiz-adv-x="699" d="M393 0h-88v243h-69l-131 -243h-100l156 284l-137 243h96l115 -212h70v212h88v-212h71l116 212h95l-137 -243l156 -284h-101l-130 243h-70v-243z" />
<glyph unicode="&#x437;" horiz-adv-x="494" d="M162 239l6 72h52q47 0 73 21t26 56q0 79 -105 79q-77 0 -135 -43l-45 56q35 29 84.5 44t95.5 15q200 0 200 -142q0 -42 -25 -71.5t-65 -41.5v-4q52 -9 85.5 -40t33.5 -88q0 -77 -63 -120.5t-160 -43.5q-120 0 -205 69l49 61q65 -56 158 -56q60 0 91 25t31 69 q0 83 -118 83h-64z" />
<glyph unicode="&#x438;" horiz-adv-x="613" d="M399 527h116v-527h-91v238q0 119 11 185h-4l-218 -423h-115v527h91v-238q0 -117 -10 -182h4z" />
<glyph unicode="&#x439;" horiz-adv-x="613" d="M399 527h116v-527h-91v238q0 119 11 185h-4l-218 -423h-115v527h91v-238q0 -117 -10 -182h4zM312 628q-65 0 -104 35.5t-46 81.5l61 13q21 -61 89 -61q71 0 92 61l61 -13q-7 -46 -47.5 -81.5t-105.5 -35.5z" />
<glyph unicode="&#x43a;" horiz-adv-x="515" d="M190 0h-92v527h92v-212h59l146 212h101l-173 -244l192 -283h-109l-159 243h-57v-243z" />
<glyph unicode="&#x43b;" horiz-adv-x="593" d="M57 -12l-42 64q36 25 55 51t33.5 86t22.5 168l13 170h356v-527h-92v452h-181l-7 -89q-15 -192 -43 -261t-115 -114z" />
<glyph unicode="&#x43c;" horiz-adv-x="695" d="M638 0h-90l-24 249q-6 58 -6 181h-4l-121 -372h-87l-133 372h-4q0 -125 -4 -180l-19 -250h-89l47 527h119l126 -363h4l116 363h121z" />
<glyph unicode="&#x43d;" horiz-adv-x="606" d="M508 0h-92v232h-226v-232h-92v527h92v-221h226v221h92v-527z" />
<glyph unicode="&#x43e;" horiz-adv-x="584" d="M428 264q0 201 -135 201q-137 0 -137 -202q0 -201 136 -201t136 202zM57 263q0 125 62.5 200.5t173.5 75.5t172.5 -74t61.5 -201q0 -124 -62.5 -200t-172.5 -76q-111 0 -173 74t-62 201z" />
<glyph unicode="&#x43f;" horiz-adv-x="606" d="M508 0h-92v452h-226v-452h-92v527h410v-527z" />
<glyph unicode="&#x440;" horiz-adv-x="592" d="M190 -202l-92 -11v740h79l7 -72q61 84 156 84q195 0 195 -275q0 -124 -54 -200t-153 -76q-88 0 -138 60v-250zM306 63q130 0 130 201q0 202 -119 202q-72 0 -127 -82v-257q42 -64 116 -64z" />
<glyph unicode="&#x441;" horiz-adv-x="476" d="M293 66q57 0 115 43l44 -63q-71 -58 -160 -58q-115 0 -175 73t-60 200q0 124 61.5 201t174.5 77q91 0 159 -57l-45 -60q-55 41 -114 41q-65 0 -101 -50.5t-36 -151.5q0 -195 137 -195z" />
<glyph unicode="&#x442;" horiz-adv-x="451" d="M271 452v-452h-92v452h-174v75h446l-11 -75h-169z" />
<glyph unicode="&#x443;" horiz-adv-x="491" d="M480 527l-176 -530q-31 -92 -86.5 -146t-155.5 -64l-13 72q77 13 112 45t55 96h-31l-174 527h98l136 -453h4l136 453h95z" />
<glyph unicode="&#x444;" horiz-adv-x="852" d="M792 264q0 -128 -49.5 -202t-143.5 -74q-83 0 -129 66v-256l-88 -11v267q-22 -32 -57.5 -49t-73.5 -17q-94 0 -142.5 74t-48.5 202q0 275 189 275q86 0 133 -58v269l88 -11v-260q47 60 138 60q100 0 142 -71t42 -204zM589 466q-74 0 -119 -62v-277q45 -66 113 -66 q110 0 110 203q0 202 -104 202zM267 61q70 0 115 66v279q-45 60 -114 60q-109 0 -109 -202q0 -203 108 -203z" />
<glyph unicode="&#x445;" horiz-adv-x="479" d="M239 219h-4l-129 -219h-104l183 278l-162 249h108l108 -189h4l109 189h104l-161 -245l182 -282h-111z" />
<glyph unicode="&#x446;" horiz-adv-x="610" d="M473 0h-375v527h92v-453h220v453h92v-453h57v-214h-71z" />
<glyph unicode="&#x447;" horiz-adv-x="563" d="M62 527h92v-198q0 -50 20.5 -72.5t63.5 -22.5q35 0 73.5 16t60.5 41v236h92v-527h-92v219q-59 -57 -159 -57q-75 0 -113 40.5t-38 115.5v209z" />
<glyph unicode="&#x448;" horiz-adv-x="838" d="M375 527h88v-453h187v453h90v-527h-642v527h90v-453h187v453z" />
<glyph unicode="&#x449;" horiz-adv-x="848" d="M709 0h-611v527h90v-453h187v453h88v-453h187v453h90v-453h55v-214h-71z" />
<glyph unicode="&#x44a;" horiz-adv-x="554" d="M0 457v70h227v-170h50q242 0 242 -175q0 -182 -240 -182h-144v457h-135zM421 182q0 56 -34 80.5t-101 24.5h-59v-215h59q65 0 100 23.5t35 86.5z" />
<glyph unicode="&#x44b;" horiz-adv-x="740" d="M642 0h-92v527h92v-527zM374 182q0 106 -125 106h-59v-216h59q59 0 92 23.5t33 86.5zM242 0h-144v527h92v-170h50q232 0 232 -175q0 -96 -62 -139t-168 -43z" />
<glyph unicode="&#x44c;" horiz-adv-x="517" d="M384 182q0 56 -34 80.5t-101 24.5h-59v-215h59q65 0 100 23.5t35 86.5zM242 0h-144v527h92v-170h50q242 0 242 -175q0 -182 -240 -182z" />
<glyph unicode="&#x44d;" horiz-adv-x="486" d="M204 466q-68 0 -124 -42l-43 58q70 57 169 57q114 0 168.5 -72t54.5 -201q0 -128 -58 -203t-171 -75q-99 0 -168 58l44 59q56 -42 123 -42q63 0 96 41.5t37 130.5h-215v70h215q-6 83 -37 122t-91 39z" />
<glyph unicode="&#x44e;" horiz-adv-x="768" d="M484 -12q-96 0 -154 67.5t-66 176.5h-74v-232h-92v527h92v-221h75q11 103 69.5 168t150.5 65q105 0 165.5 -74.5t60.5 -200.5q0 -120 -60 -198t-167 -78zM612 264q0 96 -33 148t-94 52q-127 0 -127 -201q0 -96 32 -148.5t94 -52.5q68 0 98 51t30 151z" />
<glyph unicode="&#x44f;" horiz-adv-x="561" d="M371 202h-122l-111 -202h-103l126 223q-44 22 -68 60.5t-24 85.5q0 81 55 125.5t168 44.5q81 0 171 -19v-520h-92v202zM166 369q0 -50 26 -73.5t85 -23.5h94v190q-46 6 -86 6q-65 0 -92 -24.5t-27 -74.5z" />
<glyph unicode="&#x451;" horiz-adv-x="546" d="M491 232h-336q12 -169 142 -169q72 0 132 49l42 -61q-79 -63 -176 -63q-115 0 -176.5 74.5t-61.5 200.5q0 122 60 199t163 77q102 0 157.5 -69t55.5 -191q0 -23 -2 -47zM280 466q-115 0 -125 -166h247q-3 166 -122 166zM168 647q-25 0 -41.5 16t-16.5 40q0 25 16.5 41 t41.5 16q24 0 40.5 -16t16.5 -41q0 -24 -16.5 -40t-40.5 -16zM377 647q-24 0 -40.5 16t-16.5 40q0 25 16.5 41t40.5 16q25 0 41.5 -16t16.5 -41q0 -24 -16.5 -40t-41.5 -16z" />
<glyph unicode="&#x452;" horiz-adv-x="599" d="M200 382v-382h-92v597h-79v70h79v71l92 10v-81h166v-70h-166v-137q66 79 162 79q143 0 143 -156v-351q0 -74 -19.5 -121t-51 -72t-89.5 -51l-34 67q39 18 58.5 34t31.5 49t12 88v351q0 48 -18.5 69t-63.5 21q-73 0 -131 -85z" />
<glyph unicode="&#x453;" horiz-adv-x="430" d="M190 451v-451h-92v527h332l-11 -76h-229zM180 622l-30 50l188 119l47 -77z" />
<glyph unicode="&#x454;" horiz-adv-x="484" d="M294 63q57 0 115 43l43 -60q-71 -58 -160 -58q-115 0 -175 73t-60 200q0 124 61.5 201t174.5 77q91 0 159 -57l-44 -57q-55 41 -114 41q-60 0 -96 -41t-43 -120h217v-70h-218q9 -172 140 -172z" />
<glyph unicode="&#x455;" horiz-adv-x="474" d="M223 62q50 0 80.5 21.5t30.5 58.5q0 39 -25.5 59t-103.5 39q-76 19 -116 54.5t-40 96.5q0 66 56 107t141 41q96 0 170 -53l-41 -62q-61 42 -133 42q-43 0 -70.5 -19t-27.5 -50q0 -33 26 -50t96 -36q82 -23 124.5 -57.5t42.5 -104.5q0 -79 -60.5 -120t-147.5 -41 q-120 0 -199 69l51 58q64 -53 146 -53z" />
<glyph unicode="&#x456;" horiz-adv-x="279" d="M204 710q0 -27 -18.5 -45t-46.5 -18t-46 18t-18 45t18 44.5t46 17.5t46.5 -18t18.5 -44zM185 0h-92v527h92v-527z" />
<glyph unicode="&#x457;" horiz-adv-x="279" d="M185 0h-92v527h92v-527zM35 647q-25 0 -41.5 16t-16.5 40q0 25 16.5 41t41.5 16q24 0 40.5 -16t16.5 -41q0 -24 -16.5 -40t-40.5 -16zM244 647q-24 0 -40.5 16t-16.5 40q0 25 16.5 41t40.5 16q25 0 41.5 -16t16.5 -41q0 -24 -16.5 -40t-41.5 -16z" />
<glyph unicode="&#x458;" horiz-adv-x="279" d="M25 -212l-34 67q39 18 58.5 34t31.5 49t12 88v501h92v-495q0 -74 -19.5 -121t-51 -72t-89.5 -51zM204 710q0 -27 -18.5 -45t-46.5 -18t-46 18t-18 45t18 44.5t46 17.5t46.5 -18t18.5 -44z" />
<glyph unicode="&#x459;" horiz-adv-x="802" d="M57 -12l-42 64q36 25 55 51t33.5 86t22.5 168l13 170h346v-170h50q232 0 232 -175q0 -96 -62 -139t-168 -43h-144v452h-171l-7 -89q-15 -192 -43 -261t-115 -114zM669 182q0 106 -125 106h-59v-216h59q59 0 92 23.5t33 86.5z" />
<glyph unicode="&#x45a;" horiz-adv-x="815" d="M550 0h-144v257h-216v-257h-92v527h92v-201h216v201h92v-201h50q232 0 232 -160q0 -91 -61 -128.5t-169 -37.5zM683 166q0 52 -31 71.5t-94 19.5h-60v-186h59q62 0 94 18.5t32 76.5z" />
<glyph unicode="&#x45b;" horiz-adv-x="599" d="M200 382v-382h-92v597h-79v70h79v71l92 10v-81h166v-70h-166v-137q66 79 162 79q143 0 143 -156v-383h-92v377q0 48 -18.5 69t-63.5 21q-73 0 -131 -85z" />
<glyph unicode="&#x45c;" horiz-adv-x="515" d="M190 0h-92v527h92v-212h59l146 212h101l-173 -244l192 -283h-109l-159 243h-57v-243zM210 622l-30 50l188 119l47 -77z" />
<glyph unicode="&#x45e;" horiz-adv-x="491" d="M480 527l-176 -530q-31 -92 -86.5 -146t-155.5 -64l-13 72q77 13 112 45t55 96h-31l-174 527h98l136 -453h4l136 453h95zM244 628q-65 0 -104 35.5t-46 81.5l61 13q21 -61 89 -61q71 0 92 61l61 -13q-7 -46 -47.5 -81.5t-105.5 -35.5z" />
<glyph unicode="&#x45f;" horiz-adv-x="602" d="M262 0h-164v527h92v-453h222v453h92v-527h-156v-140h-71z" />
<glyph unicode="&#x462;" horiz-adv-x="693" d="M499 608h-190v-185h85q269 0 269 -207q0 -112 -71.5 -164t-195.5 -52h-182v608h-198v81h493zM562 215q0 134 -158 134h-95v-273h95q76 0 117 30.5t41 108.5z" />
<glyph unicode="&#x463;" horiz-adv-x="527" d="M252 0h-144v457h-84v70h84v119l92 11v-130h133l-11 -70h-122v-100h50q242 0 242 -175q0 -182 -240 -182zM394 182q0 56 -34 80.5t-101 24.5h-59v-215h59q65 0 100 23.5t35 86.5z" />
<glyph unicode="&#x472;" horiz-adv-x="696" d="M634 344q0 -169 -78 -262.5t-208 -93.5t-208 92t-78 263q0 169 78.5 263.5t207.5 94.5q130 0 208 -93t78 -264zM348 66q177 0 184 254h-369q8 -254 185 -254zM348 623q-169 0 -184 -233h368q-15 233 -184 233z" />
<glyph unicode="&#x473;" horiz-adv-x="584" d="M57 263q0 125 62.5 200.5t173.5 75.5t172.5 -74t61.5 -201q0 -124 -62.5 -200t-172.5 -76q-111 0 -173 74t-62 201zM293 464q-126 0 -136 -169h270q-10 169 -134 169zM292 62q122 0 134 163h-269q13 -163 135 -163z" />
<glyph unicode="&#x474;" horiz-adv-x="585" d="M293 105h4l132 456q26 90 57 140l94 -17q-36 -51 -65 -146l-169 -538h-104l-227 689h102z" />
<glyph unicode="&#x475;" horiz-adv-x="494" d="M404 539l90 -12q-37 -55 -64 -137l-130 -390h-107l-182 527h98l138 -442h4l99 334q27 89 54 120z" />
<glyph unicode="&#x490;" horiz-adv-x="503" d="M105 689h298v147h92v-147l-10 -82h-285v-607h-95v689z" />
<glyph unicode="&#x491;" horiz-adv-x="430" d="M190 451v-451h-92v527h240v135h92v-135l-11 -76h-229z" />
<glyph unicode="&#x492;" horiz-adv-x="513" d="M366 433v-70h-156v-363h-95v363h-98v70h98v256h390l-10 -82h-285v-174h156z" />
<glyph unicode="&#x493;" horiz-adv-x="440" d="M200 451v-135h124v-70h-124v-246h-92v246h-72v70h72v211h332l-11 -76h-229z" />
<glyph unicode="&#x496;" horiz-adv-x="836" d="M365 0v323h-83l-171 -323h-106l201 366l-182 323h103l156 -288h82v288h91v-288h82l158 288h101l-182 -323l158 -288h63v-228h-75l-15 150h-38l-170 323h-82v-323h-91z" />
<glyph unicode="&#x497;" horiz-adv-x="709" d="M393 0h-88v243h-69l-131 -243h-100l156 284l-137 243h96l115 -212h70v212h88v-212h71l116 212h95l-137 -243l115 -210h66v-214h-71l-15 140h-40l-130 243h-70v-243z" />
<glyph unicode="&#x498;" horiz-adv-x="536" d="M297 -141q0 25 -21.5 33.5t-65.5 8.5l7 88q-132 7 -202 92l60 54q57 -67 157 -67q70 0 108.5 35.5t38.5 98.5q0 66 -38.5 97t-103.5 31h-81l11 78h64q54 0 91 28t37 82q0 52 -35 78.5t-92 26.5q-84 0 -150 -62l-53 59q85 81 208 81q100 0 160.5 -48.5t60.5 -121.5 q0 -61 -36.5 -103t-90.5 -52v-4q61 -4 105.5 -50t44.5 -121q0 -82 -54.5 -140t-146.5 -70v-47q47 -4 70.5 -28t23.5 -57q0 -47 -36 -73.5t-89 -26.5q-63 0 -106 25l28 51q30 -16 66 -16q60 0 60 40z" />
<glyph unicode="&#x499;" horiz-adv-x="494" d="M277 -141q0 25 -21.5 33.5t-65.5 8.5l7 88q-105 5 -182 68l49 61q65 -56 158 -56q60 0 91 25t31 69q0 83 -118 83h-64l6 72h52q47 0 73 21t26 56q0 79 -105 79q-77 0 -135 -43l-45 56q35 29 84.5 44t95.5 15q200 0 200 -142q0 -42 -25 -71.5t-65 -41.5v-4q52 -9 85.5 -40 t33.5 -88q0 -69 -50.5 -111t-132.5 -51v-46q47 -4 70.5 -28t23.5 -57q0 -47 -36 -73.5t-89 -26.5q-63 0 -106 25l28 51q30 -16 67 -16q59 0 59 40z" />
<glyph unicode="&#x49a;" horiz-adv-x="609" d="M481 0l-213 323h-68v-323h-95v689h95v-288h69l205 288h101l-226 -323l193 -288h72v-228h-75l-15 150h-43z" />
<glyph unicode="&#x49b;" horiz-adv-x="525" d="M190 0h-92v527h92v-212h59l146 212h101l-173 -244l142 -209h75v-214h-71l-15 140h-48l-159 243h-57v-243z" />
<glyph unicode="&#x49c;" horiz-adv-x="594" d="M293 150h-54v174h-42v-324h-92v689h92v-289h42v170h54v-170h20l164 289h98l-188 -323l207 -366h-105l-176 324h-20v-174z" />
<glyph unicode="&#x49d;" horiz-adv-x="525" d="M190 0h-92v527h92v-212h35v115h48v-115h22l104 212h97l-124 -243l143 -284h-102l-119 243h-21v-123h-48v123h-35v-243z" />
<glyph unicode="&#x4a0;" horiz-adv-x="657" d="M544 0l-213 323h-68v-323h-95v608h-168v81h263v-288h69l205 288h101l-226 -323l245 -366h-113z" />
<glyph unicode="&#x4a1;" horiz-adv-x="553" d="M0 457v70h228v-212h59l146 212h101l-173 -244l192 -283h-109l-159 243h-57v-243h-92v457h-136z" />
<glyph unicode="&#x4a2;" horiz-adv-x="685" d="M575 689v-611h80v-228h-75l-15 150h-85v323h-280v-323h-95v689h95v-288h280v288h95z" />
<glyph unicode="&#x4a3;" horiz-adv-x="621" d="M477 0h-61v232h-226v-232h-92v527h92v-221h226v221h92v-453h55v-214h-71z" />
<glyph unicode="&#x4aa;" horiz-adv-x="571" d="M353 68q83 0 150 59l49 -62q-48 -46 -114 -65q-89 -52 -89 -127q0 -53 64 -53q36 0 62 15l25 -54q-44 -22 -97 -22q-62 0 -96.5 30t-34.5 81q0 67 74 118q-128 2 -206 95t-78 262q0 167 82 261.5t204 94.5q63 0 107 -16.5t87 -51.5l-52 -61q-61 51 -136 51 q-85 0 -138 -66.5t-53 -211.5q0 -142 52 -209.5t138 -67.5z" />
<glyph unicode="&#x4ab;" horiz-adv-x="476" d="M293 66q57 0 115 43l44 -63q-39 -32 -85 -46q-88 -52 -88 -127q0 -53 64 -53q36 0 62 15l25 -54q-44 -22 -97 -22q-62 0 -96.5 30t-34.5 81q0 66 77 118q-109 4 -165.5 76.5t-56.5 196.5t61.5 201t174.5 77q91 0 159 -57l-45 -60q-55 41 -114 41q-65 0 -101 -50.5 t-36 -151.5q0 -195 137 -195z" />
<glyph unicode="&#x4ae;" horiz-adv-x="550" d="M545 689l-222 -424v-265h-96v264l-222 425h105l166 -337h4l166 337h99z" />
<glyph unicode="&#x4af;" horiz-adv-x="494" d="M292 -202l-90 -11v225l-191 515h98l138 -419h4l137 419h95l-191 -512v-217z" />
<glyph unicode="&#x4b0;" horiz-adv-x="550" d="M545 689l-196 -373h101v-70h-127v-246h-96v246h-127v70h100l-195 373h105l166 -337h4l166 337h99z" />
<glyph unicode="&#x4b1;" horiz-adv-x="494" d="M483 527l-167 -445h80v-70h-104v-214l-90 -11v225h-104v70h78l-165 445h98l138 -419h4l137 419h95z" />
<glyph unicode="&#x4b2;" horiz-adv-x="570" d="M217 367l-194 322h108l142 -256h4l148 256h102l-197 -317l174 -294h86v-228h-75l-15 150h-58l-167 302h-4l-164 -302h-102z" />
<glyph unicode="&#x4b3;" horiz-adv-x="489" d="M411 0h-45l-127 219h-4l-129 -219h-104l183 278l-162 249h108l108 -189h4l109 189h104l-161 -245l134 -208h68v-214h-71z" />
<glyph unicode="&#x4b8;" horiz-adv-x="617" d="M308 150h-59v87q-209 4 -209 230v222h95v-218q0 -76 26 -112t88 -40v251h59v-250q61 9 109 49v320h95v-689h-95v290q-48 -38 -109 -49v-91z" />
<glyph unicode="&#x4b9;" horiz-adv-x="563" d="M280 80h-55v82q-163 0 -163 156v209h92v-198q0 -89 71 -95v156h55v-151q62 16 92 52v236h92v-527h-92v219q-37 -35 -92 -49v-90z" />
<glyph unicode="&#x4ba;" horiz-adv-x="612" d="M105 689h95v-293q74 56 169 56q108 0 158 -57t50 -173v-222h-95v218q0 83 -29.5 118t-105.5 35q-87 0 -147 -51v-320h-95v689z" />
<glyph unicode="&#x4bb;" horiz-adv-x="584" d="M403 0v297q0 48 -18.5 69t-63.5 21q-73 0 -131 -85v-302h-92v738l92 10v-368q66 79 162 79q143 0 143 -156v-303h-92z" />
<glyph unicode="&#x4c0;" horiz-adv-x="306" d="M201 0h-96v689h96v-689z" />
<glyph unicode="&#x4cb;" horiz-adv-x="622" d="M512 689v-611h80v-228h-75l-15 150h-85v290q-67 -53 -159 -53q-218 0 -218 230v222h95v-218q0 -82 31 -117.5t104 -35.5q85 0 147 51v320h95z" />
<glyph unicode="&#x4cc;" horiz-adv-x="573" d="M433 0h-61v219q-59 -57 -159 -57q-75 0 -113 40.5t-38 115.5v209h92v-198q0 -50 20.5 -72.5t63.5 -22.5q35 0 73.5 16t60.5 41v236h92v-453h55v-214h-71z" />
<glyph unicode="&#x4cf;" horiz-adv-x="290" d="M247 70l24 -64q-38 -18 -75 -18q-50 0 -79 30.5t-29 95.5v625l92 11v-644q0 -42 33 -42q19 0 34 6z" />
<glyph unicode="&#x4d8;" horiz-adv-x="671" d="M57 332q0 24 3 51h450q-4 128 -50.5 185t-135.5 57q-99 0 -178 -69l-51 60q98 85 233 85q138 0 209.5 -87.5t71.5 -260.5q0 -171 -74.5 -268t-202.5 -97q-129 0 -202 88.5t-73 255.5zM333 64q163 0 177 243h-359q5 -129 49 -186t133 -57z" />
<glyph unicode="&#x4d9;" horiz-adv-x="546" d="M55 295h336q-5 88 -38 128.5t-94 40.5q-75 0 -135 -49l-42 61q79 63 179 63q114 0 171 -73.5t57 -201.5q0 -122 -59 -199t-162 -77t-159 69t-56 191q0 23 2 47zM268 61q62 0 91 40t32 126h-247q2 -84 31 -125t93 -41z" />
<glyph unicode="&#x4e2;" horiz-adv-x="683" d="M230 0h-125v689h95v-336q0 -140 -13 -250h4l264 586h123v-689h-95v336q0 117 13 247h-4zM478 861v-70h-273v70h273z" />
<glyph unicode="&#x4e3;" horiz-adv-x="613" d="M399 527h116v-527h-91v238q0 119 11 185h-4l-218 -423h-115v527h91v-238q0 -117 -10 -182h4zM450 743v-69h-273v69h273z" />
<glyph unicode="&#x4e8;" horiz-adv-x="696" d="M634 344q0 -169 -78 -262.5t-208 -93.5t-208 92t-78 263q0 169 78.5 263.5t207.5 94.5q130 0 208 -93t78 -264zM348 66q177 0 184 254h-369q8 -254 185 -254zM348 623q-169 0 -184 -233h368q-15 233 -184 233z" />
<glyph unicode="&#x4e9;" horiz-adv-x="584" d="M57 263q0 125 62.5 200.5t173.5 75.5t172.5 -74t61.5 -201q0 -124 -62.5 -200t-172.5 -76q-111 0 -173 74t-62 201zM293 464q-126 0 -136 -169h270q-10 169 -134 169zM292 62q122 0 134 163h-269q13 -163 135 -163z" />
<glyph unicode="&#x4ee;" horiz-adv-x="565" d="M560 689l-197 -503q-37 -95 -91 -140t-160 -58l-14 74q84 12 119 40t58 87h-39l-221 500h99l184 -435h4l162 435h96zM419 861v-70h-273v70h273z" />
<glyph unicode="&#x4ef;" horiz-adv-x="491" d="M480 527l-176 -530q-31 -92 -86.5 -146t-155.5 -64l-13 72q77 13 112 45t55 96h-31l-174 527h98l136 -453h4l136 453h95zM382 743v-69h-273v69h273z" />
<glyph unicode="&#x2007;" />
<glyph unicode="&#x2008;" horiz-adv-x="265" />
<glyph unicode="&#x200b;" horiz-adv-x="0" />
<glyph unicode="&#x2012;" d="M545 274h-530v78h530v-78z" />
<glyph unicode="&#x2013;" horiz-adv-x="520" d="M488 274h-456v78h456v-78z" />
<glyph unicode="&#x2014;" horiz-adv-x="791" d="M758 274h-726v78h726v-78z" />
<glyph unicode="&#x2015;" horiz-adv-x="520" d="M488 274h-456v78h456v-78z" />
<glyph unicode="&#x2018;" horiz-adv-x="255" d="M184 563q0 -26 -19 -44.5t-46 -18.5t-45.5 18.5t-18.5 44.5q0 24 16 58l67 142h57l-34 -153q23 -16 23 -47z" />
<glyph unicode="&#x2019;" horiz-adv-x="255" d="M68 700q0 26 19.5 44.5t45.5 18.5q27 0 46 -18.5t19 -44.5q0 -21 -17 -58l-67 -142h-57l34 153q-23 16 -23 47z" />
<glyph unicode="&#x201a;" horiz-adv-x="255" d="M68 44q0 26 19.5 44.5t45.5 18.5q27 0 46 -18.5t19 -44.5q0 -21 -17 -58l-67 -142h-57l34 153q-23 16 -23 47z" />
<glyph unicode="&#x201c;" horiz-adv-x="437" d="M184 563q0 -26 -19 -44.5t-46 -18.5t-45.5 18.5t-18.5 44.5q0 24 16 58l67 142h57l-34 -153q23 -16 23 -47zM366 563q0 -26 -19.5 -44.5t-45.5 -18.5q-27 0 -45.5 18.5t-18.5 44.5q0 24 16 58l67 142h57l-34 -153q23 -16 23 -47z" />
<glyph unicode="&#x201d;" horiz-adv-x="437" d="M68 700q0 26 19.5 44.5t45.5 18.5q27 0 46 -18.5t19 -44.5q0 -21 -17 -58l-67 -142h-57l34 153q-23 16 -23 47zM250 700q0 26 19.5 44.5t45.5 18.5q27 0 46 -18.5t19 -44.5q0 -21 -17 -58l-67 -142h-57l34 153q-23 16 -23 47z" />
<glyph unicode="&#x201e;" horiz-adv-x="435" d="M68 44q0 26 19.5 44.5t45.5 18.5q27 0 46 -18.5t19 -44.5q0 -21 -17 -58l-67 -142h-57l34 153q-23 16 -23 47zM249 44q0 26 19.5 44.5t45.5 18.5q27 0 45.5 -18.5t18.5 -44.5q0 -25 -16 -58l-67 -142h-57l34 153q-23 16 -23 47z" />
<glyph unicode="&#x2020;" horiz-adv-x="500" d="M463 445h-169v-445h-88v445h-169v77h169v155h88v-155h169v-77z" />
<glyph unicode="&#x2021;" horiz-adv-x="500" d="M294 236h169v-77h-169v-159h-88v159h-169v77h169v202h-169v77h169v162h88v-162h169v-77h-169v-202z" />
<glyph unicode="&#x2022;" horiz-adv-x="400" d="M200 218q-53 0 -88.5 35.5t-35.5 88.5t35.5 88t88.5 35t88.5 -35.5t35.5 -88.5t-35.5 -88t-88.5 -35z" />
<glyph unicode="&#x2026;" horiz-adv-x="794" d="M327 58q0 29 20.5 49t49.5 20t49 -20t20 -49t-20 -49.5t-49 -20.5t-49.5 20.5t-20.5 49.5zM63 58q0 29 20 49t49 20q30 0 50 -20t20 -49t-20 -49.5t-50 -20.5q-29 0 -49 20.5t-20 49.5zM592 58q0 29 20 49t49 20q30 0 50 -20t20 -49t-20 -49.5t-50 -20.5q-29 0 -49 20.5 t-20 49.5z" />
<glyph unicode="&#x2030;" horiz-adv-x="1181" d="M689 669l-463 -697l-64 39l462 697zM156 510q0 -107 81 -107t81 107t-81 107t-81 -107zM400 510q0 -77 -45.5 -123t-117.5 -46q-71 0 -116.5 46t-45.5 123t45.5 123t116.5 46q72 0 117.5 -46t45.5 -123zM532 157q0 -107 81 -107t81 107q0 106 -81 106t-81 -106zM775 157 q0 -77 -45 -123t-117 -46t-117.5 46t-45.5 123t45.5 123t117.5 46t117 -46t45 -123zM897 157q0 -107 82 -107q80 0 80 107q0 106 -80 106q-82 0 -82 -106zM1141 157q0 -77 -45 -123t-117 -46t-117.5 46t-45.5 123t45.5 123t117.5 46t117 -46t45 -123z" />
<glyph unicode="&#x2039;" horiz-adv-x="340" d="M152 293l133 -207l-55 -35l-175 209v65l175 210l55 -35z" />
<glyph unicode="&#x203a;" horiz-adv-x="344" d="M55 86l133 207l-133 207l55 35l175 -210v-65l-175 -209z" />
<glyph unicode="&#x2044;" horiz-adv-x="120" d="M293 721l-404 -800l-62 30l405 800z" />
<glyph unicode="&#x2070;" horiz-adv-x="400" d="M274 529q0 84 -18.5 119t-55.5 35q-75 0 -75 -154q0 -156 75 -156q74 0 74 156zM354 529q0 -107 -39 -162t-115 -55t-115.5 55.5t-39.5 161.5q0 216 155 216q154 0 154 -216z" />
<glyph unicode="&#x2074;" horiz-adv-x="400" d="M354 414h-54v-96h-76v96h-179v50l134 285l65 -26l-113 -248h93l7 105h69v-105h54v-61z" />
<glyph unicode="&#x2075;" horiz-adv-x="400" d="M342 457q0 -62 -43.5 -103.5t-113.5 -41.5q-82 0 -135 60l47 43q40 -41 87 -41q36 0 57 22.5t21 60.5q0 77 -67 77q-25 0 -57 -16h-57v221h245l-7 -61h-163v-98q30 12 56 12q59 0 94.5 -36.5t35.5 -98.5z" />
<glyph unicode="&#x2076;" horiz-adv-x="400" d="M330 715l-36 -49q-29 18 -60 18q-41 0 -71 -34t-36 -102q38 52 101 52q54 0 91 -36.5t37 -104.5q0 -67 -42 -107t-104 -40q-80 0 -120 56t-40 141q0 106 50.5 171t134.5 65q50 0 95 -30zM214 539q-46 0 -85 -49q3 -117 81 -117q33 0 50.5 22.5t17.5 61.5q0 82 -64 82z " />
<glyph unicode="&#x2077;" horiz-adv-x="400" d="M339 688l-178 -378l-72 22l167 345h-199v62h282v-51z" />
<glyph unicode="&#x2078;" horiz-adv-x="400" d="M342 637q0 -57 -77 -90q94 -34 94 -110q0 -54 -43.5 -89.5t-116.5 -35.5q-74 0 -116.5 35t-42.5 88q0 35 23.5 62.5t63.5 39.5q-69 34 -69 98q0 54 43.5 82t98.5 28q59 0 100.5 -27t41.5 -81zM280 436q0 30 -23.5 45t-79.5 33q-57 -29 -57 -78q0 -63 79 -63q37 0 59 18 t22 45zM135 636q0 -25 19.5 -40t59.5 -27q52 31 52 66q0 23 -17.5 37t-48.5 14q-65 0 -65 -50z" />
<glyph unicode="&#x2079;" horiz-adv-x="400" d="M77 363q79 19 128 54.5t69 97.5l-3 1q-31 -48 -100 -48q-55 0 -92.5 38t-37.5 99q0 64 45 102t110 38q72 0 112.5 -45t40.5 -119q0 -116 -61 -180t-192 -97zM187 528q53 0 85 44q0 112 -77 112q-34 0 -54.5 -20t-20.5 -60q0 -38 18.5 -57t48.5 -19z" />
<glyph unicode="&#x207a;" horiz-adv-x="400" d="M81 546h85v89h69v-89h84v-64h-84v-88h-69v88h-85v64z" />
<glyph unicode="&#x207b;" horiz-adv-x="400" d="M319 482h-238v64h238v-64z" />
<glyph unicode="&#x207c;" horiz-adv-x="400" d="M319 421h-239v65h239v-65zM319 542h-239v65h239v-65z" />
<glyph unicode="&#x207d;" horiz-adv-x="400" d="M193 509q0 -93 21 -154.5t68 -131.5l-48 -30q-42 60 -61 91.5t-37.5 92.5t-18.5 132t18.5 132.5t37.5 93t61 91.5l48 -30q-47 -70 -68 -131.5t-21 -155.5z" />
<glyph unicode="&#x207e;" horiz-adv-x="400" d="M206 510q0 93 -21 154.5t-68 131.5l48 30q42 -60 61 -91.5t37.5 -92.5t18.5 -132t-18.5 -132.5t-37.5 -93t-61 -91.5l-48 30q47 70 68 131.5t21 155.5z" />
<glyph unicode="&#x2080;" horiz-adv-x="400" d="M274 13q0 84 -18.5 119t-55.5 35q-75 0 -75 -154q0 -156 75 -156q74 0 74 156zM354 13q0 -107 -39 -162t-115 -55t-115.5 55.5t-39.5 161.5q0 216 155 216q154 0 154 -216z" />
<glyph unicode="&#x2081;" horiz-adv-x="400" d="M272 -198h-75v336l-94 -51l-37 52l145 84h61v-421z" />
<glyph unicode="&#x2082;" horiz-adv-x="400" d="M333 108q0 -52 -42 -107.5t-136 -135.5h188l-9 -63h-278v55q115 105 155.5 156t40.5 93q0 28 -17.5 44t-45.5 16q-47 0 -86 -47l-53 40q61 70 143 70q64 0 102 -34t38 -87z" />
<glyph unicode="&#x2083;" horiz-adv-x="400" d="M344 -72q0 -57 -45 -94.5t-117 -37.5q-89 0 -145 63l49 43q38 -44 94 -44q39 0 61.5 19t22.5 51q0 66 -79 66h-37l8 60h25q31 0 51 14.5t20 43.5q0 27 -19 41.5t-49 14.5q-51 0 -94 -40l-41 46q64 55 138 55q66 0 104.5 -31t38.5 -78q0 -30 -20.5 -54.5t-56.5 -33.5v-3 q37 -5 64 -34t27 -67z" />
<glyph unicode="&#x2084;" horiz-adv-x="400" d="M354 -102h-54v-96h-76v96h-179v50l134 285l65 -26l-113 -248h93l7 105h69v-105h54v-61z" />
<glyph unicode="&#x2085;" horiz-adv-x="400" d="M342 -59q0 -62 -43.5 -103.5t-113.5 -41.5q-82 0 -135 60l47 43q40 -41 87 -41q36 0 57 22.5t21 60.5q0 77 -67 77q-25 0 -57 -16h-57v221h245l-7 -61h-163v-98q30 12 56 12q59 0 94.5 -36.5t35.5 -98.5z" />
<glyph unicode="&#x2086;" horiz-adv-x="400" d="M330 199l-36 -49q-29 18 -60 18q-41 0 -71 -34t-36 -102q38 52 101 52q54 0 91 -36.5t37 -104.5q0 -67 -42 -107t-104 -40q-80 0 -120 56t-40 141q0 106 50.5 171t134.5 65q50 0 95 -30zM214 23q-46 0 -85 -49q3 -117 81 -117q33 0 50.5 22.5t17.5 61.5q0 82 -64 82z" />
<glyph unicode="&#x2087;" horiz-adv-x="400" d="M339 172l-178 -378l-72 22l167 345h-199v62h282v-51z" />
<glyph unicode="&#x2088;" horiz-adv-x="400" d="M342 121q0 -57 -77 -90q94 -34 94 -110q0 -54 -43.5 -89.5t-116.5 -35.5q-74 0 -116.5 35t-42.5 88q0 35 23.5 62.5t63.5 39.5q-69 34 -69 98q0 54 43.5 82t98.5 28q59 0 100.5 -27t41.5 -81zM280 -80q0 30 -23.5 45t-79.5 33q-57 -29 -57 -78q0 -63 79 -63q37 0 59 18 t22 45zM135 120q0 -25 19.5 -40t59.5 -27q52 31 52 66q0 23 -17.5 37t-48.5 14q-65 0 -65 -50z" />
<glyph unicode="&#x2089;" horiz-adv-x="400" d="M77 -153q79 19 128 54.5t69 97.5l-3 1q-31 -48 -100 -48q-55 0 -92.5 38t-37.5 99q0 64 45 102t110 38q72 0 112.5 -45t40.5 -119q0 -116 -61 -180t-192 -97zM187 12q53 0 85 44q0 112 -77 112q-34 0 -54.5 -20t-20.5 -60q0 -38 18.5 -57t48.5 -19z" />
<glyph unicode="&#x208a;" horiz-adv-x="400" d="M81 30h85v89h69v-89h84v-64h-84v-88h-69v88h-85v64z" />
<glyph unicode="&#x208b;" horiz-adv-x="400" d="M319 -34h-238v64h238v-64z" />
<glyph unicode="&#x208c;" horiz-adv-x="400" d="M319 -95h-239v65h239v-65zM319 26h-239v65h239v-65z" />
<glyph unicode="&#x208d;" horiz-adv-x="400" d="M193 -7q0 -93 21 -154.5t68 -131.5l-48 -30q-42 60 -61 91.5t-37.5 92.5t-18.5 132t18.5 132.5t37.5 93t61 91.5l48 -30q-47 -70 -68 -131.5t-21 -155.5z" />
<glyph unicode="&#x208e;" horiz-adv-x="400" d="M206 -6q0 93 -21 154.5t-68 131.5l48 30q42 -60 61 -91.5t37.5 -92.5t18.5 -132t-18.5 -132.5t-37.5 -93t-61 -91.5l-48 30q47 70 68 131.5t21 155.5z" />
<glyph unicode="&#x20ac;" horiz-adv-x="562" d="M112 292v90h-85l15 62h79q21 114 86 174.5t160 60.5q94 0 163 -46l-44 -64q-53 34 -113 34q-63 0 -102.5 -37.5t-54.5 -121.5h240l-15 -62h-231v-90h212l-14 -61h-193q12 -87 50 -126.5t106 -39.5q80 0 140 50v-91q-63 -36 -144 -36q-103 0 -166.5 62t-82.5 181h-91 l15 61h70z" />
<glyph unicode="&#x2116;" horiz-adv-x="1094" d="M964 479q0 153 -110 153t-110 -153q0 -154 110 -154t110 154zM653 479q0 99 54 160t147 61q94 0 147 -60t53 -161q0 -100 -53.5 -161t-146.5 -61q-94 0 -147.5 60.5t-53.5 161.5zM1047 0h-385v79h385v-79zM584 0h-129l-270 583h-4q13 -104 13 -247v-336h-89v689h126 l273 -586h4q-13 104 -13 250v336h89v-689z" />
<glyph unicode="&#x2122;" horiz-adv-x="900" d="M360 625h-121v-327h-77v327h-127v64h337zM481 613h-4q2 -32 2 -51q0 -36 -1 -53l-8 -211h-72l16 391h105l89 -265h4l81 265h108l15 -391h-75l-9 211q-1 17 -1 53q0 19 2 51h-4l-86 -274h-67z" />
<glyph unicode="&#x2126;" horiz-adv-x="708" d="M354 623q-185 0 -185 -271q0 -215 132 -281v-71h-222v76h122v4q-133 64 -133 272q0 163 79 256t207 93t207 -93t79 -256q0 -207 -134 -272v-4h123v-76h-221v71q131 65 131 281q0 271 -185 271z" />
<glyph unicode="&#x212e;" horiz-adv-x="945" d="M867 334h-644v-212q29 -44 102 -69.5t148 -25.5q73 0 144.5 25t110.5 71h57q-116 -135 -313 -135q-169 0 -281.5 100t-112.5 254q0 153 115 256.5t279 103.5q162 0 278.5 -104t116.5 -264zM722 373v191q-92 99 -249 99q-169 0 -250 -99v-191h499z" />
<glyph unicode="&#x2153;" horiz-adv-x="920" d="M272 278h-75v336l-94 -51l-37 52l145 84h61v-421zM693 721l-404 -800l-62 30l405 800zM869 126q0 -57 -45 -94.5t-117 -37.5q-89 0 -145 63l49 43q38 -44 94 -44q39 0 61.5 19t22.5 51q0 66 -79 66h-37l8 60h25q31 0 51 14.5t20 43.5q0 27 -19 41.5t-49 14.5 q-51 0 -94 -40l-41 46q64 55 138 55q66 0 104.5 -31t38.5 -78q0 -30 -20.5 -54.5t-56.5 -33.5v-3q37 -5 64 -34t27 -67z" />
<glyph unicode="&#x2154;" horiz-adv-x="920" d="M333 584q0 -52 -42 -107.5t-136 -135.5h188l-9 -63h-278v55q115 105 155.5 156t40.5 93q0 28 -17.5 44t-45.5 16q-47 0 -86 -47l-53 40q61 70 143 70q64 0 102 -34t38 -87zM693 721l-404 -800l-62 30l405 800zM869 126q0 -57 -45 -94.5t-117 -37.5q-89 0 -145 63l49 43 q38 -44 94 -44q39 0 61.5 19t22.5 51q0 66 -79 66h-37l8 60h25q31 0 51 14.5t20 43.5q0 27 -19 41.5t-49 14.5q-51 0 -94 -40l-41 46q64 55 138 55q66 0 104.5 -31t38.5 -78q0 -30 -20.5 -54.5t-56.5 -33.5v-3q37 -5 64 -34t27 -67z" />
<glyph unicode="&#x2155;" horiz-adv-x="920" d="M272 278h-75v336l-94 -51l-37 52l145 84h61v-421zM693 721l-404 -800l-62 30l405 800zM867 139q0 -62 -43.5 -103.5t-113.5 -41.5q-82 0 -135 60l47 43q40 -41 87 -41q36 0 57 22.5t21 60.5q0 77 -67 77q-25 0 -57 -16h-57v221h245l-7 -61h-163v-98q30 12 56 12 q59 0 94.5 -36.5t35.5 -98.5z" />
<glyph unicode="&#x2156;" horiz-adv-x="920" d="M333 584q0 -52 -42 -107.5t-136 -135.5h188l-9 -63h-278v55q115 105 155.5 156t40.5 93q0 28 -17.5 44t-45.5 16q-47 0 -86 -47l-53 40q61 70 143 70q64 0 102 -34t38 -87zM693 721l-404 -800l-62 30l405 800zM867 139q0 -62 -43.5 -103.5t-113.5 -41.5q-82 0 -135 60 l47 43q40 -41 87 -41q36 0 57 22.5t21 60.5q0 77 -67 77q-25 0 -57 -16h-57v221h245l-7 -61h-163v-98q30 12 56 12q59 0 94.5 -36.5t35.5 -98.5z" />
<glyph unicode="&#x2157;" horiz-adv-x="920" d="M344 404q0 -57 -45 -94.5t-117 -37.5q-89 0 -145 63l49 43q38 -44 94 -44q39 0 61.5 19t22.5 51q0 66 -79 66h-37l8 60h25q31 0 51 14.5t20 43.5q0 27 -19 41.5t-49 14.5q-51 0 -94 -40l-41 46q64 55 138 55q66 0 104.5 -31t38.5 -78q0 -30 -20.5 -54.5t-56.5 -33.5v-3 q37 -5 64 -34t27 -67zM693 721l-404 -800l-62 30l405 800zM867 139q0 -62 -43.5 -103.5t-113.5 -41.5q-82 0 -135 60l47 43q40 -41 87 -41q36 0 57 22.5t21 60.5q0 77 -67 77q-25 0 -57 -16h-57v221h245l-7 -61h-163v-98q30 12 56 12q59 0 94.5 -36.5t35.5 -98.5z" />
<glyph unicode="&#x2158;" horiz-adv-x="920" d="M354 374h-54v-96h-76v96h-179v50l134 285l65 -26l-113 -248h93l7 105h69v-105h54v-61zM693 721l-404 -800l-62 30l405 800zM867 139q0 -62 -43.5 -103.5t-113.5 -41.5q-82 0 -135 60l47 43q40 -41 87 -41q36 0 57 22.5t21 60.5q0 77 -67 77q-25 0 -57 -16h-57v221h245 l-7 -61h-163v-98q30 12 56 12q59 0 94.5 -36.5t35.5 -98.5z" />
<glyph unicode="&#x2159;" horiz-adv-x="920" d="M272 278h-75v336l-94 -51l-37 52l145 84h61v-421zM693 721l-404 -800l-62 30l405 800zM850 397l-36 -49q-29 18 -60 18q-41 0 -71 -34t-36 -102q38 52 101 52q54 0 91 -36.5t37 -104.5q0 -67 -42 -107t-104 -40q-80 0 -120 56t-40 141q0 106 50.5 171t134.5 65 q50 0 95 -30zM734 221q-46 0 -85 -49q3 -117 81 -117q33 0 50.5 22.5t17.5 61.5q0 82 -64 82z" />
<glyph unicode="&#x215a;" horiz-adv-x="920" d="M342 417q0 -62 -43.5 -103.5t-113.5 -41.5q-82 0 -135 60l47 43q40 -41 87 -41q36 0 57 22.5t21 60.5q0 77 -67 77q-25 0 -57 -16h-57v221h245l-7 -61h-163v-98q30 12 56 12q59 0 94.5 -36.5t35.5 -98.5zM693 721l-404 -800l-62 30l405 800zM850 397l-36 -49 q-29 18 -60 18q-41 0 -71 -34t-36 -102q38 52 101 52q54 0 91 -36.5t37 -104.5q0 -67 -42 -107t-104 -40q-80 0 -120 56t-40 141q0 106 50.5 171t134.5 65q50 0 95 -30zM734 221q-46 0 -85 -49q3 -117 81 -117q33 0 50.5 22.5t17.5 61.5q0 82 -64 82z" />
<glyph unicode="&#x215b;" horiz-adv-x="920" d="M272 278h-75v336l-94 -51l-37 52l145 84h61v-421zM693 721l-404 -800l-62 30l405 800zM862 319q0 -57 -77 -90q94 -34 94 -110q0 -54 -43.5 -89.5t-116.5 -35.5q-74 0 -116.5 35t-42.5 88q0 35 23.5 62.5t63.5 39.5q-69 34 -69 98q0 54 43.5 82t98.5 28q59 0 100.5 -27 t41.5 -81zM800 118q0 30 -23.5 45t-79.5 33q-57 -29 -57 -78q0 -63 79 -63q37 0 59 18t22 45zM655 318q0 -25 19.5 -40t59.5 -27q52 31 52 66q0 23 -17.5 37t-48.5 14q-65 0 -65 -50z" />
<glyph unicode="&#x215c;" horiz-adv-x="920" d="M344 404q0 -57 -45 -94.5t-117 -37.5q-89 0 -145 63l49 43q38 -44 94 -44q39 0 61.5 19t22.5 51q0 66 -79 66h-37l8 60h25q31 0 51 14.5t20 43.5q0 27 -19 41.5t-49 14.5q-51 0 -94 -40l-41 46q64 55 138 55q66 0 104.5 -31t38.5 -78q0 -30 -20.5 -54.5t-56.5 -33.5v-3 q37 -5 64 -34t27 -67zM693 721l-404 -800l-62 30l405 800zM862 319q0 -57 -77 -90q94 -34 94 -110q0 -54 -43.5 -89.5t-116.5 -35.5q-74 0 -116.5 35t-42.5 88q0 35 23.5 62.5t63.5 39.5q-69 34 -69 98q0 54 43.5 82t98.5 28q59 0 100.5 -27t41.5 -81zM800 118 q0 30 -23.5 45t-79.5 33q-57 -29 -57 -78q0 -63 79 -63q37 0 59 18t22 45zM655 318q0 -25 19.5 -40t59.5 -27q52 31 52 66q0 23 -17.5 37t-48.5 14q-65 0 -65 -50z" />
<glyph unicode="&#x215d;" horiz-adv-x="920" d="M342 417q0 -62 -43.5 -103.5t-113.5 -41.5q-82 0 -135 60l47 43q40 -41 87 -41q36 0 57 22.5t21 60.5q0 77 -67 77q-25 0 -57 -16h-57v221h245l-7 -61h-163v-98q30 12 56 12q59 0 94.5 -36.5t35.5 -98.5zM693 721l-404 -800l-62 30l405 800zM862 319q0 -57 -77 -90 q94 -34 94 -110q0 -54 -43.5 -89.5t-116.5 -35.5q-74 0 -116.5 35t-42.5 88q0 35 23.5 62.5t63.5 39.5q-69 34 -69 98q0 54 43.5 82t98.5 28q59 0 100.5 -27t41.5 -81zM800 118q0 30 -23.5 45t-79.5 33q-57 -29 -57 -78q0 -63 79 -63q37 0 59 18t22 45zM655 318 q0 -25 19.5 -40t59.5 -27q52 31 52 66q0 23 -17.5 37t-48.5 14q-65 0 -65 -50z" />
<glyph unicode="&#x215e;" horiz-adv-x="920" d="M379 648l-178 -378l-72 22l167 345h-199v62h282v-51zM693 721l-404 -800l-62 30l405 800zM862 319q0 -57 -77 -90q94 -34 94 -110q0 -54 -43.5 -89.5t-116.5 -35.5q-74 0 -116.5 35t-42.5 88q0 35 23.5 62.5t63.5 39.5q-69 34 -69 98q0 54 43.5 82t98.5 28 q59 0 100.5 -27t41.5 -81zM800 118q0 30 -23.5 45t-79.5 33q-57 -29 -57 -78q0 -63 79 -63q37 0 59 18t22 45zM655 318q0 -25 19.5 -40t59.5 -27q52 31 52 66q0 23 -17.5 37t-48.5 14q-65 0 -65 -50z" />
<glyph unicode="&#x215f;" horiz-adv-x="920" d="M272 278h-75v336l-94 -51l-37 52l145 84h61v-421zM693 721l-404 -800l-62 30l405 800z" />
<glyph unicode="&#x2190;" horiz-adv-x="900" d="M783 289h-520l-1 -3q22 -17 62 -60l140 -152l-67 -57l-280 312l280 312l67 -57l-140 -152q-40 -43 -62 -60l1 -3h520v-80z" />
<glyph unicode="&#x2191;" horiz-adv-x="900" d="M495 529v-529h-90v529l-3 1q-18 -25 -66 -69l-144 -133l-55 61l313 282l313 -282l-55 -61l-151 140q-39 38 -59 62z" />
<glyph unicode="&#x2192;" horiz-adv-x="900" d="M637 289h-520v80h520l1 3q-23 17 -69 68l-133 144l67 57l280 -312l-280 -312l-67 57l140 152q40 43 62 60z" />
<glyph unicode="&#x2193;" horiz-adv-x="900" d="M495 635v-528l3 -1q18 26 59 62l151 139l55 -61l-313 -281l-313 281l55 61l151 -139q41 -36 59 -62l3 1v528h90z" />
<glyph unicode="&#x2194;" horiz-adv-x="1280" d="M1027 289h-774l-1 -3q22 -17 62 -60l140 -152l-67 -57l-280 312l280 312l67 -57l-140 -152q-40 -43 -62 -60l1 -3h774l1 3q-22 17 -62 60l-140 152l67 57l280 -312l-280 -312l-67 57l140 152q40 43 62 60z" />
<glyph unicode="&#x2195;" horiz-adv-x="900" d="M495 731v-782l3 -1q15 22 59 62l151 140l55 -62l-313 -281l-313 281l55 62l151 -140q44 -40 60 -62l3 1v782l-3 1q-17 -22 -60 -62l-151 -140l-55 62l313 281l313 -281l-55 -62l-151 140q-41 38 -59 62z" />
<glyph unicode="&#x2196;" horiz-adv-x="900" d="M343 508l371 -373l-61 -61l-370 373l-3 -1q4 -44 2 -96l-9 -197l-87 4l22 422l422 22l7 -83l-196 -8q-53 -2 -97 1z" />
<glyph unicode="&#x2197;" horiz-adv-x="900" d="M186 135l371 373l-1 3q-40 -3 -97 -1l-196 8l7 83l422 -22l22 -422l-87 -4l-9 197q-1 42 2 96l-3 1l-370 -373z" />
<glyph unicode="&#x2198;" horiz-adv-x="900" d="M557 133l-371 373l61 61l370 -373l3 1q-5 49 -2 96l9 197l87 -4l-22 -422l-422 -22l-7 83l196 8q53 2 97 -1z" />
<glyph unicode="&#x2199;" horiz-adv-x="900" d="M714 506l-371 -373l1 -3q40 3 97 1l196 -8l-7 -83l-422 22l-22 422l87 4l9 -197q2 -51 -2 -96l3 -1l370 373z" />
<glyph unicode="&#x21e6;" horiz-adv-x="1000" d="M920 387v-148q0 -23 -14 -36.5t-36 -13.5h-532v-176l-298 300l298 300v-176h532q22 0 36 -13.5t14 -36.5zM876 233v160h-583v111l-189 -191l189 -191v111h583z" />
<glyph unicode="&#x21e7;" horiz-adv-x="720" d="M441 -12h-162q-23 0 -36.5 14t-13.5 36v496h-169l300 298l300 -298h-169v-496q0 -22 -13.5 -36t-36.5 -14zM276 32h168v547h107l-191 189l-191 -189h107v-547z" />
<glyph unicode="&#x21e8;" horiz-adv-x="1000" d="M80 239v148q0 23 14 36.5t36 13.5h532v176l298 -300l-298 -300v176h-532q-22 0 -36 13.5t-14 36.5zM124 393v-160h583v-111l189 191l-189 191v-111h-583z" />
<glyph unicode="&#x21e9;" horiz-adv-x="720" d="M279 750h162q23 0 36.5 -14t13.5 -36v-496h169l-300 -298l-300 298h169v496q0 22 13.5 36t36.5 14zM444 706h-168v-547h-107l191 -189l191 189h-107v547z" />
<glyph unicode="&#x21ea;" horiz-adv-x="720" d="M491 255h-262v279h-169l300 298l300 -298h-169v-279zM229 155h262v-117q0 -22 -13.5 -36t-36.5 -14h-162q-23 0 -36.5 14t-13.5 36v117zM276 297h168v282h107l-191 189l-191 -189h107v-282zM444 113h-168v-81h168v81z" />
<glyph unicode="&#x2202;" horiz-adv-x="549" d="M247 422q89 0 143 -75l1 1q-14 192 -277 264l21 67q191 -51 271.5 -143.5t80.5 -279.5q0 -119 -59 -193.5t-159 -74.5q-90 0 -151 58.5t-61 159.5q0 97 54.5 156.5t135.5 59.5zM393 247q-7 46 -47.5 74.5t-84.5 28.5q-48 0 -79.5 -36t-31.5 -104q0 -70 32.5 -109.5 t85.5 -39.5q124 0 125 186z" />
<glyph unicode="&#x2206;" horiz-adv-x="579" d="M6 0l224 689h120l223 -689h-567zM286 603l-160 -525h323l-159 525h-4z" />
<glyph unicode="&#x220f;" horiz-adv-x="670" d="M544 -202l-90 -11v806h-215v-795l-90 -11v806h-92v76h579v-76h-92v-795z" />
<glyph unicode="&#x2211;" horiz-adv-x="520" d="M349 367v-62l-194 -227h296v-78h-403v78l222 256l-222 257v78h403v-78h-296z" />
<glyph unicode="&#x2212;" horiz-adv-x="500" d="M438 274h-376v77h376v-77z" />
<glyph unicode="&#x2215;" horiz-adv-x="120" d="M293 721l-404 -800l-62 30l405 800z" />
<glyph unicode="&#x2219;" horiz-adv-x="265" d="M63 338q0 29 20 49t49 20q30 0 50 -20t20 -49t-20 -49.5t-50 -20.5q-29 0 -49 20.5t-20 49.5z" />
<glyph unicode="&#x221a;" horiz-adv-x="520" d="M648 790h-184l-220 -790h-104l-167 457l81 27l133 -383h4l208 766h249v-77z" />
<glyph unicode="&#x221e;" horiz-adv-x="900" d="M256 523q59 0 109.5 -34.5t82.5 -93.5q69 128 197 128q99 0 150.5 -59.5t51.5 -148.5t-52 -148t-151 -59q-60 0 -110 34t-83 93q-68 -127 -196 -127q-99 0 -150.5 59.5t-51.5 148.5t52 148t151 59zM755 315q0 62 -29.5 97t-80.5 35q-54 0 -93 -41t-63 -101 q19 -33 34.5 -54.5t49.5 -44.5t72 -23q50 0 80 34.5t30 97.5zM146 316q0 -62 29.5 -97t80.5 -35q54 0 93 41t62 101q-67 122 -155 122q-50 0 -80 -34.5t-30 -97.5z" />
<glyph unicode="&#x222b;" horiz-adv-x="290" d="M253 778q-39 0 -54.5 -19t-15.5 -58v-770q0 -71 -38.5 -107.5t-107.5 -36.5q-59 0 -119 27l29 67q42 -19 83 -19q64 0 64 69v770q0 75 39.5 113t112.5 38q66 0 126 -27l-29 -67q-45 20 -90 20z" />
<glyph unicode="&#x2248;" horiz-adv-x="500" d="M325 344q-34 0 -64 14t-53 28t-39 14q-38 0 -67 -51l-61 32q47 92 134 92q34 0 64 -14.5t53 -28.5t39 -14q38 0 67 51l61 -32q-47 -91 -134 -91zM325 155q-34 0 -64 14t-53 28t-39 14q-38 0 -67 -51l-61 32q47 92 134 92q34 0 64 -14t53 -28.5t39 -14.5q38 0 67 51 l61 -32q-47 -91 -134 -91z" />
<glyph unicode="&#x2260;" horiz-adv-x="500" d="M438 176h-235l-89 -150l-51 29l73 121h-74v78h120l67 114h-187v78h234l89 150l50 -27l-73 -123h76v-78h-122l-68 -114h190v-78z" />
<glyph unicode="&#x2264;" horiz-adv-x="500" d="M438 0h-376v77h376v-77zM419 146l-357 155v95l357 162l36 -73l-320 -137l320 -126z" />
<glyph unicode="&#x2265;" horiz-adv-x="500" d="M438 0h-376v77h376v-77zM81 558l357 -162v-95l-357 -155l-36 73l320 129l-320 135z" />
<glyph unicode="&#x22c5;" horiz-adv-x="265" d="M63 338q0 29 20 49t49 20q30 0 50 -20t20 -49t-20 -49.5t-50 -20.5q-29 0 -49 20.5t-20 49.5z" />
<glyph unicode="&#x2326;" horiz-adv-x="1400" d="M503 355l-154 -154l67 -67l154 154l154 -154l67 67l-154 154l154 153l-67 69l-154 -155l-154 155l-67 -69zM980 -12h-830q-22 0 -36 14t-14 36v625q0 23 14 36.5t36 13.5h830l380 -361z" />
<glyph unicode="&#x2327;" horiz-adv-x="1240" d="M553 355l-154 -154l67 -67l154 154l154 -154l67 67l-154 154l154 153l-67 69l-154 -155l-154 155l-67 -69zM1090 -12h-940q-22 0 -36 14t-14 36v625q0 23 14 36.5t36 13.5h940q22 0 36 -13.5t14 -36.5v-625q0 -22 -14 -36t-36 -14z" />
<glyph unicode="&#x2328;" horiz-adv-x="1460" d="M1290 -12h-1120q-22 0 -36 14t-14 36v625q0 23 14 36.5t36 13.5h1120q22 0 36 -13.5t14 -36.5v-625q0 -22 -14 -36t-36 -14zM279 658h-74q-8 0 -14 -6t-6 -14v-74q0 -8 6 -14t14 -6h74q8 0 14 6t6 14v74q0 8 -6 14t-14 6zM459 658h-74q-8 0 -14 -6t-6 -14v-74q0 -8 6 -14 t14 -6h74q8 0 14 6t6 14v74q0 8 -6 14t-14 6zM639 658h-74q-8 0 -14 -6t-6 -14v-74q0 -8 6 -14t14 -6h74q8 0 14 6t6 14v74q0 8 -6 14t-14 6zM819 658h-74q-8 0 -14 -6t-6 -14v-74q0 -8 6 -14t14 -6h74q8 0 14 6t6 14v74q0 8 -6 14t-14 6zM999 658h-74q-8 0 -14 -6t-6 -14 v-74q0 -8 6 -14t14 -6h74q8 0 14 6t6 14v74q0 8 -6 14t-14 6zM1239 658h-134q-8 0 -14 -6t-6 -14v-74q0 -8 6 -14t14 -6h134q8 0 14 6t6 14v74q0 8 -6 14t-14 6zM1165 359v-130q0 -8 6 -14t14 -6h54q8 0 14 6t6 14v244q0 8 -6 14t-14 6h-94q-8 0 -14 -6t-6 -14v-74 q0 -8 6 -14t14 -6t14 -6t6 -14zM319 493h-74q-8 0 -14 -6t-6 -14v-74q0 -8 6 -14t14 -6h74q8 0 14 6t6 14v74q0 8 -6 14t-14 6zM499 493h-74q-8 0 -14 -6t-6 -14v-74q0 -8 6 -14t14 -6h74q8 0 14 6t6 14v74q0 8 -6 14t-14 6zM679 493h-74q-8 0 -14 -6t-6 -14v-74q0 -8 6 -14 t14 -6h74q8 0 14 6t6 14v74q0 8 -6 14t-14 6zM859 493h-74q-8 0 -14 -6t-6 -14v-74q0 -8 6 -14t14 -6h74q8 0 14 6t6 14v74q0 8 -6 14t-14 6zM1039 493h-74q-8 0 -14 -6t-6 -14v-74q0 -8 6 -14t14 -6h74q8 0 14 6t6 14v74q0 8 -6 14t-14 6zM359 323h-74q-8 0 -14 -6t-6 -14 v-74q0 -8 6 -14t14 -6h74q8 0 14 6t6 14v74q0 8 -6 14t-14 6zM539 323h-74q-8 0 -14 -6t-6 -14v-74q0 -8 6 -14t14 -6h74q8 0 14 6t6 14v74q0 8 -6 14t-14 6zM719 323h-74q-8 0 -14 -6t-6 -14v-74q0 -8 6 -14t14 -6h74q8 0 14 6t6 14v74q0 8 -6 14t-14 6zM899 323h-74 q-8 0 -14 -6t-6 -14v-74q0 -8 6 -14t14 -6h74q8 0 14 6t6 14v74q0 8 -6 14t-14 6zM1079 323h-74q-8 0 -14 -6t-6 -14v-74q0 -8 6 -14t14 -6h74q8 0 14 6t6 14v74q0 8 -6 14t-14 6zM1039 158h-614q-8 0 -14 -6t-6 -14v-74q0 -8 6 -14t14 -6h614q8 0 14 6t6 14v74q0 8 -6 14 t-14 6z" />
<glyph unicode="&#x232b;" horiz-adv-x="1400" d="M1051 201l-154 154l154 153l-67 69l-154 -155l-154 155l-67 -69l154 -153l-154 -154l67 -67l154 154l154 -154zM1250 -12h-830l-380 364l380 361h830q22 0 36 -13.5t14 -36.5v-625q0 -22 -14 -36t-36 -14z" />
<glyph unicode="&#x23ce;" horiz-adv-x="1000" d="M641 438v262q0 22 13.5 36t36.5 14h159q22 0 36 -14t14 -36v-461q0 -23 -14 -36.5t-36 -13.5h-512v-174l-298 298l298 299v-174h303zM854 233v473h-168v-313h-393v111l-189 -191l189 -191v111h561z" />
<glyph unicode="&#x25af;" horiz-adv-x="589" d="M495 0h-397v689h397v-689zM190 597v-505h213v505h-213z" />
<glyph unicode="&#x25ca;" horiz-adv-x="531" d="M263 71h4l138 265l-138 262h-4l-138 -262zM319 0h-107l-182 335l182 334h107l182 -332z" />
<glyph unicode="&#x25fc;" horiz-adv-x="525" d="M0 525h525v-525h-525v525z" />
<glyph unicode="&#x27a1;" horiz-adv-x="1000" d="M80 239v148q0 23 14 36.5t36 13.5h532v176l298 -300l-298 -300v176h-532q-22 0 -36 13.5t-14 36.5z" />
<glyph unicode="&#x2b05;" horiz-adv-x="1000" d="M920 387v-148q0 -23 -14 -36.5t-36 -13.5h-532v-176l-298 300l298 300v-176h532q22 0 36 -13.5t14 -36.5z" />
<glyph unicode="&#x2b06;" horiz-adv-x="720" d="M441 -12h-162q-23 0 -36.5 14t-13.5 36v496h-169l300 298l300 -298h-169v-496q0 -22 -13.5 -36t-36.5 -14z" />
<glyph unicode="&#x2b07;" horiz-adv-x="720" d="M279 750h162q23 0 36.5 -14t13.5 -36v-496h169l-300 -298l-300 298h169v496q0 22 13.5 36t36.5 14z" />
<glyph unicode="&#xe000;" horiz-adv-x="0" d="M67 478l-1 8q58 58 137 120q43 34 70.5 53.5t72 46.5t88 40t86.5 13q29 0 98 -22.5t75 -22.5q47 14 83 14q55 0 81.5 -34.5t26.5 -65.5l-3 -23q30 -34 90 -60q28 -12 71 -28t65.5 -24.5t43 -22t25.5 -27.5q1 -4 2.5 -17t2.5 -30.5t2 -23.5q2 -18 5.5 -35t3.5 -22 q0 -13 -23.5 -65.5t-35.5 -57.5q-6 -3 -19 -3q-17 0 -23 3q-20 -16 -49.5 -33t-45.5 -17t-53 7q-10 2 -34 8.5t-45.5 11t-37.5 4.5q-10 0 -21.5 -3.5t-18.5 -7t-18.5 -9.5t-13.5 -7q-28 -15 -44 -27.5t-26 -32.5t-14.5 -36t-11.5 -53q-9 -50 -21 -68q10 -24 10 -38 q-28 -4 -63 -4q-136 0 -248 67q-39 23 -74.5 54t-51.5 51l-16 20l52 28q-24 1 -34 2l-2 7q10 13 51 40q-34 -11 -78 -33l-4 8q11 39 40 72l-75 -52l-4 7q20 60 75 111l-117 -60l-3 8q28 64 96 125q0 1 -42 -18.5t-79 -37.5l-3 8q21 36 57.5 69t60.5 46q-131 -49 -140 -52 l-3 7q44 57 172 151zM308 570l2 -3q32 9 57 12l1 -5q-62 -45 -62 -130q0 -28 7 -50l-4 -4q-15 11 -30 53h-2q-4 -14 -7 -39l-5 -1l-10 16l-2 -1q-2 -14 -2 -20q0 -48 28 -95q5 -8 20.5 -28t25.5 -37t10 -28q0 -14 -13.5 -37t-13.5 -37l3 -15q49 1 69 4l4 -4 q-12 -18 -117 -67l6 -5l86 19l3 -5l-64 -38q56 -47 133.5 -73t130.5 -26v2q-22 24 -42 66l4 4l61 -40q9 15 15 28q-20 15 -42 42t-27 44l4 3q15 -12 44 -26.5t41 -14.5q7 20 7 43l17 26q0 1 -0.5 1t-0.5 1q-10 -1 -30.5 -10.5t-32.5 -19.5l-6 1q0 39 65 77v5l-39 16 q-11 6 -37 43.5t-26 66.5l10 -3q62 -72 146 -83q17 1 78 15.5t70 18.5q24 -13 73 -31t66 -21q8 1 20 6t20 10l7 4q-12 10 -23 14.5t-22.5 7t-42.5 11t-69 22.5q-82 29 -105 68h-3q-1 -3 -1 -7q0 -5 1 -9.5t4 -9.5t5 -8t7 -8l7 -7t8.5 -7.5t7.5 -6.5l-1 -4q-23 2 -52 9l-4 2 q-5 2 -8 3.5t-9.5 5.5t-11 7.5t-11 9t-11.5 11.5t-10 14t-8 16.5t-5 19t-2 21.5q0 35 14 80h5l5 -55l19 -32q18 24 18 48q0 16 -18 34l-53 60l3 3l50 -21q75 -62 161 -117.5t139 -68.5q25 -7 57 -12.5t51 -7.5l19 -2q9 20 9 44q0 16 -4 30.5t-10 14.5q-8 0 -8 -19 q0 -3 2 -23h-6q-31 36 -31 53q0 10 14.5 25t14.5 24q-2 3 -5.5 5.5t-9 6t-10.5 6t-13.5 6t-15.5 6t-18 6.5t-18.5 7t-21 7.5t-21.5 7.5q-84 29 -148 83l-4 -1l44 -53l-2 -5q-67 0 -105 18t-38 44q0 27 44 38l2 4q-2 2 -16 2q-21 0 -40 -10.5t-19 -36.5q0 -22 20 -45h-12 q-14 8 -25 23t-15 26l-3 11l-77 13l2 5q145 57 191 57q25 0 38 -8h5q-17 29 -45 29q-45 0 -166 -43l-6 1q3 19 23 35l-1 4q-63 23 -119 23q-40 0 -78.5 -17t-64 -42t-41 -44t-22.5 -32zM485 473l-6 3q32 28 86 38v3l-31 17l1 4q46 9 67 9v2l-27 34l1 4q46 -15 79 -50l-1 -4 q-5 -1 -40 -7v-4l27 -49l-3 -3q-42 9 -74 9zM418 563l-4 4q25 87 116 87l40 -5l-5 -7l-51 -26q-13 -26 -13 -61q0 -13 3 -26h-6q-38 27 -38 63q-9 -3 -19.5 -10.5t-16.5 -13.5zM801 506l40 -3l-5 -8q-12 -5 -29 -5q-34 0 -77 35l18 1z" />
<glyph unicode="&#xe001;" horiz-adv-x="0" d="M308 570q7 13 22.5 32t41 44t64 42t78.5 17q56 0 119 -23l1 -4q-20 -16 -23 -35l6 -1q121 43 166 43q28 0 45 -29h-5q-13 8 -38 8q-46 0 -191 -57l-2 -5l77 -13q11 -41 43 -60h12q-20 23 -20 45q0 26 19 36.5t40 10.5q14 0 16 -2l-2 -4q-44 -11 -44 -38q0 -26 38 -44 t105 -18l2 5l-44 53l4 1q64 -54 148 -83q8 -3 21.5 -7.5t21 -7.5t18.5 -7t18 -6.5t15.5 -6t13.5 -6t10.5 -6t9 -6t5.5 -5.5q0 -9 -14.5 -24t-14.5 -25q0 -17 31 -53h6q-2 20 -2 23q0 19 8 19q6 0 10 -14.5t4 -30.5q0 -11 -2.5 -22t-4.5 -16l-2 -6q-70 7 -127 22 q-53 13 -139 68.5t-161 117.5l-50 21l-3 -3l53 -60q18 -18 18 -34q0 -24 -18 -48l-19 32l-5 55h-5q-14 -45 -14 -80q0 -11 2 -21.5t5 -19t8 -16.5t10 -14t11.5 -11.5t11 -9t11 -7.5t9.5 -5.5t8 -3.5l4 -2q29 -7 52 -9l1 4q-2 1 -6.5 5.5t-7 6.5t-6.5 6l-6.5 6.5t-5.5 7 t-4.5 8t-2.5 8t-1 8.5t1 7h3q23 -39 105 -68q38 -14 69 -22.5t42.5 -11t22.5 -7t23 -14.5q-28 -18 -47 -20q-17 3 -66 21t-73 31q-9 -4 -70 -18.5t-78 -15.5q-84 11 -146 83l-10 3q0 -29 26 -66.5t37 -43.5l39 -16v-5q-65 -38 -65 -77l6 -1q12 10 32.5 19.5t30.5 10.5 q0 -1 0.5 -1t0.5 -1l-17 -26q0 -23 -7 -43q-12 0 -41 14.5t-44 26.5l-4 -3q5 -17 27 -44t42 -42l-15 -28q-42 26 -61 40l-4 -4q20 -42 42 -66v-2q-53 0 -130.5 26t-133.5 73l64 38l-3 5l-86 -19l-6 5q105 49 117 67l-4 4l-69 -4q-3 2 -3 15q0 14 13.5 37t13.5 37 q0 11 -10 28t-25.5 37t-20.5 28q-28 47 -28 95q0 6 2 20l2 1l10 -16l5 1q3 25 7 39h2q15 -42 30 -53l4 4q-7 22 -7 50q0 85 62 130l-1 5q-26 -3 -57 -12zM479 476l6 -3q35 6 79 6q14 0 32.5 -2.5t29.5 -4.5l12 -2l3 3l-27 49v4q35 6 40 7l1 4q-15 16 -34.5 28.5t-32.5 16.5 l-12 5l-1 -4l27 -34v-2l-67 -9l-1 -4l31 -17v-3q-54 -10 -86 -38zM418 563q21 22 42 29q0 -36 38 -63h6q-3 13 -3 26q0 35 13 61l51 26l5 7q-16 5 -40 5q-91 0 -116 -87zM841 503l-40 3l-53 20l-18 -1q43 -35 77 -35q17 0 29 5z" />
<glyph unicode="&#xe002;" horiz-adv-x="0" d="M864 308q0 13 6 20q16 0 25 -12l-30 -22q-1 7 -1 14zM1107 218l-3 38h16q7 0 7 -6q0 -4 -5 -12t-10 -14zM1022 271q15 -2 28 -5q-4 -14 -24 -30zM982 281l26 -5q-15 -24 -27 -27q1 28 1 32zM1063 255q0 7 6 7q12 0 20 -4q0 -4 -9 -13.5t-14 -11.5q-3 12 -3 22zM908 309 q19 0 22 -10l-24 -23q0 25 2 33zM785 582q-15 -6 -15 -21q0 -3 2 -7q-15 12 -17 31q19 0 30 -3zM943 286q0 4 4 8q11 -2 19 -8l-22 -24q-1 22 -1 24zM834 542q-14 -2 -18 -2q-6 0 -16 2q13 5 13 19v6q11 -10 21 -25z" />
<glyph unicode="&#xe003;" horiz-adv-x="1234" d="M67 478l-1 8q58 58 137 120q43 34 70.5 53.5t72 46.5t88 40t86.5 13q29 0 98 -22.5t75 -22.5q47 14 83 14q55 0 81.5 -34.5t26.5 -65.5l-3 -23q30 -34 90 -60q28 -12 71 -28t65.5 -24.5t43 -22t25.5 -27.5q1 -4 2.5 -17t2.5 -30.5t2 -23.5q2 -18 5.5 -35t3.5 -22 q0 -13 -23.5 -65.5t-35.5 -57.5q-6 -3 -19 -3q-17 0 -23 3q-20 -16 -49.5 -33t-45.5 -17t-53 7q-10 2 -34 8.5t-45.5 11t-37.5 4.5q-10 0 -21.5 -3.5t-18.5 -7t-18.5 -9.5t-13.5 -7q-28 -15 -44 -27.5t-26 -32.5t-14.5 -36t-11.5 -53q-9 -50 -21 -68q10 -24 10 -38 q-28 -4 -63 -4q-136 0 -248 67q-39 23 -74.5 54t-51.5 51l-16 20l52 28q-24 1 -34 2l-2 7q10 13 51 40q-34 -11 -78 -33l-4 8q11 39 40 72l-75 -52l-4 7q20 60 75 111l-117 -60l-3 8q28 64 96 125q0 1 -42 -18.5t-79 -37.5l-3 8q21 36 57.5 69t60.5 46q-131 -49 -140 -52 l-3 7q44 57 172 151zM308 570l2 -3q32 9 57 12l1 -5q-62 -45 -62 -130q0 -28 7 -50l-4 -4q-15 11 -30 53h-2q-4 -14 -7 -39l-5 -1l-10 16l-2 -1q-2 -14 -2 -20q0 -48 28 -95q5 -8 20.5 -28t25.5 -37t10 -28q0 -14 -13.5 -37t-13.5 -37l3 -15q49 1 69 4l4 -4 q-12 -18 -117 -67l6 -5l86 19l3 -5l-64 -38q56 -47 133.5 -73t130.5 -26v2q-22 24 -42 66l4 4l61 -40q9 15 15 28q-20 15 -42 42t-27 44l4 3q15 -12 44 -26.5t41 -14.5q7 20 7 43l17 26q0 1 -0.5 1t-0.5 1q-10 -1 -30.5 -10.5t-32.5 -19.5l-6 1q0 39 65 77v5l-39 16 q-11 6 -37 43.5t-26 66.5l10 -3q62 -72 146 -83q17 1 78 15.5t70 18.5q24 -13 73 -31t66 -21q8 1 20 6t20 10l7 4q-12 10 -23 14.5t-22.5 7t-42.5 11t-69 22.5q-82 29 -105 68h-3q-1 -3 -1 -7q0 -5 1 -9.5t4 -9.5t5 -8t7 -8l7 -7t8.5 -7.5t7.5 -6.5l-1 -4q-23 2 -52 9l-4 2 q-5 2 -8 3.5t-9.5 5.5t-11 7.5t-11 9t-11.5 11.5t-10 14t-8 16.5t-5 19t-2 21.5q0 35 14 80h5l5 -55l19 -32q18 24 18 48q0 16 -18 34l-53 60l3 3l50 -21q75 -62 161 -117.5t139 -68.5q25 -7 57 -12.5t51 -7.5l19 -2q9 20 9 44q0 16 -4 30.5t-10 14.5q-8 0 -8 -19 q0 -3 2 -23h-6q-31 36 -31 53q0 10 14.5 25t14.5 24q-2 3 -5.5 5.5t-9 6t-10.5 6t-13.5 6t-15.5 6t-18 6.5t-18.5 7t-21 7.5t-21.5 7.5q-84 29 -148 83l-4 -1l44 -53l-2 -5q-67 0 -105 18t-38 44q0 27 44 38l2 4q-2 2 -16 2q-21 0 -40 -10.5t-19 -36.5q0 -22 20 -45h-12 q-14 8 -25 23t-15 26l-3 11l-77 13l2 5q145 57 191 57q25 0 38 -8h5q-17 29 -45 29q-45 0 -166 -43l-6 1q3 19 23 35l-1 4q-63 23 -119 23q-40 0 -78.5 -17t-64 -42t-41 -44t-22.5 -32zM485 473l-6 3q32 28 86 38v3l-31 17l1 4q46 9 67 9v2l-27 34l1 4q46 -15 79 -50l-1 -4 q-5 -1 -40 -7v-4l27 -49l-3 -3q-42 9 -74 9zM418 563l-4 4q25 87 116 87l40 -5l-5 -7l-51 -26q-13 -26 -13 -61q0 -13 3 -26h-6q-38 27 -38 63q-9 -3 -19.5 -10.5t-16.5 -13.5zM801 506l40 -3l-5 -8q-12 -5 -29 -5q-34 0 -77 35l18 1zM864 308l1 -14l30 22q-9 12 -25 12 q-6 -7 -6 -20zM1022 271q2 -24 4 -35q20 16 24 30zM1104 256l3 -38q20 24 20 32q0 6 -7 6h-16zM982 281l-1 -32q5 1 12 8t11 13l4 6q-13 3 -26 5zM1063 255q0 -10 3 -22q5 2 14 11.5t9 13.5q-8 4 -20 4q-6 0 -6 -7zM908 309l-2 -33q19 18 24 23q-3 10 -22 10zM943 286l1 -24 q16 16 22 24q-8 6 -19 8q-4 -4 -4 -8zM785 582q-11 3 -30 3q2 -19 17 -31q-2 4 -2 7q0 15 15 21zM834 542q-10 15 -21 25v-6q0 -14 -13 -19q10 -2 16 -2q4 0 18 2z" />
<glyph unicode="&#xfb01;" horiz-adv-x="585" d="M491 0h-91v456h-203v-456h-92v456h-84v71h84v69q0 70 45 112t137 42q77 0 146 -36l-32 -64q-52 25 -110 25q-54 0 -74 -19t-20 -59v-70h294v-527z" />
<glyph unicode="&#xfb02;" horiz-adv-x="596" d="M558 71l23 -65q-36 -18 -75 -18q-47 0 -77 29t-30 87v554q-48 17 -106 17q-54 0 -75 -19t-21 -59v-70h121l-11 -71h-110v-456h-92v456h-84v71h84v69q0 70 45.5 112t138.5 42q54 0 113 -19l88 17v-642q0 -42 34 -42q15 0 34 7z" />
<glyph unicode="&#xfeff;" horiz-adv-x="0" />
<glyph unicode="&#x1f310;" horiz-adv-x="1200" d="M1074 366q0 -197 -138.5 -336.5t-335.5 -139.5t-335.5 139.5t-138.5 336.5t138.5 336.5t335.5 139.5t335.5 -139.5t138.5 -336.5zM252 615q-72 -100 -78 -226h162q3 84 31 172q-64 23 -115 54zM1026 389q-8 127 -79 226q-50 -31 -115 -54q28 -83 31 -172h163zM174 343 q6 -125 78 -227q49 31 115 55q-28 88 -31 172h-162zM947 116q72 101 79 227h-163q-3 -89 -31 -172q67 -24 115 -55zM789 547q-87 -24 -165 -27v-131h193q-3 86 -28 158zM624 211q84 -3 165 -27q25 74 28 159h-193v-132zM574 520q-85 5 -164 27q-25 -77 -28 -158h192v131z M410 184q85 24 164 27v132h-192q3 -80 28 -159zM639 792q-10 0 -15 1v-231q70 3 150 24q-43 106 -135 206zM624 -61q5 1 15 1q91 99 135 205q-73 21 -150 24v-230zM574 793q-5 -1 -13 -1q-90 -96 -136 -206q80 -21 149 -24v231zM561 -60q8 0 13 -1v230q-76 -3 -149 -24 q47 -110 136 -205zM499 782q-131 -32 -220 -133q47 -30 103 -49q43 103 117 182zM701 -50q130 32 219 132q-39 27 -102 50q-41 -100 -117 -182zM279 82q90 -101 220 -132q-74 79 -117 182q-63 -23 -103 -50zM920 649q-89 101 -219 133q76 -82 117 -182q57 19 102 49z" />
<glyph horiz-adv-x="279" d="M204 710q0 -27 -18.5 -45t-46.5 -18t-46 18t-18 45t18 44.5t46 17.5t46.5 -18t18.5 -44zM185 0h-92v527h92v-527z" />
<glyph horiz-adv-x="503" d="M472 0h-367v689h95v-606h283zM451 361q0 -27 -18 -45t-47 -18q-28 0 -46 18t-18 45t18 44.5t46 17.5q29 0 47 -17.5t18 -44.5z" />
<glyph horiz-adv-x="325" d="M247 70l24 -64q-38 -18 -75 -18q-50 0 -79 30.5t-29 95.5v625l92 11v-644q0 -42 33 -42q19 0 34 6zM361 359q0 -27 -18 -45t-47 -18q-28 0 -46 18t-18 45t18 44.5t46 17.5q29 0 47 -17.5t18 -44.5z" />
<glyph horiz-adv-x="400" d="M193 469q0 -93 21 -154.5t68 -131.5l-48 -30q-42 60 -61 91.5t-37.5 92.5t-18.5 132t18.5 132.5t37.5 93t61 91.5l48 -30q-47 -70 -68 -131.5t-21 -155.5z" />
<glyph horiz-adv-x="400" d="M206 470q0 93 -21 154.5t-68 131.5l48 30q42 -60 61 -91.5t37.5 -92.5t18.5 -132t-18.5 -132.5t-37.5 -93t-61 -91.5l-48 30q47 70 68 131.5t21 155.5z" />
<glyph horiz-adv-x="400" d="M81 506h85v89h69v-89h84v-64h-84v-88h-69v88h-85v64z" />
<glyph horiz-adv-x="400" d="M274 489q0 84 -18.5 119t-55.5 35q-75 0 -75 -154q0 -156 75 -156q74 0 74 156zM354 489q0 -107 -39 -162t-115 -55t-115.5 55.5t-39.5 161.5q0 216 155 216q154 0 154 -216z" />
<glyph horiz-adv-x="400" d="M272 278h-75v336l-94 -51l-37 52l145 84h61v-421z" />
<glyph horiz-adv-x="400" d="M333 584q0 -52 -42 -107.5t-136 -135.5h188l-9 -63h-278v55q115 105 155.5 156t40.5 93q0 28 -17.5 44t-45.5 16q-47 0 -86 -47l-53 40q61 70 143 70q64 0 102 -34t38 -87z" />
<glyph horiz-adv-x="400" d="M344 404q0 -57 -45 -94.5t-117 -37.5q-89 0 -145 63l49 43q38 -44 94 -44q39 0 61.5 19t22.5 51q0 66 -79 66h-37l8 60h25q31 0 51 14.5t20 43.5q0 27 -19 41.5t-49 14.5q-51 0 -94 -40l-41 46q64 55 138 55q66 0 104.5 -31t38.5 -78q0 -30 -20.5 -54.5t-56.5 -33.5v-3 q37 -5 64 -34t27 -67z" />
<glyph horiz-adv-x="400" d="M354 374h-54v-96h-76v96h-179v50l134 285l65 -26l-113 -248h93l7 105h69v-105h54v-61z" />
<glyph horiz-adv-x="400" d="M342 417q0 -62 -43.5 -103.5t-113.5 -41.5q-82 0 -135 60l47 43q40 -41 87 -41q36 0 57 22.5t21 60.5q0 77 -67 77q-25 0 -57 -16h-57v221h245l-7 -61h-163v-98q30 12 56 12q59 0 94.5 -36.5t35.5 -98.5z" />
<glyph horiz-adv-x="400" d="M330 675l-36 -49q-29 18 -60 18q-41 0 -71 -34t-36 -102q38 52 101 52q54 0 91 -36.5t37 -104.5q0 -67 -42 -107t-104 -40q-80 0 -120 56t-40 141q0 106 50.5 171t134.5 65q50 0 95 -30zM214 499q-46 0 -85 -49q3 -117 81 -117q33 0 50.5 22.5t17.5 61.5q0 82 -64 82z " />
<glyph horiz-adv-x="400" d="M339 648l-178 -378l-72 22l167 345h-199v62h282v-51z" />
<glyph horiz-adv-x="400" d="M342 597q0 -57 -77 -90q94 -34 94 -110q0 -54 -43.5 -89.5t-116.5 -35.5q-74 0 -116.5 35t-42.5 88q0 35 23.5 62.5t63.5 39.5q-69 34 -69 98q0 54 43.5 82t98.5 28q59 0 100.5 -27t41.5 -81zM280 396q0 30 -23.5 45t-79.5 33q-57 -29 -57 -78q0 -63 79 -63q37 0 59 18 t22 45zM135 596q0 -25 19.5 -40t59.5 -27q52 31 52 66q0 23 -17.5 37t-48.5 14q-65 0 -65 -50z" />
<glyph horiz-adv-x="400" d="M77 323q79 19 128 54.5t69 97.5l-3 1q-31 -48 -100 -48q-55 0 -92.5 38t-37.5 99q0 64 45 102t110 38q72 0 112.5 -45t40.5 -119q0 -116 -61 -180t-192 -97zM187 488q53 0 85 44q0 112 -77 112q-34 0 -54.5 -20t-20.5 -60q0 -38 18.5 -57t48.5 -19z" />
<glyph horiz-adv-x="400" d="M319 381h-239v65h239v-65zM319 502h-239v65h239v-65z" />
<glyph horiz-adv-x="400" d="M319 442h-238v64h238v-64z" />
<glyph horiz-adv-x="400" d="M193 191q0 -93 21 -154.5t68 -131.5l-48 -30q-42 60 -61 91.5t-37.5 92.5t-18.5 132t18.5 132.5t37.5 93t61 91.5l48 -30q-47 -70 -68 -131.5t-21 -155.5z" />
<glyph horiz-adv-x="400" d="M206 192q0 93 -21 154.5t-68 131.5l48 30q42 -60 61 -91.5t37.5 -92.5t18.5 -132t-18.5 -132.5t-37.5 -93t-61 -91.5l-48 30q47 70 68 131.5t21 155.5z" />
<glyph horiz-adv-x="400" d="M81 228h85v89h69v-89h84v-64h-84v-88h-69v88h-85v64z" />
<glyph horiz-adv-x="400" d="M274 211q0 84 -18.5 119t-55.5 35q-75 0 -75 -154q0 -156 75 -156q74 0 74 156zM354 211q0 -107 -39 -162t-115 -55t-115.5 55.5t-39.5 161.5q0 216 155 216q154 0 154 -216z" />
<glyph horiz-adv-x="400" d="M272 0h-75v336l-94 -51l-37 52l145 84h61v-421z" />
<glyph horiz-adv-x="400" d="M333 306q0 -52 -42 -107.5t-136 -135.5h188l-9 -63h-278v55q115 105 155.5 156t40.5 93q0 28 -17.5 44t-45.5 16q-47 0 -86 -47l-53 40q61 70 143 70q64 0 102 -34t38 -87z" />
<glyph horiz-adv-x="400" d="M344 126q0 -57 -45 -94.5t-117 -37.5q-89 0 -145 63l49 43q38 -44 94 -44q39 0 61.5 19t22.5 51q0 66 -79 66h-37l8 60h25q31 0 51 14.5t20 43.5q0 27 -19 41.5t-49 14.5q-51 0 -94 -40l-41 46q64 55 138 55q66 0 104.5 -31t38.5 -78q0 -30 -20.5 -54.5t-56.5 -33.5v-3 q37 -5 64 -34t27 -67z" />
<glyph horiz-adv-x="400" d="M354 96h-54v-96h-76v96h-179v50l134 285l65 -26l-113 -248h93l7 105h69v-105h54v-61z" />
<glyph horiz-adv-x="400" d="M342 139q0 -62 -43.5 -103.5t-113.5 -41.5q-82 0 -135 60l47 43q40 -41 87 -41q36 0 57 22.5t21 60.5q0 77 -67 77q-25 0 -57 -16h-57v221h245l-7 -61h-163v-98q30 12 56 12q59 0 94.5 -36.5t35.5 -98.5z" />
<glyph horiz-adv-x="400" d="M330 397l-36 -49q-29 18 -60 18q-41 0 -71 -34t-36 -102q38 52 101 52q54 0 91 -36.5t37 -104.5q0 -67 -42 -107t-104 -40q-80 0 -120 56t-40 141q0 106 50.5 171t134.5 65q50 0 95 -30zM214 221q-46 0 -85 -49q3 -117 81 -117q33 0 50.5 22.5t17.5 61.5q0 82 -64 82z " />
<glyph horiz-adv-x="400" d="M339 370l-178 -378l-72 22l167 345h-199v62h282v-51z" />
<glyph horiz-adv-x="400" d="M342 319q0 -57 -77 -90q94 -34 94 -110q0 -54 -43.5 -89.5t-116.5 -35.5q-74 0 -116.5 35t-42.5 88q0 35 23.5 62.5t63.5 39.5q-69 34 -69 98q0 54 43.5 82t98.5 28q59 0 100.5 -27t41.5 -81zM280 118q0 30 -23.5 45t-79.5 33q-57 -29 -57 -78q0 -63 79 -63q37 0 59 18 t22 45zM135 318q0 -25 19.5 -40t59.5 -27q52 31 52 66q0 23 -17.5 37t-48.5 14q-65 0 -65 -50z" />
<glyph horiz-adv-x="400" d="M77 45q79 19 128 54.5t69 97.5l-3 1q-31 -48 -100 -48q-55 0 -92.5 38t-37.5 99q0 64 45 102t110 38q72 0 112.5 -45t40.5 -119q0 -116 -61 -180t-192 -97zM187 210q53 0 85 44q0 112 -77 112q-34 0 -54.5 -20t-20.5 -60q0 -38 18.5 -57t48.5 -19z" />
<glyph horiz-adv-x="400" d="M319 103h-239v65h239v-65zM319 224h-239v65h239v-65z" />
<glyph horiz-adv-x="400" d="M319 164h-238v64h238v-64z" />
<glyph horiz-adv-x="40" />
<glyph horiz-adv-x="500" d="M497 435h-86l-26 -199h79v-69h-89l-21 -167h-78l22 167h-140l-22 -167h-78l22 167h-77v69h86l27 199h-80v70h89l21 164h78l-22 -164h141l21 164h78l-22 -164h77v-70zM193 435l-26 -199h140l27 199h-141z" />
<glyph horiz-adv-x="503" d="M481 186q0 -81 -50.5 -132t-143.5 -60v-148h-79v147q-120 11 -194 83l53 58q73 -70 173 -70q64 0 104.5 30.5t40.5 88.5q0 49 -29.5 75.5t-114.5 52.5q-101 32 -151 78.5t-50 115.5q0 68 46 113t123 55v152h78v-150q101 -8 173 -76l-53 -56q-64 60 -152 60 q-53 0 -86.5 -24t-33.5 -71q0 -43 30 -67.5t119 -52.5q46 -14 77 -28.5t60.5 -37t44.5 -57t15 -79.5z" />
<glyph horiz-adv-x="850" d="M689 669l-463 -697l-64 39l462 697zM156 510q0 -107 81 -107t81 107t-81 107t-81 -107zM400 510q0 -77 -45.5 -123t-117.5 -46q-71 0 -116.5 46t-45.5 123t45.5 123t116.5 46q72 0 117.5 -46t45.5 -123zM532 157q0 -107 81 -107t81 107q0 106 -81 106t-81 -106zM775 157 q0 -77 -45 -123t-117 -46t-117.5 46t-45.5 123t45.5 123t117.5 46t117 -46t45 -123z" />
<glyph horiz-adv-x="500" d="M62 349h145v150h84v-150h146v-76h-146v-149h-84v149h-145v76z" />
<glyph horiz-adv-x="590" d="M125 282q0 -112 50 -166.5t120 -54.5t120 54.5t50 166.5t-49.5 165.5t-120.5 53.5t-120.5 -53.5t-49.5 -165.5zM558 282q0 -136 -74 -215t-189 -79t-189 79t-74 215t73.5 214t189.5 78t189.5 -78t73.5 -214z" />
<glyph horiz-adv-x="400" d="M305 0h-92v463l-149 -93l-43 64l203 130h81v-564z" />
<glyph horiz-adv-x="507" d="M442 397q0 -39 -8.5 -66.5t-36.5 -65t-87 -83t-155 -105.5h297l-11 -77h-405v73q139 98 204.5 154t85 90t19.5 77q0 48 -31.5 76.5t-81.5 28.5q-82 0 -142 -74l-64 43q84 106 208 106q94 0 151 -50t57 -127z" />
<glyph horiz-adv-x="502" d="M452 83q0 -91 -62 -148.5t-165 -57.5q-128 0 -205 93l60 50q60 -68 142 -68q66 0 100 35.5t34 96.5q0 136 -135 136h-50l11 71h33q125 0 125 105q0 51 -31.5 78t-83.5 27q-42 0 -73 -14.5t-67 -47.5l-49 54q85 81 193 81q94 0 147.5 -47.5t53.5 -120.5q0 -59 -37.5 -96 t-93.5 -48v-4q62 -5 107.5 -51.5t45.5 -123.5z" />
<glyph horiz-adv-x="524" d="M489 40h-77v-152h-89v152h-292v65l202 469l77 -32l-182 -429h195l9 180h80v-180h77v-73z" />
<glyph horiz-adv-x="515" d="M465 104q0 -100 -63 -163.5t-167 -63.5q-127 0 -202 89l62 51q55 -66 139 -66q66 0 100.5 40.5t34.5 113.5q0 144 -122 144q-42 0 -90 -23h-72v338h353l-11 -73h-254v-194q48 24 100 24q87 0 139.5 -59t52.5 -158z" />
<glyph horiz-adv-x="535" d="M441 639l-39 -62q-40 29 -87 29q-71 0 -117 -70t-49 -184q61 88 155 88q79 0 131.5 -55t52.5 -158q0 -107 -60.5 -173t-149.5 -66q-222 0 -222 330q0 161 72 261t188 100q69 0 125 -40zM287 367q-82 0 -138 -93q3 -109 34 -161t95 -52q56 0 86.5 44t30.5 119 q0 143 -108 143z" />
<glyph horiz-adv-x="443" d="M414 495l-250 -618l-85 26l242 586h-296v75h389v-69z" />
<glyph horiz-adv-x="556" d="M481 509q0 -91 -114 -150q141 -60 141 -180q0 -83 -65 -137t-167 -54q-103 0 -166 53t-63 136q0 116 132 174q-104 52 -104 156q0 58 33 98.5t77 57t93 16.5q83 0 143 -43t60 -127zM412 178q0 26 -9 46.5t-19.5 33t-38 26.5t-45.5 21t-60 22q-97 -47 -97 -150 q0 -55 35.5 -85.5t97.5 -30.5t99 33.5t37 83.5zM165 506q0 -50 32.5 -76t107.5 -49q46 26 66 55t20 70q0 47 -30.5 75.5t-82.5 28.5t-82.5 -27t-30.5 -77z" />
<glyph horiz-adv-x="534" d="M100 -56q269 77 283 269l-2 1q-54 -74 -151 -74q-79 0 -131 58t-52 155q0 102 61.5 161.5t152.5 59.5q100 0 158 -71t58 -189q0 -194 -82 -289t-274 -150zM251 212q81 0 133 82q0 207 -124 207q-55 0 -87.5 -39.5t-32.5 -110.5q0 -69 30.5 -104t80.5 -35z" />
<glyph horiz-adv-x="500" d="M419 115l-357 171v94l357 171l36 -73l-320 -145l320 -142z" />
<glyph horiz-adv-x="500" d="M438 176h-376v78h376v-78zM438 368h-376v78h376v-78z" />
<glyph horiz-adv-x="500" d="M81 551l357 -171v-94l-357 -171l-36 74l320 144l-320 142z" />
<glyph horiz-adv-x="500" d="M325 250q-34 0 -64 14t-53 28.5t-39 14.5q-38 0 -67 -51l-61 31q47 92 134 92q34 0 64 -14t53 -28t39 -14q38 0 67 50l61 -32q-47 -91 -134 -91z" />
<glyph horiz-adv-x="477" d="M288 66q58 0 115 44l44 -64q-53 -43 -122 -53v-147h-80v148q-94 13 -143 83t-49 184q0 111 50 184.5t143 87.5v151h79v-150q66 -8 122 -52l-45 -60q-55 41 -115 41q-64 0 -99.5 -50.5t-35.5 -151.5q0 -195 136 -195z" />
<glyph horiz-adv-x="500" d="M111 493q0 83 50 134.5t139 51.5q112 0 176 -88l-61 -46q-46 59 -111 59q-49 0 -75.5 -28.5t-26.5 -81.5v-117h203v-60h-203v-108q0 -97 -55 -128v-4h314l-11 -77h-421v73q28 9 45.5 21.5t25 31.5t9.5 35t2 44v112h-81v60h81v116z" />
<glyph d="M70 610l88 -89q53 33 123 33q71 0 121 -33l88 88l56 -56l-86 -87q36 -54 36 -124q0 -69 -37 -126l87 -86l-56 -56l-89 87q-50 -32 -120 -32q-71 0 -123 32l-88 -88l-56 56l88 88q-35 54 -35 125q0 70 34 123l-87 89zM281 202q61 0 92.5 36.5t31.5 103.5q0 66 -31.5 103 t-92.5 37t-93 -37t-32 -103q0 -67 32 -103.5t93 -36.5z" />
<glyph horiz-adv-x="500" d="M62 346h116l-183 323h102l154 -291h4l153 291h97l-184 -323h117v-61h-141v-89h141v-60h-141v-136h-94v136h-141v60h141v89h-141v61z" />
<glyph horiz-adv-x="500" d="M53 311q0 75 76 124q-52 41 -52 98q0 66 53.5 105t133.5 39q95 0 173 -54l-43 -58q-59 41 -131 41q-43 0 -69 -18t-26 -48q0 -34 24 -54t98 -45q84 -28 120 -61t36 -90q0 -66 -75 -116q53 -40 53 -99q0 -67 -54 -106.5t-141 -39.5q-101 0 -174 55l42 60q61 -43 135 -43 q44 0 72 17t28 48q0 35 -23 53.5t-99 43.5q-85 28 -121 59.5t-36 88.5zM142 323q0 -39 23.5 -55.5t107.5 -45.5q9 -3 14.5 -5t14.5 -5t17 -6q39 37 39 74q0 40 -30 58.5t-148 61.5q-38 -38 -38 -77z" />
<glyph horiz-adv-x="500" d="M438 351v-220h-83v143h-293v77h376z" />
<glyph horiz-adv-x="500" d="M219 447q37 0 62 24.5t25 70.5t-25 71t-62 25t-62 -24.5t-25 -70.5t25.5 -71t61.5 -25zM219 385q-66 0 -115 43t-49 115t49 115t115 43q67 0 115.5 -43.5t48.5 -115.5t-48.5 -114.5t-115.5 -42.5z" />
<glyph horiz-adv-x="500" d="M438 274h-145v-124h-86v124h-145v76h145v150h86v-150h145v-76zM438 0h-376v76h376v-76z" />
<glyph horiz-adv-x="500" d="M76 179l118 118l-118 118l56 57l118 -119l118 119l56 -57l-118 -118l118 -118l-56 -56l-118 118l-118 -118z" />
<glyph horiz-adv-x="500" d="M438 274h-376v77h376v-77zM180 115q0 29 20.5 49t49.5 20t49.5 -20t20.5 -49t-20.5 -49.5t-49.5 -20.5t-49.5 20.5t-20.5 49.5zM180 511q0 29 20.5 49t49.5 20t49.5 -20t20.5 -49t-20.5 -49t-49.5 -20t-49.5 20t-20.5 49z" />
<glyph d="M545 274h-530v78h530v-78z" />
<glyph horiz-adv-x="500" d="M463 445h-169v-445h-88v445h-169v77h169v155h88v-155h169v-77z" />
<glyph horiz-adv-x="500" d="M294 236h169v-77h-169v-159h-88v159h-169v77h169v202h-169v77h169v162h88v-162h169v-77h-169v-202z" />
<glyph horiz-adv-x="1181" d="M689 669l-463 -697l-64 39l462 697zM156 510q0 -107 81 -107t81 107t-81 107t-81 -107zM400 510q0 -77 -45.5 -123t-117.5 -46q-71 0 -116.5 46t-45.5 123t45.5 123t116.5 46q72 0 117.5 -46t45.5 -123zM532 157q0 -107 81 -107t81 107q0 106 -81 106t-81 -106zM775 157 q0 -77 -45 -123t-117 -46t-117.5 46t-45.5 123t45.5 123t117.5 46t117 -46t45 -123zM897 157q0 -107 82 -107q80 0 80 107q0 106 -80 106q-82 0 -82 -106zM1141 157q0 -77 -45 -123t-117 -46t-117.5 46t-45.5 123t45.5 123t117.5 46t117 -46t45 -123z" />
<glyph horiz-adv-x="562" d="M112 292v90h-85l15 62h79q21 114 86 174.5t160 60.5q94 0 163 -46l-44 -64q-53 34 -113 34q-63 0 -102.5 -37.5t-54.5 -121.5h240l-15 -62h-231v-90h212l-14 -61h-193q12 -87 50 -126.5t106 -39.5q80 0 140 50v-91q-63 -36 -144 -36q-103 0 -166.5 62t-82.5 181h-91 l15 61h70z" />
<glyph horiz-adv-x="549" d="M247 422q89 0 143 -75l1 1q-14 192 -277 264l21 67q191 -51 271.5 -143.5t80.5 -279.5q0 -119 -59 -193.5t-159 -74.5q-90 0 -151 58.5t-61 159.5q0 97 54.5 156.5t135.5 59.5zM393 247q-7 46 -47.5 74.5t-84.5 28.5q-48 0 -79.5 -36t-31.5 -104q0 -70 32.5 -109.5 t85.5 -39.5q124 0 125 186z" />
<glyph horiz-adv-x="670" d="M544 -202l-90 -11v806h-215v-795l-90 -11v806h-92v76h579v-76h-92v-795z" />
<glyph horiz-adv-x="520" d="M349 367v-62l-194 -227h296v-78h-403v78l222 256l-222 257v78h403v-78h-296z" />
<glyph horiz-adv-x="500" d="M438 274h-376v77h376v-77z" />
<glyph horiz-adv-x="520" d="M648 790h-184l-220 -790h-104l-167 457l81 27l133 -383h4l208 766h249v-77z" />
<glyph horiz-adv-x="900" d="M256 523q59 0 109.5 -34.5t82.5 -93.5q69 128 197 128q99 0 150.5 -59.5t51.5 -148.5t-52 -148t-151 -59q-60 0 -110 34t-83 93q-68 -127 -196 -127q-99 0 -150.5 59.5t-51.5 148.5t52 148t151 59zM755 315q0 62 -29.5 97t-80.5 35q-54 0 -93 -41t-63 -101 q19 -33 34.5 -54.5t49.5 -44.5t72 -23q50 0 80 34.5t30 97.5zM146 316q0 -62 29.5 -97t80.5 -35q54 0 93 41t62 101q-67 122 -155 122q-50 0 -80 -34.5t-30 -97.5z" />
<glyph horiz-adv-x="290" d="M253 778q-39 0 -54.5 -19t-15.5 -58v-770q0 -71 -38.5 -107.5t-107.5 -36.5q-59 0 -119 27l29 67q42 -19 83 -19q64 0 64 69v770q0 75 39.5 113t112.5 38q66 0 126 -27l-29 -67q-45 20 -90 20z" />
<glyph horiz-adv-x="500" d="M325 344q-34 0 -64 14t-53 28t-39 14q-38 0 -67 -51l-61 32q47 92 134 92q34 0 64 -14.5t53 -28.5t39 -14q38 0 67 51l61 -32q-47 -91 -134 -91zM325 155q-34 0 -64 14t-53 28t-39 14q-38 0 -67 -51l-61 32q47 92 134 92q34 0 64 -14t53 -28.5t39 -14.5q38 0 67 51 l61 -32q-47 -91 -134 -91z" />
<glyph horiz-adv-x="500" d="M438 176h-235l-89 -150l-51 29l73 121h-74v78h120l67 114h-187v78h234l89 150l50 -27l-73 -123h76v-78h-122l-68 -114h190v-78z" />
<glyph horiz-adv-x="500" d="M438 0h-376v77h376v-77zM419 146l-357 155v95l357 162l36 -73l-320 -137l320 -126z" />
<glyph horiz-adv-x="500" d="M438 0h-376v77h376v-77zM81 558l357 -162v-95l-357 -155l-36 73l320 129l-320 135z" />
<glyph horiz-adv-x="531" d="M263 71h4l138 265l-138 262h-4l-138 -262zM319 0h-107l-182 335l182 334h107l182 -332z" />
<glyph d="M529 455h-87l-29 -219h79v-69h-89l-21 -167h-78l22 167h-140l-22 -167h-78l22 167h-77v69h86l30 219h-79v70h88l22 164h78l-23 -164h141l22 164h78l-23 -164h78v-70zM224 455l-29 -219h140l30 219h-141z" />
<glyph d="M515 191q0 -82 -51 -134.5t-144 -62.5v-148h-80v147q-122 9 -197 83l53 59q72 -70 176 -70q63 0 104.5 32t41.5 91q0 51 -31.5 83.5t-113.5 57.5q-101 31 -151.5 78.5t-50.5 118.5q0 68 46.5 114t123.5 57v152h79v-151q102 -9 176 -76l-54 -56q-65 61 -154 61 q-54 0 -87.5 -25t-33.5 -73q0 -43 30.5 -69.5t118.5 -53.5q93 -29 146 -78.5t53 -136.5z" />
<glyph horiz-adv-x="900" d="M709 669l-464 -697l-64 39l463 697zM167 531q0 -106 82 -106q80 0 80 107q0 106 -80 106q-82 0 -82 -107zM411 532q0 -77 -45.5 -123t-116.5 -46q-72 0 -117.5 46t-45.5 122q0 77 45.5 123.5t117.5 46.5q71 0 116.5 -46t45.5 -123zM571 157q0 -107 81 -107t81 107 q0 106 -81 106t-81 -106zM814 157q0 -77 -45 -123t-117 -46t-117.5 46t-45.5 123t45.5 123t117.5 46t117 -46t45 -123z" />
<glyph d="M92 349h145v150h84v-150h146v-76h-146v-149h-84v149h-145v76z" />
<glyph d="M280 61q133 0 133 284q0 283 -133 283t-133 -283q0 -284 133 -284zM280 -12q-112 0 -170 92t-58 265q0 172 58 264t170 92t170.5 -92t58.5 -264q0 -173 -58.5 -265t-170.5 -92z" />
<glyph d="M277 74v514l-165 -100l-44 64l220 137h81v-615h141v-74h-402v74h169z" />
<glyph d="M469 511q0 -86 -69.5 -183t-231.5 -251h316l-11 -77h-410v73q182 181 246.5 269.5t64.5 165.5q0 54 -32 85t-84 31q-43 0 -75.5 -17t-63.5 -57l-64 45q85 106 207 106q93 0 150 -53t57 -137z" />
<glyph d="M495 198q0 -90 -67.5 -150t-174.5 -60q-138 0 -215 93l60 50q58 -68 152 -68q70 0 109.5 36.5t39.5 99.5q0 128 -140 128h-53l11 71h36q54 0 91 30t37 87q0 53 -36 83t-91 30q-78 0 -145 -63l-50 55q85 81 200 81q96 0 155 -50t59 -123q0 -61 -38.5 -105t-92.5 -54v-4 q62 -4 107.5 -48.5t45.5 -118.5z" />
<glyph d="M507 165h-87v-165h-89v165h-282v65l202 471l77 -32l-182 -431h185l9 180h80v-180h87v-73z" />
<glyph d="M499 220q0 -100 -66.5 -166t-171.5 -66q-129 0 -204 89l62 52q55 -66 141 -66q66 0 104.5 43t38.5 115q0 144 -126 144q-48 0 -96 -23h-72v347h363l-11 -73h-264v-203q48 24 107 24q87 0 141 -59t54 -158z" />
<glyph d="M459 660l-40 -62q-46 30 -101 30q-74 0 -121 -71t-51 -201q67 93 169 93q82 0 137 -56.5t55 -165.5q0 -108 -62.5 -173.5t-154.5 -65.5q-119 0 -177.5 90t-58.5 231q0 178 70.5 285t194.5 107q81 0 140 -41zM299 376q-43 0 -83 -26t-69 -72q2 -103 38 -160t105 -57 q60 0 91.5 43.5t31.5 119.5q0 152 -114 152z" />
<glyph d="M488 620l-274 -630l-86 26l267 598h-321v75h414v-69z" />
<glyph d="M489 530q0 -96 -120 -158q148 -64 148 -187q0 -86 -65 -141.5t-174 -55.5t-172 55t-63 140q0 118 139 177q-111 56 -111 168q0 58 34 99t79.5 57.5t95.5 16.5q85 0 147 -43.5t62 -127.5zM421 184q0 26 -9.5 47t-21.5 34.5t-40 27.5t-47.5 21.5t-60.5 21.5 q-103 -49 -103 -152q0 -58 35.5 -90.5t103.5 -32.5t105.5 34.5t37.5 88.5zM161 527q0 -50 35.5 -79.5t110.5 -54.5q92 53 92 133q0 47 -31.5 76t-87.5 29q-57 0 -88 -27t-31 -77z" />
<glyph d="M110 47q134 35 212 110t87 178l-2 1q-52 -83 -157 -83q-86 0 -142.5 61.5t-56.5 159.5q0 102 67 164.5t162 62.5q107 0 167.5 -74t60.5 -194q0 -194 -90.5 -297.5t-286.5 -157.5zM412 420q-1 107 -33 157.5t-101 50.5q-60 0 -97 -40t-37 -116q0 -72 34.5 -109t88.5 -37 q92 0 145 94z" />
<glyph d="M440 115l-357 171v94l357 171l36 -73l-320 -145l320 -142z" />
<glyph d="M468 176h-376v78h376v-78zM468 368h-376v78h376v-78z" />
<glyph d="M119 551l357 -171v-94l-357 -171l-36 74l320 144l-320 142z" />
<glyph d="M355 250q-34 0 -64 14t-53 28.5t-39 14.5q-38 0 -67 -51l-61 31q47 92 134 92q34 0 64 -14t53 -28t39 -14q38 0 67 50l61 -32q-47 -91 -134 -91z" />
<glyph d="M318 66q58 0 115 44l44 -64q-51 -43 -122 -53v-147h-79v148q-94 13 -143.5 83t-49.5 184q0 111 50 184.5t144 87.5v151h78v-150q68 -8 122 -52l-45 -60q-55 41 -114 41q-65 0 -100.5 -50.5t-35.5 -151.5q0 -195 136 -195z" />
<glyph d="M139 514q0 82 52 134.5t142 52.5q118 0 182 -88l-61 -46q-47 58 -117 58q-106 0 -106 -118v-118h204v-61h-204v-119q0 -98 -56 -128v-4h331l-11 -77h-438v73q54 17 68 46.5t14 86.5v122h-81v61h81v125z" />
<glyph d="M70 610l88 -89q53 33 123 33q71 0 121 -33l88 88l56 -56l-86 -87q36 -54 36 -124q0 -69 -37 -126l87 -86l-56 -56l-89 87q-50 -32 -120 -32q-71 0 -123 32l-88 -88l-56 56l88 88q-35 54 -35 125q0 70 34 123l-87 89zM281 202q61 0 92.5 36.5t31.5 103.5q0 66 -31.5 103 t-92.5 37t-93 -37t-32 -103q0 -67 32 -103.5t93 -36.5z" />
<glyph d="M93 346h114l-191 343h103l162 -313h4l162 313h97l-192 -343h117v-61h-141v-84h141v-61h-141v-140h-96v140h-139v61h139v84h-139v61z" />
<glyph d="M83 323q0 39 21.5 73t54.5 55q-52 41 -52 102q0 68 53.5 108t133.5 40q95 0 173 -54l-43 -58q-59 41 -131 41q-43 0 -69 -18.5t-26 -51.5q0 -36 24 -57t98 -46q83 -28 119.5 -62t36.5 -93q0 -70 -75 -120q53 -40 53 -103q0 -68 -54 -109t-141 -41q-101 0 -174 55l42 60 q61 -43 135 -43q43 0 71.5 18.5t28.5 50.5q0 37 -23.5 56.5t-98.5 44.5q-85 28 -121 60.5t-36 91.5zM172 335q0 -43 30.5 -62t146.5 -59q39 37 39 78q0 42 -31 62t-147 62q-38 -38 -38 -81z" />
<glyph d="M468 351v-220h-83v143h-293v77h376z" />
<glyph d="M220 497q37 0 62 24.5t25 70.5t-25 70.5t-62 24.5q-36 0 -61.5 -24.5t-25.5 -69.5q0 -46 25.5 -71t61.5 -25zM220 434q-66 0 -115 43t-49 116q0 72 49 114.5t115 42.5q67 0 115.5 -43t48.5 -115t-48.5 -115t-115.5 -43z" />
<glyph d="M468 274h-145v-124h-86v124h-145v76h145v150h86v-150h145v-76zM468 0h-376v76h376v-76z" />
<glyph d="M106 179l118 118l-118 118l56 57l118 -119l118 119l56 -57l-118 -118l118 -118l-56 -56l-118 118l-118 -118z" />
<glyph d="M468 274h-376v77h376v-77zM210 115q0 29 20.5 49t49.5 20t49.5 -20t20.5 -49t-20.5 -49.5t-49.5 -20.5t-49.5 20.5t-20.5 49.5zM210 511q0 29 20.5 49t49.5 20t49.5 -20t20.5 -49t-20.5 -49t-49.5 -20t-49.5 20t-20.5 49z" />
<glyph />
<glyph d="M545 274h-530v78h530v-78z" />
<glyph d="M501 470h-177v-470h-88v470h-177v77h177v192h88v-192h177v-77z" />
<glyph d="M324 269h177v-77h-177v-192h-88v192h-177v77h177v201h-177v77h177v192h88v-192h177v-77h-177v-201z" />
<glyph horiz-adv-x="1200" d="M697 669l-463 -697l-64 39l462 697zM167 531q0 -106 82 -106q80 0 80 107q0 106 -80 106q-82 0 -82 -107zM411 532q0 -77 -45.5 -123t-116.5 -46q-72 0 -117.5 46t-45.5 122q0 77 45.5 123.5t117.5 46.5q71 0 116.5 -46t45.5 -123zM548 157q0 -107 81 -107t81 107 q0 106 -81 106t-81 -106zM791 157q0 -77 -45 -123t-117 -46t-117.5 46t-45.5 123t45.5 123t117.5 46t117 -46t45 -123zM913 157q0 -107 81 -107t81 107q0 106 -81 106t-81 -106zM1157 157q0 -77 -45.5 -123t-117.5 -46q-71 0 -116.5 46t-45.5 123t45.5 123t116.5 46 q72 0 117.5 -46t45.5 -123z" />
<glyph d="M114 303v90h-88l15 61h80q22 118 90 182.5t164 64.5q92 0 161 -46l-44 -65q-52 34 -113 34q-136 0 -162 -170h241l-15 -61h-233v-90h214l-15 -62h-195q12 -92 50.5 -134t109.5 -42q81 0 141 50v-91q-63 -36 -145 -36q-105 0 -169 65t-82 188h-93l15 62h73z" />
<glyph d="M255 432q89 0 143 -75l1 1q-7 101 -79 171t-199 104l21 68q189 -50 271 -150t82 -291q0 -119 -59 -195.5t-158 -76.5q-90 0 -151.5 60.5t-61.5 162.5q0 97 54.5 159t135.5 62zM402 253v25q-59 82 -133 82q-48 0 -79.5 -38t-31.5 -107q0 -71 32 -112.5t86 -41.5 q124 0 126 192z" />
<glyph d="M469 -202l-90 -11v826h-196v-815l-91 -11v826h-85v76h546v-76h-84v-815z" />
<glyph d="M379 377v-62l-194 -237h296v-78h-403v78l222 266l-222 267v78h403v-78h-296z" />
<glyph d="M468 274h-376v77h376v-77z" />
<glyph d="M668 790h-184l-220 -790h-104l-167 457l81 27l133 -383h4l208 766h249v-77z" />
<glyph horiz-adv-x="900" d="M256 523q59 0 109.5 -34.5t82.5 -93.5q69 128 197 128q99 0 150.5 -59.5t51.5 -148.5t-52 -148t-151 -59q-60 0 -110 34t-83 93q-68 -127 -196 -127q-99 0 -150.5 59.5t-51.5 148.5t52 148t151 59zM755 315q0 62 -29.5 97t-80.5 35q-54 0 -93 -41t-63 -101 q19 -33 34.5 -54.5t49.5 -44.5t72 -23q50 0 80 34.5t30 97.5zM146 316q0 -62 29.5 -97t80.5 -35q54 0 93 41t62 101q-67 122 -155 122q-50 0 -80 -34.5t-30 -97.5z" />
<glyph d="M388 778q-39 0 -54.5 -19t-15.5 -58v-770q0 -71 -38.5 -107.5t-107.5 -36.5q-59 0 -119 27l29 67q42 -19 83 -19q64 0 64 69v770q0 75 39.5 113t112.5 38q66 0 126 -27l-29 -67q-45 20 -90 20z" />
<glyph d="M355 344q-34 0 -64 14t-53 28t-39 14q-38 0 -67 -51l-61 32q47 92 134 92q34 0 64 -14.5t53 -28.5t39 -14q38 0 67 51l61 -32q-47 -91 -134 -91zM355 155q-34 0 -64 14t-53 28t-39 14q-38 0 -67 -51l-61 32q47 92 134 92q34 0 64 -14t53 -28.5t39 -14.5q38 0 67 51 l61 -32q-47 -91 -134 -91z" />
<glyph d="M468 176h-235l-89 -150l-51 29l73 121h-74v78h120l67 114h-187v78h234l89 150l50 -27l-73 -123h76v-78h-122l-68 -114h190v-78z" />
<glyph d="M459 0h-376v77h376v-77zM440 146l-357 155v95l357 162l36 -73l-320 -137l320 -126z" />
<glyph d="M476 0h-376v77h376v-77zM119 558l357 -162v-95l-357 -155l-36 73l320 129l-320 135z" />
<glyph d="M278 71h4l138 273l-138 274h-4l-138 -274zM333 0h-106l-183 344l183 345h106l183 -344z" />
<glyph d="M529 455h-87l-29 -219h79v-69h-89l-21 -167h-78l22 167h-140l-22 -167h-78l22 167h-77v69h86l30 219h-79v70h88l22 164h78l-23 -164h141l22 164h78l-23 -164h78v-70zM224 455l-29 -219h140l30 219h-141z" />
<glyph d="M515 191q0 -82 -51 -134.5t-144 -62.5v-148h-80v147q-122 9 -197 83l53 59q72 -70 176 -70q63 0 104.5 32t41.5 91q0 51 -31.5 83.5t-113.5 57.5q-101 31 -151.5 78.5t-50.5 118.5q0 68 46.5 114t123.5 57v152h79v-151q102 -9 176 -76l-54 -56q-65 61 -154 61 q-54 0 -87.5 -25t-33.5 -73q0 -43 30.5 -69.5t118.5 -53.5q93 -29 146 -78.5t53 -136.5z" />
<glyph horiz-adv-x="900" d="M709 669l-464 -697l-64 39l463 697zM167 531q0 -106 82 -106q80 0 80 107q0 106 -80 106q-82 0 -82 -107zM411 532q0 -77 -45.5 -123t-116.5 -46q-72 0 -117.5 46t-45.5 122q0 77 45.5 123.5t117.5 46.5q71 0 116.5 -46t45.5 -123zM571 157q0 -107 81 -107t81 107 q0 106 -81 106t-81 -106zM814 157q0 -77 -45 -123t-117 -46t-117.5 46t-45.5 123t45.5 123t117.5 46t117 -46t45 -123z" />
<glyph d="M92 349h145v150h84v-150h146v-76h-146v-149h-84v149h-145v76z" />
<glyph d="M125 282q0 -111 44 -166t111 -55t111 55t44 166q0 110 -43.5 164.5t-111.5 54.5t-111.5 -54.5t-43.5 -164.5zM528 282q0 -138 -67 -216t-181 -78t-181 78t-67 216t67 215t181 77t181 -77t67 -215z" />
<glyph d="M277 74v389l-150 -88l-42 65l203 124h81v-490h141v-74h-402v74h169z" />
<glyph d="M475 397q0 -38 -9 -66t-39 -65.5t-89 -82.5t-156 -106h307l-11 -77h-415v73q142 100 207 154.5t86.5 89t21.5 77.5q0 48 -32.5 76.5t-83.5 28.5q-87 0 -147 -74l-64 43q84 106 213 106q95 0 153 -50t58 -127z" />
<glyph d="M489 83q0 -90 -65.5 -148t-171.5 -58q-138 0 -215 93l60 50q60 -68 152 -68q68 0 106 36t38 96q0 136 -145 136h-50l11 71h33q135 0 135 105q0 50 -35.5 77.5t-89.5 27.5q-82 0 -150 -62l-49 54q85 81 203 81q96 0 153.5 -48t57.5 -120q0 -60 -39.5 -96.5t-97.5 -47.5v-4 q64 -5 111.5 -51.5t47.5 -123.5z" />
<glyph d="M507 40h-77v-152h-89v152h-292v65l204 469l77 -32l-184 -429h195l9 180h80v-180h77v-73z" />
<glyph d="M499 104q0 -99 -66.5 -163t-171.5 -64q-129 0 -204 89l62 51q55 -66 141 -66q67 0 105 41t38 113q0 144 -126 144q-48 0 -96 -23h-72v338h363l-11 -73h-264v-194q48 24 107 24q87 0 141 -59t54 -158z" />
<glyph d="M459 660l-40 -62q-41 30 -91 30q-75 0 -126.5 -70.5t-55.5 -196.5q32 42 76.5 65t90.5 23q81 0 137.5 -58t56.5 -166t-62.5 -172.5t-154.5 -64.5q-81 0 -135.5 45t-77.5 115t-23 161q0 176 75 284t200 108q72 0 130 -41zM296 376q-41 0 -81.5 -26t-67.5 -67 q5 -222 143 -222q60 0 91.5 42.5t31.5 118.5q0 81 -32 117.5t-85 36.5z" />
<glyph d="M483 494l-255 -623l-86 26l248 591h-321v75h414v-69z" />
<glyph d="M489 530q0 -96 -120 -158q148 -64 148 -187q0 -86 -65 -141.5t-174 -55.5t-172 55t-63 140q0 118 139 177q-111 56 -111 168q0 58 34 99t79.5 57.5t95.5 16.5q85 0 147 -43.5t62 -127.5zM421 184q0 26 -9.5 47t-21.5 34.5t-40 27.5t-47.5 21.5t-60.5 21.5 q-103 -49 -103 -152q0 -58 35.5 -90.5t103.5 -32.5t105.5 34.5t37.5 88.5zM161 527q0 -50 35.5 -79.5t110.5 -54.5q92 53 92 133q0 47 -31.5 76t-87.5 29q-57 0 -88 -27t-31 -77z" />
<glyph d="M110 -58q135 37 213 107.5t86 170.5l-2 1q-50 -81 -155 -81q-87 0 -144 57.5t-57 151.5q0 102 67 163.5t162 61.5q107 0 167.5 -72t60.5 -184q0 -131 -43 -218.5t-122.5 -139t-211.5 -87.5zM412 305q-1 99 -33 147.5t-101 48.5q-60 0 -97 -39t-37 -115q0 -69 34 -101.5 t89 -32.5q93 0 145 92z" />
<glyph d="M440 115l-357 171v94l357 171l36 -73l-320 -145l320 -142z" />
<glyph d="M468 176h-376v78h376v-78zM468 368h-376v78h376v-78z" />
<glyph d="M119 551l357 -171v-94l-357 -171l-36 74l320 144l-320 142z" />
<glyph d="M355 250q-34 0 -64 14t-53 28.5t-39 14.5q-38 0 -67 -51l-61 31q47 92 134 92q34 0 64 -14t53 -28t39 -14q38 0 67 50l61 -32q-47 -91 -134 -91z" />
<glyph d="M318 66q58 0 115 44l44 -64q-51 -43 -122 -53v-147h-79v148q-94 13 -143.5 83t-49.5 184q0 111 50 184.5t144 87.5v151h78v-150q68 -8 122 -52l-45 -60q-55 41 -114 41q-65 0 -100.5 -50.5t-35.5 -151.5q0 -195 136 -195z" />
<glyph d="M139 514q0 82 52 134.5t142 52.5q118 0 182 -88l-61 -46q-47 58 -117 58q-106 0 -106 -118v-118h204v-61h-204v-119q0 -98 -56 -128v-4h331l-11 -77h-438v73q54 17 68 46.5t14 86.5v122h-81v61h81v125z" />
<glyph d="M70 610l88 -89q53 33 123 33q71 0 121 -33l88 88l56 -56l-86 -87q36 -54 36 -124q0 -69 -37 -126l87 -86l-56 -56l-89 87q-50 -32 -120 -32q-71 0 -123 32l-88 -88l-56 56l88 88q-35 54 -35 125q0 70 34 123l-87 89zM281 202q61 0 92.5 36.5t31.5 103.5q0 66 -31.5 103 t-92.5 37t-93 -37t-32 -103q0 -67 32 -103.5t93 -36.5z" />
<glyph d="M93 346h114l-191 343h103l162 -313h4l162 313h97l-192 -343h117v-61h-141v-84h141v-61h-141v-140h-96v140h-139v61h139v84h-139v61z" />
<glyph d="M83 323q0 39 21.5 73t54.5 55q-52 41 -52 102q0 68 53.5 108t133.5 40q95 0 173 -54l-43 -58q-59 41 -131 41q-43 0 -69 -18.5t-26 -51.5q0 -36 24 -57t98 -46q83 -28 119.5 -62t36.5 -93q0 -70 -75 -120q53 -40 53 -103q0 -68 -54 -109t-141 -41q-101 0 -174 55l42 60 q61 -43 135 -43q43 0 71.5 18.5t28.5 50.5q0 37 -23.5 56.5t-98.5 44.5q-85 28 -121 60.5t-36 91.5zM172 335q0 -43 30.5 -62t146.5 -59q39 37 39 78q0 42 -31 62t-147 62q-38 -38 -38 -81z" />
<glyph d="M468 351v-220h-83v143h-293v77h376z" />
<glyph d="M220 497q37 0 62 24.5t25 70.5t-25 70.5t-62 24.5q-36 0 -61.5 -24.5t-25.5 -69.5q0 -46 25.5 -71t61.5 -25zM220 434q-66 0 -115 43t-49 116q0 72 49 114.5t115 42.5q67 0 115.5 -43t48.5 -115t-48.5 -115t-115.5 -43z" />
<glyph d="M468 274h-145v-124h-86v124h-145v76h145v150h86v-150h145v-76zM468 0h-376v76h376v-76z" />
<glyph d="M106 179l118 118l-118 118l56 57l118 -119l118 119l56 -57l-118 -118l118 -118l-56 -56l-118 118l-118 -118z" />
<glyph d="M468 274h-376v77h376v-77zM210 115q0 29 20.5 49t49.5 20t49.5 -20t20.5 -49t-20.5 -49.5t-49.5 -20.5t-49.5 20.5t-20.5 49.5zM210 511q0 29 20.5 49t49.5 20t49.5 -20t20.5 -49t-20.5 -49t-49.5 -20t-49.5 20t-20.5 49z" />
<glyph />
<glyph d="M545 274h-530v78h530v-78z" />
<glyph d="M501 470h-177v-470h-88v470h-177v77h177v192h88v-192h177v-77z" />
<glyph d="M324 269h177v-77h-177v-192h-88v192h-177v77h177v201h-177v77h177v192h88v-192h177v-77h-177v-201z" />
<glyph horiz-adv-x="1200" d="M697 669l-463 -697l-64 39l462 697zM167 531q0 -106 82 -106q80 0 80 107q0 106 -80 106q-82 0 -82 -107zM411 532q0 -77 -45.5 -123t-116.5 -46q-72 0 -117.5 46t-45.5 122q0 77 45.5 123.5t117.5 46.5q71 0 116.5 -46t45.5 -123zM548 157q0 -107 81 -107t81 107 q0 106 -81 106t-81 -106zM791 157q0 -77 -45 -123t-117 -46t-117.5 46t-45.5 123t45.5 123t117.5 46t117 -46t45 -123zM913 157q0 -107 81 -107t81 107q0 106 -81 106t-81 -106zM1157 157q0 -77 -45.5 -123t-117.5 -46q-71 0 -116.5 46t-45.5 123t45.5 123t116.5 46 q72 0 117.5 -46t45.5 -123z" />
<glyph d="M114 303v90h-88l15 61h80q22 118 90 182.5t164 64.5q92 0 161 -46l-44 -65q-52 34 -113 34q-136 0 -162 -170h241l-15 -61h-233v-90h214l-15 -62h-195q12 -92 50.5 -134t109.5 -42q81 0 141 50v-91q-63 -36 -145 -36q-105 0 -169 65t-82 188h-93l15 62h73z" />
<glyph d="M255 432q89 0 143 -75l1 1q-7 101 -79 171t-199 104l21 68q189 -50 271 -150t82 -291q0 -119 -59 -195.5t-158 -76.5q-90 0 -151.5 60.5t-61.5 162.5q0 97 54.5 159t135.5 62zM402 253v25q-59 82 -133 82q-48 0 -79.5 -38t-31.5 -107q0 -71 32 -112.5t86 -41.5 q124 0 126 192z" />
<glyph d="M469 -202l-90 -11v826h-196v-815l-91 -11v826h-85v76h546v-76h-84v-815z" />
<glyph d="M379 377v-62l-194 -237h296v-78h-403v78l222 266l-222 267v78h403v-78h-296z" />
<glyph d="M468 274h-376v77h376v-77z" />
<glyph d="M668 790h-184l-220 -790h-104l-167 457l81 27l133 -383h4l208 766h249v-77z" />
<glyph horiz-adv-x="900" d="M256 523q59 0 109.5 -34.5t82.5 -93.5q69 128 197 128q99 0 150.5 -59.5t51.5 -148.5t-52 -148t-151 -59q-60 0 -110 34t-83 93q-68 -127 -196 -127q-99 0 -150.5 59.5t-51.5 148.5t52 148t151 59zM755 315q0 62 -29.5 97t-80.5 35q-54 0 -93 -41t-63 -101 q19 -33 34.5 -54.5t49.5 -44.5t72 -23q50 0 80 34.5t30 97.5zM146 316q0 -62 29.5 -97t80.5 -35q54 0 93 41t62 101q-67 122 -155 122q-50 0 -80 -34.5t-30 -97.5z" />
<glyph d="M388 778q-39 0 -54.5 -19t-15.5 -58v-770q0 -71 -38.5 -107.5t-107.5 -36.5q-59 0 -119 27l29 67q42 -19 83 -19q64 0 64 69v770q0 75 39.5 113t112.5 38q66 0 126 -27l-29 -67q-45 20 -90 20z" />
<glyph d="M355 344q-34 0 -64 14t-53 28t-39 14q-38 0 -67 -51l-61 32q47 92 134 92q34 0 64 -14.5t53 -28.5t39 -14q38 0 67 51l61 -32q-47 -91 -134 -91zM355 155q-34 0 -64 14t-53 28t-39 14q-38 0 -67 -51l-61 32q47 92 134 92q34 0 64 -14t53 -28.5t39 -14.5q38 0 67 51 l61 -32q-47 -91 -134 -91z" />
<glyph d="M468 176h-235l-89 -150l-51 29l73 121h-74v78h120l67 114h-187v78h234l89 150l50 -27l-73 -123h76v-78h-122l-68 -114h190v-78z" />
<glyph d="M459 0h-376v77h376v-77zM440 146l-357 155v95l357 162l36 -73l-320 -137l320 -126z" />
<glyph d="M476 0h-376v77h376v-77zM119 558l357 -162v-95l-357 -155l-36 73l320 129l-320 135z" />
<glyph d="M278 71h4l138 273l-138 274h-4l-138 -274zM333 0h-106l-183 344l183 345h106l183 -344z" />
<glyph horiz-adv-x="0" d="M-328 648q-65 0 -104 34.5t-46 77.5l61 13q19 -56 89 -56q72 0 91 56l61 -13q-7 -43 -47 -77.5t-105 -34.5z" />
<glyph horiz-adv-x="771" d="M426 490h-229v-175h198v-72h-198v-243h-92v564h332zM666 0h-92v564h92v-564z" />
<glyph horiz-adv-x="936" d="M426 490h-229v-175h198v-72h-198v-243h-92v564h332zM904 0h-330v564h92v-487h250z" />
<glyph horiz-adv-x="525" d="M421 0l-46 138h-229l-45 -138h-95l201 564h111l201 -564h-98zM258 483l-88 -271h181l-89 271h-4z" />
<glyph horiz-adv-x="579" d="M424 163q0 98 -122 98h-105v-189h101q126 0 126 91zM400 414q0 78 -111 78h-92v-163h99q104 0 104 85zM521 164q0 -60 -36 -98t-86 -52t-113 -14h-181v564h168q61 0 108 -12t80.5 -46.5t33.5 -87.5q0 -44 -27.5 -73.5t-67.5 -42.5v-4q121 -28 121 -134z" />
<glyph horiz-adv-x="523" d="M322 66q75 0 132 49l50 -57q-75 -68 -186 -68q-114 0 -185 77t-71 216q0 136 74 213.5t182 77.5q97 0 178 -60l-50 -59q-58 44 -124 44q-71 0 -116 -51.5t-45 -164.5q0 -111 44 -164t117 -53z" />
<glyph horiz-adv-x="606" d="M445 284q0 65 -15.5 108.5t-44.5 63.5t-57 27t-65 7h-66v-415h66q182 0 182 209zM544 284q0 -81 -26 -139.5t-70.5 -88.5t-91.5 -43t-101 -13h-150v564h140q299 0 299 -280z" />
<glyph horiz-adv-x="504" d="M432 490h-235v-168h204v-72h-204v-176h253v-74h-345v564h338z" />
<glyph horiz-adv-x="462" d="M426 490h-229v-175h198v-72h-198v-243h-92v564h332z" />
<glyph horiz-adv-x="581" d="M313 -10q-116 0 -183.5 75.5t-67.5 218.5q0 93 39 160.5t98 98.5t128 31q108 0 187 -67l-54 -54q-58 47 -132 47q-72 0 -119 -51.5t-47 -164.5q0 -219 157 -219q61 0 109 22v155h-108l-12 73h211v-275q-94 -50 -206 -50z" />
<glyph horiz-adv-x="632" d="M527 0h-92v259h-238v-259h-92v564h92v-231h238v231h92v-564z" />
<glyph horiz-adv-x="302" d="M197 0h-92v564h92v-564z" />
<glyph horiz-adv-x="294" d="M31 -122l-26 69q58 21 77.5 48.5t19.5 81.5v487h92v-491q0 -79 -40.5 -123t-122.5 -72z" />
<glyph d="M197 564v-564h-92v564h92zM444 0l-243 302l234 262h108l-234 -259l251 -305h-116z" />
<glyph horiz-adv-x="467" d="M435 0h-330v564h92v-487h250z" />
<glyph horiz-adv-x="725" d="M663 0h-90l-26 288q-7 84 -7 179h-4l-129 -409h-85l-139 409h-4q0 -109 -5 -178l-23 -289h-89l52 564h119l130 -403h4l123 403h122z" />
<glyph horiz-adv-x="639" d="M534 0h-118l-233 459h-4q11 -72 11 -184v-275h-85v564h117l235 -462h4q-12 76 -12 187v275h85v-564z" />
<glyph horiz-adv-x="635" d="M573 282q0 -138 -70 -215t-186 -77q-115 0 -185 76t-70 216q0 137 70.5 214.5t184.5 77.5q116 0 186 -76t70 -216zM474 282q0 217 -157 217q-156 0 -156 -217t156 -217q157 0 157 217z" />
<glyph horiz-adv-x="544" d="M413 387q0 105 -137 105h-79v-217h79q65 0 101 24.5t36 87.5zM512 387q0 -184 -243 -184h-72v-203h-92v564h162q245 0 245 -177z" />
<glyph horiz-adv-x="628" d="M573 282q0 -176 -115 -240l1 -4q83 0 161 -49l-61 -74q-54 43 -105 60t-137 17q-115 0 -185 75t-70 215q0 137 70.5 214.5t184.5 77.5q116 0 186 -76t70 -216zM474 282q0 217 -157 217q-156 0 -156 -217t156 -217q157 0 157 217z" />
<glyph horiz-adv-x="563" d="M502 402q0 -60 -39 -100.5t-101 -55.5l179 -246h-109l-169 234h-66v-234h-92v564h163q234 0 234 -162zM404 402q0 47 -31 69t-98 22h-78v-189h80q127 0 127 98z" />
<glyph horiz-adv-x="498" d="M460 156q0 -70 -60 -118t-159 -48q-130 0 -214 78l53 58q69 -61 159 -61q59 0 91 22.5t32 65.5q0 37 -26 60t-97 43q-93 26 -139 66.5t-46 102.5q0 64 53.5 106.5t141.5 42.5q111 0 195 -71l-54 -55q-59 51 -139 51q-102 0 -102 -70q0 -33 27 -53.5t104 -42.5 q83 -24 131.5 -64t48.5 -113z" />
<glyph horiz-adv-x="468" d="M448 488h-165v-488h-92v488h-175v76h444z" />
<glyph horiz-adv-x="622" d="M527 564v-378q0 -89 -57.5 -142.5t-159.5 -53.5q-103 0 -159 53.5t-56 142.5v378h92v-374q0 -125 123 -125q125 0 125 125v374h92z" />
<glyph horiz-adv-x="533" d="M15 564h99l153 -472h4l152 472h95l-204 -564h-94z" />
<glyph horiz-adv-x="749" d="M724 564l-126 -564h-114l-109 451h-4l-109 -451h-111l-126 564h92l94 -468h4l112 468h96l114 -468h4l97 468h86z" />
<glyph horiz-adv-x="510" d="M197 301l-175 263h106l126 -204h4l125 204h100l-177 -261l199 -303h-107l-148 241h-4l-139 -241h-102z" />
<glyph horiz-adv-x="499" d="M494 564l-198 -347v-217h-91v216l-200 348h103l145 -271h4l139 271h98z" />
<glyph horiz-adv-x="478" d="M434 493l-300 -415h301l-12 -78h-392v70l300 418h-268v76h371v-71z" />
<glyph horiz-adv-x="996" d="M460 156q0 -70 -60 -118t-159 -48q-130 0 -214 78l53 58q69 -61 159 -61q59 0 91 22.5t32 65.5q0 37 -26 60t-97 43q-93 26 -139 66.5t-46 102.5q0 64 53.5 106.5t141.5 42.5q111 0 195 -71l-54 -55q-59 51 -139 51q-102 0 -102 -70q0 -33 27 -53.5t104 -42.5 q83 -24 131.5 -64t48.5 -113zM958 156q0 -70 -60 -118t-159 -48q-130 0 -214 78l53 58q69 -61 159 -61q59 0 91 22.5t32 65.5q0 37 -26 60t-97 43q-93 26 -139 66.5t-46 102.5q0 64 53.5 106.5t141.5 42.5q111 0 195 -71l-54 -55q-59 51 -139 51q-102 0 -102 -70 q0 -33 27 -53.5t104 -42.5q83 -24 131.5 -64t48.5 -113z" />
<glyph horiz-adv-x="525" d="M381 692l-28 -50l-208 82l47 78zM421 0l-46 138h-229l-45 -138h-95l201 564h111l201 -564h-98zM258 483l-88 -271h181l-89 271h-4z" />
<glyph horiz-adv-x="525" d="M173 642l-28 50l188 109l48 -77zM421 0l-46 138h-229l-45 -138h-95l201 564h111l201 -564h-98zM258 483l-88 -271h181l-89 271h-4z" />
<glyph horiz-adv-x="525" d="M263 728l-127 -81l-40 44l136 111h61l135 -111l-39 -44zM421 0l-46 138h-229l-45 -138h-95l201 564h111l201 -564h-98zM258 483l-88 -271h181l-89 271h-4z" />
<glyph horiz-adv-x="525" d="M315 660q-32 0 -65 24t-45 24q-16 0 -27 -10t-24 -34l-57 26q37 88 113 88q33 0 65.5 -24t44.5 -24q26 0 51 44l57 -25q-40 -89 -113 -89zM421 0l-46 138h-229l-45 -138h-95l201 564h111l201 -564h-98zM258 483l-88 -271h181l-89 271h-4z" />
<glyph horiz-adv-x="525" d="M158 657q-24 0 -41 16t-17 40t17 40.5t41 16.5q25 0 41.5 -16t16.5 -41q0 -24 -16.5 -40t-41.5 -16zM368 657q-25 0 -41.5 16t-16.5 40q0 25 16.5 41t41.5 16q24 0 40.5 -16t16.5 -41q0 -24 -16.5 -40t-40.5 -16zM421 0l-46 138h-229l-45 -138h-95l201 564h111l201 -564 h-98zM258 483l-88 -271h181l-89 271h-4z" />
<glyph horiz-adv-x="525" d="M210 732q0 -26 14.5 -41t38.5 -15t38.5 15t14.5 41t-14 41t-39 15q-24 0 -38.5 -15t-14.5 -41zM377 732q0 -44 -32 -74.5t-82 -30.5t-82 30.5t-32 74.5q0 45 32 75.5t82 30.5t82 -30.5t32 -75.5zM421 0l-46 138h-229l-45 -138h-95l201 564h111l201 -564h-98zM258 483 l-88 -271h181l-89 271h-4z" />
<glyph horiz-adv-x="743" d="M412 0l-33 138h-231l-57 -138h-95l249 564h430l-12 -72h-287l45 -170h231v-72h-212l47 -178h219v-72h-294zM293 481l-114 -269h183l-65 269h-4z" />
<glyph horiz-adv-x="523" d="M371 -141q0 25 -21.5 33.5t-65.5 8.5l6 90q-103 9 -165.5 85.5t-62.5 206.5q0 136 74 213.5t182 77.5q97 0 178 -60l-50 -59q-58 44 -124 44q-71 0 -116 -51.5t-45 -164.5q0 -111 44 -164t117 -53q75 0 132 49l50 -57q-62 -57 -151 -66v-48q47 -4 70.5 -28t23.5 -57 q0 -47 -36 -73.5t-89 -26.5q-63 0 -105 25l28 51q30 -16 66 -16q60 0 60 40z" />
<glyph horiz-adv-x="504" d="M432 490h-235v-168h204v-72h-204v-176h253v-74h-345v564h338zM392 692l-28 -50l-208 82l47 78z" />
<glyph horiz-adv-x="504" d="M432 490h-235v-168h204v-72h-204v-176h253v-74h-345v564h338zM199 642l-28 50l188 109l48 -77z" />
<glyph horiz-adv-x="504" d="M432 490h-235v-168h204v-72h-204v-176h253v-74h-345v564h338zM275 728l-127 -81l-40 44l136 111h61l135 -111l-39 -44z" />
<glyph horiz-adv-x="504" d="M432 490h-235v-168h204v-72h-204v-176h253v-74h-345v564h338zM169 657q-24 0 -41 16t-17 40t17 40.5t41 16.5q25 0 41.5 -16t16.5 -41q0 -24 -16.5 -40t-41.5 -16zM379 657q-25 0 -41.5 16t-16.5 40q0 25 16.5 41t41.5 16q24 0 40.5 -16t16.5 -41q0 -24 -16.5 -40 t-40.5 -16z" />
</font>
</defs>
</svg>
