<?xml version="1.0" encoding="iso-8859-1"?>
<!-- Generator: Adobe Illustrator 17.1.0, SVG Export Plug-In . SVG Version: 6.00 Build 0)  -->
<!DOCTYPE svg PUBLIC "-//W3C//DTD SVG 1.1//EN" "http://www.w3.org/Graphics/SVG/1.1/DTD/svg11.dtd">
<svg version="1.1" id="Layer_1" xmlns="http://www.w3.org/2000/svg" xmlns:xlink="http://www.w3.org/1999/xlink" x="0px" y="0px"
	 viewBox="0 0 922.993 270.01" style="enable-background:new 0 0 922.993 270.01;" xml:space="preserve">
<path style="fill:#E37125;" d="M0,149.114c0.269-0.936,0.661-1.856,0.788-2.811c3.252-24.367,11.673-46.718,26.02-66.768
	c0.279-0.391,0.499-0.824,0.737-1.223c-5.113-4.388-10.759-3.75-19.021,2.083c7.403-13.047,29.561-36.153,55.796-48.612
	c23.153-10.995,47.385-14.853,72.756-11.817C81.386,20.969,35.119,64.477,30.801,119.996
	c-3.873,49.804,27.027,100.887,81.671,115.276c53.674,14.134,108.879-14.938,128.52-67.036c0.892,1.87,1.541,3.622,2.508,5.175
	c1.73,2.777,3.372,5.689,5.552,8.091c5.149,5.673,11.504,6.37,18.028,2.35c1.186-0.731,2.302-1.576,3.588-2.205
	c-15.494,22.515-35.725,39.423-60.969,50.819c3.644,7.851,10.165,8.801,17.616,7.946c-12.002,6.087-24.669,9.859-37.773,12.208
	c-13.101,2.349-26.306,2.738-39.798,1.395c-0.667,3.895,0.152,7.294,2.832,9.848c2.038,1.943,4.656,3.279,7.021,4.879
	c0.64,0.433,1.296,0.845,1.944,1.266c-1.317,0-2.635,0-3.952,0c-1.345-0.322-2.674-0.762-4.037-0.949
	c-23.783-3.262-45.567-11.614-65.213-25.446c-0.571-0.402-1.195-0.728-1.91-1.159c-4.925,7.254-2.117,13.383,2.323,19.355
	c-22.661-15.678-39.75-35.864-50.996-60.859c-6.262,2.063-7.951,5.745-8.224,17.32c-11.437-24.387-16.072-50.014-13.571-76.853
	c-0.522-0.137-0.751-0.238-0.985-0.252c-5.831-0.339-10.454,2.838-13.319,9.078c-0.452,0.985-1.101,1.88-1.658,2.817
	C0,151.746,0,150.43,0,149.114z"/>
<path style="fill:#E37125;" d="M161.45,29.897c0.74,7.707-1.598,14.503-5.574,20.804c-5.73,9.083-13.948,15.43-23.229,20.529
	c-2.448,1.345-4.995,2.511-7.49,3.773c-0.598,0.302-1.166,0.661-1.521,1.51c3.828-0.692,7.642-1.485,11.489-2.055
	c7.93-1.175,15.88-1.675,23.776,0.251c4.31,1.052,8.184,2.928,11.173,6.363c2.698,3.101,3.956,6.665,2.267,10.482
	c-1.813,4.098-3.818,8.23-6.454,11.824c-8.471,11.544-19.118,21.023-29.94,30.288c-3.31,2.834-6.74,5.53-10.105,8.3
	c-0.477,0.392-0.9,0.85-1.14,1.587c5.015-2.123,10-4.324,15.052-6.355c15.892-6.388,32.023-12.004,49.074-14.461
	c6.876-0.991,13.771-1.415,20.576,0.507c9.81,2.772,15.275,11.266,13.593,21.317c-0.613,3.664-1.637,7.26-2.491,10.961
	c2.105-1.877,3.998-4.003,6.304-5.49c2.067-1.333,4.527-2.504,6.925-2.779c3.99-0.458,6.4,2.725,5.327,6.58
	c-11.438,41.078-37.973,66.98-79.678,75.5c-54.706,11.176-107.808-23.987-119.053-78.471c-7.7-37.305,2.863-69.701,30.37-96.201
	c15.191-14.635,33.62-23.084,54.432-26.274C137.274,26.528,149.358,27.065,161.45,29.897z"/>
<path style="fill:#E37125;" d="M240.858,147.073c9.209-53.677-26.027-104.289-74.813-116.36
	C196.282,32.092,219.386,17.975,241.083,0c-0.687,0.935-1.374,1.87-2.061,2.805c-6.158,8.368-11.808,17.043-14.975,27.032
	c-0.979,3.088-1.638,6.399-1.721,9.626c-0.233,8.939,4.587,13.817,13.537,13.863c7.815,0.041,15.233-2.141,22.544-4.651
	c14.342-4.924,27.903-11.573,41.821-19.093c-0.724,0.84-1.01,1.243-1.365,1.573c-15.062,14.009-29.871,28.262-41.962,45.024
	c-4.574,6.341-8.598,12.993-10.535,20.705c-2.928,11.653,1.502,19.907,12.954,23.528c3.491,1.104,7.166,1.625,11.044,2.477
	C255.658,125.127,246.586,134.057,240.858,147.073z"/>
<path style="fill:#E37125;" d="M646.56,122.94c0.154-1.512,0.359-2.622,0.365-3.733c0.031-6.411-0.104-12.825,0.067-19.231
	c0.085-3.213-1.252-5.117-4.137-6.175c-0.615-0.226-1.315-0.394-1.782-0.807c-0.554-0.49-1.259-1.233-1.233-1.837
	c0.028-0.634,0.722-1.466,1.345-1.795c1.07-0.563,2.364-0.69,3.472-1.197c4.087-1.869,8.117-3.862,12.213-5.708
	c1.044-0.47,2.613-1.131,3.291-0.695c0.754,0.484,1.068,2.126,1.05,3.256c-0.091,5.664-0.513,11.324-0.527,16.986
	c-0.063,25.643-0.034,51.285-0.014,76.928c0.002,1.885,0.039,3.798,0.369,5.643c0.166,0.927,0.868,2.205,1.618,2.456
	c0.747,0.249,1.895-0.518,2.794-0.981c0.485-0.25,0.795-0.82,1.219-1.207c0.998-0.914,1.717-0.667,2.266,0.529
	c1.029,2.239,0.077,4.909-2.202,5.972c-4.603,2.147-9.21,4.286-13.825,6.408c-2.513,1.155-3.336,0.812-4.198-1.775
	c-0.483-1.45-0.867-2.933-1.362-4.63c-0.667,0.343-1.135,0.478-1.466,0.769c-13.395,11.783-30.882,6.871-40.003-6.165
	c-11.507-16.444-8.822-44.155,5.752-57.499c9.206-8.429,19.917-10.186,31.685-6.571C644.238,122.164,645.152,122.479,646.56,122.94z
	 M646.748,160.977c0.064,0,0.129,0,0.193,0c0-4.522,0.143-9.051-0.04-13.565c-0.186-4.579-0.239-9.239-1.165-13.695
	c-1.53-7.361-6.904-10.357-14.265-8.526c-6.187,1.539-10.013,5.942-12.562,11.355c-6.074,12.894-6.806,26.305-2.312,39.765
	c3.337,9.997,11.391,15.141,21.733,14.805c5.557-0.18,8.317-2.847,8.395-8.441C646.824,175.444,646.748,168.21,646.748,160.977z"/>
<path style="fill:#E37125;" d="M552.968,91.83c9.214,0,18.429-0.009,27.643,0.004c4.088,0.006,4.718,0.596,4.763,4.706
	c0.056,5.016,0.017,10.033,0.012,15.049c-0.001,0.575,0.121,1.231-0.109,1.707c-0.39,0.806-1.014,1.499-1.54,2.24
	c-0.736-0.526-1.661-0.916-2.16-1.612c-0.605-0.843-0.886-1.931-1.244-2.936c-2.373-6.673-7.132-10.938-13.906-12.408
	c-4.606-1-9.438-1.238-14.173-1.275c-3.957-0.031-5.794,1.868-5.863,5.841c-0.186,10.686-0.141,21.377-0.061,32.065
	c0.005,0.726,1.081,2.081,1.63,2.067c5.978-0.158,11.964-0.362,17.917-0.901c4.197-0.38,6.463-3.226,7.449-7.174
	c0.239-0.957,0.3-2.039,0.811-2.823c0.501-0.769,1.473-1.233,2.238-1.83c0.594,0.762,1.601,1.475,1.698,2.296
	c0.21,1.775-0.087,3.604-0.104,5.411c-0.072,7.633-0.117,15.267-0.172,22.9c-0.007,0.985,0.193,2.032-0.083,2.935
	c-0.224,0.736-0.945,1.716-1.576,1.823c-0.638,0.107-1.524-0.629-2.131-1.181c-0.38-0.346-0.475-1.027-0.648-1.573
	c-0.274-0.861-0.499-1.738-0.757-2.604c-2.749-9.237-5.536-11.332-15.185-11.39c-2.799-0.017-5.599,0.021-8.398-0.011
	c-1.81-0.021-2.786,0.734-2.781,2.622c0.031,12.581-0.073,25.164,0.134,37.742c0.081,4.93,2.26,6.875,7.3,7.126
	c3.765,0.188,7.562,0.18,11.322-0.074c5.838-0.395,10.206-3.425,13.262-8.314c1.694-2.71,3.174-5.554,4.762-8.331
	c0.486-0.85,0.842-1.892,1.562-2.46c0.729-0.575,1.915-1.027,2.747-0.842c0.48,0.107,0.996,1.617,0.911,2.435
	c-0.682,6.615-1.537,13.213-2.264,19.824c-0.243,2.21-1.283,3.198-3.542,3.103c-8.213-0.347-16.426-0.822-24.643-0.89
	c-10.442-0.086-20.886,0.175-31.33,0.291c-1.481,0.016-2.963,0.102-4.443,0.07c-1.724-0.038-2.863-0.837-2.799-2.698
	c0.059-1.705,1.212-2.058,2.717-2.125c8.327-0.371,9.219-1.304,9.223-9.674c0.013-25.741,0.009-51.481,0.001-77.222
	c-0.002-5.866-0.711-6.615-6.536-7.13c-0.491-0.043-0.975-0.153-1.464-0.217c-1.454-0.193-2.508-1.055-2.017-2.444
	c0.312-0.884,1.591-1.999,2.456-2.017c3.693-0.075,7.393,0.312,11.092,0.359c6.091,0.077,12.184,0.021,18.277,0.021
	C552.969,92.15,552.969,91.99,552.968,91.83z"/>
<path style="fill:#FFFFFF;" d="M462.218,132.038c1.004-1.15,2.008-2.301,3.012-3.45c6.222-7.122,13.896-10.065,23.209-7.696
	c8.413,2.14,14.026,9.216,14.874,19.081c0.526,6.123,0.481,12.302,0.544,18.457c0.083,8.138,0.002,16.278,0.027,24.417
	c0.017,5.529,1.137,6.925,6.458,8.006c1.705,0.346,3.04,0.893,2.844,2.964c-0.202,2.135-1.762,2.403-3.414,2.27
	c-3.845-0.309-7.683-1.027-11.522-1.014c-4.251,0.015-8.495,0.735-12.751,1.002c-2.341,0.147-3.471-0.97-2.94-3.042
	c0.232-0.906,1.421-1.98,2.368-2.221c4.362-1.108,5.101-1.587,5.129-6.108c0.079-12.821,0.024-25.645-0.136-38.465
	c-0.028-2.258-0.593-4.578-1.294-6.746c-2.045-6.319-6.68-9.584-12.903-9.353c-6.703,0.248-11.376,3.904-12.935,10.425
	c-0.567,2.373-0.815,4.873-0.832,7.319c-0.084,11.591-0.04,23.184-0.035,34.776c0.001,0.821,0.029,1.645,0.088,2.464
	c0.269,3.728,1.522,5.034,5.272,5.561c0.65,0.092,1.289,0.257,1.936,0.376c1.64,0.301,1.972,1.623,1.605,2.797
	c-0.272,0.87-1.342,2.091-2.08,2.107c-2.691,0.058-5.392-0.505-8.089-0.501c-4.657,0.007-9.314,0.256-13.971,0.418
	c-1.232,0.043-2.461,0.154-3.692,0.215c-1.777,0.088-2.534-0.951-2.654-2.546c-0.118-1.56,0.69-2.558,2.217-2.738
	c4.973-0.589,5.572-2.864,5.571-7.052c-0.004-13.236,0.019-26.472-0.011-39.709c-0.012-5.476-0.49-6.053-5.702-7.814
	c-1.693-0.572-1.541-1.888-0.79-2.935c0.686-0.957,1.752-1.711,2.781-2.341c4.687-2.868,9.687-5.281,13.136-9.838
	c0.495-0.654,1.838-1.243,2.508-1.021c0.636,0.212,1.232,1.512,1.274,2.362c0.15,3.08,0.059,6.172,0.059,9.26
	C461.659,131.829,461.939,131.933,462.218,132.038z"/>
<path style="fill:#E37125;" d="M871.514,132.644c1.6-1.812,2.703-3.068,3.812-4.319c5.179-5.841,11.541-8.993,19.461-8.026
	c10.04,1.226,16.261,7.324,18.033,17.661c0.621,3.624,0.955,7.337,0.994,11.014c0.124,11.512,0.04,23.027,0.047,34.541
	c0.003,4.954,1.185,6.396,6.013,7.279c1.742,0.318,3.313,0.767,3.097,3.002c-0.22,2.281-1.922,2.405-3.651,2.28
	c-1.964-0.143-3.92-0.585-5.878-0.575c-4.987,0.026-9.973,0.224-14.959,0.371c-1.232,0.036-2.462,0.164-3.694,0.208
	c-1.636,0.058-2.393-0.881-2.548-2.394c-0.159-1.557,0.535-2.518,2.101-2.802c0.485-0.088,0.978-0.134,1.458-0.242
	c2.29-0.515,3.925-1.633,3.976-4.257c0.05-2.545,0.22-5.09,0.204-7.635c-0.069-11.097-0.163-22.194-0.315-33.29
	c-0.02-1.46-0.314-2.943-0.67-4.368c-1.904-7.638-7.018-11.467-14.445-10.892c-7.055,0.546-11.956,5.662-12.573,13.475
	c-0.297,3.761-0.157,7.56-0.163,11.341c-0.016,9.704-0.021,19.409,0.005,29.113c0.013,4.76,1.011,5.873,5.726,6.635
	c0.406,0.066,0.803,0.185,1.21,0.244c1.655,0.238,2.425,1.371,1.94,2.779c-0.316,0.917-1.489,2.159-2.299,2.175
	c-2.775,0.055-5.559-0.556-8.341-0.565c-4.414-0.013-8.83,0.243-13.245,0.41c-1.313,0.05-2.621,0.211-3.934,0.273
	c-1.582,0.075-2.469-0.721-2.643-2.282c-0.169-1.515,0.384-2.733,1.97-2.898c5.389-0.56,5.835-3.18,5.841-7.897
	c0.016-12.747,0.016-25.495-0.008-38.242c-0.003-1.307-0.188-2.616-0.333-3.919c-0.285-2.549-1.813-3.881-4.242-4.474
	c-0.821-0.2-2.216-0.956-2.167-1.281c0.165-1.1,0.606-2.414,1.408-3.107c1.347-1.164,3.155-1.78,4.588-2.866
	c3.313-2.511,6.484-5.21,9.79-7.731c0.839-0.64,1.968-0.899,2.964-1.333c0.369,0.951,0.983,1.883,1.059,2.856
	c0.165,2.126,0.031,4.273,0.07,6.411C871.189,130.168,871.341,131.016,871.514,132.644z"/>
<path style="fill:#FFFFFF;" d="M291.915,176.978c0-1.971-0.028-3.943,0.01-5.913c0.025-1.311-0.131-2.721,0.307-3.897
	c0.332-0.891,1.386-1.845,2.288-2.059c0.484-0.115,1.703,1.17,1.932,2.003c0.649,2.36,0.862,4.836,1.419,7.226
	c1.471,6.305,4.143,11.921,9.528,15.904c11.086,8.199,25.643,2.256,28.092-11.388c1.685-9.393-1.592-17.006-8.836-22.596
	c-5.885-4.542-12.468-8.192-18.797-12.15c-7.452-4.66-12.843-10.833-14.083-19.777c-1.676-12.094,0.223-23.342,11.23-30.489
	c11.142-7.236,23.042-6.47,34.795-0.882c1.814,0.862,2.326,2.507,2.411,4.272c0.24,5.003,0.411,10.011,0.534,15.018
	c0.037,1.496-0.093,3.185-2.043,3.403c-1.902,0.213-2.25-1.37-2.842-2.793c-1.791-4.303-3.557-8.636-5.693-12.771
	c-2.808-5.438-7.628-7.058-13.5-6.38c-5.639,0.651-9.816,3.351-11.866,8.665c-2.909,7.544-2.424,16.473,6.256,22.164
	c4.389,2.878,9.07,5.309,13.594,7.985c5.825,3.446,11.307,7.275,15.515,12.741c10.931,14.201,8.556,47.153-19.795,52.92
	c-8.003,1.628-16.058,0.776-23.594-2.745c-5.31-2.481-7.495-6.464-7.107-12.313c0.136-2.048,0.214-4.1,0.318-6.15
	C291.963,176.977,291.939,176.978,291.915,176.978z"/>
<path style="fill:#FFFFFF;" d="M408.609,186.29c-0.908,1.129-1.818,2.257-2.724,3.388c-8.664,10.814-25.171,11.457-33.635,1.268
	c-4.153-5-5.382-10.975-5.399-17.274c-0.033-12.331-0.006-24.661-0.01-36.992c-0.001-6.452-0.84-7.611-7.029-9.357
	c-1.483-0.418-2.27-1.085-2.174-2.73c0.101-1.726,1.206-2.316,2.608-2.349c1.548-0.036,3.102,0.288,4.657,0.356
	c3.838,0.167,7.685,0.485,11.515,0.35c3.68-0.129,4.224,0.093,4.23,3.786c0.023,14.468,0.003,28.936,0.014,43.404
	c0.003,4.416,0.691,8.675,3.158,12.47c5.293,8.14,18.538,7.591,22.687-1.19c1.451-3.072,2.079-6.775,2.152-10.209
	c0.254-11.914,0.115-23.837,0.095-35.757c-0.009-5.36-0.939-6.497-6.173-7.841c-0.398-0.102-0.963-0.088-1.16-0.348
	c-0.667-0.879-1.751-1.929-1.638-2.776c0.118-0.882,1.322-2.029,2.263-2.288c1.184-0.325,2.582,0.182,3.892,0.245
	c4.167,0.203,8.339,0.542,12.504,0.492c3.759-0.045,4.301,0.239,4.303,4.081c0.012,17.921,0.004,35.841,0.008,53.761
	c0,0.986-0.009,1.975,0.066,2.957c0.231,3.009,1.55,4.305,4.484,5.015c1.017,0.246,1.869,1.177,2.796,1.795
	c-0.738,0.98-1.278,2.49-2.247,2.851c-4.98,1.855-10.041,3.508-15.134,5.031c-2.154,0.644-3.054-0.191-3.12-2.432
	c-0.068-2.3,0.008-4.604-0.03-6.904c-0.014-0.865-0.172-1.728-0.265-2.592C409.072,186.43,408.84,186.36,408.609,186.29z"/>
<path style="fill:#E37125;" d="M771.017,159.467c0.634-10.307,2.827-19.794,9.471-27.925c13.12-16.057,45.199-16.969,55.737,8.021
	c5.662,13.427,5.735,27.129-0.348,40.466c-5.606,12.29-15.862,17.925-29.053,18.694c-15.654,0.912-28.505-8.315-33.014-24.066
	C772.4,169.73,771.922,164.538,771.017,159.467z M786.462,157.445c0,2.052-0.132,4.114,0.023,6.154
	c0.619,8.166,2.045,16.117,6.805,23.069c5.826,8.509,16.292,10.039,23.645,3.368c3.371-3.058,5.335-7.052,6.581-11.363
	c2.811-9.726,2.622-19.617,1.257-29.516c-0.929-6.736-2.938-13.122-7.311-18.521c-4.06-5.013-9.285-6.83-15.595-5.41
	c-6.538,1.471-10.073,6.148-12.429,11.925C786.788,143.649,786.24,150.509,786.462,157.445z"/>
<path style="fill:#E37125;" d="M716.861,182.593c0-2.464-0.227-4.96,0.101-7.38c0.153-1.132,1.38-2.12,2.12-3.173
	c0.824,0.899,1.983,1.662,2.411,2.721c1.535,3.791,2.454,7.868,4.286,11.494c3.107,6.153,8.917,8.827,14.596,7.598
	c10.767-2.328,11.573-16.85,5.836-22.033c-1.876-1.695-3.948-3.229-6.109-4.543c-3.999-2.431-8.157-4.601-12.201-6.96
	c-8.997-5.247-12.88-12.232-9.996-24.775c2.069-8.996,10.291-15.169,20.552-15.341c4.476-0.075,9.037,0.447,13.431,1.332
	c4.212,0.848,5.974,3.677,5.839,7.937c-0.081,2.542-0.129,5.116-0.595,7.6c-0.189,1.009-1.448,1.818-2.221,2.718
	c-0.721-0.846-1.803-1.582-2.099-2.557c-1.125-3.7-2.774-7.061-5.715-9.612c-3.725-3.231-8.01-3.702-12.45-1.776
	c-3.782,1.641-5.501,4.771-5.472,8.856c0.021,2.906,1.184,5.428,3.539,6.988c3.819,2.529,7.813,4.813,11.841,7.002
	c4.954,2.693,9.733,5.572,12.999,10.327c10.417,15.168,0.156,37.529-18.037,39.475c-6.688,0.715-13.077-0.166-19.258-2.79
	c-2.356-1.001-3.728-2.502-3.59-5.24c0.132-2.617,0.029-5.246,0.029-7.87C716.752,182.592,716.806,182.592,716.861,182.593z"/>
<path style="fill:#E37125;" d="M699.224,153.584c0.002,9.62-0.002,19.24,0.003,28.859c0.003,5.002,0.369,7.661,6.512,8.452
	c1.64,0.211,3.062,0.906,2.835,2.999c-0.235,2.166-1.836,2.3-3.466,2.186c-2.538-0.178-5.068-0.67-7.601-0.673
	c-4.412-0.006-8.824,0.249-13.235,0.419c-1.149,0.044-2.293,0.181-3.44,0.265c-1.617,0.12-2.742-0.433-2.947-2.198
	c-0.207-1.784,0.604-2.714,2.359-3.11c4.351-0.981,5.174-1.938,5.19-6.344c0.049-13.648,0.054-27.297,0.015-40.945
	c-0.014-4.914-0.752-5.844-5.356-7.471c-2.03-0.717-1.585-2.16-0.759-3.327c0.626-0.883,1.698-1.544,2.7-2.052
	c5.027-2.547,9.692-5.555,13.554-9.731c0.582-0.629,1.626-0.832,2.457-1.232c0.375,0.859,1.052,1.711,1.076,2.58
	c0.126,4.518,0.094,9.042,0.101,13.563C699.229,141.744,699.222,147.664,699.224,153.584z"/>
<path style="fill:#E37125;" d="M700.175,100.937c-0.168,5.122-3.561,8.911-7.77,8.677c-3.747-0.209-6.933-4.713-6.732-9.516
	c0.199-4.727,3.672-8.774,7.446-8.677C697.021,91.521,700.336,95.993,700.175,100.937z"/>
</svg>
