<?xml version="1.0" encoding="utf-8"?>
<!-- Generator: Adobe Illustrator 18.0.0, SVG Export Plug-In . SVG Version: 6.00 Build 0)  -->
<!DOCTYPE svg PUBLIC "-//W3C//DTD SVG 1.1//EN" "http://www.w3.org/Graphics/SVG/1.1/DTD/svg11.dtd">
<svg version="1.1" id="Layer_1" xmlns="http://www.w3.org/2000/svg" xmlns:xlink="http://www.w3.org/1999/xlink" x="0px" y="0px"
	 viewBox="0 0 448.4 132.5" enable-background="new 0 0 448.4 132.5" xml:space="preserve">
<path fill="#E37125" d="M0,73.7c0.1-0.5,0.3-0.9,0.4-1.4C2,60.5,6.1,49.6,13,39.8c0.1-0.2,0.2-0.4,0.4-0.6c-2.5-2.1-5.2-1.8-9.2,1
	c3.6-6.3,14.4-17.6,27.1-23.6c11.2-5.3,23-7.2,35.3-5.7C39.5,11.4,17.1,32.5,15,59.5c-1.9,24.2,13.1,49.1,39.7,56.1
	c26.1,6.9,52.9-7.3,62.4-32.6c0.4,0.9,0.7,1.8,1.2,2.5c0.8,1.4,1.6,2.8,2.7,3.9c2.5,2.8,5.6,3.1,8.8,1.1c0.6-0.4,1.1-0.8,1.7-1.1
	c-7.5,11-17.4,19.2-29.6,24.7c1.8,3.8,4.9,4.3,8.6,3.9c-5.8,3-12,4.8-18.4,5.9c-6.4,1.1-12.8,1.3-19.3,0.7c-0.3,1.9,0.1,3.5,1.4,4.8
	c1,0.9,2.3,1.6,3.4,2.4c0.3,0.2,0.6,0.4,0.9,0.6c-0.6,0-1.3,0-1.9,0c-0.7-0.2-1.3-0.4-2-0.5c-11.6-1.6-22.1-5.6-31.7-12.4
	c-0.3-0.2-0.6-0.4-0.9-0.6c-2.4,3.5-1,6.5,1.1,9.4c-11-7.6-19.3-17.4-24.8-29.6c-3,1-3.9,2.8-4,8.4C8.8,95.5,6.5,83,7.8,69.9
	c-0.3-0.1-0.4-0.1-0.5-0.1c-2.8-0.2-5.1,1.4-6.5,4.4c-0.2,0.5-0.5,0.9-0.8,1.4C0,75,0,74.3,0,73.7z"/>
<path fill="#E37125" d="M78.4,15.7c0.4,3.7-0.8,7.1-2.7,10.1c-2.8,4.4-6.8,7.5-11.3,10c-1.2,0.7-2.4,1.2-3.6,1.8
	c-0.3,0.1-0.6,0.3-0.7,0.7c1.9-0.3,3.7-0.7,5.6-1c3.9-0.6,7.7-0.8,11.6,0.1c2.1,0.5,4,1.4,5.4,3.1c1.3,1.5,1.9,3.2,1.1,5.1
	c-0.9,2-1.9,4-3.1,5.8c-4.1,5.6-9.3,10.2-14.5,14.7c-1.6,1.4-3.3,2.7-4.9,4c-0.2,0.2-0.4,0.4-0.6,0.8c2.4-1,4.9-2.1,7.3-3.1
	c7.7-3.1,15.6-5.8,23.8-7c3.3-0.5,6.7-0.7,10,0.2c4.8,1.3,7.4,5.5,6.6,10.4c-0.3,1.8-0.8,3.5-1.2,5.3c1-0.9,1.9-1.9,3.1-2.7
	c1-0.6,2.2-1.2,3.4-1.4c1.9-0.2,3.1,1.3,2.6,3.2c-5.6,20-18.4,32.6-38.7,36.7c-26.6,5.4-52.4-11.7-57.8-38.2
	C15.9,56.4,21,40.6,34.3,27.7c7.4-7.1,16.3-11.2,26.4-12.8C66.7,14.1,72.6,14.3,78.4,15.7z"/>
<path fill="#E37125" d="M117,72.7c4.5-26.1-12.6-50.7-36.3-56.6c14.7,0.7,25.9-6.2,36.5-14.9c-0.3,0.5-0.7,0.9-1,1.4
	c-3,4.1-5.7,8.3-7.3,13.1c-0.5,1.5-0.8,3.1-0.8,4.7c-0.1,4.3,2.2,6.7,6.6,6.7c3.8,0,7.4-1,11-2.3c7-2.4,13.6-5.6,20.3-9.3
	c-0.4,0.4-0.5,0.6-0.7,0.8c-7.3,6.8-14.5,13.7-20.4,21.9c-2.2,3.1-4.2,6.3-5.1,10.1c-1.4,5.7,0.7,9.7,6.3,11.4
	c1.7,0.5,3.5,0.8,5.4,1.2C124.2,62,119.8,66.4,117,72.7z"/>
<path fill="#E37125" d="M314.1,60.9c0.1-0.7,0.2-1.3,0.2-1.8c0-3.1-0.1-6.2,0-9.4c0-1.6-0.6-2.5-2-3c-0.3-0.1-0.6-0.2-0.9-0.4
	c-0.3-0.2-0.6-0.6-0.6-0.9c0-0.3,0.4-0.7,0.7-0.9c0.5-0.3,1.1-0.3,1.7-0.6c2-0.9,3.9-1.9,5.9-2.8c0.5-0.2,1.3-0.5,1.6-0.3
	c0.4,0.2,0.5,1,0.5,1.6c0,2.8-0.2,5.5-0.3,8.3c0,12.5,0,24.9,0,37.4c0,0.9,0,1.8,0.2,2.7c0.1,0.5,0.4,1.1,0.8,1.2
	c0.4,0.1,0.9-0.3,1.4-0.5c0.2-0.1,0.4-0.4,0.6-0.6c0.5-0.4,0.8-0.3,1.1,0.3c0.5,1.1,0,2.4-1.1,2.9c-2.2,1-4.5,2.1-6.7,3.1
	c-1.2,0.6-1.6,0.4-2-0.9c-0.2-0.7-0.4-1.4-0.7-2.3c-0.3,0.2-0.6,0.2-0.7,0.4c-6.5,5.7-15,3.3-19.4-3c-5.6-8-4.3-21.5,2.8-28
	c4.5-4.1,9.7-5,15.4-3.2C313,60.6,313.4,60.7,314.1,60.9z M314.2,79.4C314.2,79.4,314.3,79.4,314.2,79.4c0.1-2.2,0.2-4.4,0.1-6.6
	c-0.1-2.2-0.1-4.5-0.6-6.7c-0.7-3.6-3.4-5-6.9-4.1c-3,0.7-4.9,2.9-6.1,5.5c-3,6.3-3.3,12.8-1.1,19.3c1.6,4.9,5.5,7.4,10.6,7.2
	c2.7-0.1,4-1.4,4.1-4.1C314.2,86.5,314.2,83,314.2,79.4z"/>
<path fill="#E37125" d="M268.6,45.8c4.5,0,9,0,13.4,0c2,0,2.3,0.3,2.3,2.3c0,2.4,0,4.9,0,7.3c0,0.3,0.1,0.6-0.1,0.8
	c-0.2,0.4-0.5,0.7-0.7,1.1c-0.4-0.3-0.8-0.4-1-0.8c-0.3-0.4-0.4-0.9-0.6-1.4c-1.2-3.2-3.5-5.3-6.8-6c-2.2-0.5-4.6-0.6-6.9-0.6
	c-1.9,0-2.8,0.9-2.8,2.8c-0.1,5.2-0.1,10.4,0,15.6c0,0.4,0.5,1,0.8,1c2.9-0.1,5.8-0.2,8.7-0.4c2-0.2,3.1-1.6,3.6-3.5
	c0.1-0.5,0.1-1,0.4-1.4c0.2-0.4,0.7-0.6,1.1-0.9c0.3,0.4,0.8,0.7,0.8,1.1c0.1,0.9,0,1.8-0.1,2.6c0,3.7-0.1,7.4-0.1,11.1
	c0,0.5,0.1,1,0,1.4c-0.1,0.4-0.5,0.8-0.8,0.9c-0.3,0.1-0.7-0.3-1-0.6c-0.2-0.2-0.2-0.5-0.3-0.8c-0.1-0.4-0.2-0.8-0.4-1.3
	c-1.3-4.5-2.7-5.5-7.4-5.5c-1.4,0-2.7,0-4.1,0c-0.9,0-1.4,0.4-1.4,1.3c0,6.1,0,12.2,0.1,18.4c0,2.4,1.1,3.3,3.5,3.5
	c1.8,0.1,3.7,0.1,5.5,0c2.8-0.2,5-1.7,6.4-4c0.8-1.3,1.5-2.7,2.3-4.1c0.2-0.4,0.4-0.9,0.8-1.2c0.4-0.3,0.9-0.5,1.3-0.4
	c0.2,0.1,0.5,0.8,0.4,1.2c-0.3,3.2-0.7,6.4-1.1,9.6c-0.1,1.1-0.6,1.6-1.7,1.5c-4-0.2-8-0.4-12-0.4c-5.1,0-10.1,0.1-15.2,0.1
	c-0.7,0-1.4,0-2.2,0c-0.8,0-1.4-0.4-1.4-1.3c0-0.8,0.6-1,1.3-1c4-0.2,4.5-0.6,4.5-4.7c0-12.5,0-25,0-37.6c0-2.9-0.3-3.2-3.2-3.5
	c-0.2,0-0.5-0.1-0.7-0.1c-0.7-0.1-1.2-0.5-1-1.2c0.2-0.4,0.8-1,1.2-1c1.8,0,3.6,0.2,5.4,0.2c3,0,5.9,0,8.9,0
	C268.6,46,268.6,45.9,268.6,45.8z"/>
<path d="M224.6,65.4c0.5-0.6,1-1.1,1.5-1.7c3-3.5,6.8-4.9,11.3-3.7c4.1,1,6.8,4.5,7.2,9.3c0.3,3,0.2,6,0.3,9c0,4,0,7.9,0,11.9
	c0,2.7,0.6,3.4,3.1,3.9c0.8,0.2,1.5,0.4,1.4,1.4c-0.1,1-0.9,1.2-1.7,1.1c-1.9-0.2-3.7-0.5-5.6-0.5c-2.1,0-4.1,0.4-6.2,0.5
	c-1.1,0.1-1.7-0.5-1.4-1.5c0.1-0.4,0.7-1,1.2-1.1c2.1-0.5,2.5-0.8,2.5-3c0-6.2,0-12.5-0.1-18.7c0-1.1-0.3-2.2-0.6-3.3
	c-1-3.1-3.2-4.7-6.3-4.5c-3.3,0.1-5.5,1.9-6.3,5.1c-0.3,1.2-0.4,2.4-0.4,3.6c0,5.6,0,11.3,0,16.9c0,0.4,0,0.8,0,1.2
	c0.1,1.8,0.7,2.4,2.6,2.7c0.3,0,0.6,0.1,0.9,0.2c0.8,0.1,1,0.8,0.8,1.4c-0.1,0.4-0.7,1-1,1c-1.3,0-2.6-0.2-3.9-0.2
	c-2.3,0-4.5,0.1-6.8,0.2c-0.6,0-1.2,0.1-1.8,0.1c-0.9,0-1.2-0.5-1.3-1.2c-0.1-0.8,0.3-1.2,1.1-1.3c2.4-0.3,2.7-1.4,2.7-3.4
	c0-6.4,0-12.9,0-19.3c0-2.7-0.2-2.9-2.8-3.8c-0.8-0.3-0.7-0.9-0.4-1.4c0.3-0.5,0.9-0.8,1.4-1.1c2.3-1.4,4.7-2.6,6.4-4.8
	c0.2-0.3,0.9-0.6,1.2-0.5c0.3,0.1,0.6,0.7,0.6,1.1c0.1,1.5,0,3,0,4.5C224.3,65.3,224.4,65.3,224.6,65.4z"/>
<path fill="#E37125" d="M423.4,65.7c0.8-0.9,1.3-1.5,1.9-2.1c2.5-2.8,5.6-4.4,9.5-3.9c4.9,0.6,7.9,3.6,8.8,8.6
	c0.3,1.8,0.5,3.6,0.5,5.4c0.1,5.6,0,11.2,0,16.8c0,2.4,0.6,3.1,2.9,3.5c0.8,0.2,1.6,0.4,1.5,1.5c-0.1,1.1-0.9,1.2-1.8,1.1
	c-1-0.1-1.9-0.3-2.9-0.3c-2.4,0-4.8,0.1-7.3,0.2c-0.6,0-1.2,0.1-1.8,0.1c-0.8,0-1.2-0.4-1.2-1.2c-0.1-0.8,0.3-1.2,1-1.4
	c0.2,0,0.5-0.1,0.7-0.1c1.1-0.3,1.9-0.8,1.9-2.1c0-1.2,0.1-2.5,0.1-3.7c0-5.4-0.1-10.8-0.2-16.2c0-0.7-0.2-1.4-0.3-2.1
	c-0.9-3.7-3.4-5.6-7-5.3c-3.4,0.3-5.8,2.8-6.1,6.6c-0.1,1.8-0.1,3.7-0.1,5.5c0,4.7,0,9.4,0,14.2c0,2.3,0.5,2.9,2.8,3.2
	c0.2,0,0.4,0.1,0.6,0.1c0.8,0.1,1.2,0.7,0.9,1.4c-0.2,0.4-0.7,1-1.1,1.1c-1.3,0-2.7-0.3-4.1-0.3c-2.1,0-4.3,0.1-6.4,0.2
	c-0.6,0-1.3,0.1-1.9,0.1c-0.8,0-1.2-0.4-1.3-1.1c-0.1-0.7,0.2-1.3,1-1.4c2.6-0.3,2.8-1.5,2.8-3.8c0-6.2,0-12.4,0-18.6
	c0-0.6-0.1-1.3-0.2-1.9c-0.1-1.2-0.9-1.9-2.1-2.2c-0.4-0.1-1.1-0.5-1.1-0.6c0.1-0.5,0.3-1.2,0.7-1.5c0.7-0.6,1.5-0.9,2.2-1.4
	c1.6-1.2,3.1-2.5,4.8-3.8c0.4-0.3,1-0.4,1.4-0.6c0.2,0.5,0.5,0.9,0.5,1.4c0.1,1,0,2.1,0,3.1C423.2,64.5,423.3,64.9,423.4,65.7z"/>
<path d="M141.8,87.2c0-1,0-1.9,0-2.9c0-0.6-0.1-1.3,0.1-1.9c0.2-0.4,0.7-0.9,1.1-1c0.2-0.1,0.8,0.6,0.9,1c0.3,1.1,0.4,2.4,0.7,3.5
	c0.7,3.1,2,5.8,4.6,7.7c5.4,4,12.5,1.1,13.6-5.5c0.8-4.6-0.8-8.3-4.3-11c-2.9-2.2-6.1-4-9.1-5.9c-3.6-2.3-6.2-5.3-6.8-9.6
	c-0.8-5.9,0.1-11.4,5.5-14.8c5.4-3.5,11.2-3.1,16.9-0.4c0.9,0.4,1.1,1.2,1.2,2.1c0.1,2.4,0.2,4.9,0.3,7.3c0,0.7,0,1.5-1,1.7
	c-0.9,0.1-1.1-0.7-1.4-1.4c-0.9-2.1-1.7-4.2-2.8-6.2c-1.4-2.6-3.7-3.4-6.6-3.1c-2.7,0.3-4.8,1.6-5.8,4.2c-1.4,3.7-1.2,8,3,10.8
	c2.1,1.4,4.4,2.6,6.6,3.9c2.8,1.7,5.5,3.5,7.5,6.2c5.3,6.9,4.2,22.9-9.6,25.7c-3.9,0.8-7.8,0.4-11.5-1.3c-2.6-1.2-3.6-3.1-3.5-6
	C141.8,89.2,141.8,88.2,141.8,87.2C141.8,87.2,141.8,87.2,141.8,87.2z"/>
<path d="M198.5,91.8c-0.4,0.5-0.9,1.1-1.3,1.6C193,98.7,185,99,180.8,94c-2-2.4-2.6-5.3-2.6-8.4c0-6,0-12,0-18
	c0-3.1-0.4-3.7-3.4-4.6c-0.7-0.2-1.1-0.5-1.1-1.3c0-0.8,0.6-1.1,1.3-1.1c0.8,0,1.5,0.1,2.3,0.2c1.9,0.1,3.7,0.2,5.6,0.2
	c1.8-0.1,2.1,0,2.1,1.8c0,7,0,14.1,0,21.1c0,2.1,0.3,4.2,1.5,6.1c2.6,4,9,3.7,11-0.6c0.7-1.5,1-3.3,1-5c0.1-5.8,0.1-11.6,0-17.4
	c0-2.6-0.5-3.2-3-3.8c-0.2,0-0.5,0-0.6-0.2c-0.3-0.4-0.9-0.9-0.8-1.4c0.1-0.4,0.6-1,1.1-1.1c0.6-0.2,1.3,0.1,1.9,0.1
	c2,0.1,4.1,0.3,6.1,0.2c1.8,0,2.1,0.1,2.1,2c0,8.7,0,17.4,0,26.1c0,0.5,0,1,0,1.4c0.1,1.5,0.8,2.1,2.2,2.4c0.5,0.1,0.9,0.6,1.4,0.9
	c-0.4,0.5-0.6,1.2-1.1,1.4c-2.4,0.9-4.9,1.7-7.4,2.4c-1,0.3-1.5-0.1-1.5-1.2c0-1.1,0-2.2,0-3.4c0-0.4-0.1-0.8-0.1-1.3
	C198.7,91.8,198.6,91.8,198.5,91.8z"/>
<path fill="#E37125" d="M374.6,78.7c0.3-5,1.4-9.6,4.6-13.6c6.4-7.8,22-8.3,27.1,3.9c2.8,6.5,2.8,13.2-0.2,19.7
	c-2.7,6-7.7,8.7-14.1,9.1c-7.6,0.4-13.8-4-16-11.7C375.2,83.7,375,81.2,374.6,78.7z M382.1,77.7c0,1-0.1,2,0,3c0.3,4,1,7.8,3.3,11.2
	c2.8,4.1,7.9,4.9,11.5,1.6c1.6-1.5,2.6-3.4,3.2-5.5c1.4-4.7,1.3-9.5,0.6-14.4c-0.5-3.3-1.4-6.4-3.6-9c-2-2.4-4.5-3.3-7.6-2.6
	c-3.2,0.7-4.9,3-6,5.8C382.2,71,382,74.4,382.1,77.7z"/>
<path fill="#E37125" d="M348.3,90c0-1.2-0.1-2.4,0-3.6c0.1-0.6,0.7-1,1-1.5c0.4,0.4,1,0.8,1.2,1.3c0.7,1.8,1.2,3.8,2.1,5.6
	c1.5,3,4.3,4.3,7.1,3.7c5.2-1.1,5.6-8.2,2.8-10.7c-0.9-0.8-1.9-1.6-3-2.2c-1.9-1.2-4-2.2-5.9-3.4c-4.4-2.6-6.3-5.9-4.9-12
	c1-4.4,5-7.4,10-7.5c2.2,0,4.4,0.2,6.5,0.6c2,0.4,2.9,1.8,2.8,3.9c0,1.2-0.1,2.5-0.3,3.7c-0.1,0.5-0.7,0.9-1.1,1.3
	c-0.4-0.4-0.9-0.8-1-1.2c-0.5-1.8-1.3-3.4-2.8-4.7c-1.8-1.6-3.9-1.8-6-0.9c-1.8,0.8-2.7,2.3-2.7,4.3c0,1.4,0.6,2.6,1.7,3.4
	c1.9,1.2,3.8,2.3,5.8,3.4c2.4,1.3,4.7,2.7,6.3,5c5.1,7.4,0.1,18.3-8.8,19.2c-3.2,0.3-6.4-0.1-9.4-1.4c-1.1-0.5-1.8-1.2-1.7-2.5
	C348.2,92.5,348.2,91.2,348.3,90C348.2,90,348.2,90,348.3,90z"/>
<path fill="#E37125" d="M339.7,75.9c0,4.7,0,9.4,0,14c0,2.4,0.2,3.7,3.2,4.1c0.8,0.1,1.5,0.4,1.4,1.5c-0.1,1.1-0.9,1.1-1.7,1.1
	c-1.2-0.1-2.5-0.3-3.7-0.3c-2.1,0-4.3,0.1-6.4,0.2c-0.6,0-1.1,0.1-1.7,0.1c-0.8,0.1-1.3-0.2-1.4-1.1c-0.1-0.9,0.3-1.3,1.1-1.5
	c2.1-0.5,2.5-0.9,2.5-3.1c0-6.6,0-13.3,0-19.9c0-2.4-0.4-2.8-2.6-3.6c-1-0.3-0.8-1.1-0.4-1.6c0.3-0.4,0.8-0.8,1.3-1
	c2.4-1.2,4.7-2.7,6.6-4.7c0.3-0.3,0.8-0.4,1.2-0.6c0.2,0.4,0.5,0.8,0.5,1.3c0.1,2.2,0,4.4,0,6.6C339.7,70.1,339.7,73,339.7,75.9z"/>
<path fill="#E37125" d="M340.2,50.2c-0.1,2.5-1.7,4.3-3.8,4.2c-1.8-0.1-3.4-2.3-3.3-4.6c0.1-2.3,1.8-4.3,3.6-4.2
	C338.6,45.7,340.2,47.8,340.2,50.2z"/>
</svg>
