<?xml version="1.0" encoding="utf-8"?>
<!-- Generator: Adobe Illustrator 19.0.0, SVG Export Plug-In . SVG Version: 6.00 Build 0)  -->
<svg version="1.1" id="Layer_1" xmlns="http://www.w3.org/2000/svg" xmlns:xlink="http://www.w3.org/1999/xlink" x="0px" y="0px"
	 viewBox="0 0 16 20" style="enable-background:new 0 0 16 20;" xml:space="preserve">
<g>
	<path d="M13,5 M13,5l-1,14H4L3,5H2l1,14c0,0.7,0.3,1,1,1h8c0.7,0,1-0.3,1-1l1-14H13z"/>
	<path d="M9.5,4h-3C6.2,4,6,3.8,6,3.5v-3C6,0.2,6.2,0,6.5,0l3,0C9.8,0,10,0.2,10,0.5v3C10,3.8,9.8,4,9.5,4z"/>
	<path d="M15.5,4h-15C0.2,4,0,3.8,0,3.5v0C0,3.2,0.2,3,0.5,3h15C15.8,3,16,3.2,16,3.5v0C16,3.8,15.8,4,15.5,4z"/>
	<path d="M6.5,17L6.5,17C6.2,17,6,16.8,6,16.5v-9C6,7.2,6.2,7,6.5,7h0C6.8,7,7,7.2,7,7.5v9C7,16.8,6.8,17,6.5,17z"/>
	<path d="M9.5,17L9.5,17C9.2,17,9,16.8,9,16.5v-9C9,7.2,9.2,7,9.5,7h0C9.8,7,10,7.2,10,7.5v9C10,16.8,9.8,17,9.5,17z"/>
</g>
</svg>
