<?xml version="1.0" encoding="utf-8"?>
<!-- Generator: Adobe Illustrator 19.0.0, SVG Export Plug-In . SVG Version: 6.00 Build 0)  -->
<svg version="1.1" id="Layer_1" xmlns="http://www.w3.org/2000/svg" xmlns:xlink="http://www.w3.org/1999/xlink" x="0px" y="0px"
	 viewBox="0 0 28 26.8" style="enable-background:new 0 0 28 26.8;" xml:space="preserve">
<style type="text/css">
	.st0{fill:#FFFFFF;}
</style>
<path class="st0" d="M6.2,26.8c-0.3,0-0.6-0.1-0.8-0.3c-0.5-0.4-0.7-1-0.5-1.6l2.5-7.8c0.1-0.2,0-0.4-0.2-0.5l-6.7-4.8
	c-0.5-0.4-0.7-1-0.5-1.6c0.2-0.6,0.7-1,1.4-1h8.2c0.2,0,0.4-0.1,0.4-0.3L12.6,1c0.2-0.6,0.7-1,1.4-1s1.2,0.4,1.4,1l2.5,7.8
	C18,9,18.1,9.1,18.3,9.1h8.2c0.6,0,1.2,0.4,1.4,1c0.2,0.6,0,1.2-0.5,1.6l-6.7,4.8c-0.2,0.1-0.2,0.3-0.2,0.5l2.5,7.8
	c0.2,0.6,0,1.2-0.5,1.6c-0.5,0.4-1.2,0.4-1.7,0l-6.7-4.8c-0.2-0.1-0.4-0.1-0.5,0l-6.7,4.8C6.8,26.7,6.5,26.8,6.2,26.8z M1.4,10.1
	c-0.3,0-0.4,0.2-0.4,0.3s-0.1,0.3,0.2,0.5l6.7,4.8c0.5,0.4,0.7,1,0.5,1.6l-2.5,7.8c-0.1,0.3,0.1,0.4,0.2,0.5c0.1,0,0.3,0.2,0.5,0
	l6.7-4.8c0.5-0.4,1.2-0.4,1.7,0l6.7,4.8c0.2,0.2,0.5,0,0.5,0c0.1,0,0.2-0.2,0.2-0.5l-2.5-7.8c-0.2-0.6,0-1.2,0.5-1.6l6.7-4.8
	c0.2-0.2,0.2-0.4,0.2-0.5s-0.1-0.3-0.4-0.3h-8.2c-0.6,0-1.2-0.4-1.4-1l-2.5-7.8C14.3,1,14.1,1,14,1s-0.3,0-0.4,0.3L11,9.1
	c-0.2,0.6-0.7,1-1.4,1H1.4z"/>
</svg>
