<?xml version="1.0" encoding="utf-8"?>
<!-- Generator: Adobe Illustrator 19.0.0, SVG Export Plug-In . SVG Version: 6.00 Build 0)  -->
<svg version="1.1" id="Layer_1" xmlns="http://www.w3.org/2000/svg" xmlns:xlink="http://www.w3.org/1999/xlink" x="0px" y="0px"
	 viewBox="0 0 14.5 14.5" style="enable-background:new 0 0 14.5 14.5;" xml:space="preserve">
<g>
	<path d="M0,14.5l0.7-4.1l3.4,3.4L0,14.5z M11.9,6l-6.8,6.8c-0.3,0.3-0.7,0.3-1,0l-2.4-2.4c-0.3-0.3-0.3-0.7,0-1l6.8-6.8
		c0.3-0.3,0.7-0.3,1,0l2.4,2.4C12.1,5.4,12.1,5.8,11.9,6z M14.3,3.6L12.9,5L9.5,1.6l1.4-1.4c0.5-0.5,1,0,1,0l2.4,2.4
		C14.3,2.6,14.8,3.1,14.3,3.6z"/>
</g>
</svg>
