<?xml version="1.0" encoding="utf-8"?>
<!-- Generator: Adobe Illustrator 19.0.1, SVG Export Plug-In . SVG Version: 6.00 Build 0)  -->
<svg version="1.1" id="Layer_1" xmlns="http://www.w3.org/2000/svg" xmlns:xlink="http://www.w3.org/1999/xlink" x="0px" y="0px"
	 viewBox="0 0 14 19" style="enable-background:new 0 0 14 19;" xml:space="preserve">
<g>
	<g>
		<path d="M9,1v2.4C9,4.3,9.7,5,10.6,5H13v13H1V1H9 M10,0H0.9C0.3,0,0,0.3,0,0.9v17.1C0,18.7,0.3,19,0.9,19h12.1
			c0.6,0,0.9-0.3,0.9-0.9V4h-3.4h0C10.3,4,10,3.7,10,3.4V0L10,0z"/>
		<polygon points="10,0 14,4 13,4 10,1 		"/>
	</g>
	<polygon points="7,7 3,7 3,8 7,8 7,7 	"/>
	<polygon points="11,13 3,13 3,14 11,14 11,13 	"/>
	<polygon points="11,10 3,10 3,11 11,11 11,10 	"/>
</g>
</svg>
