<?xml version="1.0" encoding="utf-8"?>
<!-- Generator: Adobe Illustrator 19.0.0, SVG Export Plug-In . SVG Version: 6.00 Build 0)  -->
<svg version="1.1" id="Layer_1" xmlns="http://www.w3.org/2000/svg" xmlns:xlink="http://www.w3.org/1999/xlink" x="0px" y="0px"
	 viewBox="0 0 28 26.7" style="enable-background:new 0 0 28 26.7;" xml:space="preserve">
<style type="text/css">
	.st0{fill:#FFFFFF;}
</style>
<path class="st0" d="M14.9,0.7l2.6,8.1c0.1,0.4,0.5,0.7,0.9,0.7H27c0.9,0,1.3,1.2,0.6,1.8l-6.9,5c-0.3,0.2-0.5,0.7-0.4,1.1l2.6,8.1
	c0.3,0.9-0.7,1.6-1.5,1.1l-6.9-5c-0.3-0.2-0.8-0.2-1.1,0l-6.9,5c-0.8,0.6-1.8-0.2-1.5-1.1l2.6-8.1c0.1-0.4,0-0.8-0.4-1.1l-6.9-5
	C-0.4,10.7,0,9.5,1,9.5h8.5c0.4,0,0.8-0.3,0.9-0.7l2.6-8.1C13.4-0.2,14.6-0.2,14.9,0.7z"/>
</svg>
