<?xml version="1.0" encoding="utf-8"?>
<!-- Generator: Adobe Illustrator 19.0.0, SVG Export Plug-In . SVG Version: 6.00 Build 0)  -->
<svg version="1.1" id="Ebene_1" xmlns="http://www.w3.org/2000/svg" xmlns:xlink="http://www.w3.org/1999/xlink" x="0px" y="0px"
	 viewBox="0 0 255.1 48" enable-background="new 0 0 255.1 48" xml:space="preserve">
<g>
	<g>
		<path fill="#FFFFFF" d="M52,19.1c0.2-0.6,0.6-1.2,1-1.6c0.4-0.4,1-0.8,1.6-1c0.6-0.2,1.3-0.4,2.1-0.4c0.8,0,1.5,0.1,2.2,0.3
			c0.6,0.2,1,0.4,1.1,0.6c0.2,0.2,0.2,1.2,0.2,3.2c0,0.4-0.1,0.6-0.4,0.6c-0.2,0-0.4-0.1-0.4-0.4c-0.1-0.3-0.2-0.6-0.4-1.1
			c-0.3-0.8-0.6-1.4-1-1.8c-0.4-0.4-0.9-0.6-1.6-0.6c-0.9,0-1.6,0.3-2,0.8c-0.5,0.5-0.7,1.3-0.7,2.2c0,0.8,0.2,1.4,0.7,1.9
			c0.4,0.5,1.1,1,2,1.4c0.8,0.4,1.5,0.8,2.1,1.2c0.6,0.4,1.1,0.9,1.5,1.3c0.4,0.5,0.7,1,0.9,1.7c0.2,0.6,0.3,1.3,0.3,2.1
			c0,0.8-0.1,1.6-0.4,2.3c-0.3,0.7-0.7,1.3-1.2,1.9c-0.5,0.5-1.1,0.9-1.8,1.2c-0.7,0.3-1.4,0.4-2.3,0.4c-1.3,0-2.3-0.2-3.1-0.6
			c-0.8-0.4-1.2-1-1.2-1.9c0-0.3,0-0.6,0-1c0-0.3,0-0.6,0-0.9c0-0.2,0-0.4,0-0.5c0-0.1,0-0.2,0-0.2c0-0.6,0.1-0.9,0.4-0.9
			c0.1,0,0.2,0.1,0.3,0.2c0.1,0.1,0.1,0.2,0.1,0.4c0,0.2,0.1,0.4,0.1,0.7c0,0.3,0.1,0.5,0.2,0.8c0.3,1,0.8,1.8,1.4,2.3
			c0.6,0.5,1.3,0.8,2.1,0.8c0.4,0,0.8-0.1,1.2-0.3c0.4-0.2,0.7-0.4,1-0.7c0.3-0.3,0.5-0.7,0.7-1.1c0.2-0.4,0.2-0.9,0.2-1.4
			c0-0.9-0.3-1.7-0.8-2.4c-0.6-0.7-1.4-1.4-2.5-2c-0.6-0.3-1.1-0.6-1.6-1c-0.5-0.3-1-0.7-1.3-1.1c-0.4-0.4-0.7-0.9-0.9-1.5
			c-0.2-0.6-0.3-1.3-0.3-2.1C51.7,20.4,51.8,19.7,52,19.1"/>
		<path fill="#FFFFFF" d="M67,30.3c0,1,0.2,1.9,0.7,2.5c0.4,0.6,1,0.9,1.8,0.9c0.8,0,1.4-0.3,1.8-0.8c0.5-0.5,0.7-1.3,0.7-2.3v-6.3
			c0-0.3,0-0.6-0.1-0.7c-0.1-0.2-0.2-0.3-0.3-0.4c-0.2-0.1-0.3-0.2-0.4-0.2c-0.1,0-0.3-0.1-0.4-0.1c-0.1,0-0.2-0.1-0.3-0.1
			c-0.1,0-0.1-0.1-0.1-0.3c0-0.3,0.2-0.5,0.5-0.5c0.2,0,0.5,0,0.8,0.1c0.3,0.1,0.8,0.1,1.3,0.1c0.3,0,0.5,0,0.7,0c0.2,0,0.3,0,0.4,0
			c0.2,0,0.3,0,0.4,0.1c0,0.1,0.1,0.2,0.1,0.4v9.8c0,0.5,0.1,0.8,0.2,1c0.1,0.2,0.3,0.3,0.5,0.3c0.2,0,0.3,0.1,0.4,0.1
			c0.1,0,0.2,0.1,0.2,0.3c0,0.2-0.1,0.3-0.3,0.4c-0.2,0.1-0.5,0.2-0.8,0.3c-1.2,0.4-1.9,0.6-2.1,0.6c-0.2,0-0.3-0.2-0.3-0.6v-1.2
			c0-0.3,0-0.4-0.1-0.4c-0.1,0-0.2,0.1-0.3,0.2l-0.3,0.4c-0.4,0.5-0.8,0.9-1.4,1.1c-0.5,0.3-1.1,0.4-1.7,0.4c-1.2,0-2.1-0.4-2.8-1.2
			c-0.7-0.8-1-1.8-1-3.2v-6.7c0-0.5-0.1-0.8-0.3-1C64.2,23.1,64,23,63.8,23c-0.2-0.1-0.4-0.1-0.6-0.1c-0.2,0-0.2-0.2-0.2-0.4
			c0-0.3,0.2-0.5,0.5-0.5c0.3,0,0.5,0,0.9,0.1c0.3,0.1,0.7,0.1,1.2,0.1c0.2,0,0.5,0,0.6,0c0.2,0,0.3,0,0.4,0c0.2,0,0.3,0,0.4,0.1
			c0,0.1,0.1,0.2,0.1,0.4V30.3z"/>
		<path fill="#FFFFFF" d="M81.3,23.4c0,0.3,0,0.4,0.1,0.4c0.1,0,0.1-0.1,0.2-0.2l0.3-0.4c0.4-0.5,0.9-0.9,1.4-1.2
			c0.5-0.3,1.1-0.4,1.7-0.4c1.2,0,2.1,0.4,2.8,1.2c0.7,0.8,1,2,1,3.6v6.2c0,0.6,0.1,1,0.4,1.2c0.1,0.1,0.3,0.1,0.4,0.1
			c0.1,0,0.3,0,0.4,0.1c0.1,0,0.2,0.1,0.3,0.1c0.1,0.1,0.1,0.2,0.1,0.3c0,0.3-0.2,0.5-0.5,0.5c-0.3,0-0.6,0-1-0.1
			c-0.4-0.1-0.8-0.1-1.3-0.1c-0.5,0-0.9,0-1.3,0.1C85.9,35,85.7,35,85.5,35c-0.3,0-0.5-0.2-0.5-0.5c0-0.1,0-0.2,0.1-0.3
			c0-0.1,0.1-0.1,0.2-0.1c0.1,0,0.2,0,0.3,0c0.1,0,0.2,0,0.3-0.1c0.2-0.1,0.4-0.3,0.4-0.4c0-0.2,0.1-0.4,0.1-0.8v-5.9
			c0-1.2-0.2-2-0.6-2.6c-0.4-0.6-1-0.9-1.8-0.9c-0.7,0-1.3,0.3-1.8,0.8c-0.5,0.5-0.7,1.3-0.7,2.3v6.3c0,0.3,0,0.6,0.1,0.8
			c0,0.2,0.2,0.3,0.4,0.4c0.2,0.1,0.3,0.1,0.5,0.2c0.1,0,0.3,0,0.4,0c0.1,0,0.2,0.1,0.2,0.1c0.1,0.1,0.1,0.2,0.1,0.3
			c0,0.3-0.2,0.4-0.5,0.4c-0.3,0-0.6,0-1-0.1c-0.4-0.1-0.8-0.1-1.3-0.1c-0.5,0-0.9,0-1.3,0.1C78.5,35,78.3,35,78.1,35
			c-0.3,0-0.5-0.2-0.5-0.5c0-0.1,0-0.2,0.1-0.3c0-0.1,0.1-0.1,0.2-0.1c0.1,0,0.2,0,0.3,0c0.1,0,0.2,0,0.3-0.1
			c0.2-0.1,0.3-0.2,0.4-0.4c0.1-0.2,0.1-0.5,0.1-0.8v-6.8c0-0.5-0.1-0.9-0.2-1c-0.1-0.2-0.3-0.3-0.4-0.3c-0.2,0-0.3-0.1-0.4-0.1
			c-0.1,0-0.2-0.1-0.2-0.3c0-0.2,0.1-0.4,0.4-0.5c0.3-0.1,0.6-0.4,1.1-0.7c0.6-0.3,1-0.6,1.2-1c0.2-0.3,0.4-0.5,0.6-0.5
			c0.1,0,0.1,0,0.2,0.1c0.1,0.1,0.1,0.3,0.1,0.5V23.4z"/>
		<path fill="#FFFFFF" d="M103.1,20.1c0,0.5-0.1,0.7-0.3,0.7c-0.1,0-0.2-0.1-0.3-0.2c-0.1-0.1-0.1-0.3-0.2-0.5
			c-0.1-0.2-0.2-0.5-0.3-0.7c-0.1-0.3-0.3-0.5-0.6-0.7c-0.8-0.7-2-1.1-3.5-1.1c-0.4,0-0.7,0-0.9,0.1c-0.2,0.1-0.4,0.2-0.5,0.3
			c-0.1,0.1-0.2,0.3-0.2,0.5c0,0.2,0,0.5,0,0.9v4.8c0,0.3,0,0.4,0.1,0.5c0,0.1,0.2,0.1,0.5,0.1h1.3c0.6,0,1.1-0.1,1.6-0.2
			c0.4-0.1,0.7-0.2,0.9-0.4c0.2-0.2,0.3-0.4,0.4-0.6c0.1-0.2,0.1-0.4,0.2-0.6c0-0.2,0.1-0.3,0.1-0.4c0-0.1,0.1-0.2,0.3-0.2
			c0.2,0,0.3,0.1,0.3,0.4c0,0.4,0,0.8-0.1,1.3c0,0.5-0.1,1-0.1,1.6c0,0.7,0,1.2,0,1.6c0,0.4,0,0.7,0,0.8c0,0.3-0.1,0.5-0.3,0.5
			c-0.1,0-0.2-0.1-0.3-0.2c-0.1-0.1-0.1-0.3-0.2-0.4c0-0.2-0.1-0.4-0.2-0.6c-0.1-0.2-0.2-0.5-0.3-0.8c-0.2-0.4-0.5-0.7-0.9-0.8
			c-0.4-0.1-0.9-0.1-1.5-0.1h-1.3c-0.2,0-0.4,0-0.4,0.1c-0.1,0.1-0.1,0.2-0.1,0.4v6c0,0.4,0,0.7,0.1,1c0.1,0.2,0.2,0.4,0.3,0.6
			c0.2,0.1,0.4,0.2,0.6,0.3c0.3,0,0.6,0.1,1,0.1c0.4,0,0.8,0,1.2-0.1c0.4,0,0.7-0.1,1-0.2c0.3-0.1,0.6-0.3,0.8-0.5
			c0.2-0.2,0.5-0.5,0.7-0.9c0.3-0.5,0.6-1,0.8-1.4c0.2-0.4,0.4-0.6,0.6-0.6c0.1,0,0.1,0,0.2,0.1c0.1,0.1,0.1,0.1,0.1,0.2
			c0,0.2,0,0.4-0.1,0.5l-0.3,2.8c0,0.2,0,0.4-0.1,0.5c0,0.1-0.1,0.2-0.1,0.3c-0.1,0.1-0.1,0.1-0.2,0.1c-0.1,0-0.3,0-0.5,0
			c-0.6,0-1.5,0-2.7-0.1c-1.2-0.1-2.8-0.1-4.7-0.1c-0.9,0-1.5,0-2,0.1c-0.5,0-0.7,0.1-0.9,0.1c-0.4,0-0.6-0.2-0.6-0.5
			c0-0.3,0.1-0.4,0.3-0.4c0.2,0,0.5,0,0.9-0.1c0.4-0.1,0.7-0.2,0.8-0.5c0.1-0.3,0.1-0.7,0.1-1.3V18.9c0-0.4,0-0.8-0.1-0.9
			c0-0.2-0.2-0.3-0.5-0.4c-0.2-0.1-0.3-0.1-0.5-0.1c-0.2,0-0.3,0-0.4,0c-0.1,0-0.2-0.1-0.3-0.1c-0.1,0-0.1-0.1-0.1-0.3
			c0-0.3,0.2-0.4,0.5-0.4c0.1,0,0.5,0,1.3,0.1c0.7,0,1.7,0.1,3.1,0.1c1.7,0,3,0,4-0.1c0.9,0,1.5-0.1,1.7-0.1c0.4,0,0.6,0.1,0.7,0.2
			c0.1,0.1,0.1,0.4,0.1,0.7v0.1V20.1z"/>
		<path fill="#FFFFFF" d="M116.4,32.3c0,0.8,0.1,1.2,0.4,1.2c0.2,0,0.4-0.1,0.5-0.3c0.1-0.2,0.3-0.3,0.4-0.3c0,0,0.1,0,0.1,0.1
			c0.1,0.1,0.1,0.2,0.1,0.4c0,0.3-0.1,0.5-0.2,0.6c-0.1,0.1-0.3,0.2-0.5,0.2c-0.7,0.3-1.3,0.5-1.7,0.8c-0.4,0.3-0.7,0.4-0.8,0.4
			c-0.1,0-0.2-0.1-0.2-0.2c-0.1-0.1-0.1-0.3-0.2-0.4c0-0.2-0.1-0.3-0.1-0.4c0-0.1-0.1-0.2-0.1-0.2c0,0-0.1,0.1-0.3,0.2
			c-0.2,0.1-0.4,0.3-0.6,0.4c-0.3,0.2-0.6,0.3-0.9,0.4c-0.4,0.1-0.8,0.2-1.3,0.2c-0.7,0-1.4-0.2-2.1-0.5c-0.6-0.3-1.2-0.8-1.7-1.3
			c-0.5-0.6-0.9-1.3-1.2-2.1c-0.3-0.8-0.4-1.7-0.4-2.8c0-1,0.2-2,0.5-2.9c0.3-0.9,0.7-1.6,1.3-2.3c0.5-0.6,1.2-1.1,1.9-1.5
			c0.7-0.3,1.5-0.5,2.3-0.5c0.4,0,0.8,0,1.1,0.1c0.3,0.1,0.6,0.1,0.8,0.2l0.4,0.1h0.1c0.1,0,0.2-0.1,0.2-0.4v-3.8
			c0-0.3-0.1-0.4-0.2-0.6c-0.1-0.1-0.3-0.2-0.4-0.3c-0.2-0.1-0.3-0.1-0.4-0.2c-0.1-0.1-0.2-0.1-0.2-0.3c0-0.2,0.1-0.4,0.4-0.4
			c0.3-0.1,0.6-0.2,0.9-0.3c0.7-0.3,1.2-0.5,1.5-0.7c0.3-0.2,0.5-0.3,0.6-0.3c0.2,0,0.3,0,0.3,0.1c0,0.1,0.1,0.2,0.1,0.4
			c0,0.3,0,0.6,0,0.9c0,0.3,0,0.7,0,1.1V32.3z M114,25c0-0.5-0.1-1-0.3-1.4c-0.1-0.4-0.4-0.7-0.7-0.9c-0.3-0.2-0.7-0.3-1.2-0.3
			c-0.5,0-1,0.1-1.4,0.4c-0.4,0.3-0.8,0.7-1.2,1.2c-0.3,0.5-0.6,1.2-0.8,2c-0.2,0.8-0.3,1.6-0.3,2.6c0,1.7,0.4,3.1,1.1,4
			c0.7,1,1.7,1.4,3,1.4c0.4,0,0.7-0.1,1-0.2c0.2-0.1,0.4-0.3,0.5-0.5c0.1-0.2,0.2-0.5,0.2-0.8c0-0.3,0-0.6,0-1v-4.9
			C114,26.1,114,25.5,114,25"/>
		<path fill="#FFFFFF" d="M123.2,32.7c0,0.4,0,0.6,0.1,0.8c0.1,0.2,0.2,0.3,0.4,0.4c0.2,0.1,0.3,0.1,0.5,0.1c0.1,0,0.3,0,0.4,0.1
			c0.1,0,0.2,0.1,0.3,0.1c0.1,0.1,0.1,0.2,0.1,0.3c0,0.3-0.2,0.5-0.5,0.5c-0.3,0-0.6,0-1-0.1c-0.4-0.1-0.8-0.1-1.3-0.1
			c-0.5,0-0.9,0-1.3,0.1c-0.3,0.1-0.6,0.1-0.8,0.1c-0.3,0-0.4-0.2-0.4-0.5c0-0.1,0-0.2,0.1-0.3c0-0.1,0.1-0.1,0.2-0.1
			c0.1,0,0.2,0,0.3,0c0.1,0,0.2,0,0.3-0.1c0.2-0.1,0.3-0.3,0.4-0.4c0-0.2,0.1-0.4,0.1-0.8v-6.9c0-0.5-0.1-0.9-0.2-1
			c-0.1-0.2-0.3-0.3-0.4-0.3c-0.1,0-0.3-0.1-0.4-0.1c-0.1,0-0.2-0.1-0.2-0.3c0-0.2,0.1-0.4,0.4-0.5c0.3-0.1,0.6-0.3,1.1-0.6
			c0.3-0.2,0.5-0.3,0.7-0.5c0.2-0.2,0.4-0.3,0.5-0.5c0.1-0.1,0.2-0.2,0.3-0.3c0.1-0.1,0.2-0.1,0.2-0.1c0.2,0,0.3,0.2,0.3,0.6V32.7z
			 M123,17c0.2,0.3,0.4,0.7,0.4,1.1c0,0.4-0.1,0.8-0.4,1.1c-0.3,0.3-0.6,0.5-0.9,0.5c-0.3,0-0.6-0.2-0.9-0.5
			c-0.3-0.3-0.4-0.7-0.4-1.1c0-0.4,0.1-0.8,0.4-1.1c0.3-0.3,0.6-0.5,0.9-0.5C122.4,16.6,122.7,16.7,123,17"/>
		<path fill="#FFFFFF" d="M132.8,22c0.4,0.2,0.7,0.6,0.7,1.1c0,0.7,0,1.2-0.1,1.5c-0.1,0.3-0.2,0.5-0.4,0.5c-0.2,0-0.3-0.1-0.4-0.4
			c0-0.3-0.2-0.6-0.4-1c-0.5-0.8-1.1-1.2-1.9-1.2c-0.6,0-1,0.2-1.4,0.5c-0.3,0.3-0.5,0.7-0.5,1.2c0,0.3,0.1,0.6,0.2,0.8
			c0.1,0.2,0.3,0.4,0.6,0.6c0.3,0.2,0.6,0.4,0.9,0.6c0.4,0.2,0.8,0.4,1.2,0.6c0.9,0.5,1.6,1.1,2.1,1.7c0.4,0.6,0.7,1.4,0.7,2.4
			c0,0.7-0.1,1.4-0.3,2c-0.2,0.6-0.5,1.1-0.9,1.5c-0.4,0.4-0.9,0.7-1.4,0.9c-0.6,0.2-1.2,0.3-1.8,0.3c-0.7,0-1.3-0.1-1.8-0.2
			c-0.5-0.1-0.9-0.3-1.2-0.5c-0.2-0.1-0.3-0.2-0.3-0.4c0-0.2-0.1-0.4-0.1-0.6V33c0-0.8,0-1.4,0.1-1.7c0-0.4,0.2-0.5,0.4-0.5
			c0.1,0,0.2,0,0.3,0.1c0.1,0.1,0.1,0.2,0.2,0.4c0,0.2,0.1,0.4,0.2,0.7c0.1,0.3,0.2,0.6,0.3,0.9c0.5,1.2,1.3,1.8,2.3,1.8
			c0.6,0,1.1-0.2,1.5-0.6c0.4-0.4,0.6-1,0.6-1.7c0-0.4-0.1-0.7-0.2-1c-0.1-0.3-0.3-0.5-0.6-0.8c-0.2-0.2-0.5-0.4-0.9-0.6
			c-0.3-0.2-0.7-0.4-1.2-0.7c-0.5-0.3-0.9-0.5-1.3-0.7c-0.4-0.2-0.7-0.5-0.9-0.8c-0.3-0.3-0.4-0.6-0.6-1c-0.1-0.4-0.2-0.8-0.2-1.3
			c0-1.2,0.4-2.2,1.1-2.9c0.7-0.7,1.7-1.1,2.9-1.1C131.6,21.6,132.4,21.7,132.8,22"/>
		<path fill="#FFFFFF" d="M136.4,25.7c0.3-0.9,0.7-1.6,1.3-2.2c0.5-0.6,1.2-1.1,1.9-1.4c0.8-0.3,1.6-0.5,2.5-0.5
			c0.9,0,1.7,0.2,2.4,0.5c0.7,0.3,1.4,0.8,1.9,1.4c0.5,0.6,0.9,1.3,1.2,2.2c0.3,0.9,0.4,1.8,0.4,2.8c0,1-0.1,2-0.4,2.8
			c-0.3,0.9-0.7,1.6-1.2,2.2c-0.5,0.6-1.2,1.1-2,1.4c-0.8,0.3-1.6,0.5-2.6,0.5c-0.9,0-1.7-0.2-2.4-0.5c-0.7-0.3-1.3-0.8-1.8-1.4
			c-0.5-0.6-0.9-1.3-1.2-2.2c-0.3-0.9-0.4-1.8-0.4-2.8C136,27.5,136.1,26.5,136.4,25.7 M139.5,23.9c-0.6,1-0.9,2.4-0.9,4.2
			c0,2.1,0.3,3.7,1,4.8c0.6,1.2,1.5,1.7,2.5,1.7c1.1,0,1.9-0.5,2.5-1.5c0.6-1,0.9-2.4,0.9-4.2c0-2.1-0.3-3.7-1-4.8
			c-0.7-1.2-1.5-1.7-2.5-1.7C140.9,22.4,140.1,22.9,139.5,23.9"/>
		<path fill="#FFFFFF" d="M153.5,23.4c0,0.3,0,0.4,0.1,0.4c0.1,0,0.1-0.1,0.2-0.2l0.3-0.4c0.4-0.5,0.9-0.9,1.4-1.2
			c0.5-0.3,1.1-0.4,1.7-0.4c1.2,0,2.1,0.4,2.8,1.2c0.7,0.8,1,2,1,3.6v6.2c0,0.6,0.1,1,0.4,1.2c0.1,0.1,0.3,0.1,0.4,0.1
			c0.1,0,0.3,0,0.4,0.1c0.1,0,0.2,0.1,0.3,0.1c0.1,0.1,0.1,0.2,0.1,0.3c0,0.3-0.2,0.5-0.5,0.5c-0.3,0-0.6,0-1-0.1
			c-0.4-0.1-0.8-0.1-1.3-0.1c-0.5,0-0.9,0-1.3,0.1c-0.4,0.1-0.6,0.1-0.8,0.1c-0.3,0-0.5-0.2-0.5-0.5c0-0.1,0-0.2,0.1-0.3
			c0-0.1,0.1-0.1,0.2-0.1c0.1,0,0.2,0,0.3,0c0.1,0,0.2,0,0.3-0.1c0.2-0.1,0.4-0.3,0.4-0.4c0-0.2,0.1-0.4,0.1-0.8v-5.9
			c0-1.2-0.2-2-0.6-2.6c-0.4-0.6-1-0.9-1.8-0.9c-0.7,0-1.3,0.3-1.8,0.8c-0.5,0.5-0.7,1.3-0.7,2.3v6.3c0,0.3,0,0.6,0.1,0.8
			c0,0.2,0.2,0.3,0.4,0.4c0.2,0.1,0.3,0.1,0.5,0.2c0.1,0,0.3,0,0.4,0c0.1,0,0.2,0.1,0.2,0.1c0.1,0.1,0.1,0.2,0.1,0.3
			c0,0.3-0.2,0.4-0.5,0.4c-0.3,0-0.6,0-1-0.1c-0.4-0.1-0.8-0.1-1.3-0.1c-0.5,0-0.9,0-1.3,0.1c-0.3,0.1-0.6,0.1-0.8,0.1
			c-0.3,0-0.5-0.2-0.5-0.5c0-0.1,0-0.2,0.1-0.3c0-0.1,0.1-0.1,0.2-0.1c0.1,0,0.2,0,0.3,0c0.1,0,0.2,0,0.3-0.1
			c0.2-0.1,0.3-0.2,0.4-0.4c0.1-0.2,0.1-0.5,0.1-0.8v-6.8c0-0.5-0.1-0.9-0.2-1c-0.1-0.2-0.3-0.3-0.4-0.3c-0.2,0-0.3-0.1-0.4-0.1
			c-0.1,0-0.2-0.1-0.2-0.3c0-0.2,0.1-0.4,0.4-0.5c0.3-0.1,0.6-0.4,1.1-0.7c0.6-0.3,1-0.6,1.2-1c0.2-0.3,0.4-0.5,0.6-0.5
			c0.1,0,0.1,0,0.2,0.1c0.1,0.1,0.1,0.3,0.1,0.5V23.4z"/>
		<path fill="#FFFFFF" d="M47.8,32.3c-3.6,3.2-5.3-2.2-5.3-2.2c-1.2,3.3-3.2,6-5.7,8.1c0,0,0,0,0,0c-0.8,0.6-1.5,1.2-2.4,1.7
			c0,0,0,0,0,0c-0.2,0.1-0.4,0.3-0.7,0.4c-0.1,0-0.1,0.1-0.2,0.1c-0.2,0.1-0.3,0.2-0.5,0.3c-0.1,0.1-0.2,0.1-0.4,0.2
			c-0.1,0.1-0.2,0.1-0.4,0.2c-0.2,0.1-0.3,0.2-0.5,0.2c-0.1,0-0.1,0.1-0.2,0.1c-0.2,0.1-0.4,0.2-0.7,0.2c0,0-0.1,0-0.1,0
			c-0.2,0.1-0.5,0.2-0.7,0.2c0,0-0.1,0-0.1,0c-0.2,0.1-0.5,0.1-0.7,0.2c-0.1,0-0.2,0-0.3,0.1c-0.2,0-0.4,0.1-0.6,0.1
			c-0.1,0-0.3,0-0.4,0.1c0,0,0,0,0,0c-3.4,0.6-6.8,0.2-9.9-0.9c0,0,0,0,0,0c-3.3-1.2-6-3.2-8.1-5.7c0,0,0,0,0,0
			c-0.6-0.7-1.2-1.5-1.7-2.3c0,0,0,0,0-0.1c-0.1-0.2-0.2-0.4-0.4-0.6c0-0.1-0.1-0.2-0.1-0.2c-0.1-0.2-0.2-0.3-0.2-0.5
			c-0.1-0.1-0.1-0.3-0.2-0.4c0-0.1-0.1-0.2-0.1-0.3C7,31,6.9,30.8,6.9,30.6c0-0.1,0-0.1-0.1-0.2c-0.1-0.2-0.2-0.5-0.3-0.7
			c-0.8-2.1-1.2-4.3-1.2-6.7C5.3,12.5,13.9,4,24.5,4c0.1,0,0.1,0,0.2,0C9.1,1.9,1.3,14.7,1.3,14.7c1.5-1.4,2.7-1.2,3.6-0.5
			C0.2,20.6,0,27.5,0,27.5c0.6-1.9,1.7-2.4,2.8-2.2c-0.9,7.8,2.5,13.8,2.5,13.8c-0.4-2,0.3-2.9,1.3-3.3c3.1,7.3,9.1,10.9,9.1,10.9
			c-1.4-1.5-1.2-2.7-0.5-3.6c6.3,4.7,13.3,4.9,13.3,4.9c-1.9-0.6-2.4-1.7-2.2-2.8c7.8,0.9,13.9-2.5,13.9-2.5c-2,0.4-2.9-0.3-3.3-1.3
			C44.2,38.3,47.8,32.3,47.8,32.3z"/>
		<g>
			<path fill="#FFFFFF" d="M38.7,28.1c0,0,1.9-3.8-0.9-5.5c-4.1-2.5-16.2,3.4-16.2,3.4s10.2-7.7,8.7-10.6c-1.8-3.6-9.7-1-9.7-1
				c8.7-3.2,7.8-8.5,7.8-8.5C18.8,3.5,9.2,9.8,7.1,19.5C5,29.2,11.1,38.7,20.8,40.8c9.7,2.1,19.3-4.1,21.4-13.8
				C42.2,27.1,41.3,24.9,38.7,28.1z"/>
			<path fill="#FFFFFF" d="M53,5.6c0,0-11.1,6.3-13.3,3.6C37.4,6.3,42.8,0,42.8,0s-6.9,7-14.4,5.7c9.7,2.1,15.9,11.7,13.8,21.4
				c0,0,1.1-4.6,5.7-5c0,0-3.9,0-4.6-2.4C42.7,17.3,44.2,13.7,53,5.6z"/>
		</g>
		<path fill="#FFFFFF" d="M164.5,13.5c1.4,0,2.5,1.1,2.5,2.6c0,1.5-1.1,2.6-2.5,2.6c-1.4,0-2.6-1.1-2.6-2.6
			C161.9,14.6,163.1,13.5,164.5,13.5L164.5,13.5z M164.5,13.9c-1.1,0-2.1,1-2.1,2.2c0,1.2,0.9,2.2,2.1,2.2c1.1,0,2.1-1,2.1-2.2
			C166.5,14.8,165.6,13.9,164.5,13.9L164.5,13.9z M164,17.5h-0.5v-2.9c0.2,0,0.5-0.1,0.8-0.1c0.4,0,0.7,0.1,0.9,0.2
			c0.2,0.1,0.3,0.3,0.3,0.6c0,0.4-0.3,0.6-0.6,0.7v0c0.3,0,0.4,0.3,0.5,0.7c0.1,0.4,0.1,0.6,0.2,0.7h-0.5c-0.1-0.1-0.1-0.4-0.2-0.7
			c-0.1-0.4-0.3-0.5-0.6-0.5H164V17.5z M164,15.9h0.3c0.4,0,0.7-0.1,0.7-0.5c0-0.3-0.2-0.5-0.7-0.5c-0.1,0-0.3,0-0.3,0V15.9z"/>
	</g>
	<g>
		<path fill="#FFFFFF" d="M174.4,29.1v6.7h-3.7V17.3h7.1c2.1,0,3.8,0.5,5,1.6s1.8,2.5,1.8,4.3s-0.6,3.2-1.8,4.3s-2.9,1.6-5,1.6
			H174.4z M174.4,26.2h3.4c1,0,1.8-0.3,2.3-0.8c0.5-0.6,0.8-1.3,0.8-2.2c0-0.9-0.3-1.6-0.8-2.2c-0.5-0.6-1.3-0.9-2.4-0.9h-3.4V26.2z
			"/>
		<path fill="#FFFFFF" d="M194.9,35.8c-0.1-0.3-0.3-0.6-0.3-1c-0.1-0.3-0.2-0.7-0.2-1.1c-0.4,0.7-0.9,1.2-1.5,1.7s-1.4,0.7-2.2,0.7
			c-1.4,0-2.5-0.4-3.3-1.1c-0.8-0.7-1.2-1.8-1.2-3c0-1.3,0.5-2.4,1.6-3.1c1-0.7,2.5-1.1,4.5-1.1h2.1v-1.1c0-0.7-0.2-1.2-0.5-1.5
			s-0.9-0.5-1.5-0.5c-0.6,0-1.1,0.1-1.4,0.4c-0.3,0.3-0.5,0.7-0.5,1.2h-3.6l0-0.1c-0.1-1.2,0.4-2.2,1.5-3c1.1-0.8,2.5-1.3,4.2-1.3
			c1.7,0,3,0.4,4,1.2c1,0.8,1.5,2,1.5,3.6v5.7c0,0.6,0,1.2,0.1,1.8c0.1,0.6,0.3,1.1,0.5,1.7H194.9z M191.6,33.3
			c0.6,0,1.2-0.2,1.7-0.5s0.9-0.7,1-1.1v-1.9h-2.1c-0.8,0-1.4,0.2-1.8,0.6c-0.4,0.4-0.6,0.9-0.6,1.4c0,0.5,0.2,0.8,0.5,1.1
			C190.6,33.2,191,33.3,191.6,33.3z"/>
		<path fill="#FFFFFF" d="M208,25.2l-1.4,0c-0.5,0-1,0.1-1.4,0.3s-0.6,0.5-0.8,1v9.3h-3.7V22.1h3.4l0.2,2c0.3-0.7,0.7-1.3,1.2-1.7
			c0.5-0.4,1.1-0.6,1.8-0.6c0.2,0,0.4,0,0.5,0c0.2,0,0.3,0.1,0.5,0.1L208,25.2z"/>
		<path fill="#FFFFFF" d="M214.6,18.7v3.4h2.3v2.6h-2.3v7c0,0.5,0.1,0.9,0.3,1.1c0.2,0.2,0.5,0.3,0.9,0.3c0.2,0,0.4,0,0.5,0
			c0.1,0,0.3-0.1,0.5-0.1l0.3,2.7c-0.4,0.1-0.7,0.2-1.1,0.3c-0.4,0.1-0.7,0.1-1.1,0.1c-1.3,0-2.3-0.4-3-1.1c-0.7-0.7-1-1.8-1-3.3v-7
			h-2v-2.6h2v-3.4H214.6z"/>
		<path fill="#FFFFFF" d="M222.6,22.1l0.2,2c0.5-0.7,1-1.2,1.7-1.6s1.4-0.6,2.2-0.6c1.4,0,2.5,0.4,3.2,1.3c0.8,0.9,1.2,2.3,1.2,4.2
			v8.4h-3.7v-8.4c0-1-0.2-1.7-0.5-2.1c-0.3-0.4-0.9-0.6-1.5-0.6c-0.5,0-1,0.1-1.5,0.3c-0.4,0.2-0.8,0.5-1,0.9v9.9h-3.7V22.1H222.6z"
			/>
		<path fill="#FFFFFF" d="M239.9,36.1c-2,0-3.6-0.6-4.8-1.9c-1.2-1.3-1.7-2.9-1.7-4.9v-0.5c0-2.1,0.6-3.7,1.7-5.1s2.7-2,4.6-2
			c1.8,0,3.3,0.6,4.2,1.7c1,1.1,1.5,2.7,1.5,4.6V30h-8.2l0,0.1c0.1,0.9,0.3,1.7,0.9,2.3c0.5,0.6,1.3,0.9,2.3,0.9
			c0.8,0,1.5-0.1,2.1-0.3c0.6-0.2,1.2-0.4,1.8-0.8l1,2.3c-0.5,0.4-1.3,0.8-2.2,1.1S241,36.1,239.9,36.1z M239.6,24.7
			c-0.7,0-1.3,0.3-1.7,0.8c-0.4,0.5-0.6,1.2-0.7,2l0,0.1h4.5v-0.3c0-0.8-0.2-1.4-0.5-1.9C240.9,24.9,240.4,24.7,239.6,24.7z"/>
		<path fill="#FFFFFF" d="M254.7,25.2l-1.4,0c-0.5,0-1,0.1-1.4,0.3s-0.6,0.5-0.8,1v9.3h-3.7V22.1h3.4l0.2,2c0.3-0.7,0.7-1.3,1.2-1.7
			c0.5-0.4,1.1-0.6,1.8-0.6c0.2,0,0.4,0,0.5,0c0.2,0,0.3,0.1,0.5,0.1L254.7,25.2z"/>
	</g>
</g>
</svg>
