<?xml version="1.0" encoding="utf-8"?>
<!-- Generator: Adobe Illustrator 19.0.1, SVG Export Plug-In . SVG Version: 6.00 Build 0)  -->
<svg version="1.1" id="Layer_1" xmlns="http://www.w3.org/2000/svg" xmlns:xlink="http://www.w3.org/1999/xlink" x="0px" y="0px"
	 viewBox="0 0 20 14" style="enable-background:new 0 0 20 14;" xml:space="preserve">
<path d="M10,7.2"/>
<g>
	<path d="M18,0H2C0.9,0,0,0.9,0,2v10c0,1.1,0.9,2,2,2h16c1.1,0,2-0.9,2-2V2C20,0.9,19.1,0,18,0z M17.3,1L10,6.7L2.6,1H17.3z M1,12V2
		c0-0.3,0.1-0.6,0.3-0.7l5.5,4.3L1,12.2C1,12.1,1,12.1,1,12z M18,13H2c-0.1,0-0.2,0-0.3-0.1l5.9-6.8L10,8l2.4-1.8l5.9,6.8
		C18.2,13,18.1,13,18,13z M19,12c0,0.1,0,0.1,0,0.2l-5.8-6.6l5.5-4.3C18.9,1.4,19,1.7,19,2V12z"/>
</g>
</svg>
