<?xml version="1.0" encoding="utf-8"?>
<!-- Generator: Adobe Illustrator 19.0.1, SVG Export Plug-In . SVG Version: 6.00 Build 0)  -->
<svg version="1.1" id="Layer_1" xmlns="http://www.w3.org/2000/svg" xmlns:xlink="http://www.w3.org/1999/xlink" x="0px" y="0px"
	 viewBox="0 0 21 15.5" style="enable-background:new 0 0 21 15.5;" xml:space="preserve">
<g>
	<g>
		<path d="M6.5,14.5l0.7-4.1l3.4,3.4L6.5,14.5z M18.3,6l-6.8,6.8c-0.3,0.3-0.7,0.3-1,0l-2.4-2.4c-0.3-0.3-0.3-0.7,0-1L15,2.7
			c0.3-0.3,0.7-0.3,1,0l2.4,2.4C18.6,5.4,18.6,5.8,18.3,6z M20.8,3.6L19.4,5L16,1.6l1.4-1.4c0.5-0.5,1,0,1,0l2.4,2.4
			C20.8,2.6,21.3,3.1,20.8,3.6z"/>
	</g>
	<path d="M6,14.5H0v1h6V14.5z"/>
</g>
</svg>
