<?xml version="1.0" encoding="utf-8"?>
<!-- Generator: Adobe Illustrator 19.0.0, SVG Export Plug-In . SVG Version: 6.00 Build 0)  -->
<svg version="1.1" id="Layer_1" xmlns="http://www.w3.org/2000/svg" xmlns:xlink="http://www.w3.org/1999/xlink" x="0px" y="0px"
	 viewBox="0 0 16 20" style="enable-background:new 0 0 16 20;" xml:space="preserve">
<g>
	<path d="M1,0l14,0c0.6,0,1,0.4,1,1s-0.4,1-1,1H1C0.4,2,0,1.6,0,1C0,0.4,0.4,0,1,0z"/>
	<path d="M8,6c0.6,0,1,0.4,1,1v12c0,0.6-0.4,1-1,1s-1-0.4-1-1V7C7,6.4,7.4,6,8,6z"/>
	<path d="M8,4.1L8,4.1c0.3,0,0.6,0.1,0.8,0.3l6.1,6.9c0.4,0.4,0.3,1-0.1,1.4c-0.4,0.4-1,0.3-1.4-0.1L8,6.7l-5.4,6.1
		c-0.4,0.4-1,0.5-1.4,0.1c-0.4-0.4-0.5-1-0.1-1.4l6.1-7C7.5,4.3,7.7,4.1,8,4.1z"/>
</g>
</svg>
