<?xml version="1.0" encoding="utf-8"?>
<!-- Generator: Adobe Illustrator 19.0.1, SVG Export Plug-In . SVG Version: 6.00 Build 0)  -->
<svg version="1.1" id="Layer_1" xmlns="http://www.w3.org/2000/svg" xmlns:xlink="http://www.w3.org/1999/xlink" x="0px" y="0px"
	 viewBox="0 0 20 19" style="enable-background:new 0 0 20 19;" xml:space="preserve">
<g>
	<path d="M10,11.2"/>
	<g>
		<path d="M18,5V0H2v5C0.9,5,0,5.9,0,7v10c0,1.1,0.9,2,2,2h16c1.1,0,2-0.9,2-2V7C20,5.9,19.1,5,18,5z M3,1h14v5l-7,5.3L3,6V1z M1,17
			V7c0-0.3,0.1-0.6,0.3-0.7l5.5,4.3L1,17.2C1,17.1,1,17.1,1,17z M18,18H2c-0.1,0-0.2,0-0.3-0.1l5.9-6.8L10,13l2.4-1.8l5.9,6.8
			C18.2,18,18.1,18,18,18z M19,17c0,0.1,0,0.1,0,0.2l-5.8-6.6l5.5-4.3C18.9,6.4,19,6.7,19,7V17z"/>
	</g>
</g>
</svg>
