<?xml version="1.0" encoding="utf-8"?>
<!-- Generator: Adobe Illustrator 19.0.1, SVG Export Plug-In . SVG Version: 6.00 Build 0)  -->
<svg version="1.1" id="Layer_1" xmlns="http://www.w3.org/2000/svg" xmlns:xlink="http://www.w3.org/1999/xlink" x="0px" y="0px"
	 viewBox="0 0 220 220" style="enable-background:new 0 0 220 220;" xml:space="preserve">
<g>
	<g>
		<path d="M-1018.5,142l0.7-4.1l3.4,3.4L-1018.5,142z M-1006.7,133.5l-6.8,6.8c-0.3,0.3-0.7,0.3-1,0l-2.4-2.4c-0.3-0.3-0.3-0.7,0-1
			l6.8-6.8c0.3-0.3,0.7-0.3,1,0l2.4,2.4C-1006.4,132.8-1006.4,133.3-1006.7,133.5z M-1004.2,131.1l-1.4,1.4l-3.4-3.4l1.4-1.4
			c0.5-0.5,1,0,1,0l2.4,2.4C-1004.2,130.1-1003.7,130.6-1004.2,131.1z"/>
	</g>
	<path d="M-1019,142h-6v1h6V142z"/>
</g>
</svg>
