<?xml version="1.0" encoding="utf-8"?>
<!-- Generator: Adobe Illustrator 19.0.0, SVG Export Plug-In . SVG Version: 6.00 Build 0)  -->
<svg version="1.1" id="Layer_1" xmlns="http://www.w3.org/2000/svg" xmlns:xlink="http://www.w3.org/1999/xlink" x="0px" y="0px"
	 viewBox="0 0 16.5 22.5" style="enable-background:new 0 0 16.5 22.5;" xml:space="preserve">
<g>
	<g>
		<g>
			<path d="M8.5,4v2.4C8.5,7.3,9.2,8,10.1,8h2.4v13h-11V4H8.5 M9.5,3H1.4C0.8,3,0.5,3.3,0.5,3.9v17.1c0,0.6,0.3,0.9,0.9,0.9h11.1
				c0.6,0,0.9-0.3,0.9-0.9V7h-3.4h0C9.8,7,9.5,6.7,9.5,6.4V3L9.5,3z"/>
		</g>
	</g>
	<g>
		<polygon points="6.5,11 2.5,11 2.5,12 6.5,12 6.5,11 		"/>
	</g>
	<g>
		<polygon points="11.5,17 2.5,17 2.5,18 11.5,18 11.5,17 		"/>
	</g>
	<g>
		<polygon points="11.5,14 2.5,14 2.5,15 11.5,15 11.5,14 		"/>
	</g>
	<polygon points="12.8,7.7 8.8,3.7 9.5,3 13.5,7 	"/>
	<g>
		<path d="M11.5,1v2.4c0,0.9,0.7,1.6,1.6,1.6h2.4v13h-1v1h1.1c0.6,0,0.9-0.3,0.9-0.9V4h-3.4h0c-0.3,0-0.6-0.3-0.6-0.6V0l0,0H4.4
			C3.8,0,3.5,0.3,3.5,0.9V2h1V1H11.5"/>
	</g>
	<polygon points="15.8,4.7 11.8,0.7 12.5,0 16.5,4 	"/>
</g>
</svg>
